/* XPM */
static char *_d8448ffb9f04e2cb715455389b0144eW4UYkV2ZJblhx3qy[] = {
/* columns rows colors chars-per-pixel */
"64 64 217 2 ",
"   c None",
".  c #0D0C0B",
"X  c #131212",
"o  c #191614",
"O  c #1E1A17",
"+  c #1D1B19",
"@  c #211C17",
"#  c #231E1A",
"$  c #291E15",
"%  c #25201C",
"&  c #2A221E",
"*  c #2E2217",
"=  c #31251D",
"-  c #36261B",
";  c #262322",
":  c #2A2422",
">  c #2E292D",
",  c #2D2827",
"<  c #322724",
"1  c #3B2B22",
"2  c #322C2C",
"3  c #372C2A",
"4  c #36312E",
"5  c #3D342E",
"6  c #302B30",
"7  c #3D3230",
"8  c #393738",
"9  c #4C311F",
"0  c #6A3814",
"q  c #452B2A",
"w  c #453127",
"e  c #553828",
"r  c #433432",
"t  c #453B36",
"y  c #483C36",
"u  c #4C3A39",
"i  c #473938",
"p  c #533E3E",
"a  c #5F3E37",
"s  c #4D423D",
"d  c #53403F",
"f  c #64422D",
"g  c #72472C",
"h  c #794F34",
"j  c #774D32",
"k  c #63453B",
"l  c #423F40",
"z  c #4D4645",
"x  c #544543",
"c  c #5D4544",
"v  c #5B4D4A",
"b  c #524C49",
"n  c #5A5553",
"m  c #5E5A58",
"M  c #524E4F",
"N  c #614646",
"B  c #654A4B",
"V  c #694D4E",
"C  c #674647",
"Z  c #66544B",
"A  c #745847",
"S  c #6D5253",
"D  c #625D5B",
"F  c #6A5956",
"G  c #725556",
"H  c #745659",
"J  c #745B5B",
"K  c #7A5B5C",
"L  c #785753",
"P  c #7C695E",
"I  c #78675A",
"U  c #65605E",
"Y  c #7E5E60",
"T  c #735E61",
"R  c #676466",
"E  c #7A6C68",
"W  c #777472",
"Q  c #813639",
"!  c #875637",
"~  c #8B593A",
"^  c #875638",
"/  c #935C3B",
"(  c #93553E",
")  c #8C483C",
"_  c #8A5C48",
"`  c #945B44",
"'  c #805F5A",
"]  c #926246",
"[  c #956145",
"{  c #876659",
"}  c #936959",
"|  c #916A54",
" . c #A57455",
".. c #815F61",
"X. c #846364",
"o. c #896565",
"O. c #8A6669",
"+. c #8C686A",
"@. c #826C68",
"#. c #906C6E",
"$. c #887264",
"%. c #936E71",
"&. c #847775",
"*. c #947173",
"=. c #997979",
"-. c #866D71",
";. c #A17D7F",
":. c #998074",
">. c #9D817B",
",. c #A7816C",
"<. c #B7886A",
"1. c #A48A7C",
"2. c #AA8C7D",
"3. c #A18476",
"4. c #AE927E",
"5. c #BC9177",
"6. c #B08772",
"7. c #CB9B7B",
"8. c #C59677",
"9. c #937E85",
"0. c #807E85",
"q. c #A17F81",
"w. c #8B8A8D",
"e. c #888386",
"r. c #938989",
"t. c #918D95",
"y. c #9B9493",
"u. c #9C9B9D",
"i. c #8E8894",
"p. c #AA8D81",
"a. c #AC8A8C",
"s. c #A58583",
"d. c #AA9689",
"f. c #B69489",
"g. c #A69497",
"h. c #B69395",
"j. c #BB9B9D",
"k. c #B89796",
"l. c #BCA59A",
"z. c #9D9CA5",
"x. c #B99FA2",
"c. c #A29DA0",
"v. c #ABA7A6",
"b. c #A9A7A9",
"n. c #BCAAA3",
"m. c #ABA8B2",
"M. c #BEBAB9",
"N. c #B2AEB3",
"B. c #C89E84",
"V. c #D3A98E",
"C. c #CCAD9C",
"Z. c #C6AA9A",
"A. c #D1AE9E",
"S. c #D6AC93",
"D. c #CDB09C",
"F. c #D5B29E",
"G. c #DBB298",
"H. c #CDA188",
"J. c #E2B79A",
"K. c #E4B99D",
"L. c #E8B89C",
"P. c #C29FA1",
"I. c #C4A4A3",
"U. c #CCACA6",
"Y. c #C9A7A8",
"T. c #CCAAAC",
"R. c #D1ADAF",
"E. c #CDB4A9",
"W. c #D4B2A3",
"Q. c #DDBAA4",
"!. c #D3B2AB",
"~. c #DDBBAC",
"^. c #DAB8A6",
"/. c #D3AFB1",
"(. c #C8BABB",
"). c #D5B1B3",
"_. c #D7BABD",
"`. c #D6B6B7",
"'. c #E2BEAA",
"]. c #E7BEA3",
"[. c #E2BFB1",
"{. c #E5C2AC",
"}. c #ECC5AC",
"|. c #ECC5AB",
" X c #E4C0B4",
".X c #EECAB4",
"XX c #EAC5B4",
"oX c #F2CDB3",
"OX c #F1CCB9",
"+X c #F6D1B9",
"@X c #FCD6BC",
"#X c #FED9BE",
"$X c #F8D1B7",
"%X c #BDB9C3",
"&X c #B7B8C4",
"*X c #CDBECA",
"=X c #CCCCCB",
"-X c #C5C1C4",
";X c #DBC2C6",
":X c #D9C9CA",
">X c #C8C6D1",
",X c #D5CBD5",
"<X c #D9D5D8",
"1X c #FFDBC1",
"2X c #E1CFD4",
"3X c #E3D9DB",
"4X c #E6E0DF",
"5X c #DDDAE6",
"6X c #E2DAE5",
"7X c #E8E3E9",
"8X c #F4ECEC",
"9X c #E9E5F1",
"0X c #F2EDF9",
"qX c #FBF5F4",
"wX c #F6F2FF",
"eX c #F9F5FF",
"rX c #FFFBFF",
/* pixels */
"                                                                                                                                ",
"                                                    + & c N r r p r p r : 1 r <                                                 ",
"                                                  # 3 C X.X.N B K o.+.o.H C l a &                                               ",
"                                                7 x K %.+...G +.+.+.+.+.+...C N q #                                             ",
"                                            v E a.j.s.k.q...q.P.h.a.#.O.+.+.o.G V r                                             ",
"                                            J ).)./.T.Y.I.P./.)././.h.;.*.+.+.+.#.G =                                           ",
"                                        % J *.T././././././.R.R././././.P.*.+.+.' C r @                                         ",
"                                          n `.;X_._./././.Y.P.T.P././.).).P.*...V l p #                                         ",
"                                          v `.9X2X2X/./.U.E..X+XT.R.Y./././.a.' C S C # #                                       ",
"                                      3 F j.).2X;X;X/./.T.[.#X@X.XT.P./././.Y.%.o.+...N <                                       ",
"                                      , v j.)./.T.T.T.).Y.!.@X#X'.Y.Y.R.`.`._.h.#.+.+.o.r                                       ",
"                                        + @.).!.~.I.W.T.j.E.+X@X~.'.@XR.`.*X:XT.q.+.+.+.r                                       ",
"                                          x T.W.OXG.<.S.|.+X#X#X1X}.L.{.U.U.I.n.%.H o...r                                       ",
"                                          s j.R.W.{.B. .].#X#XoX8. .<.oX@X@X!.T.h.S C V <                                       ",
"                                          & s U 4 R b @ D.#X#XoXx A 4..X#X+XT.T.`.P.' K l                                       ",
"                                            @ o 4 5XN.; D.1X#X1X=Xw.+ t 1..X).).OX$X].' L                                       ",
"                                                4.D.n.4.oXS.$X}.n.qXc.X 5  X[.XXJ.J.'.u <                                       ",
"                                                4.8.7.#XK./ |.1XD.Z.W x F.OX).+X].F.I # @                                       ",
"                                                I G.{.#XoX8.oX#X$XV.5.{.OXI.I.[.I.v +                                           ",
"                                                % P $X#X#X#X#X#X1XG.8.$XOX{.T.).j.J                                             ",
"                                                  @ $.oX#X1X#X#X#X#X@X#X@XU.k.l.v +                                             ",
"                                                    % s 1.Z.+X1X#X#X#X}.$.5 t 8 :                                               ",
"                                                          & F { H.L.#X,.o                                                       ",
"                                                            $ b E Z.1X;Xz                                                       ",
"                                                            w `.5X5X:X0X=Xh r ;                                                 ",
"                                                          & f l.8 + ; >XE.] o.S <                                               ",
"                                                        ; x _ g.8 . R 0.2._ =.@.,                                               ",
"                                                      % e.n.L T 0., 5Xt.'  .<Xm.O %                                             ",
"                                            * * @ @ + O >X7X} G T l ,X*X} 2.eX9X$.g g &                                         ",
"                                          * 0 0 9 % > t.7X9X>.G H K ..X.o.g.*XwXZ.^ ` j =                                       ",
"                                        8 n | d.M.W 8 0XeXm.T K V C V ..Y 9.,X0X9X[ ~ / 1                                       ",
"                              2 r.v.y.w.b.=X=X=X=Xv.u.7X,XN.-.J ........K 9.wXwXeXl.! / f &                                     ",
"                                U 7XqX4X=X=X=X=X-Xc.<Xc.^.F.X.S ..+.O.B G 9.wXwXeXE.! / / e                                     ",
"                                  D 4XqX<X=X=X=X=X=Xb.E.G.J.2.G H ..K N G &.<X9.&X:.~ ^ h :                                     ",
"                                    m 4X8X<X=X=X=XM.m $.@XJ.6.G B B B V =.1.U.oXE.:.~ ~ h -                                     ",
"                                      D 7XqX3X=Xb.U % r Q.1X8.{ ;.X.o.C..X1X#XV.] ~ / / ` ) 1                                   ",
"                                        n v.8XM.W %     P Q.7.7.$XA.^.1X@XA.f.` / / / / ( ) w                                   ",
"                                          b y.b o     % p s.G.7.].1X#X'.2.P Y ~ ~ ~ ~ ~ / e                                     ",
"                                                    # t Y J { B.J.8.,.J H o.O.{ ~ ~ ^ ~ / e                                     ",
"                                                    3 P +.Y K f.5.g k G X.+.+.o.` ~ / / <.Z                                     ",
"                                                    3 o.O.O...H G L J X.+.+.+.+.` / / / B.&.                                    ",
"                                                    u O.+.+.H G V o.O.+.+.+.+.+.} ( / / ` '                                     ",
"                                                  : G O.O.+.X.J ..+.+.+.+.+.+.+.o.[ ^ h a C                                     ",
"                                                  i X.o.X.+.+.V X.O.+.O.+.+.+.+.+.o.N # q Q &                                   ",
"                                                # d X.o.o.O.O.s Y O.O.+.+.+.+.+.#.+.K & & q &                                   ",
"                                                % x K V G G J r i G O.o.+.O...H G +.K &                                         ",
"                                                  7 V N N B B d @ B ..K K K L N S S c %                                         ",
"                                                    ; u >.f.f.Z @ l G K X.E +.B r #                                             ",
"                                                      % p.W.1.&   : : 7 3.D.F.5                                                 ",
"                                                        p.W.:.          P {.{.t                                                 ",
"                                                        p.W.:.          P }.{.t                                                 ",
"                                                        p.W.:.          P }.{.s                                                 ",
"                                                        p.W.:.          P ~.{.t                                                 ",
"                                                      # 2.W.:.          Z D.Q.s                                                 ",
"                                                      M (.,Xy.          , l.~.t                                                 ",
"                                                      4 z.%Xw.          e.<X(.s                                                 ",
"                                                        w.m.m           z w.r.4                                                 ",
"                                                        w.m.m           & b.%X:.                                                ",
"                                                      ; &X9X            , &XrXu.                                                ",
"                                                    + X R             % ; M t.8                                                 ",
"                                                o X X X X .       # > > 6 6 > ,                                                 ",
"                                                o X X X X         ; 6 6 6 6 > ,                                                 ",
"                                                + O o + @ + @     @ % % # ; ; +                                                 ",
"                                                                                                                                "
};
