/* XPM */
static char *MzA0NTA5MTQ4XzYzMTAzMzQzMTk2OTM1OV81MTc4ODkwMTIzNTcyOTQxMzYxX24lMjgxJTI5[] = {
/* columns rows colors chars-per-pixel */
"64 64 234 2 ",
"   c #050000",
".  c #0C0100",
"X  c #0C0806",
"o  c #140201",
"O  c #1B0302",
"+  c #1C0B03",
"@  c #140A0B",
"#  c #1B0D0C",
"$  c #160905",
"%  c #1B120D",
"&  c #1C1412",
"*  c #1D191A",
"=  c #1E0E11",
"-  c #260908",
";  c #350C04",
":  c #2A1306",
">  c #361C0E",
",  c #341508",
"<  c #241414",
"1  c #2C1414",
"2  c #241915",
"3  c #241B1A",
"4  c #2C1C1C",
"5  c #2A1B16",
"6  c #341C1B",
"7  c #331617",
"8  c #2A211E",
"9  c #34231A",
"0  c #3C1F20",
"q  c #231F20",
"w  c #242123",
"e  c #2D2423",
"r  c #2E2925",
"t  c #332424",
"y  c #3B2323",
"u  c #3B2A22",
"i  c #332C2B",
"p  c #3B2C2B",
"a  c #362927",
"s  c #3D312F",
"d  c #3C3224",
"f  c #363434",
"g  c #3D3634",
"h  c #48210D",
"j  c #472413",
"k  c #582A17",
"l  c #57321B",
"z  c #512C12",
"x  c #622C0C",
"c  c #632D17",
"v  c #653419",
"b  c #6B3718",
"n  c #432C2C",
"m  c #482B28",
"M  c #562E29",
"N  c #43332C",
"B  c #4A322B",
"V  c #4A3226",
"C  c #563726",
"Z  c #433433",
"A  c #4C3434",
"S  c #423B3A",
"D  c #4D3C3C",
"F  c #473A35",
"G  c #523535",
"H  c #533C3C",
"J  c #503E30",
"K  c #6B3B26",
"L  c #633D2A",
"P  c #753E23",
"I  c #4C423C",
"U  c #58433C",
"Y  c #564029",
"T  c #6D432D",
"R  c #66412E",
"E  c #784424",
"W  c #6A4B39",
"Q  c #774931",
"!  c #76523C",
"~  c #583F42",
"^  c #4C4443",
"/  c #4B4646",
"(  c #544443",
")  c #5A4343",
"_  c #5B4C4C",
"`  c #564949",
"'  c #55524E",
"]  c #5E514E",
"[  c #5C4E51",
"{  c #5B5654",
"}  c #624546",
"|  c #634D4B",
" . c #664849",
".. c #7E4D42",
"X. c #65554C",
"o. c #7A5844",
"O. c #6A5352",
"+. c #645D5B",
"@. c #6B5C5A",
"#. c #675854",
"$. c #725C5B",
"%. c #765857",
"&. c #634F50",
"*. c #6C615B",
"=. c #68615B",
"-. c #716259",
";. c #745E60",
":. c #6D6462",
">. c #6E6B69",
",. c #736463",
"<. c #7C6263",
"1. c #7C6669",
"2. c #746D6D",
"3. c #7C6C6B",
"4. c #786A65",
"5. c #77716D",
"6. c #7B7373",
"7. c #81421F",
"8. c #86472A",
"9. c #884A35",
"0. c #954939",
"q. c #8C5433",
"w. c #82543C",
"e. c #895439",
"r. c #915637",
"t. c #94623F",
"y. c #8C5D44",
"u. c #855A45",
"i. c #975A43",
"p. c #855B59",
"a. c #8F5249",
"s. c #A45D4E",
"d. c #8A634B",
"f. c #9B6243",
"g. c #94654B",
"h. c #966349",
"j. c #8A6754",
"k. c #946750",
"l. c #A16849",
"z. c #A76656",
"x. c #836466",
"c. c #8A6566",
"v. c #846669",
"b. c #846A6B",
"n. c #8B6C6D",
"m. c #8A6869",
"M. c #926C6D",
"N. c #88726D",
"B. c #8B6E72",
"V. c #837372",
"C. c #8C7374",
"Z. c #8B7B7C",
"A. c #877A76",
"S. c #917273",
"D. c #937C7D",
"F. c #997A7D",
"G. c #97767D",
"H. c #957668",
"J. c #8E837B",
"K. c #858178",
"L. c #97847A",
"P. c #A88A78",
"I. c #967880",
"U. c #8D8381",
"Y. c #8C8886",
"T. c #8E8889",
"R. c #928583",
"E. c #928985",
"W. c #938D8B",
"Q. c #9A8989",
"!. c #99918F",
"~. c #95908A",
"^. c #988D93",
"/. c #9B9494",
"(. c #9E9A9B",
"). c #9D9897",
"_. c #A79388",
"`. c #A29594",
"'. c #A49A95",
"]. c #AC9C95",
"[. c #A49D9C",
"{. c #AA9D9C",
"}. c #B09E9B",
"|. c #B89889",
" X c #9FA19E",
".X c #A5A19E",
"XX c #AAA29E",
"oX c #B3A29B",
"OX c #B8A69A",
"+X c #A59EA1",
"@X c #AA9EA1",
"#X c #A6A2A2",
"$X c #ADA3A4",
"%X c #A9A5A5",
"&X c #ADA6A6",
"*X c #A9A3A3",
"=X c #ACA9A6",
"-X c #ACA5A9",
";X c #AEA9A9",
":X c #B2A5A5",
">X c #B2AAA6",
",X c #B1A6A9",
"<X c #B3ABAB",
"1X c #B9ABAC",
"2X c #B8ADA7",
"3X c #BAB1AE",
"4X c #B3B0AE",
"5X c #B5AFB2",
"6X c #B8AFB0",
"7X c #B5B2B3",
"8X c #BCB2B2",
"9X c #BEB8B7",
"0X c #DA9C87",
"qX c #CCA391",
"wX c #C9B7AE",
"eX c #C1B5B4",
"rX c #C4BBB8",
"tX c #CABEBC",
"yX c #C4B9B4",
"uX c #CEB4A8",
"iX c #CCC2BC",
"pX c #C1C0BE",
"aX c #D6C5BC",
"sX c #E3C9BB",
"dX c #DBCCC4",
"fX c #D7CAC1",
"gX c #DDD8D3",
"hX c #EBD6CB",
"jX c #E7DBD4",
"kX c #EED6C9",
"lX c #FCE5D8",
"zX c #E5E2DD",
"xX c #F5F1EE",
"cX c #FFFCF8",
/* pixels */
"*X*X*X*X*X*X*X*X*X*X*X*X*X#X*X*X.X#X=X*X$X*X$X*X%X#X X;X=X[.XX*XoX&X{.{.$X%X#X#X#X X-X#X%X%XXX=X*X*X*X*X*X*X*X*X*X*X*X*X*X*X*X*X",
"*X*X*X*X*X*X*X*X#X*X*X*X*X@X*X%X=XXXXXXX$X$X@X*X#X#X;X X$X[.1X]./.1X8X:X*X#X-X%X-X%X%X X%X%X*X.X*X*X*X*X*X*X*X*X*X*X*X*X*X*X#X*X",
"*X*X*X*X*X*X#X*X*X*X*X*X#X*X#X*X=X.X*XXX*X:XXX*X=X#X=X X[.1X`.`._ _ 3.{.{.:X*X*X+X#X%X%X.X#X=X.X*X*X*X*X*X*X*X*X*X*X*X*X*X*X*X*X",
"*X*X*X*X*X*X*X*X*X*X*X*X*X*X*X%X.X.X=X*X*X*X*X*X#X.X X%X3X!.n 4 Z O.$.F Z @X{.-X<X,X[.*X#X%X=X.X*X*X*X*X#X*X*X*X*X#X*X*X*X*X*X*X",
"#X*X*X*X*X#X*X*X*X*X*X*X*X*X*X#X=X.X#X*X:X*X@X@X#X%X&X8XR.$ a a H $.%._ 0 ,.1X@X@X{.@X&X&X*X%X#X*X*X*X*X*X*X*X*X*X#X*X*X*X*X*X*X",
"*X*X*X*X*X*X*X*X*X*X*X*X*X*X*X%X*X#X#X*X@X*X:X@X#X>X5.t 4 p 1.) H ) A O.p 0 {.1X,X@X,X@X&X#X#X%X#X*X*X*X*X*X*X*X*X*X*X*X*X*X*X*X",
"*X*X*X*X*X*X*X*X*X*X*X*X*X*X*X*X%X#X@X*X:X$X@X:X3XQ.= D <.;.1.;. .%.b.n.b.~ ~ D.$X`.1X`.%X-X%X#X*X*X*X*X#X*X*X*X*X*X*X*X*X*X#X*X",
"*X*X*X*X*X*X*X*X*X*X*X#X*X*X*X*X%X*X#X*X@X:X:X@X@.4 &.D.~ V.B.b.x.B.x.n.v.v.) ~ D ;.1X@X-X*X#X-X*X*X*X*X*X*X*X*X*X*X*X*X*X*X*X*X",
"*X*X*X*X*X*X*X%X*X#X*X*X*X*X*X*X#X#X;X&X[.{.:Xt p ;.B.7 ~ Z #.G.S.n.S.x.B.B.S.n.<.&.&.1X*X#X-X#X*X*X*X*X*X*X*X*X*X*X*X*X*X*X*X*X",
"*X*X*X%X*X*X*X#X*X*X*X*X*X#X*X*X#X#X#X.X*XtX@.# I.B.7 0 G 0 ~ A 7 B %.S.v.m.M.v.1.V.0 :.1X+X+X;X*X*X*X*X*X*X*X*X*X@X*X*X*X*X*X*X",
"*X*X*X#X@X*X*X*X*X*X*X*X*X*X*X*X-X%X%X*X{.( < @.C.#.H 7 m 1 7 O  .7 - c.c.v.v.n.C.~ p ~ rXXX*X*X*X#X*X*X#X*X*X*X*X*X#X*X*X*X*X#X",
"*X*X*X*X*X*X*X*X*X*X*X*X*X*X*X*X[.-X*X&X!.@ 3.C.1.B.S.;.B.1 - &. .S. .G %.n.S.x.;.- ~ e U.>X#X.X@X%X*X*X*X*X*X*X*X*X*X*X*X*X*X*X",
"*X#X*X*X*X*X*X*X*X*X*X*X*X#X*X*X5X[.-X*X!.S b.1.b.v.v.S.O.o m n | C.B.B.G %.n.S.} G C.a V.1X.X.X*X*X*X*X*X#X*X*X*X*X*X*X*X*X*X*X",
"*X*X*X*X*X*X*X*X*X*X*X#X*X*X*X*X(.;X#X;X!.3 & &.I.v.S.c.v.- ~ ;.b.|  . .7 } c.S.%.A 3.G 3.1X=XXX*X*X*X*X*X*X*X*X*X*X*X*X*X*X*X*X",
"*X*X*X*X*X*X*X*X*X*X*X@X*X*X*X*X;X-X*X+X1X+.4 6 } $.c.B.B.A &.B.V.G n n O %.M.x.F.7 0 n e :X[.*X*X*X*X*X*X*X*X*X@X#X*X*X*X*X*X*X",
"@X*X*X*X*X*X#X*X*X*X*X*X*X*X*X*X+X-X*X*X8X+.a H 0 x.S.c.M.O.m &.1.F t O 7 C.c.n.m.x.1.$.a :X$XXX*X%X#X*X*X*X*X*X*X*X*X*X*X*X*X#X",
"%X*X*X*X#X*X*X*X@X%X*X*X*X*X@X%X%X@X@X-X5X+.[ V.B.v.p.c.M.c.p.- O $ . o m N.m.v.C.C.I.D < 1X<X-X@X@X%X*X*X*X*X*X*X*X*X*X*X*X*X*X",
"%X#X*X@X%X*X*X*X%X#X*X*X*X*X*X*X$X-X*X+X%X%X[ V.v.H 7  .M.c.M.%.6 . o 6 b.N.N.n. .G G D 4 1X@X%X%X%X*X*X*X%X*X*X#X*X*X*X#X*X*X*X",
"*X*X*X*X*X*X*X*X*X*X*X*X*X*X*X*X@X[.+X5X[.-X[ +._ 0 0 B.M.M.M.m.B.1.x.v.S.N.b.y O . &.~ 2.9X X-X%X*X*X*X%X@X*X*X*X*X*X%X*X*X*X*X",
"*X*X*X*X*X*X*X*X*X*X*X*X*X#X*X*X$X,X@X%X%X-XT.4 A n 6 B.c.c.n.B.B.x.G.n.x.v.S.G o u 5.+.@X(.;X%X*X*X*X*X#X*X*X*X*X*X*X@X*X*X*X*X",
"*X*X*X*X*X*X*X*X*X*X*X*X*X*X*X*X#X-X.X).%X$X1XZ o O ~ C.1.V.3.1.B.x.v.B.n.I.b.I.3.6 e [.#X;X=X X#X*X*X*X*X*X*X*X%X@X*X*X*X%X@X%X",
"@X*X*X*X#X*X*X*X*X*X*X*X*X#X*X*X-X#X&X;X-X[.$X[.p 4 O 1.Z.C.I.C.1.I.B.B.B.~ ;.( . p Z.XX;X.X X;X*X*X*X*X*X*X*X*X*X*X*X*X*X#X*X*X",
"*X*X%X*X*X*X*X*X*X#X*X*X*X*X*X*X%X+X.X*X.X.X[.oXZ [ . . = ` _ 4.I.&.~ 4 @ o .   5 ,.8X*X{.&X&X].*X*X*X*X#X*X*X*X*X*X*X*X*X*X*X*X",
"%X#X#X%X@X*X*X*X*X*X*X%X@X*X*X*X#X-X*XXX=X.X2XE.< S T.` = o   = q . .   e t t t &   :X*X:X:X*X*X@X%X*X*X*X*X*X*X*X#X*X#X*X*X*X*X",
"*X*X*X*X*X*X#X*X*X*X*X*X#X%X@X*X#X%X#X*X=X.XXX=XrX` ).).8 #.X.  @ 5 $ =.=.E.~.r ^ 2..X>X@X@XXX:X*X%X*X*X#X%X*X*X*X*X*X*X#X%X*X*X",
"*X*X*X*X*X*X*X*X*X*X*X*X*X*X%X*X%X%X*X*XXXXXXXXX=XA.8 t . 2 #.V X.-.#.8 % -.8 ' 9X4X#X.X*X:X*XXX@X#X*X@X%X@X*X*X*X*X*X*X%X@X*X*X",
"#X*X*X*X*X*X*X*X%X@X*X*X*X*X*X*X#X#X*X*X.XXX=X.X#X&X!.< V + sXkXP.P.lXP.V I 2 XX=X.X#X#X*X=X.X%X%X*X*X*X*X*X*X*X*X*X*X*X*X#X*X*X",
"*X*X*X*X*X*X*X*X#X*X*X*X*X*X*X*X%X%X#X*X%XXXXXXX&X>X^ 9 -.> j.j.! o.P.C > J.d /..X X=X%X*X%X.X.X*X*X*X*X*X*X*X*X*X*X*X*X*X*X*X*X",
"*X*X@X%X#X%X*X*X%X*X*X*X*X*X*X*X%X%X@X*X*X*X*X#X.X6XA.o J Q Q w.t.d.g.T o.W . XX2X*X%X X#X%X#X%X*X*X*X*X*X#X*X*X#X*X*X@X*X*X*X*X",
"*X*X*X*X*X*X*X%X*X*X*X%X*X*X*X*X-X@X$X*XXX*X#X#X*X).a %. .k.l.t.f.r.g.k.j.H.V XX*X'..X%X%X#X X;X*X*X*X*X*X*X*X*X%X*X*X*X*X*X*X*X",
"*X*X*X*X*X*X*X#X*X*X*X#X*X*X*X*X@X@X-X*X*X*X=X%X,X/ o O l d.q.8.q.q.w.w.o.! V X.eXoX*X#X;X;X@X@X*X*X*X*X*X*X*X*X*X*X*X*X*X%X@X%X",
"*X*X*X*X*X*X*X@X*X*X*X@X*X*X#X*X@X-X%X@XXX*X#X#X-Xp ( > k.v P 8.7.E 8.b T ! O + `.[.$X#X#X%X$X%X*X*X*X*X*X*X*X*X*X*X*X*X*X#X*X*X",
"*X*X*X#X*X*X%X#X*X*X*X*X*X*X#X*X+X-X+X-X-X-X%X7Xi =.jX: y.! P e.f.f.q.v d.W : 9 p eX@X-X-X X-X%X#X%X%X@X*X*X*X@X*X#X*X*X*X*X*X*X",
"*X*X*X%X*X*X*X*X*X*X#X*X*X*X*X*X#X-X-X@X-X@X@X5X=.2 b.> W k.v P b x x t.! Y U J.$ 1X-X@X+X7X-X@X%X%X%X#X*X*X*X*X*X%X*X*X#X*X*X*X",
"*X*X*X@X*X*X*X*X*X*X*X*X*X*X*X*X#X-X#X@X-X-X@X5X~.. . > L T i.i.q.q.7.T l : d K.  8 4XXX-X). X+X@X*X#X%X*X*X#X*X*X*X*X*X*X*X*X*X",
"*X*X*X*X*X*X*X*X*X*X*X*X*X*X*X*X#X#X%X@X-X@X*X:XA.. + ; - k c b t.E x l : . X   8 =.XX>X4X5X-X-X%X*X*X#X*X*X*X*X*X*X*X*X*X*X*X*X",
"*X*X#X%X*X*X*X*X*X@X%X*X*X*X*X*X.X%X.X%X*X*X*X*XXXwX_., k k x c E v K z : $ F r *.iXXXK.5.;X].:X@X%X*X*X*X*X*X*X*X*X%X@X*X%X#X*X",
"*X*X*X@X@X%X*X*X*X*X*X#X*X*X*X*X*X.X=X.X*X*X*XoX'.hXwXh M c 9.P 0Xg.P L C Y d .X@ A.4.{ r &X>XXX@X%X*X*X*X*X*X*X*X*X*X*X*X@X*X*X",
"*X*X*X*X*X#X*X*X*X*X*X*X*X*X*X*X=X#X.X.XXX*X:X].}.kXH.z c Q 9.r.0Xe.9.K l Y   ] N % :.4Xg >X.XXX$X*X*X*X*X*X*X*X*X*X%X*X*X*X*X*X",
"*X*X*X*X*X*X*X*X*X*X*X*X#X*X*X*X*X.XXX=XXX*XoX].uXlXC h w.l.f.i.z.s.h.g.l z + d 3.2 /.6.=.i .X4X*X*X*X*X*X*X*X*X#X*X#X*X*X*X*X*X",
"*X*X*X*X*X%X#X*X*X*X*X*X*X*X*X*X*X=X+X$XXXoX]._.sXsXh K g.E q.q.0.s.0.0.v l : . oXa f @XY.{ S >.).;X+X#X&X&X[.&X*X*X*X*X#X%X*X*X",
"#X*X*X*X*X@X*X*X*X*X*X*X*X*X*X*X*X&X$X$X*X:XyXwXlXH.O w.g.q.x E 8.0.0.9.K R : . ].L.s i >.gXzX* 6.*X>X#X[.-X%X.X*X*X*X*X%X@X*X*X",
"%X*X*X*X*X*X*X*X*X*X*X*X@X*X*X*X*X@X,X@XXXXXdXhXkX|.: Q y.g.E r.8.a.s.z.w...- o B aXE.{ ;XxX).S <X-X'.*X;X*X+X&X*X*X*X*X@X*X*X*X",
"*X*X*X*X*X*X*X*X#X*X*X*X#X*X*X*X@X@X-X*X$X$XjXlXlXuXh j C d.d.d.a.s.a.a.M O 9 u 9 aXdX` ' -Xw ^.<X-X*X%X%X*X*X*X*X*X*X*X#X*X*X*X",
"*X*X*X*X*X%X*X@X*X*X*X*X*X*X*X*X-X{..X=X.XXXiXtXwXqXv.j : R o.o.u.u.p.; - O X.*.+ A./   ' f (.5X(.+X-X*X#X*X&X#X*X*X*X*X%X*X*X*X",
"*X*X*X*X*X#X*X*X*X*X*X*X*X*X*X*X-X*X.X=X.X.X.X_.. A N.m.U m o o - O M B G b.` i Z U t ~ pX%X;X+X7X[..X*X-X*X+X*X*X*X*X*X*X*X*X*X",
"*X*X*X*X*X*X*X*X*X*X*X*X*X*X*X*X*X[.=X=X=X=XXXXXV.< - D.D.N.b.4 . . ) J.,.i X 8 [ ^.eX+X#X%X%XXX#X[.>X*X%X*X#X*X*X#X*X*X*X*X*X*X",
"*X*X%X#X*X*X*X*X*X#X*X*X*X*X*X*X&X[.=X X.X.X=XXX1X1XZ O n 4 9 . < @ Z Z   .   >.tX,X@X,X%X-X[.$X*X*X-X+X*X@X*X-X@X%X*X*X*X#X*X*X",
"*X*X*X*X*X*X*X*X*X*X*X*X*X*X*X*X%X%X%X%X#X#X%X*X*X@X:X-.  N.A.b.#.d . 5 A.` I 2X+X+X@X%X%X-X%X%X*X*X*X*X*X*X#X*X*X*X#X*X*X*X*X*X",
"#X*X@X*X*X%X#X%X@X*X*X%X*X*X*X*X%X%X#X%X#X%X#X%X[.*X$X}.+ OXaXOXX.J.N.aXiXI ~.>XXX#X@X%X%X@X%X%X*X*X*X*X*X*X*X*X*X*X*X*X*X*X*X*X",
"*X*X%X*X*X@X*X*X*X*X*X#X*X*X*X*X%X%X%X#X#X#X%X#X-X*X1XR.  oXwX_.#.O.=.aX'.N XXXX*X*X%X+X%X@X@X@X*X*X*X*X*X*X*X*X*X*X*X*X*X*X*X*X",
"#X*X*X*X*X*X*X*X*X*X*X*X*X#X*X*X%X%X*X*X%X#X#X-X[.*X{.8XI Y aX].] 9 J.dX4.. eXXX*XXX%X@X%X-X%X#X*X*X#X*X*X@X*X*X*X*X*X*X#X*X*X*X",
"%X*X#X%X*X*X#X*X*X%X*X*X*X*X*X*X%X%X#X.X.X=X=X#X;X+X$XeX/ p aXXX9 I wXeX6.] 2X.X*XXX%X#X*X*X%X%X*X*X*X*X*X*X*X*X*X*X*X*X*X*X*X*X",
"*X*X*X*X*X*X*X*X*X#X*X*X*X*X%X@X*X#X#X=X.X.X#X#X#X#X*X;X6.< 2XjX#.9 jXiX= U.>X.XXX*X*X*X#X*X*X*X*X*X*X#X*X*X#X*X*X*X*X*X*X*X*X*X",
"@X*X*X*X*X*X*X*X*X*X*X@X*X*X*X*X.X%X=X.X=X.X.X=X#X-X@X[.3X2 E.jX*.r xXhX^ '..X2XXX.X*X*X*X*X%X%X*X*X*X*X*X*X*X*X*X*X*X*X#X@X*X*X",
"*X*X*X*X*X*X*X*X*X*X*X*X*X*X%X#X%X=X.X=XXXXX=XXX-X X<X5XXXe '.iX-.A.cXY.I eXXX.X=X=X*X*X*X%X%X#X*X*X*X*X*X*X*X*X#X*X*X*X*X*X*X*X",
"*X*X*X*X*X*X*X*X*X*X*X*X*X*X*X@X#X;X*X[.=X.X.X=X%X X%X~.~./ ~.pXi U.gX6.A.1X(.:X[.$X+X&X#X-X*X#X*X%X*X*X*X*X*X*X*X*X*X*X#X*X*X*X",
"*X*X*X#X*X*X*X%X*X*X*X*X*X*X#X%X-X[.XX;X=XXXXX.X X7X(./ :.F X     =X7X=.Y.rX8X=X5X+X*X[.&X*X#X%X#X@X*X*X*X*X*X*X*X*X*X*X*X*X*X*X",
"*X*X*X*X*X*X*X#X*X*X*X*X*X*X%X*X#X%X>X.X).4XY.^ / w w w i &   I . .X#Xg /.2.6.e @ { <X-X%X*X%X#X*X*X*X*X*X#X*X*X*X*X*X*X*X*X*X*X",
"*X*X*X*X*X*X@X*X*X*X#X*X*X*X*X*X;X+X[.XX>X=XY.~.W.{ / X * +.i i @     & / { ` ` ^ i / 2.#X*X#X*X*X*X*X*X*X%X*X@X*X*X*X*X*X*X*X*X",
"*X*X@X%X*X*X*X*X*X*X*X*X*X*X*X*X@X-X%X[.=X.X+.' i X r { ' 8 X g       *   q +.+.,X[.'.'.%X#X%X%X*X*X*X*X*X*X*X%X%X@X*X*X*X*X*X*X",
"*X*X%X#X*X%X*X*X*X*X#X*X*X@X%X#X#X%X-X#X.X>X1X9X#XT.T.T.1X).' ' g f f / +. X5X<X@X*X+X-X;X%X%X+X*X*X*X*X*X*X*X#X*X*X*X*X#X*X*X*X",
"*X*X*X*X%X#X*X*X*X*X*X*X*X*X*X*X;X[.XX=X.XXX$X[.-X-X5X5X:X*X7X#X7X7X7X;X<X+X+X-X-X$X%X.X#X#X*X;X@X%X*X*X*X*X*X*X*X#X*X*X*X%X*X*X",
"*X*X*X*X@X*X*X*X*X*X*X*X*X*X*X*X-X#X%X*X=X[.&X*X-X@X@X@X*X{.*X#X#X X X-X+X%X<X#X$X[.>X.X%X;X#X#X*X#X*X*X*X*X*X*X*X*X*X%X#X@X*X*X"
};
