/* XPM */
static char *MzA0NTA5MTQ4XzYzMTAzMzQzMTk2OTM1OV81MTc4ODkwMTIzNTcyOTQxMzYxX24lMjgyJTI5[] = {
/* columns rows colors chars-per-pixel */
"64 64 237 2 ",
"   c #040100",
".  c #0C0100",
"X  c #0D0A09",
"o  c #130201",
"O  c #1B0301",
"+  c #140A05",
"@  c #1B0B05",
"#  c #130D0C",
"$  c #1C0C0B",
"%  c #190608",
"&  c #1B1313",
"*  c #191614",
"=  c #1F100D",
"-  c #240E0E",
";  c #260B07",
":  c #291408",
">  c #351707",
",  c #291313",
"<  c #231A15",
"1  c #2C1A14",
"2  c #231D1C",
"3  c #2C1C1C",
"4  c #241415",
"5  c #311314",
"6  c #341D1C",
"7  c #361B18",
"8  c #2E231D",
"9  c #25201E",
"0  c #39261A",
"q  c #321E22",
"w  c #2A2525",
"e  c #312322",
"r  c #3C2322",
"t  c #352925",
"y  c #3C2C2B",
"u  c #362B2A",
"i  c #3D322C",
"p  c #35322E",
"a  c #3C3633",
"s  c #382F30",
"d  c #461C09",
"f  c #541B16",
"g  c #482817",
"h  c #572A15",
"j  c #57321A",
"k  c #51270D",
"l  c #652B1A",
"z  c #673818",
"x  c #753E17",
"c  c #432B2C",
"v  c #462A27",
"b  c #582B21",
"n  c #43332D",
"m  c #4B382E",
"M  c #563527",
"N  c #4A2E31",
"B  c #433434",
"V  c #4B3434",
"C  c #433E3C",
"Z  c #4B3B3A",
"A  c #493936",
"S  c #533D3D",
"D  c #593C3D",
"F  c #563A37",
"G  c #502D31",
"H  c #6A3923",
"J  c #6A3425",
"K  c #70421E",
"L  c #4D443E",
"P  c #54433B",
"I  c #574038",
"U  c #5B402F",
"Y  c #6E4324",
"T  c #6D4128",
"R  c #774729",
"E  c #694735",
"W  c #784A39",
"Q  c #785339",
"!  c #573E42",
"~  c #623F43",
"^  c #4C4443",
"/  c #4C4A48",
"(  c #554542",
")  c #5D4343",
"_  c #544945",
"`  c #534B4A",
"'  c #5D4B4C",
"]  c #5D4B42",
"[  c #5C514C",
"{  c #5D5047",
"}  c #555251",
"|  c #5C5453",
" . c #5D5959",
".. c #634646",
"X. c #6B4D4E",
"o. c #664B4A",
"O. c #65534B",
"+. c #645453",
"@. c #6D5252",
"#. c #645953",
"$. c #6C5D5C",
"%. c #6A5957",
"&. c #725959",
"*. c #7C5D5E",
"=. c #735755",
"-. c #71554C",
";. c #67635D",
":. c #74645C",
">. c #7B6558",
",. c #7C5F61",
"<. c #685F60",
"1. c #6D6463",
"2. c #6A666B",
"3. c #7C6465",
"4. c #746D6A",
"5. c #7C6B6B",
"6. c #776864",
"7. c #7E726C",
"8. c #73726E",
"9. c #7D7675",
"0. c #7A7977",
"q. c #736F70",
"w. c #823C34",
"e. c #884934",
"r. c #974B3B",
"t. c #88573A",
"y. c #925B3A",
"u. c #9A553C",
"i. c #814A23",
"p. c #93643D",
"a. c #875B47",
"s. c #955A45",
"d. c #8E564C",
"f. c #A45747",
"g. c #A25E53",
"h. c #88634A",
"j. c #9A6345",
"k. c #93644C",
"l. c #96664A",
"z. c #866A59",
"x. c #956A55",
"c. c #A1694C",
"v. c #A86959",
"b. c #855E63",
"n. c #836465",
"m. c #856669",
"M. c #8A656A",
"N. c #846B6B",
"B. c #8A6B6D",
"V. c #856A64",
"C. c #936A6C",
"Z. c #89706F",
"A. c #847369",
"S. c #8B6D71",
"D. c #836F70",
"F. c #936C73",
"G. c #857374",
"H. c #8C7273",
"J. c #847C7A",
"K. c #8A7C7C",
"L. c #8F767A",
"P. c #927475",
"I. c #927679",
"U. c #927B7B",
"Y. c #957A78",
"T. c #987469",
"R. c #A77B7C",
"E. c #87817C",
"W. c #9A8578",
"Q. c #B0836C",
"!. c #C99276",
"~. c #8E7F80",
"^. c #8B8383",
"/. c #8E8A8A",
"(. c #878380",
"). c #948C8B",
"_. c #998D8B",
"`. c #958986",
"'. c #9B928D",
"]. c #92918F",
"[. c #9C9594",
"{. c #9E9C9D",
"}. c #9B9795",
"|. c #A28E83",
" X c #A7948A",
".X c #A49695",
"XX c #A59994",
"oX c #A49D9D",
"OX c #A99D9E",
"+X c #A99891",
"@X c #B59588",
"#X c #A5A19E",
"$X c #AAA19E",
"%X c #B7A79B",
"&X c #A49EA0",
"*X c #A99FA1",
"=X c #B29FA1",
"-X c #9FA5A2",
";X c #A6A3A2",
":X c #A9A3A3",
">X c #A4A8A6",
",X c #ADA9A6",
"<X c #A6A5A9",
"1X c #ACA5A9",
"2X c #AEAAAA",
"3X c #B0A5A5",
"4X c #B1A9A6",
"5X c #B2A7A9",
"6X c #B3ABAB",
"7X c #BAADAD",
"8X c #BEACA3",
"9X c #BAB1AF",
"0X c #B7B2AF",
"qX c #AFAEB3",
"wX c #B8AFB1",
"eX c #BBB3B3",
"rX c #B9B6B5",
"tX c #C6B5AC",
"yX c #CCBAAE",
"uX c #C2B5B3",
"iX c #C6BCB9",
"pX c #D0BDB5",
"aX c #D5C5BC",
"sX c #DAC2B7",
"dX c #C5C0BD",
"fX c #EECABD",
"gX c #CDC4C4",
"hX c #CDC8C5",
"jX c #DACBC4",
"kX c #D7C9C5",
"lX c #D7D5D6",
"zX c #E6D6CE",
"xX c #F3DFD4",
"cX c #EAD9D5",
"vX c #F8E3D7",
"bX c #F8E9E3",
"nX c #FBF8F8",
/* pixels */
":X:X:X:X:X:X:X:X:X:X:X*X:X:X:X;X,X$X#X#X,X>X;X;X<X;X1X*X*X7XOX1X7X$X$X:XOX:X,X;X;X:X:X:X,X:X$X,X:X:X:X:X:X:X:X:X:X:X:X:X:X;X:X:X",
":X:X:X:X:X:X:X:X:X:X:X:X:X:X:X:X#X,X4X,X#X#X1X;X;X1X:X1X3X:XeXG.N..X6X6X4X$X#X;X2X&X:X:XOX:X4X$X:X:X:X:X:X:X:X:X:X:X:X:X:X:X:X:X",
":X:X:X:X;X:X:X:X;X:X:X:X:X:X:X:X:X#X:X,X:X:X,XoX:X5X*XOX6X~.` Z Z ( +.+._.4X:X:X:X:X:X:X$X:X$X$X:X:X:X:X;X:X:X:X;X:X:X*X:X:X:X:X",
":X;X:X:X:X:X:X:X:X:X:X:X:X:X:X:X$X:X#X;X;X:X2X2X:XOX6XuXD.3 3 6 $.N.1.6 ' 5X5X:XOX3X:X&X,X:X#X,X:X:X:X:X:X:X:X:X:X:X:X:X:X:X:X:X",
":X:X:X:X:X:X:X:X:X:X:X:X:X:X:X:XoX2X;X;X:X:X*XOX1X7XG.$.% Z ( S ) V S Z 6 `.7X.X5X*X*X5X;X:X2X;X:X:X:X:X:X:X:X:X:X:X:X:X:X:X:X:X",
":X:X:X:X:X:X:X:X:X:X:X:X;X:X:X:X;X1X#X:X5XOX1X5XeX$.. Z Z H.%.) o.@.*.3.N ' OX5X5X5X1X*X:X,X:X;X:X:X:X:X:X:X:X:X:X:X:X:X;X:X:X:X",
":X:X:X:X:X:X;X:X:X;X:X:X:X:X:X:X<X;X:X1X&XoX7XOX5., D.G.5.N.S.&.>.P.S.B.I.c G 3.H..X3X:X1X:X;X:X:X:X:X:X:X:X;X:X*X:X:X:X:X:X:X:X",
":X:X:X;X:X:X:X:X:X:X:X:X;X:X:X:X:X1X*X*X*X7X`.e y @.G.- ..&.N.I.Y.n.n.M.M.I.3...V 5.*X6X&X;X2X:X:X:X:X;X:X:X:X:X:X;X:X:X;X:X:X:X",
":X:X:X:X:X:X:X:X:X:X:X:X:X:X:X:X;X;X1X&X1XwXe Z ~.Z., F I 6 M.....M.C.C.M.M.H.S.L.! ` *X6X;X{.<X;X:X:X:X:X:X:X:X:X:X:X:X:X:X:X:X",
":X:X:X:X:X:X:X:X:X:X*X:X:X:X:X:X:X<X:X*X*X$.& N.N.6 r 5 v v ; 5 5 ; =.B.B.F.M.B.,.! q *XOX;X2X<X:X:X:X:X:X:X:X:X:X:X:X;X:X:X:X:X",
":X:X:X:X:X:X:X:X:X:X:X:X:X:X:X:X2X:XoXeXB % N.5.N.B.D X.G O 6 @.M.v D b.P.M.N.P.! q B 5.6X:X:X{.:X:X:X:X:X:X:X;X:X:X:X:X:X:X:X:X",
":X:X:X:X:X:X:X:X:X:X:X:X:X:X:X;X:X#X;X4X` 5.H.N.B.3.P.H.v ; ..c M.~.,.G X.S.B.N.q +.V B eX:X:X6X:X:X:X:X*X:X:X:X:X:X:X:X:X:X:X;X",
":X:X:X:X:X:X:X:X:X:X:X:X:X:X:X;X,X,X2X7Xy y O.H.N.H.>.B.r , F @.m.@.S.X.N S.M.M.G b.$.' wXOX,X#X:X:X;X:X:X:X:X:X:X:X:X:X:X:X:X:X",
";X:X:X:X:X:X:X:X:X;X:X:X:X:X;X;X:X#X{.4XK.% - &.V.N.F.B.E V I.S.+.c G - 7 I.n.F.X.6 ..$ .X6X:X$X:X:X:X:X:X:X:X:X:X:X:X:X:X:X:X:X",
":X:X:X:X;X:X:X:X:X:X:X:X:X:X:X:X#X,X7X:XXXB A ; ) H.n.B.*.v X.I.%.V y % ! P.B.S.&.c ,.6 J.1X:X:X:X:X:X:X:X:X:X;X:X:X*X:X:X:X;X:X",
":X:X:X:X:X:X:X:X:X:X:X:X:X:X:X;X#X:XoX5X`., &.&.M.V.P.B.H.@.c r c $ % . m.B.,.B.F.I.L.$ L.7X$X:X:X:X:X:X:X:X:X:X:X:X:X:X:X:X:X:X",
";X:X;X:X:X:X:X:X:X:X:X;X:X:X:X:X;X;X:X5X=X5.S.F.@.~ G M.M.P...O . o . V N.N.N.B.3.=.3.. L.7XOX5X:X:X:X:X:X:X:X:X:X:X:X:X:X:X:X;X",
":X:X:X:X:X:X:X:X:X:X:X:X:X:X:X;X;X;X:XoX7X&.%.m.! 5 ! F.M.m.P.B.S S P N.Z.V.Z.6 6 o ' q [.5X:X;X:X:X:X:X;X:X:X:X:X:X:X:X:X:X:X:X",
":X:X:X:X:X;X:X*X:X:X:X;X:X:X:X:X:X<X;X:X1X&Xy ! Z , ,.F.B.F.b.M.I.P.I.N.3.H.! . . #.6.1.5X1X{.2X:X:X:X:X:X:X:X:X:X;X:X:X:X:X:X:X",
":X:X:X:X:X:X:X:X:X:X:X:X:X:X:X;X<X<X;X;X:X2X+.& y , &.N.M.M.C.F.m.S.n.5.H.Z.D.6.Z Z | 6X:X;X2X>X;X:X:X;X:X:X*X:X:X:X:X:X:X:X:X:X",
":X;X:X:X:X:X:X:X:X:X:X*X:X:X:X;X2X{.2X;X#X:X:X< . = N.U.S.F.F.B.m.m.L.~.3.5.G.' 3 & ).6X:X#X;X;X:X:X:X:X:X:X:X:X:X:X:X:X:X;X:X:X",
":X:X:X:X:X:X:X:X:X:X:X:X:X:X:X:X<X1X;X:X,X;X0XE.^ + . Z @.S.S.S.H.G.' ! y = 3 . w 9X4X#X:X1X:X<X:X:X:X:X:X:X:X:X:X:X:X:X:X:X:X:X",
":X:X:X:X:X:X:X:X:X:X;X:X:X:X:X:X*XqX&X*XOX$X9Xi 8 $.e . . % < ;.B $     .     s & 9.6XOX5XOXOX5X:X:X:X:X:X:X:X:X:X:X;X<X:X:X:X*X",
":X:X:X:X:X:X;X:X:X:X:X:X:X:X:X:X*X<X:X5X:X$X3X^.%.;.kX| 4 s + .   . 3 | 4.J.1.# # 0.7X$X*X6X%X$X:X:X:X:X:X:X:X;X:X:X:X:X:X:X:X:X",
":X:X:X:X:X:X:X;X:X:X:X:X:X:X:X:X1X1X*X*X:X:X5X5X3Xt 5.. e 6.+ 8 :.n A i _ `.# E.6X1X:X*X1X3X$X$X<X*X:X:X:X:X:X;X:X*X;X:X:X:X:X:X",
":X:X;X:X:X:X:X:X:X:X:X:X:X:X:X:X*X*X1X1X:X;X#X#X$XE.i + @ S vXV.V.%X|.: { .  .rX;X;X;X;X*X1X3X:X*X:X:X:X:X:X:X:X:X:X:X:X:X:X:X:X",
"*X:X:X:X:X:X:X;X:X;X:X:X:X:X:X:X:X<X<X*X<X>X-X;X,X'.n I M E jXx.T.@XfX> >.P 1.0X#X>X;X>X:X;X;X:X:X:X:X;X:X:X:X:X:X:X:X:X:X:X:X:X",
"<X:X:X:X:X:X:X:X:X:X:X:X:X:X:X:X1X:X;X;X>X-X>X<X,X'.@ v F H W t.e.a.T g >.: #.9X#X>X<X>X;X;X;X;X:X:X:X:X:X:X:X:X:X:X:X:X:X;X:X:X",
":X:X:X:X:X:X:X:X:X:X:X:X:X:X:X:X*X:X1X:X>X>X-X-X,X'.n E Q k.l.s.s.y.h.h.Q.7 >.9X#X#X>X-X;X<X:X:X:X:X:X:X:X:X:X:X:X;X:X:X:X:X:X:X",
":X:X:X:X:X;X:X:X:X:X:X;X:X:X:X:X$X$X:X:X;X:X<X*X].: 8 g a.k.t.j.y.p.p.h.Q >.P %X$X#X#X>X<X1X:X1X:X:X:X:X:X:X:X:X:X:X:X:X:X:X:X:X",
":X:X:X:X:X*X:X:X:X:X:X:X:X:X:X:X3X:X$X*X*X1X2XwX7.. O M Q z R z x i.K K Q g .  X$X,X:X1X:X:X*X*X:X:X:X:X:X;X:X:X:X:X:X*X:X:X:X:X",
":X:X:X:X:X:X:X:X:X:X*X:X:X:X:X;X$X$X:X3X1X*X*X*X8 aXU E h.h p.p.p.y.K R h.> . 9 oXOX:X*X1X*X*X1X*X:X:X:X:X:X:X:X:X:X:X:X:X:X:X;X",
":X:X*X:X:X:X:X:X:X:X:X:X:X:X:X:X:X;X:X2X*X*X7X^.. jXU g l.K z K i.z Y h.h.0 A.* /.qX{.;X5X:XOX5X:X:X:X:X:X:X:X:X:X:X:X:X:X:X:X:X",
";X:X:X:X:X:X:X:X:X:X:X;X:X:X:X;X,X{.<X;X*X5X*X4Xa   > b Q p.t.t.z Y Q R M : +X9 w {.qX&XXX4X:XOX:X:X:X:X;X:X:X:X:X:X:X:X:X:X;X:X",
":X:X:X:X;X:X:X:X:X:X:X:X:X:X:X:X>X#X<X:X*X5X:X5Xp   O d k H e.t.l.K z h : o 0 @ . q.qX<X1X:X:X3X$X:X:X:X:X:X:X:X:X:X:X:X:X:X:X:X",
":X:X:X:X:X:X:X:X:X:X:X:X:X:X:X:X:X:X:X*X*X1X:X}.9 i : d d h k z z k k > o @ + . `.rX{.<X<X1X:X:X:X:X:X:X:X:X:X:X:X:X:X:X:X:X:X:X",
":X:X:X:X:X:X:X:X:X:X:X:X:X:X:X;X:X$X,X#X,X,X6X0.;.%X> M l J l c.c.R R M g M vXA.U.4X2XqX<X1XoX:X$X:X:X:X:X:X:X:X:X:X:X:X:X:X:X:X",
":X:X:X:X:X:X:X;X:X;X:X:X:X:X:X:X:X#X#X$X,X#XeXL E.7.g j l e.H !.Q.z R d E v zXY.y 7XoX0.;X2X:X,X:X:X;X:X:X:X:X:X;X:X:X:X:X:X:X:X",
":X:X:X;X:X:X:X:X:X:X:X:X:X:X;X$X$X>X-X,X$X$X`.a 7.o M h s.s.c.!.v.p.l.Y j > fXH.< uX< < / 2X;X;X:X:X:X:X:X:X:X;X:X:X:X:X:X:X:X;X",
":X:X:X:X:X:X:X;X:X:X:X:X:X:X:X:X$X$X$X#X$XrXB K.{ o g d.f.f.f.u.y.y.l.R h > @XvX[ | Z _.t 1X>X<X:X:X:X:X:X:X:X:X:X:X:X:X:X:X:X:X",
":X:X:X:X:X:X:X;X:X:X:X:X:X:X:X:X,X#X2X:X9X`.u aXA.O J s.f.f.u.u.s.Y R R k d > vX$Xp vX'.8 rX#X>X:X:X*X:X:X:X:X:X:X:X:X:X:X:X:X:X",
":X:X:X:X:X:X:X:X:X:X:X:X:X:X:X:X,X:XoX2X_.# ^ aX:.O b g.f.f.r.l t.x.h.T j g @ xXfXzX#.7.C ;.2X-X;X:X;X:X:X:X:X:X:X:X;X:X:X:X:X*X",
":X;X:X:X:X:X:X:X:X;X:X:X:X:X:X:X$X:X*X2XC K.jX XO M l v.f.w.r.e.Q x.z.-.g ; > @XvXaX#.}.<X2 ].0X<X;X:X:X:X:X:X:X:X:X:X:X;X:X:X:X",
":X:X:X:X:X*X:X:X:X:X:X:X;X:X:X:X:X6X:X6X/ 5.uXy c F.d.d w.g.g.k.x.T U ; o : z.W.vXzXbXrXrXJ.w 2.6X:X:X:X:X:X:X:X:X:X:X:X:X:X:X:X",
":X:X:X:X:X:X:X:X:X:X:X:X:X:X:X:X:XoX#X0XK.# _ % B Y.M.f f k.d > > O + o m m U vXvXvXaXhXlXlX;Xs 6X:X;X:X:X:X:X:X;X:X:X:X:X:X:X:X",
":X:X:X:X:X:X:X:X:X:X:X:X:X:X:X:X4X#X,X{.2XeX6X1.o 5 b.R.C.F.g + o @ P =.-.1 >.W.>.U kXgXdXnX2. .6X1X;X;X<X:X:X:X:X:X:X:X:X:X:X:X",
":X;X:X:X:X:X:X:X:X:X:X:X:X:X:X:X:X:X#X:X#X;XoX6X*Xy r o.D @.t   . 8 E.I t :.] - XXP i zXlX/.w <X:X:X:X:X:X:X:X:X:X:X:X:X:X:X:X:X",
":X:X:X:X:X:X:X:X:X:X:X:X:X:X:X:X$X:X:X:X;X:X:X:X5X=Xq N c F # L ` . @ 1 >.:.. [.0X9XP L rX  2.qX;X:X1X:X:X:X:X:X:X:X:X:X:X;X:X:X",
":X:X*X:X:X:X;X:X:X:X:X:X:X:X:X:X:X*X1X:X:X:X:X:X:XXX+.jXyXsXP 8X>.O. X$X%.1 [ 4X$X#X0X| w | rX#X:X:X:X:X:X:X:X:X:X:X:X:X:X:X:X:X",
":X:X:X:X:X:X:X:X:X:X:X:X:X:X:X:X:X:X:X:X:X:X:X:X$X%XA W.tXyX> >.z.W.sX%X: ( 9X4X2XoX:X0X1X:X,X#X:X:X:X:X:X:X:X:X:X;X:X:X:X*X:X:X",
":X:X:X:X*X:X:X:X:X:X:X:X:X:X;X:X:X=X:X:X:X:X:X$XoX9X:.6.sXyXE >.z.W.aX%Xi _.4XOXoX2XoX;X#X4X#X:X:X:X:X:X:X:X:X:X:X:X:X:X:X:X:X;X",
":X:X:X:X:X:X:X:X:X:X:X;X:X:X:X:X:X:X:X:X:X:X:X:X$X6X9.7.aXtX_.:.L  XaX:.n uXoX,X:X:X:X:X;X,X:X$X:X:X:X:X:X:X:X:X:X:X:X:X:X:X:X:X",
";X:X:X;X:X:X:X:X:X:X<X;X:X:X:X:X:X$X:X:X:X:X:X:X:X8X5.7.pXtX`...%.uXaXL Z 6X:X:X2X&X;X;X$X:X3X:X;X:X;X:X:X:X:X:X:X:X:X;X:X:X:X:X",
":X:X:X:X:X:X;X:X:X:X:X:X:X:X:X;X$X:X:X:X:X:X:X:X;X4X'.1.iXjX+Xn 1  X%X+ _.1X:X:XoX1X:X1X:X1XOX$X:X:X:X:X:X:X:X:X:X:X:X:X:X:X;X:X",
":X:X:X:X:X:X:X:X:X:X:X:X:X:X:X:X$X:X:X:X:X:X<X:X1X$X4X' kXbXuXo L uXdX` [.6XoX2X6X:X}.:X1X:XXX:X:X:X:X:X:X:X:X:X:X:X:X:X:X:X:X:X",
":X:X:X:X:X:X:X:X:X:X:X:X:X*X:X:X:X:X:X:X:X:X:X:XOX:X5X| cXnXgX  | dX{.9 ].2X:X<X;X:X,X1XOX1X,X$X:X:X:X:X:X:X*X:X:X:X:X:X:X:X:X:X",
":X:X;X:X:X:X:X:X:X:X:X:X;X:X:X:X#X,X#X,X#X#X6X&X&X:X6X^ [.aX#Xw t 1.}   }.,X,X-X:X1X;X2X:X*X5X*X:X:X:X:X:X;X:X:X:X:X:X:X:X:X:X:X",
":X:X:X:X:X;X:X:X:X:X:X:X:X:X:X:X#X,X#X$X2X#X:XoX:X1X6X+.2.dXnX0.      p qXqX2X2X:XoX:X:X*X1XOX1X:X:X;X:X:X:X:X:X*X:X:X:X:X;X:X:X",
"*X<X:X:X:X:X:X:X*X:X:X:X;X:X:X:X$X#X,X$X$X,X0XrX6X[.;X .< } C 9 # *   / (.0.8.| 2X;X1X&XOX6X:X*X:X:X:X:X:X:X*X:X;X:X:X:X:X:X:X:X",
":X:X:X:X:X:X:X:X:X:X:X:X:X:X:X:X,X,X$X#X#X#Xp p ^ a ` 2                 * 9 X #.iX6X{.&X:X:X5X*X:X:X:X:X:X:X:X:X:X:X:X:X:X:X:X:X",
":X:X:X:X:X:X:X:X:X:X*X:X:X:X:X:X#X0X#X{.dX9.} #   ^ | 9 * X X * C     8.^./ / } #.} <.[.6XOX*X:X:X:X:X;X:X:X:X:X:X*X:X:X:X:X:X:X",
":X:X:X:X;X:X:X:X;X:X:X:X:X:X:X:X,XXX$X,XXX,X0X{.{./.X   X w 8.0. .* L } / w 9  .).^.[.*X*X1X&X1X:X:X:X:X:X:X:X:X:X:X:X:X;X:X:X:X",
":X:X:X:X:X:X:X:X:X:X:X:X:X:X:X:X$X,X#X#X#X,X:X$X:X:X/.0.(.} } ].8.(.6X,X2X9XrXwX3X:X7X5X*X5X1X*X:X:X:X:X:X:X:X:X:X:X:X:X:X:X:X:X",
":X:X:X:X:X:X:X:X:X:X:X:X:X;X:X:X#X,X#X$X,X#X#X,X:X,X,XqXrX2X-X2X,XqX:X#X:X#X;X;X1X:XXX:X1X&X1X*X:X:X:X:X:X:X:X:X<X;X:X:X;X:X:X:X"
};
