/* XPM */
static char *MzA0NTA5MTQ4XzYzMTAzMzQzMTk2OTM1OV81MTc4ODkwMTIzNTcyOTQxMzYxX24_[] = {
/* columns rows colors chars-per-pixel */
"64 64 235 2 ",
"   c #040100",
".  c #0B0201",
"X  c #0D0A0A",
"o  c #140302",
"O  c #1A0201",
"+  c #180B0A",
"@  c #1C1208",
"#  c #1D1412",
"$  c #181616",
"%  c #0F1314",
"&  c #230502",
"*  c #240E03",
"=  c #240C0C",
"-  c #280E0D",
";  c #271308",
":  c #391807",
">  c #2C0F14",
",  c #241514",
"<  c #2D1514",
"1  c #281C19",
"2  c #341B1B",
"3  c #3A1D1D",
"4  c #321D14",
"5  c #300B00",
"6  c #29211E",
"7  c #35241C",
"8  c #33200F",
"9  c #381E22",
"0  c #282525",
"q  c #332424",
"w  c #3B2223",
"e  c #3B2B24",
"r  c #342A29",
"t  c #3B2E2C",
"y  c #392727",
"u  c #3D3936",
"i  c #3C3B3C",
"p  c #393331",
"a  c #37302E",
"s  c #4C1C0E",
"d  c #4A240B",
"f  c #462818",
"g  c #552B12",
"h  c #552617",
"j  c #5A331B",
"k  c #5E2D0D",
"l  c #643818",
"z  c #6F391B",
"x  c #432B2C",
"c  c #412B25",
"v  c #532A24",
"b  c #44332D",
"n  c #443522",
"m  c #573827",
"M  c #462E31",
"N  c #423333",
"B  c #4B3234",
"V  c #443D3B",
"C  c #4D3D3C",
"Z  c #4B3837",
"A  c #513B3C",
"S  c #5A3D3E",
"D  c #513536",
"F  c #663925",
"G  c #6C3524",
"H  c #77421E",
"J  c #67401F",
"K  c #48413E",
"L  c #59443C",
"P  c #5B4327",
"I  c #684327",
"U  c #764627",
"Y  c #6B4A33",
"T  c #674738",
"R  c #784D37",
"E  c #7D553A",
"W  c #5B3E42",
"Q  c #413F40",
"!  c #4E4D4C",
"~  c #494443",
"^  c #524442",
"/  c #5C4343",
"(  c #5B4C4C",
")  c #584A47",
"_  c #5B5455",
"`  c #5D5B5B",
"'  c #585757",
"]  c #585448",
"[  c #634C4C",
"{  c #654947",
"}  c #68554C",
"|  c #715549",
" . c #6A4C50",
".. c #644E50",
"X. c #625955",
"o. c #6B5953",
"O. c #655B5A",
"+. c #6C5E5A",
"@. c #695354",
"#. c #735556",
"$. c #735C5C",
"%. c #795C5D",
"&. c #765957",
"*. c #7B4D4D",
"=. c #6B625D",
"-. c #73635C",
";. c #7B645E",
":. c #5F5E63",
">. c #7D5E63",
",. c #6C6561",
"<. c #676566",
"1. c #736664",
"2. c #7B6364",
"3. c #716965",
"4. c #756C6A",
"5. c #7C6C6A",
"6. c #7C6866",
"7. c #7C706C",
"8. c #7B7675",
"9. c #6F6F71",
"0. c #824A32",
"q. c #974B36",
"w. c #89563B",
"e. c #96543A",
"r. c #834B29",
"t. c #A1533D",
"y. c #93623D",
"u. c #8D5B45",
"i. c #875946",
"p. c #945C44",
"a. c #995B48",
"s. c #875F5F",
"d. c #A15744",
"f. c #8B6248",
"g. c #936243",
"h. c #9A6445",
"j. c #8A6752",
"k. c #966855",
"l. c #8D785D",
"z. c #A66657",
"x. c #825E62",
"c. c #836465",
"v. c #896466",
"b. c #856A65",
"n. c #84676A",
"m. c #8A666A",
"M. c #856A6B",
"N. c #8B6A6C",
"B. c #916C6E",
"V. c #86746A",
"C. c #977461",
"Z. c #8C6D72",
"A. c #876D71",
"S. c #817573",
"D. c #8C7273",
"F. c #857A74",
"G. c #8B7B73",
"H. c #8A7C7B",
"J. c #85797A",
"K. c #937374",
"L. c #947A7C",
"P. c #916F70",
"I. c #89817D",
"U. c #98847E",
"Y. c #A38A75",
"T. c #877F80",
"R. c #937F80",
"E. c #888484",
"W. c #938B87",
"Q. c #928D8B",
"!. c #9B8F8C",
"~. c #9B8884",
"^. c #9D928B",
"/. c #9A908A",
"(. c #928F90",
"). c #9D9493",
"_. c #9E9D9C",
"`. c #9B9895",
"'. c #A18985",
"]. c #A2948B",
"[. c #AD9D84",
"{. c #B69D8D",
"}. c #A59B92",
"|. c #A49D9C",
" X c #AA9F9D",
".X c #A79894",
"XX c #A5A29E",
"oX c #AAA29E",
"OX c #A9A59C",
"+X c #B3A59B",
"@X c #9E9FA2",
"#X c #A39EA2",
"$X c #A99FA2",
"%X c #A6A3A3",
"&X c #A9A3A3",
"*X c #ACA9A5",
"=X c #A6A4A9",
"-X c #ABA6A9",
";X c #ADA9AA",
":X c #B1A6A4",
">X c #B2A9A5",
",X c #B1A7AA",
"<X c #B3ABAB",
"1X c #B9AEAB",
"2X c #BAAAA4",
"3X c #B6B1AD",
"4X c #B9B1AD",
"5X c #AEAAB2",
"6X c #B5ADB0",
"7X c #B4B2B2",
"8X c #BCB4B3",
"9X c #BCB9B9",
"0X c #D69C8C",
"qX c #CAAC9C",
"wX c #C9B4AC",
"eX c #C5B9B6",
"rX c #D3BBB3",
"tX c #D9BEAD",
"yX c #DAC7B9",
"uX c #CBC1B7",
"iX c #E3C4B4",
"pX c #CDC8C5",
"aX c #D8CBC4",
"sX c #DED6D1",
"dX c #E4CCC4",
"fX c #E7D3C8",
"gX c #F2DBCE",
"hX c #EADCD5",
"jX c #F4DFD3",
"kX c #F8E6DB",
"lX c #F7E7CE",
"zX c #E7E5E4",
"xX c #FCECE5",
"cX c #FFF1E8",
"vX c #FFFCF6",
/* pixels */
"&X&X&X&X&X&X&X&X&X&X&X&X&X&X&X&X*X X&X&X X*X*X$X_.7X_.*X%X;X>X,X$X&X X_.;XXX=X&X$X:X$XoXoXoX%XOX=X&X&X&X&X&X&X%X&X&X&X&X&X&X&X&X",
"&X&X&X&X&X&X&X&X%X&X&X$X%X&X&X&XOX*XoXoX:X&X&X=X=X%X@X3X>X4.W.).<X2X;X*X=X|.&X=X&X&X:X$X&XOXOX&X&X&X&X&X&X&X&X&X&X&X&X%X&X&X&X&X",
"&X%X&X&X%X&X&X&X&X&X&X&X&X%X&XoX%X*X*XOX%XoX%X&X%X|.7X,.( N C [ O._ &X$X&X-X&X&X:X$X&X&X&X&XOXOX&X&X&X&X&X&X&X%X&X&X&X&X&X&X&X&X",
"&X&X&X&X&X&X&X&X&X&X&X&X&X&X&X&X*X`.XX*XoXXX&X$X;XeX) # , D c.m.{ 9 S.>X X*X&XoX$X&X$X$X&X&X&X&X&X&X&X&X&X&X&X&X&X&X&X&X&X&X&X%X",
"&X&X&X&X&X&X&X&X&X&X&X&X&X&X&X%X%X*X*XXX&X:X*X X4.C o ..A W S D / w x ,X2X$X$X,X&X&X$X&X$X$X$X$X&X&X&X&X&X&X&X&X&X&X%X&X&X&X&X&X",
"&X&X&X&X&X&X&X&X&X&X&X%X&X&X&X&X_.*X_.*X X-X:Xp + W ) L.#.S  .&.N.#.x $..X1X,X X*X&X&X&X$X:X:X$X%X&X&X&X&X&X&X&X&X&X&X&X&X&X&X&X",
"&X&X&X&X&X&X%X&X&X&X&X&X&X&X&X%X%XOX>X_.<X:X( 9 R.5.M.M.c.&.N.B.m.A.>.x ( 1.H.1X-X&X&X=X:X$X-X$X&X&X&X&X&X&X&X&X&X&X&X&X&X&X%X&X",
"&X&X&X%X&X&X&X&X&X&X&X&X&X&X&X&XXX&X_.1X7.- N A.[ < @.&.K.K.B.v.N.m.m.A.$.W W H.,X-X&X$X$X-X-X$X&X&X&X&X&X&X&X&X&X&X&X&X$X&X&X&X",
"&X&X&X%X&X&X&X&X&X&X&X&X%X&X&X&X&X X8X!.o 1.L.[ - { 9 W v.W *.K.v.v.B.N.m.D.J.r J.>X%X*X|.-X$X:X&X&X&X&X&X&X%X&X&X&X&X&X&X&X&X&X",
"&X&X&X&X&X%X&X&X&X%X&X&X&X&X&X&X,X.X.XM M D.$.= c < 2 c O 9 & 9 N.B.v.P.n.K.@.x V <X&X&X,X$X,X$X$X&X&X&X&X&X&X&X%X&X&X&X%X&X&X&X",
"&X&X&X&X&X&X&X&X&X&X&X&X&X&X&X&X X&X+ x A.n.M.c.D c.2 o A %. .9 W m.m.c.m.D.x B p (.*X|.-X,X$X:X&X&X&X%X&X&X$X&X&X&X&X&X$X&X&X&X",
"&X&X&X&X&X&X&X$X&X&X&X&X&X&X&X&X>X).N L.L.n.c.A.L.#.- 9 / D R.R. .S >.K.N. .2 $.1 3.3X*X#X$X#X,X&X&X&X&X&X&X&X&X&X&X&X&X%X&X&X&X",
"&X%X&X&X%X&X&X&X&X&X&X&X&X&X&X&X&X).q x $.P.M.N.N.%.= x W >.>.@.D.x / m.P.%.x '.A 8.;X_.*X*X:X$X$X&X&X&X&X&X&X&X%X&X&X&X&X&X&X&X",
"&X&X&X&X&X&X&X&X&X&X&X&X&X&X&X&X&X>XK + y 2.D.N.c.Z.7  .R.A.W a Z O / K.m.Z.B x Z N *X*X&XXX-X*X&X&X&X&X&X%X&X&X&X&X&X&X&X&X&X&X",
"&X&X&X&X&X&X&X&X%X&X&X&X%X&X&X&X%X<X8.x x <  .Z.n.K. .M >.A./ M 1 , $.A.N.Z.W D +.# OX&XXX>X X&X&X&X&X&X&X&X&X&X&X&X&X&X&X%X&X&X",
"&X&X&X&X&X&X&X&X&X&X&X&X&X&X&X&XXX4XO.q -.%.N.Z.Z.v.x. .2 W y O o < Z.N.n.N.Z.~...6 &XXX;X=X|.&X&X&X&X&X&X&X&X&X&X&X&X&X&X&X&X&X",
"$X%X%X&X&X&X&X&X%X&X&X&X&X&X&X&X&X:X.X+.V.D.{ Z W K.Z.Z.M o . . & { N.b.N.6.2.=.( . &X=X*X>XoX&XoX&X&X&X&X&X&X&X&X&X&X&X&X&X&X&X",
"&X&X&X&X&X&X&X&X&X&X&X&X&X&X&X&X X&X-X^ 5.o.b <  .K.Z.m.D.>.W D { K.N.N.#.2 = 2 ~ ~ >X%X&X&XOX&X&X&X&X&X&X&X%X&X&X&X&X&X&X&X&X&X",
"&X&X&X&X&X&X&X&X&X&X&X&X&X&X%X&X$X$X6XA.N Z B 3 K.x.v.B.A.K.Z.K.N.c.c.M.w . o H.) Q.;X|.&XoX&XoXoX&X&X&X&X&X&X&X&X&X&X%X&X&X%X&X",
"&X&X&X&X&X%X&X&X&X&X&X&X&X&X&X&X5X-X$X6Xq y < 3 Z.m.m.B.m.x.m.m.c.M.V.M.J.{ A N 8.<X%X X*X%XOX&X&X&X&X&X&X&X&X%X&X&X&X&X&X&X&X&X",
"&X&X&X&X&X&X&X&X&X&X%X&X&X&X&X&X#X$X=X<XT.o + w Z.Z.m.N.N.N.N.n.L.J.6.6.6.^ + p $X*X$X%X*X%X%X*X&X&X&X&X&X&X&X&X&X&X&X&X$X&X&X&X",
"&X%X&X$X&X&X&X&X&X&X&X&X&X&X&X&X-X*X*XXX8XO.t o w A n.A.N.L.M.5.C ^ , q + . 3.6X<X.X*X&X%X&X&X&X&X&X&X&X&X&X&X&X&X&X&X%X&X&X&X%X",
"&X&X&X&X&X&X&X&X&X&X&X&X&X&X&X&X%XoXOXXX`.X ( ( + . o o r O.q X . . . . o t # |.*X.X>X$X&X&X=X=X&X&X&X&X&X&X&X&X&X&X&X&X&X&X&X&X",
"&X&X&X&X&X&X&X%X&X&X&X&X%X&X&X&X*X}.*XXXXXJ.~ _.<Xu 6 q   .   . t +.4.H.V X 1  X-X&X X&X*X&X=X=X%X=X&X&X&X&X&X&X&X&X&X&X&X&X&X&X",
"&X&X&X%X&X&X%X&X&X&X&X&X&X&X&XXXOXOXOXOX%X9X7.K ` . L _ . K =.e L , I.o.# *X*X&X&XoX:XoX&X-X=X%X%X&X&X&X&X&X&X&X&X&X&X%X&X&X$X&X",
"&X&X&X&X&X&X&X&X&X&X&X&X&X&X&XoXOXOXXXXX=X%X%X,.@ @ . {.yX;.V.uXo.8 K o ).3X`.XX&X X X&X&X&X=X%X&X&X&X&X&X&X&X%X&X%X&X&X&X&X&X&X",
"&X&X&X&X&X&X&X&X&X&X&X&X&X&X&X&X%X_.;X;X-X#X6XS.e T 7 Y.qXC.C.iXY.4 V.t !.&X>X=X$X:X X:X&X-X&X=X%X&X%X&X&X&X&X&X&X&X&X&X&X%X&X&X",
"&X&X&X&X&X&X&X&X&X&X&X%X&X&X%X&XXX=X5X@X#X-X<X1.O m j I w.w.0.w.g m | @ W.>X;X#X-X&X&X&X$X&X&X&X&X&X&X&X&X&X&X&X&X&X&X&X&X&X&X&X",
"&X&X&X&X&X%X&X%X&X&X&X&X&X&X&X&X%X*X@X=X5X#X8X2.m T E y.h.h.y.h.f.f.l.@  X*X;X-X-X$X&X X&X&X&X=X&X&X&X&X&X&X&X&X&X&X&X&X&X&X&X&X",
"%X&X&X&X&X&X&X&X&X&X&X$X&X&X&X&X*X%X%X;X$X=X1.. f P f.g.y.y.e.y.y.i.f.T -.1X#X#X=X&X$X:XoX&X=X%X&X&X&X&X&X&X&X&X&X%X&X&X&X&X&X&X",
"&X&X&X&X&X&X$X&X&X%X&X&X&X&X&X&XXXOX&X|.=X9XV + O Y I J U H H H z H w.* 7 ;X6X=X$X&X&XoX&XOX=X&X%X&X&X&X%X&X&X&X&X&X&X&X&X&X&X&X",
"&X&X&X&X&X&X&X&X&X&X&X&X%X&X&X&X*XXXXX*X6X4.V rX8 j.I U y.y.y.y.l w.Y O o ^ =X=X-X&X&X:X&X&X&X&X&X&X&X&X&X$X&X&X&X&X&X&X&X&X%X&X",
"&X&X&X&X&X%X&X&X&X&X&X&X&X&X&X&X@X5XXX|.eXK 0 yX< Y u.k H r.U l U l.Y n F.X 9X=X&X X&X:XoX&X%X=X&X&X&X&X&X&X&X&X&X&X&X%X&X&X&X&X",
"&X&X%X&X&X&X&X&X&X&X&X&X&X&X&X&X=X@X;X}.OX*XX @ 8 { i.p.r.r.l J E I n e /.. :.=X=X&X&X|.oX*X X&X&X&X&X&X&X&X&X&X&X%X&X&X&X&X&X&X",
"&X&X&X&X&X&X&X&X&X&X%X&X&X&X&X&X=X=XXX*XOX4.] X 5 : j U r.h.e.I g d O O q   $ @X%X&X>XoX&X*X*X=X&X&X&X&X&X&X&X&X&X&X&X&X&X%X&X&X",
"&X&X$X&X&X&X&X&X&X&X&X&X&X&X&X&X%X*X*XOXOXe OX| : : s g G U k d g 5 o ; t ` 6X=X&X&X X&XoXoX*X$X&X&X%X&X&X%X&X&X&X&X&X&X&X&X&X&X",
"&X&X&X%X&X%X&X&X%X&X&X&X&X&X&X&XoX&XoX&X!.S.kXiXd F j F z.0Xp.R G d Y gX].X.>X<X<X<X.XoX>XoX&X=X&X&X&X&X&X&X&X$X&X%X&X&X&X&X$X&X",
"&X&X&X&X&X&X&X&X&X&X&X&X&X&X&X&XOX X>X1XV.G.lXl.d g G i.0X0X0.U l g I tXU.o 4X=.1 3.8XXX&X>X=X%X&X&X&X&X&X&X&X&X&X&X&X&X&X&X&X&X",
"&X&X&X&X&X&X&X&X%X&X&X&X&X&X&X&XoXoX X*X-.dXlXP d G i.w.z.a.p.a.w.l d {.yXt }.# ` r .XXX>X$X|.;X&X&X%X&X&X&X&X&X&X&X&X&X&X&X&X&X",
"&X&X&X&X&X&X&X&X&X&X&X&X&X&X&X&X:XoX2X/.+XkX[.O j u.a.a.d.d.p.u.g.I d | lX~.; ^.eX6 *X&X X%X;XXX&X&X&X&X&X%X&X&X&X&X&X&X&X&X%X&X",
"&X&X&X&X#X&X&X&X&X&X&X&X&X%X&X&X;X XI.1 {.cXY.o R p.a.a.d.q.e.G w.l v 5 yXfX].uXI.r W.%X&X&X=X=X&X&X%X&X&X%X&X&X&X&X&X&X&X$X%X&X",
"&X%X&X&X&X&X&X&X&X&X&X&X&X&X&X%X%X_.u wXjXgXn o | a.a.q.t.q.a.a.i.m m : qXgXfXu 1.W.6 *X<X=X*X&X&X&X&X&X&X&X&X&X&X&X&X&X&X&X&X&X",
"&X&X&X&X&X&X&X&X&X&X&X&X&X&X&X&X5X(.4.xXfXgX8 . W k.i.d.q.t.a.k.j.Y d o V.kXhXaX9X9X] p Q.;X%X&X&X&X&X&X&X&X&X&X&X&X&X&X&X&X&X&X",
"&X&X&X&X&X&X&X&X&X%X&X&X&X&X&X%X=X(.=.xXkXlXe @ O i.a.d.z.z.i.F h & o m gXhXkXaXuXpX7X8.a *XXX&X&X&X&X&X&X&X&X&X&X%X&X&X&X&X&X&X",
"&X&X&X&X&X&X&X&X&X&X&X&X&X&X&X%X%X|.r 1 +.Z + o.%.v v h v s F o o & o S yXyXOXdXpXpXzX=XQ 3XXX X&X&X%X&X&X%X&X&X&X&X&X&X&X&X&X&X",
"&X&X%X&X&X&X&X&X&X&X&X&X&X&X&X&X%X8XQ.` 1.N   r A.B.B.s.i.v T f | S m b.7 b . 3.hXpXzXi 8.;XoX>X&X&X&X&X&X&X&X&X&X&X&X&X&X%X&X&X",
"&X&X&X&X&X&X&X%X%X&X&X&X&X&X&X&XOXOX<X7X8X1XQ.+ Z.>.M T. .> = L ;.| ;.; e 2X}.6 9.zX0 0 7X=X*XoX&X&X&X&X&X$X&X&X&X%X&X&X&X&X&X&X",
"&X&X&X&X&X&X&X&X&X&X&X&X&X&X&X%X>X_.&X#X=X X9X, x.R.9 9 >  .b * 4 b.L * ].+X>X>X0 ~ % `.*X;X X&X&X&X$X&X&X&X&X&X&X&X&X&X%X&X&X&X",
"&X&X%X&X&X%X&X&X&X&X&X&X&X&X&X%X%X*X%X&X=X&X*X-.o.dXaXx } eX[ '.U.L o -.4X&X X=X#X3.).6X|.*X&X&X&X&X&X&X&X&X&X&X&X&X&X&X&X&X&X&X",
"&X&X&X&X$X&X&X&X&X&X&X&X&X&X&X&X%X%X=X&X-X&X3XF.-.rXwX{ ].+X^ eXyXV.-.eXoXXX<X_.-X<X,X|.$X<X|.&X&X%X&X&X&X&X&X&X&X&X&X&X%X&X&X&X",
"&X&X&X$X&X&X&X&X&X&X&X&X&X&X&X%X&X&X$X X&X X3XG.-.rXwXL }.+X/ +XuXV.6.>XoXoX$X;X#X6X$X|.:X$X$X=X&X&X&X&X&X&X&X&X%X&X&X&X&X&X&X&X",
"&X&X&X&X&X&X&X&X&X&X%X&X&X&X&X&X=X$X:X:X&X X>XG.-.rXrXT /.2X^ 2XiXI.2.+X&X*X X=X#X|. X<X-X|.*X$X%X&X&X&X&X&X&X&X&X&X&X&X#X&X&X&X",
"&X&X&X&X%X&X&X&X&X&X&X&X&X&X&X%X&XOX&X:X>XXX3XG.;.dXrXT }.+XL wXwXV.=.>XoX=X*X%X-X;X-X$X&X&X&X&X&X&X&X&X&X&X&X&X&X&X&X&X&X&X&X&X",
"&X%X&X&X&X&X%X&X&X&X&X&X&X&X&X&X&XOX X$X&XOX2XF.V.xXdX) /.>X+.U.fX/.-.4X&XXX&X%X=X&X$X|.&X*X X*X&X&X%X&X&X&X&X&X&X%X&X&X&X&X&X&X",
"&X&X&X&X&X&X&X&X&X&X&X%X&X&X&X&X&X&X$X XOXoX<X8.G.xXhX} ^.4XG.S.cX^.=.>XoX&X<X=X*X X:X>X*X&X&X%X&X&X&X&X&X&X&X#X&X&X&X&X&X&X&X&X",
"&X&X&X&X&X&X&X&X&X&X&X&X&X&X&X&XXXoX:X&X&XXX9X8.V.kXkX@./.4X7.I.vX}.=.3X&X=X%X%X$X-X&X XOXXX%X&X&X&X&X&X&X&X&X&X&X&X&X&X&X&X&X&X",
"&X&X&X%X&X&X&X&X%X&X%X&X&X&X&X&X&X=X>X|.;X$X5X8.6.cXcX=.Q.9X8.3.hXOX3.9X*X%X%X=X X=X&XXX&X&X%X%X&X&X&X&X&X&X&X&X&X&X&X&X&X#X&X&X",
"&X&X&X&X&X&X%X&X&X&X&X&X&X&X&X%X=X%X$X$X_.=X7X(.1 eX`.# *X7XI.` aX=.K 3.*X;X;X7X%X3XoX X*XOX&X*X&X&X&X&X&X&X&X&X&X&X&X&X&X&X&X&X",
"&X&X&X&X&X&X&X&X&X&X&X&X&X&X&X&X&X X_ _ <.i 8.9.X 8XhX' ! E.(.~ 9XI..   X E.E.9.E.E.>X&X&XoX%X%X&X&X&X&X&X&X&X&X&X&X&X&X&X&X&X&X",
"&X&X&X&X&X&X&X&X&X&X&X&X&X&X&X&X#X=X-XE.a ' %   $ 6 K %     $ %     X 0 0 Q $ ` ( ! W.).XX&X&X*X%X&X%X&X&X&X&X&X&X%X&X&X&X&X&X&X",
"&X%X&X&X%X&X&X&X&X&X&X&X%X&X&X&X=X X8Xr   i 0 % . . . i u ~ i         ! ~ ' 0 % ` =.X.7.*X%X*XXX&X&X&X&X&X&X&X&X%X&X&X&X&X&X&X&X",
"&X&X&X&X$X&X&X&X&X&X&X&X&X&X&X&X X*X!.O.<.' <.0     , u ! ` ` Q Q u u 0 0 9.(.(.;XeX>X&X3X|.%X;X&X&X&X&X&X#X&X&X&X&X&X&X&X&X&X&X",
"&X$X&X&X&X&X&X&X%X&X&X&X%X&X&X&XOX*X).4.T.T.i $ 0 T.~ V ' ! ' ' 8.9X7X7X9X7X5X*X&X`.&X XXX>X&X X&X&X&X&X&X&X&X&X&X&X&X&X&X%X&X&X",
"&X&X&X&X&X&X&X&X&X&X&X&X&X&X&X&X&X X>X3X5X5X_.3.4X>X>XXX_.*X_._.OXOX@X=X@X@X;X@X&X*X&XOXXX&X&X=X&X#X&X&X&X&X&X&X&X&X&X&X&X&X&X&X"
};
