/* XPM */
static char *_3d5a98010b747888b0afa6610fecb7eRx4XsWpFRb7ErkY7[] = {
/* columns rows colors chars-per-pixel */
"64 64 129 2 ",
"   c black",
".  c #010101",
"X  c #000002",
"o  c #000004",
"O  c #000005",
"+  c #010005",
"@  c #000007",
"#  c #050414",
"$  c #070616",
"%  c #0B0917",
"&  c #0F0E16",
"*  c #0A0919",
"=  c #0B0A1A",
"-  c #0C0A18",
";  c #0D0B19",
":  c #0C0B1B",
">  c #0F0D18",
",  c #0E0C19",
"<  c #0E0C1A",
"1  c #0F0D1B",
"2  c #0E0B1C",
"3  c #0D0C1C",
"4  c #0F0C1D",
"5  c #0E0D1D",
"6  c #0F0E1E",
"7  c #100F17",
"8  c #100E19",
"9  c #100E1B",
"0  c #100E1C",
"q  c #110F1C",
"w  c #110F1D",
"e  c #100D1E",
"r  c #110E1F",
"t  c #100F1F",
"y  c #121119",
"u  c #12101B",
"i  c #12101D",
"p  c #12101E",
"a  c #13111F",
"s  c #15131E",
"d  c #18171D",
"f  c #120F20",
"g  c #111020",
"h  c #131021",
"j  c #131222",
"k  c #141220",
"l  c #151321",
"z  c #151223",
"x  c #161422",
"c  c #171523",
"v  c #161324",
"b  c #151424",
"n  c #171425",
"m  c #181624",
"M  c #191725",
"N  c #181526",
"B  c #191627",
"V  c #181727",
"C  c #1A1826",
"Z  c #1B1927",
"A  c #1D1C24",
"S  c #1A1728",
"D  c #191828",
"F  c #1B1829",
"G  c #1A1929",
"H  c #1B1A2A",
"J  c #1C1A28",
"K  c #1D1B29",
"L  c #1C192A",
"P  c #1D1A2B",
"I  c #1C1B2B",
"U  c #1E1C29",
"Y  c #1E1C2A",
"T  c #1F1D2B",
"R  c #1E1B2C",
"E  c #1D1C2C",
"W  c #1F1C2D",
"Q  c #1E1D2D",
"!  c #1F1E2E",
"~  c #201E2B",
"^  c #201E2C",
"/  c #211F2D",
"(  c #201D2E",
")  c #211E2F",
"_  c #201F2F",
"`  c #221F30",
"'  c #22202E",
"]  c #23212F",
"[  c #212030",
"{  c #232031",
"}  c #222131",
"|  c #232232",
" . c #242230",
".. c #252331",
"X. c #242132",
"o. c #252233",
"O. c #242333",
"+. c #262432",
"@. c #272533",
"#. c #252434",
"$. c #262535",
"%. c #272636",
"&. c #292735",
"*. c #282737",
"=. c #2A2836",
"-. c #2B2937",
";. c #292838",
":. c #2A2939",
">. c #2B2A3A",
",. c #2C2A38",
"<. c #2D2B39",
"1. c #2C2B3B",
"2. c #2E2C3A",
"3. c #2F2D3B",
"4. c #2D2C3C",
"5. c #2E2D3D",
"6. c #2F2E3E",
"7. c #302E3C",
"8. c #312F3D",
"9. c #302F3F",
"0. c #313040",
"q. c #323141",
"w. c #333242",
"e. c #343343",
"r. c #353444",
"t. c #363545",
"y. c #373646",
"u. c #383747",
"i. c #393848",
/* pixels */
"            O O O @ ~ ~ ^ ^ ^ ^ f n N S S S N F S S S N S S N n x S Y K ^ 7.7.^ ^ ^ ^ ^ ^ ^ K K w N S N S S N S S S S S S N n e ",
"          O O A 8 8 w < w < w w f S ( ( ` ` R R ( ( ( ( ( R R ( w w w w w K m x w w w w w w w w N ` ` ` ` ` ( R R ` R ` R ` R S ",
"        O 7 8 7 8 8 w w < w < w f R ` ` ` ` ` ` ` ` ` ` ` ` ` ` m w w w w w x < < w w w < w w < S ` ` ( ` ` ` ` ` ` ` ` ` ` ` R ",
"      O 8 p w ; i i w w w w w w f ( ` S S R R ` ` ( ` ` ` ( ` R K w ; < ; ; w w w w < < w w w w R ` L S F ( ` ` ` ` ` R ` ` ` ( ",
"  O O y w w w w < w < < w < w < f R ` S n L ( R ( ` ( ` ( ` ( ` m w ; ; ; w w ; ; w ; w ; w w w R ` L S S ( R ` ( ` ` ` ( R ` R ",
"    @ 8 < 2 w w w w w w w w w w f ` ` ( R R ` ` ` ` ` ` ( ` ` ` m w w w w w x ; w w w w w w w w F ` ` R ( ` ` ( ` ` ` R ( ` ` ( ",
"  O 8 8 ; 8 w w w < w w < w w < f ( ` ` ` ` ` ` ( ` R ( R ( ` ` K w w w w ; < ; w ; ; w w ; w ; S ` ` ( ` ` ( ` R ` ` ` ( ` R ` ",
"O O 7 w w w w 3 w w < w w w < w f R ` ` R ` ( R ` ( ( ( ` ` ` ` K < ; w w w w w w w w w w w w w L ` o.` R ` ` ` ( ` ` ` ` ` ` R ",
"O d 8 w w ; w ; < w w < w w w < f R ` ( ` R ` ` ` ( ` ( ( ` ` ` K w w w w w w w < < w w w w < < S ` ` ( ` ( R ( ( ` ` ( ( ` ( R ",
"O p w w < w w w < w w < w < w w f R ` ` ` ( ` ( ( ` ( ` ` ( ` ` x w w w < w w < w w w < < w w w S ` ` ( ` ` ` ` ( ` ` R ` ` ( L ",
"Y i w w w w w ; w w w w < w < w f ( ( ` ` ` ` ` ` ` ` ( ( ` ` R x ; < w w ; w w w w w < < w w w R ` ` ( ` ( ` ` ` ` R ` ` ` R S ",
"~ p ; w w < w w w < < w w w < w f ( ` ` ` R ` ` ` ` ` ( ` ( ( ` x w w w w ; w w < < w w w w < < R ` ` R ( ` R ` ` ( ` R ` ` R S ",
"^ x w e w ; w ; < w w 8 w w 3 w f ` ` ` ` ` ` ( ( ` ` ( ( ` ( ` m w ; w w w w w w w < w w < w w R ` ` ( ` ` R ( R ` ` R ` ` ` R ",
"' m e e ; w < w w w 2 w < w e e f R ` ` ` ( ` ( R ` ( ` ` ` ` ` K w ; w w w w ; w < w w w w < w F ` ` ( ` ` ` ` R ` ` ` ( ` ( ` ",
"^ x 2 w ; w w ; w < 3 w 2 w e e f R ( ( ( R ` R ( ` ` ( ` ( ` ^ m w ; w < w w w w w < < < < w w S R ` R ` ` R ` ` ` ` R ` ` R R ",
"K f ; 8 w w w < w w w 8 w w e e 2 R R R ` ` ` ` ` ` ( ` ( ` ` R w ; w w w ; w w < w w w w w w < N R ` ` ` ` R R ` ( ` R ` ` R N ",
"3 S ! [ $.[ [ $.O.O.O.$.O.$.$.$.C < x m x c x c x x x m x x x x = [ [ $.| $.| | | $.$.| [ $.| R f x x m x m m x m x x x m m x w ",
"3 [ 5.r.r.w.w.r.w.w.w.w.w.w.w.w.=.i w w 3 w w i w w w w w w w w H 0.w.w.w.w.w.w.w.w.r.r.r.r.w.>.w w w w w w x ; w w w w w w w ; ",
"2 [ r.r.r.w.w.r.w.e.e.e.w.w.e.e.4.p 8 i w w < < ; w < w w w ; ; ! w.w.r.w.w.w.w.r.w.w.r.w.w.w.0.x w ; w ; ; < w w ; ; ; ; w w w ",
"3 $.r.r.w.w.w.w.w.w.w.w.w.w.w.w.4.p < i i x < w w w w w < w w w H w.w.r.w.w.w.w.w.w.0.w.0.w.w.w.K w ; w w w w w < w w w w ; w x ",
"3 $.w.w.w.r.r.e.e.e.e.w.w.w.w.w.7.x 8 w ; 3 w p w w < < w ; ; ; H w.w.r.w.r.w.w.r.w.w.w.w.w.e.w.m ; ; x w ; w < w ; w w ; ; ; x ",
"= [ w.w.w.w.w.5.e.w.w.w.w.9.w.w...j w w < < 8 w w w w w w w ; ; H w.w.w.w.w.0.0.w.0.w.w.w.w.0.$.x ; ; w w w w ; w w < w w % ; < ",
"3 $.r.r.r.r.w.w.e.w.w.w.w.w.w.w.Z ; w p w i w ; w w w w < w w ; H w.w.y.w.r.w.r.w.w.r.w.w.e.0.| x w w w < w w w w ; w w w ; ; w ",
"3 $.w.w.w.w.w.e.w.w.w.w.w.w.9.w.K w w 3 ; w w w w w < w w < ; ; H w.w.w.w.w.w.w.r.w.w.0.5.w.w.o.w ; w w ; w x ; w ; ; < w ; w x ",
"b $.w.w.w.e.w.w.r.w.5.5.>.>.w.r.,.x 8 w w w ; w w < w w < ; w x | w.0.w.y.w.w.w.w.0.>.*.>.0.w.0.m ; < w ; w ; w w w ; w w w w K ",
"! 5.r.w.w.w.w.e.w.w.w.5.>.5.9.w.,.m 3 w ; w w < ; w w w w w w x >.y.w.w.r.w.w.r.w.w.5.1.1.0.w.0.m ; w w w w w w w w w w ; ; m ..",
"! 5.r.r.w.w.w.w.w.w.w.w.w.9.w.e.,.x w w w < ; w w ; < w w ; w x >.i.w.w.w.w.w.w.e.e.w.0.w.w.w.0.K w w < ; w w w ; w w w ; ; x &.",
"j $.e.w.w.w.w.w.e.r.r.w.e.e.w.r.,.x ; ; ; w w w w w w w < w ; w | w.w.w.w.w.w.r.e.e.e.w.w.w.w.0.m w w w w w ; w w < ; w w w w m ",
"3 [ w.e.r.r.w.w.e.e.w.w.w.w.w.w.,.c w 8 w w w w < w w < w < w w H w.w.w.r.w.w.w.w.w.e.w.w.w.0.0.m w w w w w ; w w w ; ; w w ; w ",
"j $.w.w.e.w.w.e.e.e.w.w.w.w.w.w.,.c w r w w ; w ; w w w w w w w ! w.w.w.r.w.w.r.e.e.e.w.w.e.e.w.m w w w ; w w w w w w w w w w x ",
"3 O.w.w.w.e.w.w.r.r.w.w.w.w.w.w.,.x ; w < w ; < w w w ; w w w ; H w.w.w.w.w.w.w.e.e.w.w.w.e.w.7.x ; w w w w w < w w w w < w < m ",
"$ ! 5.w.w.w.w.w.w.5.w.w.w.w.w.w.@.w ; ; w w w w ; w w w ; w w ; b >.w.w.w.w.w.w.w.0.0.0.0.0.5.>.x ; < w w w ; w w w ; w w w ; ; ",
"x w x m m K &.,.m m m m m m m m f n S S R F S R F S L F F S F S j x x x C &.=.K m m m m m m m m f S L S R R F R S L S L R S n f ",
"K x w w w x m m w ; ; ; w ; ; ; f F R ` ` ` ` ` ` ` ` ` ` ` ` R j i w < w m m w ; ; ; w ; ; ; w S ^ ` ` ` ` ` ` ` ` ( ` ` ` ( F ",
"^ m ; ; ; w w ; w w w w w w w w f R ` ( ` ` ` ` ` ` ` ` ` ` ` ` C w ; w < w w ; w w < w w w w w L ` ` ` ` ` ` ` ` ` ` ` ` ` ` ` ",
"..m w < w w w < w w w w w w w w f ( ` S n R R ( ( ( R ` R ` ( R K w < w w < w w w w w w w w w w R ` R N S ( R R ` ` ` R ` ` ` R ",
"^ m w w w < w w ; w ; w ; w ; w f ( ` S n R ( ( ` ` ( ` ( ` ( ` C w 2 w w w i w w ; w ; w ; w w R ` R N L ` R ` R ` ` ( R ` ` R ",
"^ x w w w ; w w w w w w w w w w f ( ` ` R ` ` ` ` ` ` ( ` ` ` ` m i w 8 ; w w ; w w w w w w w w R ` ` R ` ` ` ` ( ` ` ` ` ` ` R ",
"^ x w w w w w w w w w < < w w w f R o.` ` ` ( ` ` ` ( R ( ` ` ` C x w w 8 < 3 < w ; ; w ; w w < S ` ` ` ` ` ( ` ( ` ` ` R ( R ( ",
"^ x w w w ; w w < < w w w w < < n R ` ( R ( ` ` ( ` R ` ` ( ` ` m w 3 w w w w i < w w < w w w w F ` ` ` R ( ( ` R ` ` R ` ` ` ( ",
"^ m w w w w w w w < w w < w w w f R ` ` ` ` ` ` R ( ` ` ( ` ` ` K w 8 w w < w w < < w w w w 8 w F ` ` R ` ` ` ` ` ` ` ` ` ` ( R ",
"K x ; w ; w w w w ; ; w w ; ; w f R ` R ` ` ` ` ` ( ` ( ` ( ` ` b w w w w ; w < w w w < 3 w w 2 L ` ` ` ` ` ` ` ( ` ( ` ` ` ( S ",
"K w ; w ; w < w < w w w w w < < f R ` ` R ( ( ` ( ` ( ` R R ( R x 8 ; w < ; w w w w w < w 8 2 w L ` ` R ` ` ` ` ` ( R ` ` ` R S ",
"^ x w w w w w ; w w < < < w w w f ( ` ` ` ` ` ( ` ( ` ( ` ` ` ` n 3 w w w ; < w w w w w w w w w L ` ` R ` ( R ` ` ` ` R ` ` ` S ",
"^ x w < ; w w w w < w w w < w w f ( ` ` ` ` ( ` ` ` ( ` ` ` ` ` C w 3 w 8 w w ; < w 3 w 8 w 8 w R ` ` R ` ` R ( ( ` ` R ` ` ` ` ",
"^ x w w w ; w ; w ; ; w ; w ; ; f R ` ( ` ` ( ` ` ^ ` ( ` ` ` ` C w ; 8 < 2 w ; < w w < 3 w w w R ` ` ` ` ` ` ` ( ` ` ` R ` ` ` ",
"K x ; w ; w w w < w w w w w w w f R ` R R ` ` ( ( ( ( ( ( ( ( ( m w ; w w < w w w w w w w w w w S ( ` ` ` ` R ` ( ` ` R ` ` ` L ",
"m w ; w x x w w x w w w w w f w e S ` R R ` R ` ( ( ( ( ( R R R p < w x x w x w x w i x p x w p n R R R ` ` ( ( ` R ` R ( ` F n ",
"* V o.>.5.>.>.>.>.>.>.>.>.>.>.>.K ; w x x x w x w x w x w x w x t ;.>.>.>.5.>.5.>.>.>.>.;.>.>.$.w ; w x w w w x w w w x x w w w ",
"w ` 5.w.w.w.0.w.r.r.w.r.r.w.w.w.,.x ; w ; ; w w w ; w < w w w ; H 0.0.w.0.w.w.w.w.w.r.r.w.r.r.5.x 2 w w w w w w w w w w w ; w ; ",
"t $.w.r.r.r.r.w.w.w.w.w.w.w.r.w.7.m ; ; ; w ; ; ; w ; w w ; ; w H w.w.y.w.r.w.r.w.w.w.w.w.w.w.0.m w ; w ; w w ; w w w < < w w w ",
"= $.r.w.w.w.w.w.w.w.w.w.w.r.w.r.,.x w w w x w ; w w w w w < w ; ! w.w.r.w.w.w.w.w.0.w.w.0.0.w.w.K w ; w w w w ; w w w w w ; w x ",
"= $.y.w.w.w.w.w.w.w.w.r.w.w.w.r.&.x w ; % w w w w w w ; w ; ; ; H w.w.w.w.r.w.w.w.w.w.r.w.w.w.0.m w w w w w w w w w ; w ; ; w w ",
"= | r.r.w.r.r.w.w.w.w.w.w.w.w.w.^ w w w ; < w w < w w ; w ; ; ; ! w.w.r.w.r.w.w.w.w.w.w.w.w.0.$.x ; w w ; ; w ; ; ; w w w ; ; < ",
"3 | w.w.w.w.w.w.r.r.w.w.w.w.w.w.m ; w w w x w ; w w w w w ; w ; H w.w.r.w.w.w.w.w.w.r.w.w.r.w.o.w ; w w w ; w w w < w w w ; w x ",
"t $.w.r.r.r.w.r.r.w.0.0.5.5.0.w...w w ; ; w w w w ; w < < w ; w ! r.w.r.w.r.w.r.w.w.0.>.5.r.w.o.x ; ; w w w w w ; w < w w ; w w ",
"V >.r.w.w.w.w.w.r.w.5.>.>.>.w.w.7.x ; < w w w w w 8 8 w w 3 w x ;.w.0.0.r.w.w.r.w.7.1.>.>.0.e.0.m w w w w w w w w w w w w ; w ^ ",
"! 0.r.r.w.w.w.w.w.w.w.5.5.5.w.r.,.x w w w w ; w 3 2 w w 8 8 w p >.y.w.w.w.w.w.r.w.0.5.5.1.0.e.0.m ; w w ; w ; w w ; ; w w w m ,.",
"H >.r.w.w.w.w.w.w.w.w.w.w.w.w.w.,.x w w w w ; ; w w 3 w w 3 w j >.r.w.w.w.w.w.r.e.w.w.w.0.w.e.0.m w w w w w ; w w w ; w w ; x ..",
"t | w.w.w.w.w.w.w.w.w.w.w.w.w.w.,.x ; w < w w w w 8 w w 8 w w i ! w.w.w.r.w.w.w.e.w.e.e.w.w.r.0.m w w w ; w w w w w w w < % ; x ",
"= [ w.w.w.w.w.w.w.w.w.w.w.w.w.w.7.x w < ; w w w 2 w < w < w w w H 0.w.w.r.w.w.w.w.0.w.w.0.w.w.0.m ; w w ; w w w w w w w w w w x ",
"j $.r.w.w.w.w.r.w.r.w.w.w.w.w.r.,.x w w ; w ; w w w w ; w w w < ! w.w.w.w.w.r.w.e.w.w.e.0.e.e.0.m ; w w w w ; w < w w ; w w w x ",
"3 | w.w.0.w.w.w.w.w.w.w.w.w.w.w.&.w w w w w ; w w w w ; w w 3 3 H 0.w.w.w.w.w.w.e.w.w.w.w.e.e.5.m ; w w < w ; w w w ; ; w w ; w ",
"$ H 5.0.0.0.0.w.5.5.0.0.0.0.0.w...w ; w < w w < w w < w w i w ; t ;.0.0.w.w.w.w.0.0.0.w.0.w.0.*.x ; w w w w w w ; w w w w w ; ; "
};
