/* XPM */
static char *_01965120_609857703860864_8247366528979404102_n__1_1662248872[] = {
/* columns rows colors chars-per-pixel */
"64 64 234 2 ",
"   c #050000",
".  c #0B0000",
"X  c #0E0A09",
"o  c #130301",
"O  c #150804",
"+  c #140D0C",
"@  c #1B0D0C",
"#  c #1B0705",
"$  c #1A100D",
"%  c #110F10",
"&  c #161110",
"*  c #1B1513",
"=  c #260E0B",
"-  c #21110E",
";  c #2D1608",
":  c #241413",
">  c #2B1514",
",  c #241916",
"<  c #2A1A16",
"1  c #241C1A",
"2  c #2C1D1B",
"3  c #321C1A",
"4  c #351D1A",
"5  c #2C211E",
"6  c #26211E",
"7  c #34231E",
"8  c #3A241F",
"9  c #2B2422",
"0  c #2D2A29",
"q  c #2F2A27",
"w  c #342523",
"e  c #3C2622",
"r  c #342925",
"t  c #352D2A",
"y  c #3C2C2B",
"u  c #392B26",
"i  c #3D322E",
"p  c #363130",
"a  c #3C3433",
"s  c #3D3937",
"d  c #402B26",
"f  c #432C2E",
"g  c #472B26",
"h  c #4C352E",
"j  c #46342C",
"k  c #433433",
"l  c #4B3535",
"z  c #4A3934",
"x  c #443C3A",
"c  c #4C3C3B",
"v  c #4C3639",
"b  c #533C36",
"n  c #533C3C",
"m  c #563A34",
"M  c #4C312E",
"N  c #4B403E",
"B  c #53423D",
"V  c #59433A",
"C  c #4F3F40",
"Z  c #454241",
"A  c #4B4342",
"S  c #4E4948",
"D  c #554342",
"F  c #5B4544",
"G  c #5B4A47",
"H  c #534C4C",
"J  c #5C4D4D",
"K  c #5D5654",
"L  c #5D5956",
"P  c #5F5959",
"I  c #575252",
"U  c #5B504D",
"Y  c #624545",
"T  c #634C45",
"R  c #624B4A",
"E  c #674B49",
"W  c #63534D",
"Q  c #6C544E",
"!  c #675144",
"~  c #72574C",
"^  c #645553",
"/  c #6B5554",
"(  c #635854",
")  c #6A5954",
"_  c #645C5B",
"`  c #6A5B5B",
"'  c #60575A",
"]  c #735B54",
"[  c #735C5B",
"{  c #7A5D5C",
"}  c #725556",
"|  c #674E51",
" . c #69625E",
".. c #75625B",
"X. c #7A6156",
"o. c #7C5F63",
"O. c #6C6665",
"+. c #756463",
"@. c #7D6464",
"#. c #7B6A65",
"$. c #726C6A",
"%. c #7C6C6A",
"&. c #7C6668",
"*. c #7B7373",
"=. c #7E7976",
"-. c #75706C",
";. c #85685C",
":. c #927058",
">. c #836665",
",. c #836A65",
"<. c #856669",
"1. c #856B6B",
"2. c #896C6C",
"3. c #886967",
"4. c #8B726D",
"5. c #85746D",
"6. c #866E71",
"7. c #8B6F71",
"8. c #847573",
"9. c #8C7373",
"0. c #847875",
"q. c #8B7B76",
"w. c #847D7B",
"e. c #8B7D7B",
"r. c #8E7679",
"t. c #917375",
"y. c #937C75",
"u. c #947679",
"i. c #937B7C",
"p. c #9A7E7E",
"a. c #8C817E",
"s. c #93827B",
"d. c #9A837E",
"f. c #A88975",
"g. c #B1907D",
"h. c #A4816D",
"j. c #937F80",
"k. c #868080",
"l. c #8B8383",
"z. c #8F8C89",
"x. c #948684",
"c. c #9B8B84",
"v. c #938C8C",
"b. c #9A8B8B",
"n. c #96918E",
"m. c #969394",
"M. c #9C9492",
"N. c #9E9A98",
"B. c #A48988",
"V. c #A8938C",
"C. c #B59A88",
"Z. c #A49E9D",
"A. c #A99F9D",
"S. c #A79795",
"D. c #B39E99",
"F. c #B19695",
"G. c #A6A19E",
"H. c #A9A19F",
"J. c #B8A399",
"K. c #A89EA1",
"L. c #B79EA1",
"P. c #A7A1A1",
"I. c #A9A3A3",
"U. c #ADA9A6",
"Y. c #AFA9A9",
"T. c #ACA6A8",
"R. c #B3A5A4",
"E. c #B2A8A6",
"W. c #B0A7A8",
"Q. c #B3ACAB",
"!. c #B8AEAD",
"~. c #BBA6A3",
"^. c #B5B0AD",
"/. c #BDB0AA",
"(. c #B8AFB1",
"). c #B4AEB0",
"_. c #B6B1B1",
"`. c #BBB4B3",
"'. c #BEB9B6",
"]. c #C5A898",
"[. c #D1AE92",
"{. c #C2ADA3",
"}. c #CCACA3",
"|. c #CCABAC",
" X c #C4A7A6",
".X c #C9B3AB",
"XX c #D6B6AB",
"oX c #C2BCBA",
"OX c #CCBEBA",
"+X c #C5B9B5",
"@X c #D4B4B4",
"#X c #D3BCB4",
"$X c #DBBBB4",
"%X c #D6B8BA",
"&X c #DABBBB",
"*X c #D9B7B4",
"=X c #D1AEAA",
"-X c #E3BFB9",
";X c #E0BAAD",
":X c #DDC2AF",
">X c #DBC4B8",
",X c #C5C0BD",
"<X c #E8C8BB",
"1X c #F3D3BC",
"2X c #F9D5BC",
"3X c #FDDABE",
"4X c #CBCBCC",
"5X c #C8C5C4",
"6X c #DAC8C5",
"7X c #D6D3D4",
"8X c #E4CEC0",
"9X c #E7C9C7",
"0X c #F4D5C3",
"qX c #F7DAC6",
"wX c #FDDCC4",
"eX c #FBD6C9",
"rX c #FDDCC9",
"tX c #F8D7C7",
"yX c #E6CDD1",
"uX c #E7D8D5",
"iX c #F3DCD4",
"pX c #E7D0CA",
"aX c #FDE1CE",
"sX c #E2E1DF",
"dX c #FFE3D2",
"fX c #FFE8D5",
"gX c #FDE6D8",
"hX c #F4E2D7",
"jX c #EAE5E5",
"kX c #FCECE5",
"lX c #F7E5E2",
"zX c #FFFDFC",
"xX c #F8F5F2",
"cX c #FFF1E8",
/* pixels */
"I.I.I.I.I.I.I.I.I.I.I.I.I.I.I.I.I.I.I.I.I.I.I.I.I.I.R.I.I.I.I.K.K.).W.K.K.K.T.K.I.I.I.I.I.I.I.I.I.I.I.I.I.I.I.I.I.I.I.I.I.I.I.I.",
"I.I.I.I.I.I.I.I.I.I.I.I.I.I.I.I.I.I.I.I.I.I.I.I.I.I.I.I.I.I.I.+Xj.*.b.W.(.T.K.T.I.I.I.I.I.I.I.I.I.I.I.I.I.I.I.I.I.I.I.I.I.I.I.I.",
"I.I.I.I.I.I.I.I.I.P.I.I.I.I.I.I.I.T.I.I.I.I.K.I.I.I.K.I.Z.W.M.I C v C ' J x.T.I.I.I.I.I.I.I.I.I.I.I.I.I.I.I.I.I.I.I.I.I.I.I.I.I.",
"I.I.I.I.I.I.I.I.I.P.I.I.I.P.I.I.I.I.I.I.I.I.I.I.K.R.I.E.`.b.: > > / 6.&.y x W.K.I.I.I.I.I.I.I.I.I.I.I.I.I.I.I.I.I.I.I.I.I.I.I.I.",
"I.I.I.I.I.I.I.I.I.I.I.I.I.I.I.I.I.I.I.I.I.I.I.I.I.A.Q.e.$.@ v F Y C m l C : 6.(.A.A.I.I.I.I.I.I.I.I.I.I.I.I.I.I.I.I.I.I.I.I.I.I.",
"I.I.I.I.I.I.I.I.I.I.I.I.I.I.I.I.I.I.I.I.I.I.I.I.K.!.0.. y l [ 6.m Y } >.<.D C b.R.!.I.I.I.I.I.I.I.I.I.I.I.K.I.I.I.I.I.I.I.I.I.I.",
"I.I.I.I.I.I.I.I.I.I.I.I.I.I.I.I.I.I.I.I.I.I.H.E.R.x.: +.j.r.e > 4 2.>.3.2.<.f f +.+.H.I.G.I.I.I.I.I.I.I.I.I.I.I.I.I.I.I.T.P.I.I.",
"I.I.I.I.I.I.I.I.I.I.I.I.I.I.I.I.I.I.I.I.I.I.K.K.y y D r.l B.j.4 j. XB.u.<.{ M [ | B ^ I.U.I.I.I.I.I.I.I.I.I.I.I.I.I.I.I.P.I.I.I.",
"I.I.I.I.I.I.I.I.I.I.I.I.P.I.I.I.I.I.I.I.I.I.'.a i 7.v o # L.|.|.*X*X&X|.j.u.>.2.2.u.Y C H.I.I.I.I.I.I.I.I.I.I.I.I.I.I.I.I.I.I.I.",
"I.I.I.I.I.I.I.I.I.I.I.I.T.P.I.I.I.I.I.I.I.K.*.$ | / L.6.L.%X@X*X|.=X=X@X*X9Xj.<.2.>.C 3 x.W.I.P.P.I.I.I.I.I.I.I.I.I.I.I.I.I.I.I.",
"I.I.I.I.I.I.I.I.I.I.I.I.I.I.I.I.I.I.I.A._.' o ^ &.9XyXyX%X@X=X;X}.-X|.*XF.E F.B.<.3 > n ( U.I.I.T.P.I.I.I.I.I.I.P.I.I.I.I.I.I.I.",
"I.I.I.I.I.I.I.I.I.I.I.I.I.I.I.I.I.I.I.A.(.K / 6.l 9XlXyX@X|.-XeXeXeX=X=X>.> # i.<.g E C w U.I.I.I.I.I.I.I.I.I.I.I.I.I.I.I.I.I.I.",
"I.I.I.I.I.I.I.I.I.I.I.I.P.I.I.I.I.I.I.A.(.I w n o.&X%X@X@X-XXXeXeXeX;X=X$X4.Y 1.B.2.t.o.C Q.G.I.I.I.I.I.I.I.I.I.I.P.I.I.I.P.I.I.",
"I.I.I.I.I.I.I.I.I.I.I.I.I.I.I.I.I.I.R.A.W.l.- 2 j.&X|. X X}.XX;X2XeX<X<X>X{.{.6X%Xu.6.7., *.!.I.I.I.I.I.I.I.I.P.I.T.P.I.P.T.I.I.",
"I.I.I.I.I.I.I.I.I.I.I.I.I.I.I.I.I.I.I.I.I.E.l > 1.@X9X&XB Y ].1XeXeX}.h ) ( u v L.t.Y i.5 0.Q.I.I.I.I.I.I.I.I.I.I.I.I.I.I.I.I.I.",
"I.I.I.I.I.I.I.I.I.I.I.I.I.I.I.I.I.I.I.I.U.S.u &.{.%X|.F.1.c.X.aX1XrXm m J.lX0.. L.j.4 n D (.K.I.I.I.I.I.I.I.I.I.I.I.I.I.I.I.I.I.",
"I.I.I.I.I.I.I.I.I.I.I.I.I.I.I.I.I.I.I.I.P.I.x.#Xq.] ~.o - . ! g.aXaX;.B o c  .F ] 8Xy.= +.Q.G.I.I.T.P.I.I.I.I.I.I.I.P.I.I.I.I.I.",
"I.I.I.I.I.I.I.I.I.P.I.I.I.I.I.I.P.I.I.I.I.(.%.k pXJ.V.o c...V ].aXqX8XJ.s.J.. ~.$X8XqXy.5 U.I.I.I.P.I.I.I.I.I.I.I.I.T.P.I.I.I.I.",
"I.I.I.I.I.I.I.I.I.I.I.I.I.I.I.I.I.I.P.T.I.H.E.w c.cX<X].~ <XqXaXwXwXdX].;.g J.fXXX].qXH.i ^.I.I.I.I.I.I.T.P.I.I.I.I.I.I.I.I.I.I.",
"I.I.I.I.I.I.I.I.I.I.I.I.I.I.I.I.I.I.P.P.I.I.!.%.O /.8XfXC.:.<X2X:.f.wX3Xh.g.dX0X1X$XJ.W E.U.U.I.I.I.I.I.P.I.I.I.I.I.I.I.I.I.I.I.",
"I.I.I.I.I.I.I.I.I.I.I.I.I.I.I.I.I.I.I.I.I.I.I.U.p . i fXaXwX2X2X[.[.3X2XwX2X0XqX<XT . w.^.G.I.I.I.I.I.I.I.I.I.I.I.I.I.I.I.P.I.I.",
"I.I.I.I.I.I.I.I.I.I.I.I.I.I.I.I.I.I.I.I.I.I.I.I.G.K u Q fX1X2X2X3X3X2X3X1XqXfXh O ( U.U.G.G.I.I.I.I.I.I.I.I.I.I.I.I.I.I.I.I.I.I.",
"I.I.I.I.I.I.I.I.I.I.T.P.I.I.I.I.I.I.I.I.I.I.I.I.G.oXz.  ! gXfXaXwX2XwXdXfXfXN . n.`.I.G.I.I.I.I.I.I.I.I.I.I.I.I.I.I.I.I.I.I.I.I.",
"I.I.I.I.I.I.I.I.I.I.P.I.I.I.I.I.I.I.I.I.I.I.I.I.G.G.N.-.: z V.XX:XaX>X.XV 8 $ v.^.Z.I.I.I.I.I.P.I.I.P.I.I.I.I.I.I.I.I.I.I.I.I.I.",
"I.I.I.I.I.I.I.I.I.I.I.I.P.T.P.I.I.T.P.I.I.I.I.I.I.I.T.Y.~.a.O o h hXi . z ( R.!.Z.I.I.I.I.I.I.I.I.I.I.I.I.I.I.I.P.T.I.I.I.I.I.I.",
"I.I.I.I.I.I.I.I.P.I.I.I.I.I.I.I.I.I.I.I.I.I.I.I.I.I.Y.N.O d W /.k 5 c.H.z D , 8.Y.I.I.H.G.U.I.I.I.I.I.I.I.I.I.I.I.P.I.I.I.I.P.I.",
"I.I.I.I.I.I.I.I.I.I.I.I.I.I.I.I.I.I.I.I.I.I.I.I.I.I.G.i h X.B.hX, q zXzX>XX.T B _.I.I.I.H.U.I.I.I.I.T.P.I.I.I.I.I.I.I.I.I.I.T.P.",
"I.I.I.I.I.I.I.I.I.I.I.I.I.I.I.I.I.I.I.I.I.I.I.I.I.G.I.< j ;.....6   A  .T ;.e D !.I.I.I.H.G.H.U.I.I.P.I.I.I.I.I.I.I.I.I.I.I.I.I.",
"I.I.I.I.I.I.I.I.I.I.P.I.I.I.I.I.I.I.I.I.I.I.I.I.G.U.G.i s.y.z q.O.  `.5.; d.h B `.G.I.I.I.I.I.I.I.I.I.I.P.T.P.I.I.I.I.I.I.I.I.I.",
"I.I.I.I.I.I.I.I.I.I.I.I.I.I.I.I.P.I.I.I.I.I.I.I.I.N.9 * zX..Q ) @ . 5 j ~ ~ 5.N M.M.I.I.I.I.I.I.I.I.I.I.I.I.I.I.I.I.I.I.I.I.I.I.",
"I.I.I.I.P.I.I.I.I.I.I.I.I.I.I.I.I.I.I.I.I.I.I.I.U.n.  =.z - ] ] R c V Y ;.m G.7 *.^.G.I.I.I.I.I.I.I.P.I.I.I.I.I.I.I.I.I.I.P.I.I.",
"I.I.I.I.I.I.I.I.I.I.I.I.I.I.I.I.I.I.I.I.I.I.I.I.U.q N.zXt $ 1.] Q Q 4.3.~ b zXm.  n.U.I.I.I.I.I.I.I.I.I.I.I.I.I.I.I.I.I.I.I.I.I.",
"P.T.I.I.I.I.I.I.I.I.I.I.I.I.I.I.I.I.I.I.I.I.I.U.N.  m.zX`.. F @.>.>.{ { n b.zXxX* $.'.Z.I.I.I.T.K.I.I.I.I.I.I.I.I.I.I.I.P.I.I.I.",
"P.I.I.I.I.I.I.P.I.I.I.I.I.I.I.I.I.I.I.I.I.I.I.G._.O.  m.zX0 F o.,.2.F +.v R zXzX0 * m.U.K.I.T.K.P.I.I.I.I.I.I.I.I.I.I.I.T.P.I.I.",
"I.I.I.I.I.I.T.P.I.I.I.I.I.I.I.I.I.I.I.I.I.I.I.I.N.0   . A p r.E Y R Y F &.2 N. .%   _ !.A.I.I.T.I.I.I.I.I.I.I.I.I.I.I.I.I.I.I.I.",
"I.I.I.I.I.I.I.I.I.I.P.P.T.I.I.I.I.I.I.I.K.G.G.+XS   . . . C / 1.<.@.u.6.r.:       H E.H.R.I.I.I.I.I.I.I.I.I.P.I.I.I.I.I.I.I.I.I.",
"I.I.I.I.I.I.I.I.I.I.I.P.P.I.I.I.I.P.P.Y.^.I.E.-.  ..) $ o F . f J | r o | v     @ K.R.S.I.I.I.I.I.I.P.I.I.I.I.I.I.I.I.I.I.I.I.I.",
"I.I.I.I.I.I.I.I.I.I.I.I.P.T.I.I.I.Z._.Z 5 M.OX5 ( ,XuXB e >.} , @ . . - / [ O S._ c x.i.R.I.I.I.I.I.T.P.I.I.I.I.I.I.I.I.I.I.P.I.",
"I.I.I.I.I.I.I.I.I.I.I.I.I.I.I.I.I.!.w.* O D q.u OX{.Q w 3.2.j.v . D Y 7.7.1.: r.V.. E..XR.H.I.I.I.I.I.I.I.I.I.I.I.P.I.I.I.I.T.P.",
"I.I.I.I.I.I.I.I.I.I.I.I.I.I.I.I.K.W.w.@ ( 7 z c.>X4.o V t.<.7.| %.[ t.<.2.t.F o ~...8 ) M.U.I.P.I.I.I.I.I.I.I.I.I.I.I.I.I.I.I.I.",
"P.I.I.I.I.I.I.I.I.P.I.I.I.I.I.I.I.K.^.a.. W >X.X#XT b 4.1.2.} f f r 7.<.2.2.2.o 9.6X) o r !.G.P.I.I.T.P.I.I.I.I.I.I.I.I.I.I.I.I.",
"I.I.I.I.I.I.I.I.I.I.I.I.I.I.I.I.P.I.I.`.%.W #X}.V.3 3.1.1.2.>.v J C r.u.7.2.2.d 4 {.uXe.1 W.I.I.I.I.P.I.I.I.I.I.I.I.I.I.I.I.I.I.",
"I.I.I.I.P.T.I.I.I.I.I.I.I.I.I.I.I.I.I.T.x.W >X>X8.. +.5.>.2.F 4 k 9 C f Y 7.,.t.# y.x.w e.!.I.I.I.I.I.I.I.I.I.I.I.I.I.I.I.I.I.I.",
"I.I.I.I.P.I.I.I.I.I.I.I.I.I.I.I.I.I.I.I.G.t ( 0.uXk o X.3.2.l o     > = { 2.3.9.F @ c a.I.I.I.I.I.I.I.I.I.I.I.I.I.I.I.I.I.P.T.P.",
"I.I.I.P.I.I.I.I.I.I.I.I.I.I.P.T.I.I.P.'.n.6 a z.G.^.s.8 X.;.y...X   n 1.9.>.>.1.c : _.Q.I.I.I.I.I.I.I.I.I.I.I.I.I.I.I.I.I.I.I.I.",
"I.I.I.P.I.I.I.I.I.I.I.I.I.I.P.P.I.I.Y.S % z.,X,X$.G uXQ E 4.3.%.@ . y 2.>.<.F l a a N.U.I.I.I.I.I.I.I.I.I.P.I.I.I.I.I.I.I.I.I.I.",
"I.I.I.T.I.I.I.I.P.I.I.I.I.I.P.P.T.Y.Z & N.4X5X`.G.c.B.m h R 5.%.+ . + 8.%.G - O A O.I.I.I.I.I.I.I.P.I.I.I.I.I.I.I.I.T.P.I.I.I.I.",
"I.I.I.I.I.I.I.I.P.T.I.I.I.I.T.T.Y.z.L xX7X4X4X4X,XS.u d . . * O . * @ G : . + A '.W.I.I.I.I.I.I.I.T.P.I.I.I.I.I.I.I.P.I.I.I.I.I.",
"I.I.I.I.I.I.I.P.P.I.I.I.I.I.I.P.P.Z.p 5XjX4X4X4X4Xa.a.x B t   S l.e.. - 2 . ( O.Q.Z.I.I.I.I.I.I.I.I.I.I.I.I.I.I.I.I.I.I.I.I.I.I.",
"I.I.I.I.I.I.I.T.I.I.I.I.I.I.I.I.I._.O.  5XsX4X7XP.-.'.N /.a.  $.5Xx B ,X,X1 K `.K.I.I.I.I.I.I.I.I.I.I.I.I.I.I.I.I.I.I.I.I.I.I.I.",
"I.I.I.I.I.I.I.I.I.I.I.I.I.I.I.I.I.I.Y.s % zXxXN.I v.!.D {.:X6 U +XO 5.hXS.. a.Y.K.P.I.I.U.I.I.I.I.I.I.I.I.I.I.P.I.T.P.I.I.P.I.I.",
"I.I.I.P.I.I.I.I.I.I.I.I.I.I.I.I.I.I.I.Y.=.Z ^.p O.`.U.U <X<X6 K '.$ 5.cX#.@ _.I.I.P.I.I.I.I.I.K.I.I.I.I.I.I.I.T.I.P.I.I.I.I.I.I.",
"I.I.I.I.I.I.I.I.I.I.I.I.I.I.I.I.I.I.I.I._.w.0 A U.Z.E.G >XhX6 ( oXo #.kXO K Q.I.I.I.I.I.I.I.K.W.I.I.I.I.I.I.I.P.T.P.I.I.I.I.I.I.",
"I.I.I.I.I.I.I.I.I.I.I.I.I.I.I.I.I.I.I.I.P.Y.Y.T.H.H.`.w ..kX< K `.i OXkX% j.Q.G.I.I.T.I.I.I.I.I.I.P.I.I.I.I.I.I.P.I.I.I.I.I.I.I.",
"I.I.I.I.I.T.P.I.I.I.P.P.I.I.I.I.I.I.I.I.T.P.I.I.I.G.`.9  .zXu ( T.P jX(.% *.Q.P.I.I.I.I.I.I.I.I.I.I.I.I.I.I.I.I.I.I.I.I.I.I.I.I.",
"I.I.I.I.I.I.P.I.I.I.T.I.I.I.I.I.I.I.I.I.P.P.I.I.I.I._.s K jX* L (.H '.4X1 k.Y.P.I.I.I.I.I.I.I.I.I.I.I.I.I.I.I.I.I.I.I.I.I.I.I.I.",
"I.I.I.I.I.I.I.I.I.I.I.I.I.I.I.I.I.I.I.I.I.I.I.I.I.I.Y.l.O.7X_ P ).H jX7XI Q.P.P.I.I.I.I.I.I.I.I.I.I.I.I.I.I.I.I.I.I.I.I.P.I.I.I.",
"I.I.I.I.I.I.I.I.I.I.I.I.I.I.I.I.I.I.I.I.I.I.I.P.P.I.'.k.*.zXl.L ).H Y.v.S Y.P.P.I.I.I.I.I.I.I.I.I.I.I.I.P.I.I.I.I.I.I.I.T.P.I.I.",
"I.I.I.I.I.I.I.P.I.I.P.I.I.I.I.I.I.I.I.I.I.I.I.G.T.m.v.H & Z    .(.9     x 5XY.Y.T.I.I.I.I.I.I.I.I.I.I.I.T.P.I.I.I.I.I.I.I.I.I.I.",
"T.I.I.I.I.I.I.I.I.I.I.I.I.I.I.I.I.I.I.I.I.I.I.^._.Z Z &       L '.0 % X & Z v.l.n.T.P.I.I.I.U.I.I.I.I.I.I.I.I.I.I.I.I.I.I.I.I.I.",
"P.I.I.I.I.I.I.I.I.I.I.I.I.I.I.T.I.I.I.I.I.I.T.$.I I *       & * P s 0   % A S H $.Y.P.I.I.I.I.I.I.I.I.I.I.I.I.I.I.I.I.I.I.I.I.I.",
"P.I.I.I.I.I.I.I.I.I.I.I.I.I.P.P.I.I.I.I.I.K.T.v.k.l.v.Z.$.& s L A l.k.a A P P ).Q.P.I.I.I.I.I.I.P.I.I.I.I.I.I.I.I.I.I.I.I.I.P.I.",
"I.I.I.I.I.I.I.I.T.P.I.I.I.I.I.I.I.I.I.I.I.I.P.Y.).Y.Y.T.^.G.*.*.=.G.Y._.Q.U.T.I.I.P.I.I.I.I.T.P.I.I.I.I.P.I.I.I.I.I.I.I.I.I.I.I.",
"I.I.I.I.I.I.I.I.I.P.I.I.I.I.I.I.I.I.I.I.I.P.P.P.P.P.P.I.G.I.Q.!.^.U.I.Z.G.I.I.P.I.T.I.I.I.I.P.I.I.I.I.I.T.P.I.I.I.I.I.I.I.I.I.I."
};
