/* XPM */
static char *ZXhpdA__[] = {
/* columns rows colors chars-per-pixel */
"64 64 225 2 ",
"   c #050403",
".  c #0D0303",
"X  c #050C06",
"o  c #0C0B03",
"O  c #0C040A",
"+  c #060A0C",
"@  c #0C0B0C",
"#  c #06050A",
"$  c #140403",
"%  c #1B0303",
"&  c #140A04",
"*  c #1B0A04",
"=  c #13050B",
"-  c #1B050A",
";  c #140A0B",
":  c #1B0B0B",
">  c #0C100A",
",  c #081001",
"<  c #12110C",
"1  c #1C110D",
"2  c #141503",
"3  c #090712",
"4  c #0C0C12",
"5  c #030C13",
"6  c #130B12",
"7  c #1A0B13",
"8  c #130512",
"9  c #0D1213",
"0  c #151314",
"q  c #1C1312",
"w  c #1B1814",
"e  c #191719",
"r  c #230203",
"t  c #2C0102",
"y  c #230A05",
"u  c #2B0A03",
"i  c #24040A",
"p  c #2D050D",
"a  c #230A0B",
"s  c #290B0D",
"d  c #320102",
"f  c #370308",
"g  c #25120E",
"h  c #250D13",
"j  c #280B17",
"k  c #310E12",
"l  c #231315",
"z  c #2A1415",
"x  c #231A16",
"c  c #2D1A14",
"v  c #24141A",
"b  c #2B1518",
"n  c #231B1D",
"m  c #2B1C1D",
"M  c #351314",
"N  c #28251E",
"B  c #1D1D20",
"V  c #2B1E21",
"C  c #281827",
"Z  c #341C24",
"A  c #321E2A",
"S  c #242425",
"D  c #2B2124",
"F  c #292B27",
"G  c #28242B",
"H  c #332C2B",
"J  c #3D2D2D",
"K  c #362827",
"L  c #34352E",
"P  c #3F302D",
"I  c #2E2732",
"U  c #3A2D33",
"Y  c #332C37",
"T  c #353235",
"R  c #3B3334",
"E  c #393A3A",
"W  c #273325",
"Q  c #422E2C",
"!  c #482A2A",
"~  c #522E2E",
"^  c #42312C",
"/  c #48302C",
"(  c #432D33",
")  c #4C2F35",
"_  c #443333",
"`  c #4A3334",
"'  c #46333B",
"]  c #4C393B",
"[  c #473739",
"{  c #533738",
"}  c #643C3B",
"|  c #5F413F",
" . c #463842",
".. c #6C3D45",
"X. c #663C49",
"o. c #32434D",
"O. c #3D4A54",
"+. c #3E4555",
"@. c #5F444D",
"#. c #5E4A4C",
"$. c #594846",
"%. c #5E524E",
"&. c #424A54",
"*. c #434A59",
"=. c #4A4A52",
"-. c #43515C",
";. c #534D50",
":. c #664847",
">. c #634449",
",. c #624B4C",
"<. c #6B4C4C",
"1. c #6A4446",
"2. c #77414A",
"3. c #64524E",
"4. c #6C524F",
"5. c #654D52",
"6. c #694D51",
"7. c #6A4453",
"8. c #655253",
"9. c #695353",
"0. c #6B5558",
"q. c #6A5854",
"w. c #715156",
"e. c #7E6A5F",
"r. c #455360",
"t. c #7B6B6C",
"y. c #636D79",
"u. c #6C6E7B",
"i. c #686D74",
"p. c #716C73",
"a. c #6B7076",
"s. c #6A747B",
"d. c #647379",
"f. c #912E28",
"g. c #8A3626",
"h. c #9B322E",
"j. c #8C3732",
"k. c #82412B",
"l. c #8E5D4C",
"z. c #855B5A",
"x. c #945A5D",
"c. c #A4554E",
"v. c #86655C",
"b. c #93615E",
"n. c #935B65",
"m. c #9B5E6D",
"M. c #826362",
"N. c #87676D",
"B. c #8B646A",
"V. c #85696B",
"C. c #8A696D",
"Z. c #856764",
"A. c #9A6664",
"S. c #976570",
"D. c #A06372",
"F. c #B48577",
"G. c #D1877A",
"H. c #687681",
"J. c #737582",
"K. c #9D9D9B",
"L. c #9A9698",
"P. c #A88E8B",
"I. c #B68684",
"U. c #B28A84",
"Y. c #B58D8D",
"T. c #BA8987",
"R. c #AB948D",
"E. c #B5928B",
"W. c #BB8D91",
"Q. c #A29997",
"!. c #A49D9C",
"~. c #AB9D9D",
"^. c #A69596",
"/. c #BB9493",
"(. c #B39C9D",
"). c #BA9D9C",
"_. c #B8969A",
"`. c #9FA19C",
"'. c #A5A29E",
"]. c #AAA19E",
"[. c #B3A29F",
"{. c #BBA097",
"}. c #9C9DA3",
"|. c #969DA5",
" X c #889BA1",
".X c #A49DA1",
"XX c #AA9EA1",
"oX c #AE9FA9",
"OX c #A09EAC",
"+X c #B49EA1",
"@X c #B99EA2",
"#X c #9EA3A3",
"$X c #97A0A6",
"%X c #A6A3A2",
"&X c #ADA1A2",
"*X c #A8A4A3",
"=X c #AAA5A2",
"-X c #ADA4A2",
";X c #A9A3A5",
":X c #ABA2A5",
">X c #ACA3A4",
",X c #AAA5A4",
"<X c #ADA4A5",
"1X c #AEA6A6",
"2X c #A9A3A3",
"3X c #A6A9A4",
"4X c #ADA9A6",
"5X c #ABA9A6",
"6X c #A5A5A8",
"7X c #ACA4A9",
"8X c #ADA9A9",
"9X c #B2A4A4",
"0X c #BAA3A5",
"qX c #B2A9A6",
"wX c #B2A6A9",
"eX c #B1A9A9",
"rX c #B4ABAB",
"tX c #BEA5A8",
"yX c #B4B0AD",
"uX c #B9A8B0",
"iX c #C38983",
"pX c #D88380",
"aX c #C0918B",
"sX c #C09A99",
"dX c #DAB2B2",
/* pixels */
"2X2X2X2X2X*X2X*X2X2X2X*X2X*X2X2X2X2X2X2X2X*X2X2X2X2X2X2X2X*XXX2X;X:X:X:X:X:X:X:X;X;X;X;X;X;X;X;X2X2X2X2X%X;X2X2X2X2X2X2X2X2X2X*X",
"2X2X2X2X2X2X2X2X*X2X2X*X2X2X*X2X2X2X*X2X2X2X2X;X2X2X2X*X2X2X%X;X:X:X:X;X:X:X:X:X;X;X;X;X;X;X;X%X2X2X2X2XXX*X2X2X2X2X*X2X*X2X*XXX",
"2X*X2X*X2X2X2X;X2XXX*X2X2X2XXX%X2X2X%XXX2X2X2X%X2X*X2X2X2X*X2X2X2X2X2X2X2X2X2X2XXX*X2X*X2X2X*X2X*X2X2X2X2X2X2X2X2X2X2X2X*X2X2X2X",
"2X2X2X2X2X2X2X%X2X*X2X2X2X2X2X;X2X2X;X*X*X2X*XXX2X2X2X*X2X2X*X2X2X2X2X2X2X2X2X2X*X2X2X2X2X2X2X2X2X2X2X*X2X*X2X*X*X2X*X2X2X2X2X*X",
"2X*X2X2XXX*X*XXX2X2X2X2X2X2X*X2X2X2X*X2X2X2X2X2X2X*X*X2X2X2X2X*X*X*X*X*X*X*X2X2X2X2X2X2X2X2X2X2X2X2X2X*X2X2X2X2X2X2X2X2X2XXX%X;X",
"2X2X*X2X2X*X2X2X2X2X2X2X2X2X2X2X2X*X2X2X*X2X*X2X2X2X2X2XXX*X2X2X*X*X*X*X*X*X2X2X*X2X*X2X2X2X2X2XXX*X2X2X*X2X*XXX2X*X2X*X2X*X2X;X",
"2X2X2X2X2X2X2X2X2X*X%X;X2X2X*X2X2X2X2X2X2X2X2X*X2X*X2X2X%X2X2X2X*X*X*X*X*X*X*X*X2X2X2X*X2X2X2X2X%X2X2X2X2X*X2X*X*X2X2X2X2X2X2X2X",
"*X2X*X2X2X*X2X*X2X2XXX*X2X*X2X2X*XXX*X2X*X2X2X*X*XXX2X*X;X2X2X2X*X*X*X*X*X*X*X*X*X2X2X2X2X2X2X2X;X2X2X2X2X2X2X2X*XXX2X*X2X2X2X2X",
"2X*X2X2X2X2X2X2X2X*X*X2X2X2X2X2X:X:X&X2X&X9X2XXXXX2X2XXX2X<XXX<X*X6X*X2X2X!.2X*X.X*X<X,X2X*X,X*X2X2X2X2X2X2X2X2X2X*X*X2X2X2X2X*X",
"2X2X2X2X2X*X2X*X2X2X2X2X2X*X2X*X;X2X&X;X<X!.<XeXeX~.:X2X~.wX2X;X,X!.*X<X3XeX2X*X<X<X!.,X*X].2X*X2X2X2X2X2X*X2X*X2X2XXX*X2X*X2X2X",
"2X*X2X2X*XXX2X2X2X2X2X*X2X;X2X2X2X9X!.eXXX;X:X~.2X~.wX2X<XQ.rX;X].qX=X!.9XQ.].qX].'.*X'.qX'.qX'.2X*X%X;X*X2X2X2X2X2X2X2XXX*X2X*X",
"2X2X2X2X;X%X*X2X*X2X*XXX2X%XXX*X<X<XXX<X!.<X<X:X!.wX2X!.2X7X<X!.=X!.=X9X=X~.rX!.=X*X5X!.=X'.5X5X2X2XXX*X2X2X*XXX*X2X*X2X%X2X2X2X",
"2X2X2X*X2X2X2X2X2X2X2X*X2X2X2X2X2XQ.rX:X<X2XXX<XeX!.wX:X2X:XXX9X~.qX!.=X~.&XqX].qX].'.4X5XqXQ.'.2X2X2X*X2X*X2X*X2X;X*X2X;X2X2X2X",
"*X2X*XXX2X2X2X2X2X*X2XXX2X2X*X2X<X<X;XXX2XeXXX&X;X7X~.2X2X&X:X~.&X9X&X~.9X&X].~.].'.qX*X'.'.5X5X*X2X2X2X2X2X2X2X2X%XXX2X2X2X2X2X",
"*X2X2X2X%X;X2X2X*X2X2X*X2X2X2X2XXXwXQ.XXrX!.;X:X2XO ; <XrX!.!.rX$ : ~.&X&X&X. 1 =X2X!.eX'.Q.qX'.2X2X2X*X2X*X2X2X2X2X*X2X*X2X2X2X",
"2X2X2X*XXX*X2X*X2X2X2X2X*X2X*X2X2XXXrXXXXX7 ; $ ; ; t.. = : $ ; ; t.- % % : ; L.& % : (.].rX].'.2X;X%XXX2X2X*X2X2X2X2X2X2X2X2X*X",
"2X2X2X2X2X*X2X2X*X2X2XXX*X2X2X2X*X2X+X+X% 0.( ' ( Z = @.- ) ( _ b - X.p ~ / z * Z.E.W.r r [.].].2X2X2X2X*XXX*X*X2X2X2X2X*X2X*X2X",
"2X*X2X2X2X2X*X2X2X2X2X*X*X2X2X2X%XXX9Xi 5.b l h ) ( v = C.r % . = $ i B.r M y c * r r W.Y.u [.].2X2X2X2X2X2X2X2X*X2X*XXX2X2X2X2X",
"2XXX%X2X2X2X2X2X*X2XXX*X2X*X2X;X,X:X% 6.z - - ; : - 7 $ i N.a & 7 ; 7 $ N.r p $ o & * y t V.. *X].2X2X2X*X2X*X2X2X*X2X*X2X*X*XXX",
"2X*X;X2X*X2X*X2X2X2X*X2X2X2X2XXX!.: 0.l - & ].9XXX- >.i @X% . v w O ;XXX$ s ~.~.'.5X. $ z $ 1 ].'.*X2X2X2X2X2X2X2X2X2X2X2X2X2X*X",
"*XXX2X2XXX2X2X2X*X2X2X2X2X2X2X2X; 8.J = ; ].'.=X'.: >.% ).[.* _ E < ;XwXXXXX;X8X5X!.4X< ; x #.; &X*X2X2X2X2X*X2X2X*X2X*X2X2X2X*X",
"2X*X2X*X%X;X2X2X2X2X*X2X2X2X2X&X$ 0._ $ qXQ.yX'.5X$ 1.r tX].$ %.%.X 9XXX2X6X6X}.7X!.7X2X; q q.: &X*X2X2X2X2X2X2X2X2X2X2X*X2X2X2X",
"2X*X2X2X2X2X2X2X*X2X2X2X2X2X2X&Xy ,.x ; '.4XK.5X!.: } f [.~.1 ^ J : +XXX6X8X}.7XoXuX^.wX= _ 6.$ :X2X2X2X2X2X2X2X2X*X2X2X2X2X*XXX",
"2X2X2X*X2X*X2X2X2X2X2X2X2X2X2X].- <.v & 5X`.5X'.3X& W.t (.[.$ 3.4.% &X4X%X#XrXXXoXoXuX= $ k 5.i &X2X2X2X2X2X2X*X2X2X2X2X2X2X;X%X",
"2X2X2X*X2X*X2X*X2X*X2X2X2X2X2X9Xr <.( ; '.'.4X'.3X. T.f 0X~.* / ~ r [.'.3X3X;X:XwXoXoXi >.i k % &X;X2X<X!.,X4X2X2X*X*X2X2X2X2X2X",
"*X2X2X2X2X2X2X2X2X2X*X2X2X2X2X~.r { ( 6 '.'.4X*X%X1 x.d (.qX. 4.<.r ].'.'.'.wX9XXX9X!.XX- N.t % 9X*X<X!.8X7X!.*X%XXX2X2X2X*X2X*X",
"2X2X2X*X2X2X2X;X;X%X2X2X2X2X2X9Xr ! ' = ].'.7X%X`.* F.f ).&X* ^ ! * [.].*X<X.X:X;X2X4X'.: % z.p ~.<X*X2X*X'.,X<X;X2X2X2X2X2X2X2X",
"2X;X%XXX2X2X2X%X2XXX*X2X2X2X2X].* ~ ' 8 2X*XXX6X3X$ aXd (.~.* 4.3.$ ].9X=X'.,X*X'.5X'.K.; c r N.= 2X2X*X2X<X.X*X2X2X2X2X*X*XXX*X",
"2X2X2X2X2X*X*XXX2X2X2X2X*X2X2X&X* #. .= XX&XoX%X3X* U.d +X9X: J Q : qX!.=X].*X,X5X`.5X5X$ l w.r * ;X,X*X;X<X*X*X2X2X2X2X2X*X2X2X",
"2X2X*X2X*XXX2X2X2X2X2X*X2X2X2X].& 9.U 8 &X:X;XoX!.& F.u +XXX& 3.8.& ~.9X*X'.*X3X'.5X'.5X: h <.% XX,X*X2X,X!.,X<X2X*X2X2X2X2X*X2X",
"2X2X2X2X2X2X2X2X2X2X*X2X*X2X2X].& $.D 8 :X&X7XoX8X& v.u (.9X: ^ ` - 9X2X*X3X'.%X*X=X!.$ - b 0.- :X*X,X!.8X4X!.2X*X2X2X2X;X%X2X2X",
"2X*X2X*X2X*X2X*X2X2X2X2XXX*X*X2X* ^ v 8 9X2X7X6X6X].* {.9XXX= 3.5.- XX2X*X%X%X6X6X!.&Xa >.% z & &X2X2X<X!.,X7X.X2X2X2X2X2XXX*X2X",
"*X2X*X2X2X2X2X;X2X2X2X2X2X2X2X&X& Q m ; ;X,X%X6X*X5X[.[.~.~.% _ _ ; !.4X].'.8X3X6X#X%X: ..d s & ].].4X*X;X<X,X2X*X2X2X*X2X*XXX%X",
"2X2X2X2X2X2X2X%X2X*X2X*X2X2X2X].% { Q = :X6X6X6X'.rX!.~.rX(.: 5.8.. '.'.qX&XL.3X#X#X3X!.r I.u * Q.qX!.*X<X!.,X*X2X2X2X2X2X2X2X;X",
"2X2X*X2X2X2X*XXX*X2X2X2X2X2X2X2X- >.] $ 7X7X6X6X6X!.*X=X9X~.& ] ` - 7XqX!.~.rX2XrXXX9XwX- r U.r qX*X<X*X*X,X4X,X*X*X2X*X2X2X2X2X",
"XX*X2X2X2X*X2X2X2X2X2X2X2X2X2X&X& 9.( $ 7X;X*X6X5X'.<X].XXrX8 ;.8.$ XX:XXX9X~.9XXXXXXX&X& & /.% ~.,X.X2X,X,X!.,X2X2X2X2X2X2X2X2X",
"*X*X2X2X*X2X2X2X*X2X*XXX2X2X*X&X% 8.m - <X*X;X*X*X'.3X.XXX.X8  . .7 XXwXQ.wXXX+X2X,XqX+X& / % (.: &X2X!.,X*X.X,X2X*X2X2X*X2X*X2X",
"2X2X*X2X2X2X2X*X2X2X2X*X2X*X2X2X- #.h = &X2X2X*X'.eX6X; 0 3 3 3 3 6 8 @ w .XwX+X3X3XXX+X= m Q % $ !.<X2X'.7X,X;X2X2X2X2X2X2X2X2X",
";X%X2X2XXX*X2X*X2X*X2X*X2X2X2X&X: ] l * [.&X=X'.'.'.'.O |.p.J.u.OXOX|.$X  8X:X!.L.eX].:X; w _ % 9X7X'.8X,X<X!.*X2X*X2X2X%XXX*X2X",
"2XXX*X2X*X2X2X2X2X2X2X2X2X2X2X:X% U b & ].qX].].5X'.8X@ }.|.H.+.*.y.O.d.9 K.*X<X3X3X~.8Xo q _ % .X,X,X,X!.2XrX*X2X2X2X2X;X*X2X2X",
"2X2X2X2X*X2X*XXX2X2X2X2X2X*X2X&X: ] l $ !.=X=X[.'.5X].+ #X*.+.*.y.*. Xd.5 8X3X'.3X'.3X!.: z ,.= 2XXX2X2X2X2X2X2X2X*X*X2X2X2X2X2X",
"2X2X2X*X2X2X2X*X*X2X*X2X*XXX;X&X$ U _ : rX9XQ.=X4X4X!.@ a.|.*.d.r.o.H.|.4 .X2X5X*X'.'.1 % r b & 2X*X2X*X2X2X2X2X2X2X2X2X2X*XXX*X",
"2X2X*X2X2X*X2X*X*X2X*X2X2X2X2XXX: 8.' = !.&X9X2X].K.2X6X3 s.y.*.O.d.$X9 %XXX&X2X'.3X,X$ D.m.& ; 2X2X2X2X2X*X%X;X2X*X2X2X2X2X%X;X",
"2X2X2X2X2X2X2X2X2X2X2X2X2X*X2X2X$ 6._ O wX~.=X5X'.8X5X#X4 $X-.a.O.i.d.4 .XwX&X&X*X3X!.0Xd n.% & ].2X*X2X2X2XXX*X*XXX2X*X2X2X2X2X",
"2X2X2X2X2X2X2X*X2X2X2X2X2X2X,X&X7 #.v ; ; 7X;X%X.X,X3X6X@ K.i.i.=.=.a.+ ,X<XXX'.~.XXqX% i _.i r &X2X2X2X2X2X*X2X2X2X2X2X2X*X2X2X",
"2X*X2X2X*X2X%XXX2X2X2X*X2X2X*X].$ 8.v . ; ; .X5X5X!.K.8X@ }.i.=.p.}.}.9 5X!.XXeX<X9X$ & & $ Y.% &X2X2X2X2X*X2X2X2X*X2X*X2X2X*X2X",
"*X2X2X2X2X2X;X2X2X2X2X2X2X2X2X&X: Q V $ 0 O 7X6X%X*X<X*X6X+ 0 # O 4 + K.6X6X<X~.%X6X. : & * P.y ].2X2X2X2X2X2X2X*X2X2X2X2X2X2X2X",
"*X*X2X2X2X2X2X2X2X2X2X2X2X2X*X*X= v q 7 . ; 3X6X%X& $ & 3X3X#X6X6X%X5X6X%X3X=X].,X!.< ; $ x & & &X2X2X2X2X*X2X;XXX2X*XXX*X2X*X2X",
"%X6X%X;X&X;X&X&X:X<X*X%X7X7XXX7X8 6 O @ ; X & o o * T.r o , + 9 > X 6 O 7 o o & : $ &   ; = 3 6 ;X,X;X;X;X:X:X:X:X:X;X&X;X2X2X*X",
"%X%X2X;X2X:X:X&X:X*XeX8XL.;XrX.X# @ T > o <   R & i I.r 2 W I Y > F E U O P L K % V.& L H R 8 3 6X6X6X,X;XXX:X:X7XXX&X2X2X2X*X*X",
"%X%X2X2X&X&X:X&X<X!..X8X8X6X.X5X; L x N o , G A r W.u a q n C C 4 + 0 B < 0 e w t /.. N S e E 5 6X%X2X,X;X;X&X2X:X&X:X&X*X2X*X*X",
"6X%X3X2X2X:X&X2X2X*X*X,X*X8X7X.X& N c * & S I C p Y.r % $ h j b v 6 D 0 + 0 4 n t I.& > N F B 6 6X6X,X%X;X2X2X2X&X:X&X;X2X2X*X*X",
"6X3X*X*XXX2X;X&X*X8X3X'.*XK.,X<X& % t t $ . D D . y z.A.d u t t r - 7 l x 7 4 = f x.* > O C ; @ 3X*X*X*X*X*X*X2X2X2X2X*X2X2X2X2X",
"*X2X2X2X&X2X&X2X,X!.*X*X*XrX!.; & u A.I._.s - . > . t t } v.E.U.Y.i a % - . 6 - x.d . o e 0 O 7X%X*X*X2X*X*X2X2X2X*X2XXX2X*X2X*X",
"*X*X2X2X;X:X;X;X,X%X*X*X*X*X'.& P.E.% t t B.% ; T Y H & 2 & & : r Y.% y J H : % C.a o , # Y 8 = ;X2X2X2X*X*X*X*X*X*X2X*X2X2X;X;X",
"*X*X2X*X:X:X;X;X*X3X3X*X5X!.9X& r % : m t ..i m n F e F o o S m r r v.% m D $ V.% & o L T C Y ; 2X2X2X2X2X*X*X*X*X*X2X2X*X2X;X;X",
"2X2X&X;X:X:X;X;X6X'.,X*X4X].!.[.o N m l s M.- & S S S = $ : O V * % M.: v S r M.: = . N m V I O <X=X].5X=X'.4X*X*X*X*X*X*X2XXX;X",
"2X2X;X&X:X:X;X;X*X8X*XL.=X9X!.qX> X n v - % Z.* & . ; - i i i & * E.h $ D m a C.- i r y r *   ; ].].9XQ.].5X2X*X*X*X*X*X2X2X:X;X",
"2X2X&X2X:X:X;X;X5X.X%XeX&X].qXQ.6X4 . - 7 . & e.<.| $.<.X.n.A.x.v.y $ = 7 = % % ..f B.dXT.E.2 3X].9X9X9X&X!.*X=X*X*X*X*X;X;X:X:X",
"*X].:X:X:X:X;X;X.X5X%X:X~.~.R.9X4 3 ( J U R * * r 1.% r p p d d t $ V 7 = $ ; - ....r t t % * & qX(.~.^.~.qX~.=X*X*X*X*X;X;X:X:X",
"'.=X=X&X:X:X;X;X*X<X2X~.9X[.0XP.: U - Z v . 8 - n.t h v D Z f t t r i l $ & S @ ..d p K % u K . 9X(.t.(.9X!.&X=X*X*X*X*X;X;X:X:X",
"*X].;X&X:X:X;X;X,X2X2X9X~.[.R.(.$.$ ,.- m 7 = - S.t O G l y t T.G.iXt r l 0 e ; B.i c $ : $.& - (.>.qX(.[.~.=X'.*X*X*X*X;X;X:X:X",
"'.*X&X;X:X:X;X;X%X*X&X9X~.3.).0X1.i 5.$ 0 + ; & i X.j 6 r d F.G.G.j.G.iX& w ; = >.% K : S 4 X.j >._._.0X9X(.eX!.*X*X*X*X7X;X:X:X",
"=X*X:X&X;X;X;X;X;X<X&X~.0X(.:./.sXX.- 7 8 X o * i 7.$ ; d l.} g.g.f.h.c.% > $ #.- & - O 5 3 j X.>.tX(.~.qX~.].<X2X*X*X2X;X;X:X:X"
};
