/* XPM */
static char *_00646852_5432997016767393_7642350160647303710_n__5_1662243249[] = {
/* columns rows colors chars-per-pixel */
"64 64 113 2 ",
"   c #020100",
".  c #0A0403",
"X  c #0C0807",
"o  c #070908",
"O  c #0D0D0B",
"+  c #110C0B",
"@  c #151412",
"#  c #1C1515",
"$  c #1C1817",
"%  c #1D1B1A",
"&  c #211D1C",
"*  c #21211F",
"=  c #281F22",
"-  c #2B2424",
";  c #272926",
":  c #2A2926",
">  c #2D2C2A",
",  c #332C2D",
"<  c #31302C",
"1  c #363331",
"2  c #3A3634",
"3  c #3C3937",
"4  c #3D3D3B",
"5  c #423B3C",
"6  c #46413E",
"7  c #433F40",
"8  c #464241",
"9  c #4B4545",
"0  c #4D4845",
"q  c #4F4E4C",
"w  c #504448",
"e  c #534C4C",
"r  c #53514D",
"t  c #59514F",
"y  c #4F5150",
"u  c #565151",
"i  c #5C5455",
"p  c #5E5956",
"a  c #5F5959",
"s  c #615957",
"d  c #61565C",
"f  c #625B5B",
"g  c #64605E",
"h  c #675C60",
"j  c #695F60",
"k  c #646162",
"l  c #6A6363",
"z  c #6C6965",
"x  c #6F6969",
"c  c #736C6D",
"v  c #76716E",
"b  c #757373",
"n  c #7B7374",
"m  c #7E7A76",
"M  c #7F7979",
"N  c #80777C",
"B  c #847E7D",
"V  c #887B80",
"C  c #8F7F89",
"Z  c #878281",
"A  c #898382",
"S  c #8F8989",
"D  c #948D8D",
"F  c #979292",
"G  c #9B9494",
"H  c #9C9896",
"J  c #9D9999",
"K  c #A19A94",
"L  c #A4939C",
"P  c #A49D9C",
"I  c #A99D9E",
"U  c #A6A19D",
"Y  c #A9A29F",
"T  c #A69BA1",
"R  c #AB9DA4",
"E  c #A7A1A1",
"W  c #A9A3A3",
"Q  c #AEA9A6",
"!  c #AEA5A9",
"~  c #AFA9A9",
"^  c #B0A4A6",
"/  c #B0A9A3",
"(  c #B1A5A9",
")  c #B8A7AF",
"_  c #B3ACAB",
"`  c #B6B1AD",
"'  c #B9B3AE",
"]  c #B6ADB3",
"[  c #BAAFB3",
"{  c #B6B1B1",
"}  c #BCB5B3",
"|  c #BEB3B9",
" . c #C1B2B7",
".. c #C1BEB5",
"X. c #C3B6BC",
"o. c #C2BABA",
"O. c #C6BBC1",
"+. c #CBBDC4",
"@. c #CBC6C5",
"#. c #D2CEC5",
"$. c #D2C5CA",
"%. c #D8C7CF",
"&. c #D8CECF",
"*. c #D7D2CE",
"=. c #DAC6D2",
"-. c #D9D0D3",
";. c #E3CFDA",
":. c #E4D4DB",
">. c #EAD9E3",
",. c #ECE2E3",
"<. c #FDECF6",
"1. c #FFEFF9",
"2. c #FFF4FA",
/* pixels */
"W W W W W W W W W W W W W W W W W W W W W W W W W W W W W W W W W W W W W W W W W W W W W W W W W W W W W W W W W W W W W W W W ",
"W W W W W W W W W W W W W W W W W W W W W W W W W W W W W W W W W W W W W W W W W W W W W W W W W W W W W W W W W W W W W W W W ",
"W W W W W W W W W W W W W W W W W W W W W W W W E W W W W W W W W W W W W W W W W W W W W W W W W W W W W W W W W W W W W W W W ",
"W W W W W W W W W W W W W W W W W W W W W W W W W W W W W W W W W W W W W W W W W W W W W W W W W W W W W W W W W W W W W W W W ",
"W W W W W W W W W W W W W W W W W W W W W W W W W W W W W W W W W W W W W W W W W W W W W W W W W W W W W W W W W W W W W W W W ",
"W W W W W W W W W W W W W W W W W W W W W W W W W W W W W W W W W W W W W W W W W W W W W W W W W W W W W W W W W W W W W W W W ",
"W W W W W W W W W W W W W W W W W W W W W W W W W W W W W W W W W W W W W W W W W W W W W W W W W W W W W W W W W W W W W W W W ",
"W W W W W W W W W W W W W W W W W W W W W W W W W W W W W W W W W W W W W W W W W W W W W W W W W W W W W W W W W W W W W W W W ",
"W W W W W W W W W W W W W W W W W W W W W W W W W W W W W W W W W W W W W W W W W W W W W W W W W W W W W W W W W W W W W W W W ",
"W W W W W W W W W W W W W W W W W W W W W W W W W W W W W W W W W W W W W W W W W W W W W W W W W W W W W W W W W W W W W W W W ",
"W W W W W W W W W W W W W W W W W W W W W W W W W W W W W W W W W W W W W W W W W W W W W W W W W W W W W W W W W W W W W W W W ",
"W W W W W W W W W W W W W W W W W W W W W W W W W W W W W W W W W W W W W W W W W W W W W W W W W W W W W W W W W W W W W W W W ",
"W W E W W W W W W W W W W W W W W W W W W W W W W W W W W W W W W W W W W W W W W T W W W W W W W W W W W W W W W W W W W W W W ",
"W W W W W W W W W W W W W W W W W W W W W W W W W W W W W W W W W W W W W W W W W W W W W W W W W W W W W W W W W W W W W W W W ",
"W W W W W W W W W W W W W W W W W W W W W W W W W W W W W W W W W W W W W W W W W W W W W W W W W W W W W W W W W W W W W W W W ",
"W W W W W W W W W W W W W W W W W W W W W W W W W W W W W W W W W W W W W W W W W W W W W W W W W W W W W W W W W W W T W W W W ",
"W W W W W W W W W W W W W W W W W W W W W W W W W W W W W W W W W W W W W W W W W W W W W W W W W W W W W W W W W W W W W W W W ",
"W W W W W W W W W W W W W W W W W W W W W W W W W W W W W W W W W W W W W W W W W W W W W W W W W W W W W W W W W W W W W W W W ",
"W W W W W W W W W W W W W W W W W W W W W W W W W W W W W W W W W W W W W W W W W W W W W W W W W W W W W W W W W W W W W W W W ",
"W W W W W W W W W W W W W W W W W W W W W W W W W W W W W W W W W W W W W W W W W W W W W W W W W W W W W W W W W W W W W W W W ",
"W W W W W W W W W W W W W W W W W W W W W W W W W W W W W W W W W W W W W W W W W W W W W W W W W W W W W W W W W W W W W W W W ",
"W W W W W W W W W W W W W W W W W W W W W W W W W W W W W W W W W W W W W W W W W W W W W W W W W W W W W W W W W W W W W W W W ",
"W W W W W W W W W W W W W W W W W W W W W W W W T W W W W W W W W W W W W W W W W W W W W W W W W W W W W W W W W W W W W W W W ",
"W W W W W W W W W W W W W W W W W W W W W W W W W W W W W W W W W W W W W W W W W W W W W E W W W W W W W W W W W W W W W W W W ",
"W W W W W W T W W W W W W W W W W W W W W W W W W W W W W W W W W W W W W W W W W W W W W W W W W W W W E W W W W W W W W W W W ",
"W W W W W W W W W W W W W W W W W W W W W W W W W W W W W W W W W W W W W W W W W W W W W W W W W W W W ! W W W W W W W W W W W ",
"W W W W W W W W W W W W W W W W W W W W W W W W W W W W W W W W W W W W W W W W W W W W W W W W W W W W E W W W W W W W W W W W ",
"W W W W W W W W W W W W W W W W W W W W W W W W W W W W W W W W W W W W W W W W W W W W W W W W W W W W W W W W W W W W W W W W ",
"W W W W W W W W W W W W W W W W W W W W W W W W W W W W W W W W W W W W W W W W W W W W W W W W W W W W W W W W W W W W W W W W ",
"W W W W W W W W W W W W W W W W W W W W W W W W W W W W W W W W W W W W W W W W W W W W W W W W W W W W W W W W W W W W W W T W ",
"W W W W W W W W W W W W W W W W W W W W W W W W W W W W W W W W W W W W W W W W W W W W W W W W W W E ! W W W W W W W W E E ! E ",
"W W W W W W W W W W W W W W W W W W W W W W W W W W W W W W W W W W W W W W W W W W W W W W W W W W W E W W W W W W W W W ! E W ",
"W W W W W W W W W W W W W W W W W Y W W W W W W W W W W W W W W W W W W W W W W W W W W W W W W W W W W W W W W W W W W W W W W ",
"W W W W W W W W W W W W W W W W Y Y W W W W W W W W W W W W W W W W W W W W W W W W W W W W W W W W W W W W W W W W W W W W W W ",
"W W W W W W W W W W W W W W W W W W W W W W W W W W W W W R W W W W W W W W W W W W W W W W W W W W W W W W W W W W W W W W W W ",
"W W W W W W W W W W W W W W W W W W W W ^ R W Y W W W W W W W W W W W W W W W W W W W W W W W W W W W W W W W W W W W W W W W W ",
"W W W W W W W W W W W W W W E W W W W W W W W ^ W W W W W W W W W W W W W E W W W W W W W W U W W W W W W W W W W W W W W W W W ",
"W W W W W W W W W W W W W W W W W W W Q R W W Y W W W W W W W W W W W W W W W W W W W W W W Q U W W W W W W W W W W W W W W W W ",
"W W W W W W W W W W W W W W W W W W W W W ^ Y Q Y Q R ^ W E E W E ~ E W W W W W W W W W W W Y Q W W W W W W W W W W W W W W W W ",
"W W W W E W W W W W W W W W W W W W W W W Y Q Y Y R ( R _ { W E ~ E W W W E W W W W W W W W U Q W W W W W W W W W W W W W W W W ",
"W W W W W W W W W W W W W W W W W W W W W Y U ../ P X.>.L l T ~ E E ~ W W W W W W W W W W W W Y W W W W E Q E E W W W W W W W W ",
"W W W W W W W W W W W W W W W W W W W Y Y U ..' K  .:.2.R f f W W ~ J J ( R I ^ W W W W W W W W W W W W W E E W W W W W W W W W ",
"W W W W W W W W W W W W W W W W W W W Y Y U ` #.Y ' $.+.X.X.B > ] F % 7 K ^ R ^ W W W W W W W W W W W W W W W W W W W W W W W W ",
"W W W W W W W W W W W W W W W W W W W W Y Y U ` } U ) n h % .   Z ; b y g ( I W W W ! W W W W W W W W W W W W W W W W W W W W W ",
"W W W W W W W W W W W W W W W W W W W W Y Y W Y W G , 1 w   9 - y * C F >.-.I I W W W W W W W W W W W W W W W W W W W W W W W W ",
"W W W W W W W W W W W W W W W W W W W W Q U W W W f c o.a + { 9 d | w 7 T O.P .._ Y W W W W W W W W W W W W W W W W W W W W W W ",
"W W W W W W W W W W W W W W W W W W W W Y W Y Q L n [ [ 7 , -., d 1.V 1 , _ / &.Y Q Y Y W W W W W W W W W W W W W W W W W W W W ",
"W W W W W W W W W W W W W W W W W W Q W W W ' / R ;.V i C L (   y +.! +.X.T Q Q Y Y W Y W W W W W W W W W W W W W W W W W W W W ",
"W W W W W W W W W W W W W W W W W W W W W E _ ^ %.<.;.L =.1.] , N ! T O.$.Y Q _ W W W W W W W W W W W W W W W W W W W W W W W W ",
"W W W W W W W W W W W W W W W W W W W W U W Q I  .) %.X.O.X._ u F { ] ] ( P Q } E W W E W W W W W W W W W W W W W W W W W W W W ",
"W W W W W W W W W W W W W W W W W W W W W U } ' P ..( ) ~ W ` y J b k b 6 $ / P E E W W W W W W W W W W W W W W W W W W W W W W ",
"W W W W W W W W W W W W W W W W W W W W U U P Q } G l $ 4 ; 1 % y o       Z } ' { ~ ~ W W ~ W W W W W W W W W W W W W W W W W W ",
"W W W W W W W W W W W W W W W W W W W E ` ' _ A , X +   % * 9   O y ; * > r 2 t 8 M J W W S W W W W W W W W W W W W W W W W W W ",
"W W W W W W W W W W W W W W W W W W W ~ v p 5 . 9 ! k   @ > 4 @     4 i < + i r x M x F D y T W W W W W W W W W W W W W W W W W ",
"W W W W W W W W W W W W W W W W W E I W P 4   D @.G < . r 3     * 9 1 ; 3 u b A n a y q 7 F ~ W W W W W W W W W W W W W W W W W ",
"W W W W W W W W W W W W E W W W W ~ } l a 5 O M Z B m g J 1     O 1 1 a P z   % b F ~ ~ ~ W W W W W W W W W W W W W W W W W W W ",
"W W W W W W W W W W W W W W W W ~ m 9 y 8 F 3   0 z ` b v 2 g g a u f Y _ p   F @.~ E W W W W E W W W W W W W W W W W W W W W W ",
"W W W W W W T W W W W W W W W W W J S H a 0 u 9 p r a ` W W ` ` { { } Z .   t l i S ~ W W W W W W W W W W W W W W W W W W W W W ",
"W W W W W W W W W W W W W W W W W Q Q ~ { _ f e u ` P 3 b ` U E P W J > 5 D - 8 B J W E W W W W W W W W W W W W W W W W W W W W ",
"W W W W W W W W W W W W W W W W W W E W E E W W W U W W W W W W W W W ~ { Q _ { ] ~ W W W W W W W W W W W W W W W W W W W W W W ",
"W W W W W W W W W W W W W W W W W U Q W W W W W U W W U W U W W W W W W I W E E E W W W W W W W W W W W W W W W W W W W W W W W ",
"W W W W W W W W W W W W W W W W W U W W W W W W W W W W W W W W W W W W W W W E W W W W W W W W W W W W W W W W W W W W W W W W ",
"W W W W W W W W W W W W W W W W W W W W W W W W W W Q U W W W W W W W W W W W W W W W W W W W W W W W W W W W W W W W W W W W W ",
"W W W W W W W W W W W W W W W W W W W W W W W W W W W W W W W W W W W W E W W W W W W W W W W W W W W W W W W W W W W W W W W W "
};
