/* XPM */
static char *a651c9349ea6429a908bf7dada259c0agwSdBjbYuKQMex8E[] = {
/* columns rows colors chars-per-pixel */
"64 64 106 2 ",
"   c #050414",
".  c #070616",
"X  c #0B0917",
"o  c #0A0919",
"O  c #0B0A1A",
"+  c #0C0A18",
"@  c #0D0B19",
"#  c #0C0B1B",
"$  c #0E0C1A",
"%  c #0F0D1B",
"&  c #0D0C1C",
"*  c #0F0C1D",
"=  c #0E0D1D",
"-  c #0F0E1E",
";  c #100E1C",
":  c #110F1D",
">  c #100D1E",
",  c #110E1F",
"<  c #100F1F",
"1  c #12101E",
"2  c #13111F",
"3  c #120F20",
"4  c #111020",
"5  c #131021",
"6  c #131222",
"7  c #141220",
"8  c #151321",
"9  c #151223",
"0  c #161422",
"q  c #171523",
"w  c #161324",
"e  c #151424",
"r  c #171425",
"t  c #181624",
"y  c #191725",
"u  c #181526",
"i  c #191627",
"p  c #181727",
"a  c #1A1826",
"s  c #1B1927",
"d  c #1A1728",
"f  c #191828",
"g  c #1B1829",
"h  c #1A1929",
"j  c #1B1A2A",
"k  c #1C1A28",
"l  c #1D1B29",
"z  c #1C192A",
"x  c #1D1A2B",
"c  c #1C1B2B",
"v  c #1E1C2A",
"b  c #1F1D2B",
"n  c #1E1B2C",
"m  c #1D1C2C",
"M  c #1F1C2D",
"N  c #1E1D2D",
"B  c #1F1E2E",
"V  c #201E2C",
"C  c #211F2D",
"Z  c #201D2E",
"A  c #211E2F",
"S  c #201F2F",
"D  c #221F30",
"F  c #22202E",
"G  c #23212F",
"H  c #212030",
"J  c #232031",
"K  c #222131",
"L  c #232232",
"P  c #242230",
"I  c #252331",
"U  c #242132",
"Y  c #252233",
"T  c #242333",
"R  c #262432",
"E  c #272533",
"W  c #252434",
"Q  c #262535",
"!  c #272636",
"~  c #282634",
"^  c #292735",
"/  c #282737",
"(  c #2A2836",
")  c #2B2937",
"_  c #292838",
"`  c #2A2939",
"'  c #2B2A3A",
"]  c #2C2A38",
"[  c #2D2B39",
"{  c #2C2B3B",
"}  c #2E2C3A",
"|  c #2F2D3B",
" . c #2D2C3C",
".. c #2E2D3D",
"X. c #2F2E3E",
"o. c #302E3C",
"O. c #312F3D",
"+. c #302F3F",
"@. c #313040",
"#. c #323141",
"$. c #333242",
"%. c #343343",
"&. c #353444",
"*. c #363545",
"=. c #373646",
"-. c #383747",
/* pixels */
"1 8 a b C P [ | C b C b C b C b 3 w u u g u w g u u d d u u u w 3 l V k C o.o.C C C V V V V V V ; y g w g u w g g u g w g u 3 3 ",
"y 8 8 1 1 0 l l % : % : % : % : 3 d D Z D D z Z D Z Z D Z Z Z Z > : : ; , k k 2 : ; : : ; ; ; ; y Z D Z D D Z Z Z Z Z Z Z Z Z g ",
"C 0 % @ X % 1 % : % : % % : : % 3 z D D D D D D D D D D D D D D a , ; ; ; ; , ; ; ; ; ; ; ; ; ; g D D C D D D D D D D D D D D Z ",
"F y 1 : : 1 1 @ : : : : : : : : 3 Z D g d Z Z D Z D Z D Z D Z Z l : + ; ; ; ; ; ; ; ; ; ; : : : Z D z g g Z D D Z D D Z D D Z Z ",
"b 0 1 1 : : 1 : % % % % % % % % 3 Z D u w g Z Z D Z D Z D Z D Z y ; @ $ @ ; ; @ $ ; $ ; ; ; ; ; z D z u z Z Z D D D Z Z Z Z D Z ",
"C 0 : % @ % : : : : : : : : : : 3 Z D Z z Z Z Z D D Z D D D D D a 2 ; : ; 1 2 ; ; ; ; : : : ; : g D Z Z Z D Z D Z D D Z Z D Z Z ",
"F 0 : : % % : % : % : % : % : % 3 Z D D D D D D D Z Z Z Z D Z D a ; $ ; ; $ ; ; ; ; ; ; ; ; ; ; g D D D D D Z D Z D D D Z Z Z Z ",
"F 0 % : : : : % % : % : % : % : 3 Z D Z D D Z Z Z D Z Z Z Z D D k ; @ 1 : ; ; : : ; ; : ; ; : ; g D D D Z D Z D Z D D D D D Z Z ",
"F y : : % % % % : % : % : % : % 3 Z Z D Z Z D Z D Z D Z m D D D k 1 ; ; ; ; ; ; ; ; ; ; ; ; ; ; g Z D Z D Z Z Z Z D D Z Z Z D Z ",
"C 8 % : % : : % % : % : % : % : > Z D Z D Z D Z Z D Z D D D D D t ; ; 1 ; $ : ; ; ; ; ; ; ; ; ; g D D Z D D Z D D Z Z Z D D Z g ",
"l 1 % : : % : % : % : % : % : % > Z D Z D D D D D D D Z D D Z m 2 $ ; : ; ; : : ; ; ; ; ; ; ; ; z D D Z D Z Z D D Z Z Z D D Z w ",
"b 8 % : % : : % % : % : % : % : 3 Z D D D Z D D D D D Z D Z D Z 2 ; ; 1 ; ; : ; ; ; ; ; ; ; ; ; Z D D Z Z D Z D Z D D Z D D Z g ",
"C 0 : : % % : % : % : % : % : % 3 D D D D Z D Z Z D D Z D Z D D k 1 $ : ; ; : ; ; ; ; ; ; ; ; ; z D D Z D Z Z Z Z Z Z Z D D D Z ",
"C 0 : % % % : % % : % : % : % : 3 D D D D Z D Z m D Z D Z D D D k 1 $ ; ; ; ; ; ; ; ; ; ; ; ; ; z D D Z D D Z D Z D D D Z Z D Z ",
"C 8 % % % % : % : % : % : % : % > z Z Z Z Z D Z Z D D Z Z D C D t ; $ : ; ; ; ; ; ; ; ; ; ; ; ; w Z D Z D D Z Z Z Z Z Z D D Z z ",
"l 1 @ : : % : : % : % : % : % : > z Z m D Z D D D D Z D D Z D C 2 @ ; : ; ; ; : ; ; ; ; ; ; ; ; u Z D Z D Z Z Z D D Z Z D D Z u ",
"& y B H Q H H Q T T T Q W W Q W y % 8 y 8 0 0 y 0 y 0 0 0 0 8 8 # H H Q H W W W W W W W H Q W m 3 2 t t 2 a a 2 y t t t t t 2 ; ",
"< H X.%.%.%.%.&.%.#.#.%.#.#.%.#.^ 6 : : % : : : % : : : : 1 : % j @.#.%.#.%.#.%.%.%.&.&.&.%.#.{ , : ; , ; : 2 ; : : ; ; ; ; ; ; ",
"O H &.&.&.&.%.%.&.%.%.&.&.%.%.%.| 8 % : : : % @ % % % % : % % % m #.%.%.%.%.%.%.%.#.%.&.%.%.%.@.0 ; ; ; $ $ ; ; ; @ $ $ @ ; ; 1 ",
"& Q &.&.#.#.#.#.#.%.#.#.#.%.#.%.[ 1 @ : 1 1 % : : : : : : : % : m #.#.&.#.%.#.#.%.@.@.#.@.@.%.#.a ; ; : ; ; ; ; ; ; ; ; ; ; 2 2 ",
"& Q &.%.#.&.&.&.%.%.%.&.%.&.#.%.o.0 % : % % % 1 : : : % % % @ % m #.#.&.#.&.#.%.%.#.%.%.%.%.%.#.t ; $ 1 : ; ; ; ; ; ; : ; + ; 2 ",
"# H #.#.#.&.#.@.%.#.#.#.#.#.#.#.R 1 : : % % % 1 % : % : % % @ @ m #.#.&.#.%.#.#.#.@.%.%.#.%.@.Q 2 ; $ : ; ; ; $ ; ; ; : $ + + ; ",
"& Q &.&.&.&.#.#.&.%.%.&.%.#.#.#.a % : 1 : 1 : @ : : : : : % % @ B #.%.&.%.%.%.&.%.%.&.%.#.%.#.H : ; ; 1 ; : 1 ; ; ; ; ; ; + $ 1 ",
"& Q #.&.#.%.#.%.%.#.#.#.#.#.@.#.l : : % X : : : % : % % : % % : j #.#.&.#.%.#.#.%.%.#.X.X.%.#.W ; ; , 1 @ : 1 ; ; @ $ ; ; ; ; 2 ",
"e Q #.#.%.&.#.#.&.&.@.{ ` { #.&.) 8 % : % % % % : : % : : @ : 1 T #.@.%.-.%.%.#.%.#.` / ` @.#.#.t @ ; ; ; ; ; : 1 ; @ ; 1 ; ; a ",
"B X.&.%.#.%.&.%.#.#.@.X.{  .@.%.| 8 % : % : % : % % : : % % : 8  .&.%.#.%.#.%.%.#.@.X. . .@.#.@.y ; ; ; ; ; ; ; ; ; : : ; @ t E ",
"m X.&.%.#.%.#.%.#.%.#.#.#.@.#.%.| 0 : % % % % : % % % : : % 1 1 { -.%.#.#.#.#.&.%.%.#.#.#.%.#.@.a ; : ; $ ; ; ; @ : 1 ; ; + t E ",
"6 / #.%.#.%.%.#.&.&.&.&.%.%.%.&.[ 1 % % % % : : : : : : % % : : H %.#.#.&.#.%.%.%.%.&.%.#.%.%.@.k ; : ; ; : ; : ; ; $ ; ; ; : t ",
"& H #.&.&.&.%.#.%.%.%.%.#.%.#.%.[ 8 % : % : % : % : : % % : % : m #.#.%.&.%.%.%.#.#.%.#.#.$.#.#.y ; ; : ; ; ; : 1 ; @ ; 1 ; + : ",
"6 Q #.&.%.%.#.%.%.%.%.#.%.#.%.%.| 0 : 1 % : % : % : : % % : : : B #.&.#.&.#.#.%.%.%.%.#.$.%.$.$.t ; ; : ; : $ ; ; 1 ; ; : ; 1 2 ",
"& T #.#.#.&.#.%.%.%.#.#.%.%.%.%.) 8 % : : : % % % : % % : : : % m @.%.#.#.#.%.#.&.&.#.%.%.&.$.o.2 + ; : ; ; ; ; ; : ; ; ; ; ; t ",
". B X.#.%.#.#.%.#.#.#.#.#.#.#.#.P : X % % : % : % 1 : % % : % @ e  .%.#.%.#.#.%.#.#.@.o.#.#.o.] t + ; : ; ; ; ; ; : ; ; ; ; + ; ",
"2 2 2 2 t V ^ [ t t t t t t t t 3 w u g Z g g g g g g g g g g d : 8 t 8 y ^ ) l y y t y y t y y : d g d z Z g z z z g g z z w 3 ",
"V t 2 ; ; 2 t t $ $ $ $ $ $ $ $ 3 g Z D D D D D D D D D D D Z Z 8 6 ; % : y y : @ @ @ @ @ @ % : w D D D D D D D D D Z D D D Z g ",
"G t ; @ @ ; ; @ : : : : : : : : 3 Z D Z D D D D D D D D D D D Z a : @ : % % ; @ : : ; ; : : : : m D D C D D D Z D D D Z D D D D ",
"G 2 ; ; ; : 1 ; : : : : : : : ; 3 Z D g w g Z Z Z Z Z Z Z Z Z Z l : @ : : ; : : : : ; ; : : : : m D z d g Z z Z D D D Z D Z D Z ",
"G t ; ; ; ; : ; ; ; ; $ ; ; $ ; 3 Z D d w m Z Z D Z D Z Z D Z D y : % ; ; : 2 : % % % % % ; % : Z D z u z D Z D Z D D Z Z D Z Z ",
"F t : 1 ; $ ; : ; : : ; ; ; ; : 3 Z D Z Z D D D D D Z D D D D D y 1 ; % @ : : + : : : : : : : : z D D m D D D D Z D D Z D Z D z ",
"G 2 ; 1 ; ; : : ; ; ; ; ; ; ; ; 3 z W D Z D Z D D Z D Z D Z D D y 8 ; : % % ; @ ; % % % % ; ; ; g D D D D D Z D Z Z D D Z Z Z Z ",
"G 2 ; : ; ; ; ; ; ; ; ; ; ; ; ; 3 Z D Z Z D Z D Z D Z Z Z D D D a : ; : ; : : : ; ; ; ; ; ; : : g D D D Z Z Z D Z D D Z Z D Z Z ",
"G 2 ; ; ; ; : : ; ; ; ; ; ; ; ; 3 Z D D D D D D Z Z D Z D Z D D l : ; : ; ; : % ; ; ; ; ; ; ; ; g Z D Z D Z Z D Z D D D D D Z Z ",
"V 2 ; ; ; ; ; ; ; $ $ ; ; $ ; $ 3 Z D Z D D Z D D Z Z D Z D Z D 0 : % : ; @ ; ; ; ; ; ; ; ; ; ; g D D D D D D D Z D Z D D D Z u ",
"V 2 ; ; ; ; ; ; ; ; ; ; ; ; ; ; 3 Z D Z Z D D Z Z D Z D Z Z Z Z 8 % % : % @ ; : ; ; ; ; ; ; ; ; z D D Z D D D D D Z Z Z D D z u ",
"V 2 ; ; ; ; ; ; ; ; ; ; ; ; ; ; 3 Z D D Z D Z D D Z D Z D Z D Z 0 ; % : ; @ ; : : : : : : : : : g D Z Z Z D Z D D D Z Z D D D z ",
"G t : ; $ ; ; ; ; ; ; ; ; ; ; ; 3 Z D D D D D Z Z D Z D D D D D k : @ : % % ; % ; ; ; ; ; ; ; ; z D D D D D Z Z Z D D Z D D D D ",
"F 2 ; ; ; $ ; ; ; ; $ ; ; ; ; ; 3 Z D Z Z D D D D Z D Z D D D D y : @ : % % : @ ; ; ; : ; ; ; : z D D D D D Z D Z D D Z Z D D D ",
"V 1 ; ; ; : ; ; ; ; ; ; ; ; ; ; 3 g D Z Z Z Z D Z Z Z Z m Z C Z y : @ : : : : : : : : : : : : : u D D D D D Z D Z D D Z D D D z ",
"t ; $ 1 2 2 2 ; 1 1 1 , , ; , , > g Z z Z D Z Z Z Z Z Z Z Z m C 1 @ : 8 1 : 2 2 1 2 2 2 1 2 2 2 w z z Z D D z Z Z Z Z Z Z D z w ",
"+ j P  .X.` ` X.` ` ` { ` ` ` ` b % % 0 2 2 1 1 1 1 2 0 2 2 2 1 3 / /  .`  .{ X.`  . .` /  . .Q : > , 0 : : 2 2 2 2 2 2 2 1 ; ; ",
": C X.#.#.#.#.#.&.&.%.&.&.%.%.&.] 2 % % % ; % : ; % ; ; ; ; ; ; j @.@.%.@.#.#.%.%.%.&.&.#.%.%.X.8 > ; , ; ; 1 ; ; ; ; : 2 ; ; ; ",
"3 Q #.%.&.&.%.&.%.#.%.#.#.%.%.%.| 0 % % % 1 % % % % % ; ; % % % B #.%.&.%.&.%.%.#.@.%.%.#.#.#.X.t ; ; ; ; ; : $ : ; ; ; ; ; ; : ",
"# Q &.%.#.&.#.#.#.%.#.%.%.#.%.%.| 0 % ; 1 1 % % ; 1 ; 1 ; ; % % B #.%.&.#.%.#.%.%.@.#.#.#.#.%.#.k ; ; ; ; : : @ 1 : ; ; ; ; : 2 ",
"O T &.&.#.%.%.#.#.%.%.&.%.&.#.%.] 0 ; % + % % 1 ; ; ; % % % + + c #.%.&.#.%.#.#.%.#.%.&.%.%.%.@.t ; ; 1 ; ; ; ; ; $ ; ; ; $ ; ; ",
"O T &.%.#.&.%.&.#.#.#.#.#.#.#.#.F ; ; 1 % ; ; ; ; ; ; % % % % + m #.#.&.%.&.%.%.#.@.%.%.#.#.@.W , ; ; 1 ; ; ; ; ; ; ; ; $ + $ ; ",
"# T #.&.%.%.#.#.&.&.%.%.#.#.%.%.a + % 1 ; 1 ; % 1 ; 1 ; % % % % B #.%.&.#.%.#.%.#.%.%.#.#.&.#.H 1 ; ; : $ ; ; ; ; ; ; : ; $ ; 2 ",
"< Q #.&.&.%.%.%.&.%.#.X.X.X.@.#.G 1 % % % 1 1 ; % % % % % ; % % B %.&.&.%.%.%.%.%.#.@. .X.&.%.W 2 ; $ ; ; ; : ; ; $ ; ; ; $ 1 2 ",
"d ` &.#.#.%.%.#.&.#.X.` ` { @.%.| 0 % % ; 1 % 1 ; % ; ; % % 1 0 Q #.#.#.&.#.&.&.%.X. .` ` #.%.@.y ; : ; ; ; ; : ; ; ; : : + : F ",
"B X.-.&.#.%.#.%.%.%.#.X.X.X.#.%.| 0 % % % 1 % % ; % ; 1 ; % 1 2 { -.#.#.&.#.%.&.#.@.X. . .@.%.@.a ; : ; ; ; ; ; ; $ ; : 1 ; y ( ",
"j ` &.&.#.%.#.%.#.#.%.#.#.#.#.&.| 2 % ; ; ; % % ; ; ; ; ; ; ; 1 ` &.&.#.%.#.#.&.%.#.%.#.@.%.%.@.y ; : ; $ ; ; ; ; ; ; ; ; $ 2 G ",
"< W #.%.%.%.#.#.#.%.%.%.%.#.%.#.] 0 % 1 ; 1 ; 1 ; ; ; ; ; ; 1 1 S #.#.#.&.#.#.%.%.%.%.%.#.#.%.#.t ; ; ; ; : ; ; ; : ; : ; + @ t ",
"& H #.&.&.%.#.#.#.#.%.%.#.%.#.&.| 0 % % % 1 % 1 ; % ; ; ; 1 ; ; m @.#.%.&.#.%.#.#.#.#.%.@.#.%.o.t $ ; : ; ; ; ; ; : : : 1 ; ; 2 ",
"4 Q %.&.#.#.%.%.%.%.%.&.%.#.%.&.| 0 % 1 % % % 1 ; 1 ; % ; ; ; % B %.&.#.&.#.%.&.%.#.%.%.#.%.&.#.t @ ; : ; : ; ; ; ; ; $ : : 2 t ",
"& H #.#.@.#.#.%.#.#.#.#.#.#.#.%.) 1 % ; % % % % ; ; ; % ; 1 % % j @.#.#.#.#.#.&.%.#.#.%.#.&.$.o.t $ ; : ; ; ; ; ; : ; + ; ; $ ; ",
". j X.@.@.@.@.#.X.@.@.#.@.@.@.#.G % % 1 ; ; % ; ; 1 ; % 1 1 & O 3 / @.#.%.#.#.#.#.@.#.#.#.#.o.^ t $ ; : ; ; ; ; $ : ; ; 2 1 @ @ "
};
