/* XPM */
static char *player11[] = {
/* columns rows colors chars-per-pixel */
"64 64 256 2",
"   c #060303",
".  c #0B0403",
"X  c #0E0A08",
"o  c #120302",
"O  c #140907",
"+  c #140C0C",
"@  c #1E0906",
"#  c #1A0D0B",
"$  c #1B100F",
"%  c #13100E",
"&  c #161313",
"*  c #1D1413",
"=  c #1D1918",
"-  c #210B09",
";  c #241413",
":  c #231816",
">  c #231C1B",
",  c #291816",
"<  c #2B1D1C",
"1  c #2A1514",
"2  c #331E1C",
"3  c #3B1F19",
"4  c #221F21",
"5  c #2D201E",
"6  c #25211F",
"7  c #31201E",
"8  c #39211E",
"9  c #2A2423",
"0  c #272324",
"q  c #332523",
"w  c #352826",
"e  c #342C2B",
"r  c #3B2622",
"t  c #3C2C2B",
"y  c #3C302E",
"u  c #363230",
"i  c #3C3534",
"p  c #3E3A37",
"a  c #3E3B3A",
"s  c #412E2D",
"d  c #462822",
"f  c #492F31",
"g  c #44312F",
"h  c #4D382E",
"j  c #433432",
"k  c #433C3B",
"l  c #4B3535",
"z  c #4B3C3B",
"x  c #4A3834",
"c  c #56382C",
"v  c #543D3C",
"b  c #5A3E3D",
"n  c #533A34",
"m  c #453F40",
"M  c #593F41",
"N  c #49413C",
"B  c #55433E",
"V  c #5B433D",
"C  c #674538",
"Z  c #454140",
"A  c #4B4544",
"S  c #4D4A4A",
"D  c #544442",
"F  c #544946",
"G  c #534C4B",
"H  c #5B4544",
"J  c #5B4846",
"K  c #5C4B4A",
"L  c #5D504E",
"P  c #565251",
"I  c #5B5555",
"U  c #5A5758",
"Y  c #604343",
"T  c #634D4C",
"R  c #694D4D",
"E  c #644946",
"W  c #68514B",
"Q  c #655352",
"!  c #625D5D",
"~  c #6C5553",
"^  c #6D5857",
"/  c #6C5B5A",
"(  c #675756",
")  c #73544A",
"_  c #765847",
"`  c #7A574A",
"'  c #725452",
"]  c #725658",
"[  c #725C5C",
"{  c #7B5B5E",
"}  c #795A54",
"|  c #7C5E61",
" . c #68605E",
".. c #79635A",
"X. c #676262",
"o. c #6C6564",
"O. c #6C6969",
"+. c #736462",
"@. c #736D6C",
"#. c #7C6462",
"$. c #7D6B6A",
"%. c #786966",
"&. c #786F71",
"*. c #78706A",
"=. c #7C7473",
"-. c #7E7778",
";. c #7D7876",
":. c #7C7A7B",
">. c #855F4B",
",. c #825B46",
"<. c #805C62",
"1. c #9E5A60",
"2. c #86624E",
"3. c #88614A",
"4. c #856558",
"5. c #9A605D",
"6. c #836565",
"7. c #856669",
"8. c #816964",
"9. c #856B6A",
"0. c #89676A",
"q. c #8A6A6B",
"w. c #896866",
"e. c #8A6D70",
"r. c #8B736D",
"t. c #87726F",
"y. c #827674",
"u. c #857976",
"i. c #837D7C",
"p. c #8A7974",
"a. c #8C7D7B",
"s. c #8F7674",
"d. c #916F70",
"f. c #94766C",
"g. c #947A79",
"h. c #97686B",
"j. c #A6676C",
"k. c #B4767B",
"l. c #867F80",
"z. c #8A807F",
"x. c #99837B",
"c. c #94837C",
"v. c #A1877B",
"b. c #AA8B7B",
"n. c #B99078",
"m. c #858282",
"M. c #8C8383",
"N. c #8D8886",
"B. c #8E898A",
"V. c #968987",
"C. c #928C8B",
"Z. c #9D8F8D",
"A. c #9B8683",
"S. c #96918E",
"D. c #99938F",
"F. c #9B9493",
"G. c #9F9896",
"H. c #9E9B99",
"J. c #9A9494",
"K. c #A38B84",
"L. c #A38E8A",
"P. c #AA8787",
"I. c #AB948B",
"U. c #A5938A",
"Y. c #A39C9B",
"T. c #AA9E9D",
"R. c #AB9690",
"E. c #B38D8D",
"W. c #B1958B",
"Q. c #B79987",
"!. c #B49494",
"~. c #BF979C",
"^. c #B79A97",
"/. c #A69EA0",
"(. c #B69FA0",
"). c #BC9FA0",
"_. c #A6A29F",
"`. c #A9A29F",
"'. c #B9A59D",
"]. c #A7A3A2",
"[. c #A9A3A3",
"{. c #A9A5A8",
"}. c #ADADAD",
"|. c #AAA8A6",
" X c #AEB0B1",
".X c #BCA2A1",
"XX c #BDABA9",
"oX c #B1A8A6",
"OX c #B5B2AE",
"+X c #BBB6B6",
"@X c #BFBFBF",
"#X c #B5B5B4",
"$X c #C09D9E",
"%X c #C7A99E",
"&X c #C9AB9C",
"*X c #D3AD92",
"=X c #DCB59C",
"-X c #C4A4A2",
";X c #C4ABA4",
":X c #C1ABA9",
">X c #CCACA4",
",X c #CDACAD",
"<X c #CCA7AB",
"1X c #CFB0A6",
"2X c #CBB2AC",
"3X c #C1BCBD",
"4X c #CEB1B0",
"5X c #CEBCB2",
"6X c #D1AEAE",
"7X c #D4AEB2",
"8X c #D8AEB6",
"9X c #D4B2AC",
"0X c #D6B9AB",
"qX c #D9B6A6",
"wX c #DDBDAC",
"eX c #D7B6A8",
"rX c #D4B2B1",
"tX c #D8BCB6",
"yX c #C7BEC0",
"uX c #C4C1BF",
"iX c #D1C3BE",
"pX c #DDC3B7",
"aX c #EFC6AB",
"sX c #E6C2A9",
"dX c #E6C4B1",
"fX c #E9C6B3",
"gX c #ECCAB6",
"hX c #EBC9BA",
"jX c #F4CFB5",
"kX c #F5D1BD",
"lX c #FBD6BC",
"zX c #FAD2B7",
"xX c #C5C2C3",
"cX c #CDCACD",
"vX c #CAC6C5",
"bX c #D4C9C6",
"nX c #D3CECF",
"mX c #DAC3C3",
"MX c #DFC9C6",
"NX c #D6D0CE",
"BX c #DDD7D6",
"VX c #ECCEC3",
"CX c #E2C8C0",
"ZX c #EDD2C5",
"AX c #EAD4CA",
"SX c #E2DDDD",
"DX c #EDDBDA",
"FX c #F4D5C4",
"GX c #F3D6CB",
"HX c #F9D6C1",
"JX c #F9D8C3",
"KX c #F0D8D0",
"LX c #E7E0E3",
"PX c #F8EBEA",
"IX c #F1EEF2",
"UX c #F8F3F6",
/* pixels */
"[.[.[.[.[.].[.[.[.].[.[.[.[.].[.[.[.[.[.[./.[./.{.[./.oX[./.{.{.[.[.[.[.[.[.[.{.[.|.[.].].].[.[.[.[.[.[.[.[.[.].[.[.[.[.[.[.].[.",
"[.[.[.[.[.[.[.[.[.[.[.[.[.[.[.[.[.[.[.[.[.[.[.[.[.[.{./.[.[.[.[.[.{.[.{.[.[.[.].[.[.[.[.[.[.[.[.[.[.[.[.[.[.[.[.[.[.[.[.[.[.[.[.",
"[.[.[.[.[.[.[.[.[.].[.[.[.[.[.[.[.[.[.[.[.[.[.[.[.[./.{.].].[.[.Y.[./.[.].[.[.[.[.[.[.[.[.[.[.[.[.[.[.[.[.[.[.[.[.[.[.[.[.].[.[.",
"[.[.[.[.[.[.[.].[.[.[.[.[.[.[.[.[.[.[.[.[.[.[.{.[.[.{./.].].[.[.T %.L.(.[.(.[.[.[.[.[.[.[.[.[.[.[.[.[.[.[.[.[.[.[.[.[.].[.[.[.[.",
"[.[.[.[.].[.[.[.[.[.].[.[.[.[.[.[.[.[.{.[.[.].[.{.[.[.`.[.D.A t k T T v F F.[.[.].[.[.[.[.[.[.[.[.[.[.[.[.[.].[.[.[.].[.[.[.[.[.",
"[.[.[.[.[.[.[.[.].[.[.[.[.[.[.[.[.[.[.[.[.].].].[.[.[.`.Z.e e r M | | ~ s y.[.[.[.[.].].[.[.[.[.[.[.[.[.[.[.[.].[.[.[.[.[.[.[.[.",
"[.[.[.[.].[.[.[.[.[.[.[.[.[.].[.[.[.{.[.[.].].[.`.|.V.A e e ~ B M Y f Y 2 t oXT.[.`._.].[.[.[.[.[.[.[.[.[.[.[.[.[./.[.[.[.[.[.[.",
"[.[.[.[.[.[.[.[.[.[.[.[.[.].[.[.[.[.[.[.[.].[.[.[.M.< x [ H [ v M ] 0.0.7.v ~ V.`.[.[.[.[.[.[.[.[.[.[.[.[.[.[.[.[.[.[.[.[.[.[.[.",
"[.[.[.[.[.[.[.[.[.[.[.[.[.[.[.[.[.[.[.[.[.{.[.Y.u.j Q 9.9.[ 1 1 e.q.q.q.0.M f T T &./.[.[.[.[.[.[.[.[.[.[.[.].[.[.[.[.[.[.[.[.].",
"[.[.].[.[.[.[.[.[.[./.[.[.[.[.[.[.[.{.{.[.[.Y.F j J / l ^ .X[ s.-X~.~.q.q.M R <.] ~ $.[.[.[.[.[.[.[.[.[.[.[.[.[.[.[.[.[.[.[.[.].",
"[.[.[.].[.[.[.[.].[.[.[.[.[.[.[.[.[.[.[.[./.&.q $.J ; @ P.<X<X6X7X7X7X$XE.d.0.0.q.#.s &.[.[.[.[.[.[.[./.[.[.].[.[.[.[.[.[.[.[.[.",
"[.[.[.[.[.[.[.[.[.].[.[.[.[.[.[.[.[.[.[.].@.< l ^ XXXXXX6X6XtX6X<X8X8X7X,X:Xg.0.<.f z K [.[.[.[.[.[.[.[.[.[.[.[.[.[.[.[.[.[.[.[.",
"[.[.[.].[.[.[.[.[.[.[.[.[.[.[.[.[.[.[.[.Y.+ Q R ).DXmXyX,XrXrX0XVX8X9X6Xv H ^.7.H - D 9 C.[.[.[.[.[.[.[.[.[.[.[.[.[.[.[.[.].[.[.",
"].[.[.[.[.[.[.[.[.[.[.[.[.[.[.[.[.[.[.[.Y.j $.M g.PXCXCX6X9XqXJXlXsX1X-Xt 1 f A.' Y | q M.[.[.[.[.[.].[.[.[.].[.[.[.[.[.[.[.[.[.",
"[.[.[.[.[.[.[./.[.[.[.[.].[.[.[.[.[.[./.Y.# f Y 4X8X8X7X7XrXeXJXlXhXeXtXtXy.g.).e.q.9.H a.[.[.[.[.[.[.[.[.[.[.[.[.[.[.[.[.[.[.[.",
"[.[.[.[.[.[.[.[.[.[.[.[.[.[.[.[.[.[.[.[./.L 4 M 4X7X,X-XA.<XeXgXJXFX%X^.!.c.L.tX!.7.9.H t [.[.[.[.[.[.[.[.[.[.[.[.[.[.[.[.[./.[.",
"[.[.[.[.[.[.[.[.[.[.].[.[.[.[.[.[.[.[.[.[.! g l ,X2XCXq.n f.qXkXJXdX) _ I.B 5 #.I.Y ^ Q o.[.[.[.[.[.[.[.[.[.[./.[.[.[.[.[.[.[.[.",
"].[.[.[.[.[.[.[.[.[./.[.{.[.[.[.[.[.[.[.`.( q t XX2XL.+...H ;XlXlXQ.@ ..A.bXy W -XE B w F.|.[.[.[.].[.[.[.[.[.].[.[.[.[.].[.[.[.",
"[.[.[.[.[.[.[.[.].[.[.[.[.[.[.[.[.[.[.[.[.[.: D l I.< k : A W FXFX0Xu.G N 5 K ) %X9X^ g Z._.[.[.[.[.[.[.[.[.[.].[.[.[.[.[.[.[.[.",
"/.[.[.[.[.[.[.[.[.[.[.[.[.[.[.[.[./.[.{.[.[.l U.pX.Xn z c.A.Q.kXlXJX0Xp.oXj c.ZXfXgXpXt a.[.[.[.[.[.[.[.].[.[.[.[.[.[.[.[.[.[.[.",
"/.[.].[.[.[.[.].[.[.[.[.[.[.[.[.[.[.[.[.[.[.u.r AX2X5Xf.b.gXlXzXjXkXjXb.C A.GXpXdX&XZXB G.[.].[.[.[.[.[.[.[.[.[.[.[.[.[.[.[.[.[.",
"[.[.].[.[.[.[.[.[.[.[.].[.[.[.[.[.[.[.[.[.[.[.e i I.,X9Xn.*XlXn.3.sXlX=Xn.dX0XsXhXK.B R.].].[.[.[.[.[.[.[.[.[.[.[.[.[.[.].[.[.[.",
"[.[.[.[.[.[.[.[.[.[.[.[.[.[.[.[.[.[.[.[.{.[.].B.= $ K.FXJXlXlXzXaXzXlXlXJXpX%Xf.#.w O.`.].].].[.[.].[.[.].[.[.[.].[.[.[.[.[.].[.",
"[.[.[.[.[.[.[.[.[.[.[.[.[.[.[.[.[.[.[.[.[.[.{.].B.;.w I.JXlXlXlXlXlXlXlXkXZX#.@ O.G.[.[.].[.[.[.[.[.[.[.[.[.[.[.[.].[.[.[.[.[.[.",
"[.[.[.[.[.[.[.[.[.[.[.[.[.[.[.[.[.[.[.[.[.[.[.[.[.[.6 # Q.FXlXlXlXlXlXJXFX8.X z.{./.].].].[.[.[.[.[.].[.[.[.[.[./.[.[.[.[.[.[.[.",
"[.[.[.[.[.[.[.[.[.[.[.[.[.[.[.[.[.[.[.[.[.[.[.[.[.`._.X.A j x.x.kXpXx.B O i ;.].{.{.].].].[.[.[.[.[.[.[.[.[.[.].[.[.[.[.[.[.[.[.",
"[.[.[.[.[.[.[.[.[.[.].[.[.[.[.[.[.[.[.[.].].].[.[.`.[.B.i.A t < D.p.q N / =.D.[.{.].[.[.[.{.].[.[.[.[.[.[.[.[.[.[.[.[.[.[.[.[.[.",
"[.[.[.[.[.[.[.[.[.[.[.[.[.[.[.[.[.[.[.[.].].].[.[.[.[.j r n XXi.. N.NXp.V h t [.[.[.[.[.[.[.[.[.].[.[.[.[.[.[.[.[.[.[.[.[.[.[.[.",
"[.].[.[.[.[.[./.[.[.[.[.[.[.[.[.[.[.[.[.{.[.].[.`.[.G q 2.>.CXO.. B.UXPX4.2.r `.[.[.].].{././.].[.[.[.[.[.[.[.[.[.[.[.].[.[.].[.",
"[.[.[.[.].].[.[.].[.[.].[.].[./.[.[.[.[.[.[.[.[.[.`.=.# 2.2.l ! . 6 X., ,.C @ '.[.].].].[./.[.[.[.[.].[.[.[.[.[.[.[.[.[.[.[.[.[.",
"[.[.[.[.[.[.[.[.[.[.[.[.[.[.[.].[.[.[.[.{.[.[.[.[.Y.A a.Q.>.V l.X i iX8 3.f., |._.[.[.[.[.{.].[.[.[.[.[.[.[.[.[./.[.[.[.[.[.].[.",
"[.[.[.[.[.[.[.[.[.[.[.[.[.[.[.[.[.[.[.[.[.[.[.[.[.N + T.L.` ~ z X . 2 h 3.V o.&.D.[.`.[.[.[.{.[.[.[.[.[.[.[.[.[.[.[.[.[.[.[.[.[.",
"[.[.].[.[.[.[.[.[.[.[.[.[.[.[.[.[.[.[.[.[.[.].|.{.m -.U . n } R T ~ 6.>.) p./.e J.[.[.[.[.[.[.[.[.[.[.[.[.[.[.[.[.[.[.[.[.[.[.[.",
"[.[.[.[.[.[.[.[.[.[.[.[.[.[.[.[.[.[.[.[.[.].]._.P P IXcX. C <.<.| | w.` b 3XIX0 m [.[.[.[.[.[.[.[.[.[.[.[.[.[._.[.[.[.].[.[.[.[.",
"[.[.[.[.].[.[.].[.[.].[.[.[.[.[.[.[.[.[.].[.]._.P 0 cXIXI 2 ' 7.6.| ] R Q LXUXB.e /././.[.[.[.[.[.[.[.[.[.[.[.[.[.[.[.[.[.[.[.[.",
"[./.[.[.[.[.[.[.[.[.[.[.[.[.[.].[.[.[.[.].].]._.{.X 4 cXa.D ] <.7.| R ' q @XUXS.. A {.{.[.[.[.[.[.[.[.[.[.[.[.[.[.[.[.[.[.[.[.[.",
"[.[.[.[.[.[.[.].[.[.[.[.[.[.[.[.[.[.[.{._.|._.C.X .   + 4 ] ] T H T | R H t S + & A {./.{.(.[.[.[.[.[.[.[.[.[.[.[.[.[.].[.[.[.].",
"[.[.[.[.[.[.[.[.[.[.[.[.[.[.].[.[.].[.[.]._.H.N : M.e . j < 9 / Q K > z K 4 (.@ y././.{.[.[.[.[.[.[.[.[.[.[.[.[.[.[.[.[.[.[.[.[.",
"[.[.[.].[.[.[.[.].[.[.[.[.[.[.[.[.{.a.A i._.&.* U.:XD O ^ H l o w o o q E d.AXd E.~.~.(.T.(.[.[.[.[.[.[.[.[.[.[.[.[.[.].[.[.[.[.",
"[.[.[.[.[.[.[.[.[.[.[.[.[.[.[.[.[.[.k < # |.A H >XL.1 H 9.9.] o : f ^ 9.R %XkXC 5.1.j.h.(./.[.[.[.[.[.[.[.[.[.[.[.[.[.[.[.[.[.[.",
"[.[.[.[.[.].[.[.[.].[.[.[.[.[.].[.[.0 N j : g '.I.1 , #.q.q.<.H / [ 7.7.b %XFXE P.j.k.!.`.{.[.[.[.[.[.[.].].[.[.[.[.[.[.[.[.[.[.",
"[.[.[.].[.[.[.[.].[.[.[.[.[.[.[.[./.S.w 2 H b.;XH q R 0.7.6.l 1 D T 9.R 3 >XFXz '.!.P.`.[._.[.[.[.[.[.[.[.[.[.[.[.].[.[.[.[.].[.",
"[.[.[.[.[.].[.[.[.[.[.[.[.[.[.[.[.[.].S.e >X>XI.. K q.7.q.| J t j | $.t.Q.FXZXo T.`./.[.[.|.[.[.[.[.[.[./.[.[.[.[.[.[.[.[.[.[.[.",
"[.[.[.[.[.[.[.[.[.[.[.[.[.[.[.[.[.[.].].H ;X2Xa.> k 7.6.0.| H w t z H %.ZXlXHXr.z oX[.[.`.[.[.[.[.[.[.[.[.[.[.[.[.[.[.].[.[.[.[.",
"[.[.[.[.[.[.[.[.[.[.[.].[.[.[.[.].].].].L ( Z.Y.D.9 W 6.q.R ; . . ; , l 8.qXGXA.q l./.[.oX`.[.].[.[.[.[.[.[.[.[.[.[.[.[.[.[.[.[.",
"[.[.[.[.[./.[.[.].[.[.[.[.[.[.[.].].|.].! O @.o.oXS.q R w.w.#.5 . * K 8.v r ..s # &.[.[.].[.[.].[.[.[.[.[.].[.[.[.[.[.[.[.[.[.[.",
"].[.[.[.[.[.[.[.[.[.[.[.[.[.[.].].[.N.A a #X}.O.( 5Xb.C ' q.9.y . # [ 9.4.E J z J &.[.[.].[.[.[.[.[.[.[.[.[.[.[.[.[.[.[./.].[.].",
"[.[.[.[.[.[.[.[.[.[.[.[.[.[.[.].].N.e m.|. X#X}.*.2X_ c E 6.9.y   . J 6.[ k & > D M.[.[.[.[.[.[.[.[.[.[.[.[.[.[.[.[.[.[.[.[.[.[.",
"[.[.[.[.[.[.[.[.[.[.[.[.[.[.[./.[.S +XcXxXvXvX XOXF h @ . < 8 $ X X D N : . O ( `.[.[.[.[.[.[.[.[.].[.[.[.[.[.[.[.[.[.[.[.[.[.[.",
"[.[.[.[.[.[.[.[.[.[.[.[.].[.[.[.].G PXSXcXcXcX@X#Xe *.. N W : j ;.> . . . . k `.[.[.[.[.[._.[.[.[.[.[.[.[.[.[.[.[.[.[.[.].[.[.[.",
"[.[.[.].[.[.[.[.].[.[.[.[.[.[.[.[.].S NXBXnXvX|.i H._.p *.J : N _.S.w j ..V. .[.[.`.[.[.[.[.].[.[.[.[.[.[.[.[.[.[.[.[.[./.].[.[.",
"].[.[.[.[.[.[.[.[.[.[.].[.[.[.[.[.].X.G BXBX@XS ! ].].k %.hX;XG ].i.$ L.;Xu. .`.[.[.[.[.[.[.`.[.[.[.[.[.[.[.[.[.[.[.[.[.[.[.[.[.",
"[.[.[.[.[.[.[.[.[.[.[.[.[.[.[.[.[.[.[.=.X.D.D.u _.|.`.z 8.GXpXw `.;.$ ;X:XN N.|.[.[.[.[.[.[.[.[.[.].[.[.[.[.[.[.[.[.[.[.[.[.[.[.",
"[.[.[./.[.[.[.[.[.[.[.[.[.[.[.[.[.[.[.[.Y.e u ;.`._.[.k $.KX2Xo _.;.: iXiXu  .`.oX`.[.[.[.[.].[.[.[.[.[.].].[.[.[.[.[.[.[.[.[.[.",
"[.[.[.].[.[.[.[.[.[.[.[.[.[.[.[.[.[.[.{.[.H.Y.Y._._._.a =.PXbX. |.:.& +XxXG Y.[.[.[.[.[.[.[.[.[.[.[.[.[.[.[.[.[.[.].[.[.[.[.[.[.",
"[.[.[.[.[.[.[.[.].[.[.[.].[.[.[.[.[.[.[.{.[.[.[.|.].].N m.LXxX. |.:.& }.m.N `.`.`.[.[.[.[.[.[./.[.[.[.[.[.].[./.[.[.[.[.[.[.[.[.",
"[.[.[.[.[.[.[.[.[.[.[.[.[.[./.[.].[.[.[.[.[.[.[.[.].[.@.S cX@XZ ].:.& }.m.u _.].[.[.[.[.[.[.[.[.[.[.[.].[.[.[.[.[.[.[./.[.[.[.[.",
"[.[.[.[.[.[.[.[.[.[.[.[.[.].[.[.[.[.[.[.[.].[.[.].|.[.J.U xX#XN |.U S }.U A |.].[.[.[.[.[.[.[.[.[.[.[.[.[.[.[.[.[.[.[.[.[.[.[.[.",
"[.[.[.[.[.[.[.[.[.[.[.[.[.[.[.[.[.[.[.[.[.].[.[.[.].[.G.= ! H.  U 9 6 &   ;.:.z.Y.[.[.[.[.[.].[.[.[.[.[.[.[.[.[.[.[.[.[.[.[.[.[.",
"[.[.[.[.].[.[.[.].[.[.[.[.[.[.[.[.[.[.[.[.[.[.[.[.[.].G.  0 %   9 & X X % 9 + O.G.[.].[.[.].[.[.[.[.[.[.].[.[./.[.[.[.[.].[.[.[.",
"].[.[.[.[.[.[.[.[.[.[.[.[.[.[.[.[.[.[.[.[.[.[.[.[.I I !   % :   N P P P P 0 m.[.[.[.[.[.[.].[.[.[.[.[.[.[.[.[.[.[.[.].[.[.[.[.[.",
"].[.[.[.[.[.[.[.[.[.].[.[.[.[.[.[.[.[.[.[.[.[.[.[.J.F.B.      9 Z D.`.`.H.G.[.].[.].[.[.[.[.[.].[.[.[.[.[.[.[.[.[.[.[.[.[.[.[.[.",
"[.[.[.[.[.[./.[.[.[.[.[.[.[.[.[.[.[.[.[.[.[.[.[.[.[.[./.;.! = = p J.[.`.`.[.[.[.[.[.[.[.[.[.[.[.[.[.[.[.[.[.[.].[.[.[.[.[.[.[.[.",
"[.[.[.[.[.[.[.[.].[.[.[.[.].[.[.[.[.[.[.[.[.[.[.[.[.[.[.;.A a k :.].[.[.[.[.[.[.[.[.[.[.[.[.[.[.[.].[.[.[.[.[.[.].[.[.[.].[.[.[."
};
