/* XPM */
static char *player12[] = {
/* columns rows colors chars-per-pixel */
"64 64 256 2",
"   c #060502",
".  c #0A0503",
"X  c #0D0906",
"o  c #0E0B0A",
"O  c #07080A",
"+  c #130403",
"@  c #150A0A",
"#  c #1C0B0B",
"$  c #150806",
"%  c #13110E",
"&  c #1C110E",
"*  c #131212",
"=  c #1C1312",
"-  c #1F1B17",
";  c #29150F",
":  c #241414",
">  c #261917",
",  c #2B1D1C",
"<  c #271917",
"1  c #371917",
"2  c #24211D",
"3  c #2E211D",
"4  c #38231C",
"5  c #2D2423",
"6  c #2A2A26",
"7  c #2E2C2B",
"8  c #252222",
"9  c #332322",
"0  c #322D2B",
"q  c #3C2625",
"w  c #3A2C2B",
"e  c #382925",
"r  c #35312E",
"t  c #3D312E",
"y  c #3C3A39",
"u  c #383533",
"i  c #422D2C",
"p  c #462E28",
"a  c #43332F",
"s  c #4B332C",
"d  c #433433",
"f  c #463A35",
"g  c #4C3D3A",
"h  c #473938",
"j  c #55362D",
"k  c #513536",
"l  c #543E3C",
"z  c #593D3C",
"x  c #463F40",
"c  c #573F40",
"v  c #44403E",
"b  c #4B413F",
"n  c #53423D",
"m  c #58453D",
"M  c #644334",
"N  c #6D4233",
"B  c #734D3C",
"V  c #474342",
"C  c #4B4545",
"Z  c #4B4846",
"A  c #494A4A",
"S  c #534542",
"D  c #524847",
"F  c #524C4B",
"G  c #5C4543",
"H  c #5C4748",
"J  c #5A4C4B",
"K  c #574746",
"L  c #58524F",
"P  c #565251",
"I  c #5C5553",
"U  c #5C5955",
"Y  c #5B5758",
"T  c #604445",
"R  c #674648",
"E  c #644B4C",
"W  c #6A4C4D",
"Q  c #644C44",
"!  c #65524D",
"~  c #645453",
"^  c #635C5B",
"/  c #6D5454",
"(  c #6E5658",
")  c #6C5E5B",
"_  c #675956",
"`  c #7A564A",
"'  c #735453",
"]  c #745C5B",
"[  c #7D5754",
"{  c #7D5C5C",
"}  c #775856",
"|  c #7B5D61",
" . c #745F62",
".. c #65605E",
"X. c #6F6056",
"o. c #78635B",
"O. c #646261",
"+. c #6D6462",
"@. c #6C6966",
"#. c #6C6869",
"$. c #746261",
"%. c #746B67",
"&. c #736C6C",
"*. c #7D6263",
"=. c #7C6A65",
"-. c #7E6A69",
";. c #79716E",
":. c #7C7573",
">. c #7A7677",
",. c #8A5F48",
"<. c #835D59",
"1. c #825F63",
"2. c #83604B",
"3. c #8A644A",
"4. c #88665A",
"5. c #826364",
"6. c #856669",
"7. c #856A6A",
"8. c #8A6764",
"9. c #8B666A",
"0. c #8A6966",
"q. c #8A696B",
"w. c #856A65",
"e. c #8F6B71",
"r. c #81736F",
"t. c #8B7469",
"y. c #897060",
"u. c #877471",
"i. c #847D7C",
"p. c #8C7374",
"a. c #887D7B",
"s. c #867B76",
"d. c #90666C",
"f. c #986E71",
"g. c #927477",
"h. c #967A77",
"j. c #997A68",
"k. c #A7575D",
"l. c #A37676",
"z. c #B46E73",
"x. c #B17175",
"c. c #827C82",
"v. c #9B7E80",
"b. c #A57E80",
"n. c #84817F",
"m. c #8C827C",
"M. c #99847B",
"N. c #A58976",
"B. c #BF987B",
"V. c #8B8483",
"C. c #8A8687",
"Z. c #918585",
"A. c #918885",
"S. c #938C8B",
"D. c #998E87",
"F. c #9B8D8D",
"G. c #948F90",
"H. c #95908F",
"J. c #9B928F",
"K. c #999393",
"L. c #9A9897",
"P. c #9C9DA1",
"I. c #A18A84",
"U. c #A78B8B",
"Y. c #AD8C8C",
"T. c #A98985",
"R. c #AC9489",
"E. c #A99085",
"W. c #A29493",
"Q. c #A69B96",
"!. c #A39C9B",
"~. c #AF9B91",
"^. c #AB9898",
"/. c #B18C8E",
"(. c #B28D93",
"). c #BA9988",
"_. c #B39395",
"`. c #B39D9C",
"'. c #BC9B9C",
"]. c #B49C93",
"[. c #A59FA0",
"{. c #A6A29E",
"}. c #AAA29E",
"|. c #B4A49C",
" X c #BBA39E",
".X c #B9A499",
"XX c #A7A2A2",
"oX c #A6A5A8",
"OX c #A9A2A3",
"+X c #ABA9A9",
"@X c #B6AAA7",
"#X c #B8B2B4",
"$X c #BDB9C2",
"%X c #C09E84",
"&X c #C7979A",
"*X c #CAA48C",
"=X c #C8A79B",
"-X c #D6AF98",
";X c #D6AF93",
":X c #D6B29C",
">X c #C4A6AB",
",X c #C9ABA5",
"<X c #CEACAD",
"1X c #C4A6A6",
"2X c #CEAEB3",
"3X c #C7B3AB",
"4X c #CBB5B5",
"5X c #D0ADA9",
"6X c #D2AFB1",
"7X c #D7B9AE",
"8X c #DEBCAB",
"9X c #D5B4AC",
"0X c #D3B1B1",
"qX c #DBB9B9",
"wX c #E5BFA4",
"eX c #DDC3B4",
"rX c #D5C6BA",
"tX c #E9C0A2",
"yX c #E3C2B5",
"uX c #E7C1BA",
"iX c #ECCDBC",
"pX c #E9C7B5",
"aX c #EED3BF",
"sX c #F3CDB4",
"dX c #F5D3BA",
"fX c #FCD4B7",
"gX c #FBD5BB",
"hX c #FBD8BE",
"jX c #C3C4C6",
"kX c #C7C7C8",
"lX c #CCCCCC",
"zX c #CBC6C5",
"xX c #CACCD1",
"cX c #DCC5CC",
"vX c #D5CBC8",
"bX c #D1CFD0",
"nX c #DCD7D8",
"mX c #ECCDC0",
"MX c #E7CBC0",
"NX c #E4CDD3",
"BX c #EED7C8",
"VX c #ECD9CE",
"CX c #EEDCDF",
"ZX c #E4D4D8",
"AX c #F5D5C3",
"SX c #F7D8C4",
"DX c #F3DACA",
"FX c #FAD6C1",
"GX c #FAD8C2",
"HX c #F8D8C8",
"JX c #F3DFD6",
"KX c #E4E0DE",
"LX c #E9E5E2",
"PX c #F3ECEA",
"IX c #F2EFF5",
"UX c #F7F3FA",
/* pixels */
"OXOXOXOXOXOXOXOXOXXXOXOXOXOXOXXXOXOXOXOXOXOXOX[.OXOXOXOXOXOXOXOXOX@XOXOXOXS.OX`.`.OXOXOX+XOX[.[.+X@X[.OX}.}.OX|.OXOXOXOXOXOXOXOX",
"OXOXOXOXOXOXOXOXOXOXOXOXOXOXOXOXOXOXOXOXOXOXOXOXOXOXOXOXOXOXOXOX+X[.[.L.Z.H J $.Z.Z.OX[.OX[.@XOX[.OXOXOXOXOXOXOXOXOXOXOXOXOXOXOX",
"OXOXOXOXOXOXOXOXOXOXOXOXXXOXOXOXOXOXOXOXOXOXOXOXOXOXOXOX[.OXOXOX[.OXJ.d , i ( ( H w u.OXOXOXOXOX+X[.OXOXOXOXOXOXOXOXOXOXOXOXOXOX",
"OXOXOXOXXXOXOXOXOXOXOXOXOXOXOXOXOXOXOXOXOXOX[.OXOXOXOXOX+XOXOX[.OXS., t i k W W W d F [.OXOXOXOX[.OXOX[.OXOXOXOXOXOXOXOXOXOXOXOX",
"OXOXOXOXXXOXOXXXXXOXOXOXOXOXOXOXOXOXOXOXOXOXOXOXOXOXOX[.OXOXOXV.# w 3 -.W c W T W G 9 c.[.OXOXOXOXOXOXOXOXOXOXOXOXOXOXOXOXOXOXOX",
"OXOXOXOXOXXXOXOXXXOXOXOXOXOXOXOXOXOXOXOXOXOXOXOXOXOXOXOXOXOXA., ~ *.( l k k 1.9.9.9.J l ] W.W.OXOXOXOX+X[.OXOX[.OXOXXXOXOXOXOXOX",
"OXOXOXOXOXOXOXOXOXOXOXOXOXXXXXOXOXOXOXOXOXOXOXOXOXOXOXOX{.F w c 6.6.v.9 ; 6.f.d.9.9.E d G z c L.OX[.oXOXOXOXOXOXXXOXOXOXOXXXOXOX",
"OXOXOXOXOXOXOXOXOXOXOXOXOXOXOXOXOXOXOXOXOXOXOXOXOXOX+X^.t C o.n q i >XU._.6X6X6XT.d.} ' 9.0.e.h W.`.[.OXOXOXOX+XOXOXOXOXOXOXOXOX",
"OXOXOXOX[.OXOXOXOXOXOXOXOXOXXXOXOXOXOXOXOXOXOXOXOXOX[.a.: ] ~ ] d U.6X6X0X6X0X6X<X1X/.d.9.9.| S f }.OXOXOXoXOXOXOXOXOXOXOXOXOXOX",
"OXOXOXOXOXXXOXXXOXOXOXOXOXOXOXOXOXOX}.OXOXOXOXOXOXOXF 3 z q.1X2X6X2X2XqX<X1X9X6X6X1X&XT.f.e.9 k d {.OX}.OXOXOXOXXXOXXXOXOXOXOXXX",
"OXOXOXOXOXOXOXOXOXXXOXOXOXOXOXOXOXOXOX}.OXOXOXOXOXOXw ) W h.CXNXZX6X6X<XyXAXiXuX0XS i p._.g.+ c e +.OXOXOXOXOXOXOXOXOXOXOXOXXXOX",
"OXOXOXOXOXOXOXOXOXOXOXOXOXOXXXOXOXOXOXOXOXOXOXOX{.OXu / K h.NXcXcXqX8XyXgXfXgXHX9X>X~ i h.8.1.g.H ^ OX}.OX}.OXOXOXOXOXOXOXOXOXOX",
"OXOXOXOXOXOXOXXXOXOXOXOXOXOXOXOXOXOX}.OXOXOXOXOXOXOXf , i 1X2X6X6X6X7XpXFXfXfXFXiXiXR.].1XY.'.N.| D +X[.OXOXOXOXOXOXOXOXOXOXOXXX",
"OXOXOXOXOXOXOXOXOXOXOXOXXXOXOXOXOXOXOXOXOXOXOXOXOXOXm.9 i 1X<XqX&X} T.8XFXgXGX)./ } Q N.`.>X(._. .$ [.OX{.OXOXOXOXOXOXXXOXOXOXOX",
"OXOXOXOXOXXXOXXXOXOXOXOXOXXXOXOXOXOXOXOXOXOXOXOXOXOXa.9 u.,X,XeXR.t.N.%XgXFXFXs N.yX].$ 9 >Xv.G ~ ^ OXOXOXOXOXOXOXOXOXOXOXOXOXOX",
"OXOXOXOXOXOXOXOXOXOXOXOXOXOXOXOXOXOXOX}.OXOXOXOX{.OXZ.i Y. X.XD.2 2 5 t.gXgXdX5 6 w Q.%.q '.I.l 9 L.OX[.OXOXOXOXOXOXOXOXXXOXOXOX",
"OXOXOXOXXXOXOXOXOXOXOXOXOXOXOXOXOXOXOXOXOXOXOXOXOXOX@XF._.Y.g.e v F 0 b pXfXhXM.m.U P 9 D.=XiXR.k @.XXOXOXOXOXOXOXOXOXOXOXOXOXOX",
"OXOXOXOXOXOXOXOXOXOXXXOX[.[.OXOXOXOXOXOXOXOXOXOXOXOX@X|.H 0XeXT.m .X3X=XgXfXhXGXh.u.d R.dX8X8XiX/ _ XXXXOXOXOXOXOXOXOXOXOXOXOXOX",
"OXOXXXOXXXOXOXXXOXOXOXXXOXOXOXOXOXOXOXOXOXOXOXOXOXOXOX!.9 |.iXSX-X3.B.gX;X3.*XGX:X` ).dXFXgXeX9Xo.}.}.OXOXOXOXoXOXOXOXOXOXOXOXOX",
"XXOXOXOXOXOXOXOXOXOXOXOXOXOXOXOXOXOXOXOXOXOXOXOXOXOXOXOX+.9 u.eXdXtXwXgXdXtXsXfXsXtXsXFXFXiXX.r m.OXOXOXOXoXOXOXOXOXOXOXOXOXOXOX",
"[.OXOXOXOXOXOXXXOXOXOXOXOXOXOXOXOXOXOXOXOXOXOXOXOXOXOXOXOXL @ s AXhXfXhXgXGXGXfXfXfXdXiX{ S u s.}.OXOXOXOXOXOXOXOXOXOXOXOXOXOXOX",
"OXOXOXOXOXOXOXOXOXOXOXOXOXOXOXOXOXOXOXOXOXOXOXOXOXXXOXXXoXoXOXD a eXSXdXfXfXgXhXhXhXSX! & C.OXOXOX}.XXXXOXOXOXOXOXOXOXOXOXOXOXOX",
"OXOXOX[.OXOXOXXXOXXXOXOXOXOXOXOXOXOXOXOXOXOXOXOXOXOXOXOXoXXXOX..2 s .XSXfXfXfXdXeXR.! - V.OXOXOX+XOX}.OXOXOXOXOXXXOXOXOXOXOXOXOX",
"OXOXOX[.OXOXOXOXOXOXOXOXOXoXOXOXOXOXOXOXOXOXOXOXOXOXOXOXOX{.OXOXJ.:.g m o.*XSXb f > K C.OX+XOXOX}.OXOXOXOXOXOXOXOXOXOXXXOXOXOXOX",
"OXOXOXOXOXOXOXOXOXOXOXOXOXOXOXOXOXOXOXOXOXOXOXOXOXOXOXOXOXOXOXOXn.D D =.I.t.y.v f m G %.XXOXOXOXOX[.OXOXOXOXOXOXOXOXOXOXOXOXOXOX",
"OXOXOXOXOXOXOXOXOXOXOXOXOXOXOXOXOXOXOXOXOXOXOXOXOXOXOXOX|.OXOXOXf s `  Xm.6 K.IXZXy.2.3 n.oXOXOX[.@X[.OXOXOXOX[.XXOXOXOXOXOXOXOX",
"OXOXOXOXOXOXOXOXOX[.OXOXOXOXOXOXOXOXOXOXOXOXOXOXOXOXOXOXOX[.oX&.; ` 3.I.c.  8 $X4Xj.3.a n.OXOXOX+X[.[.OX[.+X+X[.[.OXOXOX[.OXOXOX",
"OXOXOXOXOXOXOXOXOXOXOXOXOXOXOXOXOXOXOXOXOXOXOXOXOXOXOXOXOXoXoX!.# ` 3.j F.6 O P.< M ,.$ n.OXOXOXOXOXOXOXOXOX+XOXOXOXOXOXOXOXOXOX",
"OXOXOXOXOXOXOXOXOXOXOXOXOXOXOXOXOXOXOXOXOXOX{.OXOXOXOXOX[.OXL.y &.vX2.j  .. . K.p ,.4.E V.J.OXOXOXOXOXOXOXOXOXOXOXOXOXOXOXOXOXOX",
"[.OXOXOXOXOXOXOXOXOXOXOXOXOXOX[.OXOXOXOXOXOXOXOXOXOXOXOXoXOX^ @ >.a.j [ / w 9 q j ,.p K.7 {.}.OXOXOXOXOXOXOXOXOXOXOXOXOXOXOXOXOX",
"OXOXOXOXOXOXOXOXOXOXOXOXOXOXOXOXOXOXOXOXOXOXOXOXOXOXOXOX[.!.V c.[.# s <.W T R 6.<.` -.KXu #.OXOX[.OXOX+XOXOXOXOXOXOXOXOXOXOXOXOX",
"OXOXOXOXOXOXOXOXOXOXOXOXOXOXOXOXOXOXOXOXOXOXOXOXOXOXOXOXOX;.7 IXUX0 4 } 1.| 1.9.[ ' !.UXC.O OX[.OXOXOXOXOXOXOXOXOXOXOXOXOXOXOXOX",
"OXOXXXOXOXOXOXXXXXOXOXOXOXOXOXOXOXOXOXOXOXOXOXOXOXXXXXOXXXV.& U UX#X@ { *.6.6.T ' w jXUXzXo a.[.[.OXOXOXoX`.[.OXOXOXOXOX[.OXOXOX",
"OXOXOXOXOXOXOXOXOXOXOXOXOXOXOXOXOXOXOXOXOXOXOXOXOXOXOXOXOX>.& > #.C.c | / } ] R W ~ O.nXK.. # U.`.[.[.+X[.[.+XOXOXOXOXOXOXOXOXOX",
"OXOXOXOXXXOXOXOXOXOXOXXXOXOXOXOXOXOXOXOXOXOXOXOXOXOXOXOXOX&.e #X* X E 6./ / W $.( |   r O . k f.b.W.OXOXOX@XOXOXOXOXOXOX[.OXOXOX",
"OXOXOXOXXXOXOXOXOXOXOXOXOXOXK.OXOXOXOXOXOXOXOXOXOXOXOXOX{.b 4 JXg 8 z 1 =.*.7.S K |       d &Xz.l. X`.OXOXOXOXOXOXOXOXOX+XOXOXOX",
"OXOXOXOXOXOXOXOXOXOXOXOXOXOXOXOXOXOXOXOXOXOXOXOXOXOXOX+X}.& ~.VXQ d l i @ , $ . # } i > d ( x.k.x.'.[.[.OXOXOXOXOXOXOXOXOXOXOXOX",
"OXOXOXOXOXOXOXOXOXOXOXOXOXOXOXOXOXOXXXOXOXOXOXOXOX}.D.m.{.D .XN.q =.6.6.# : < i } 9.n : ;.= _./._.[.@XOXOXOXOXOXOXOXOXOXOXOXOXOX",
"OXOXXXOXOXOXXXOXOXXXOXOXOXOXXXOXOXOXoXOXOXOXOXOXOXm.& & }.f eXDX+ ] 6.d.S R 6.q.0.0.w.$ a.w ;.[.[.[.[.OXOXOXOXOXOXOXOXOXOXOX[.OX",
"OXOXOXOXOXOXOXOXOXOXXXOXXXOXOXOXOXOXOXOXOXOXOXOXOX..f o.> / 7XE., F 7.5.7.5.1.9.9.7.0.G 5 7.0 L.[.oX+XOXOXOXOXOXOX[.OXOXOXOXOXOX",
"OXOXOXOXOXOXOXOXOXOXOXOXOXOXOXOXOXOXXXOXOX}.OXOXOX:.t n % yXFX0Xw.> g E 4.8.8.d.9.9.9.W # h.~ >.`.+XOXOXOXOXOXOXOXOXOXOXOXOXOXOX",
"OXXXOXOXOXOXOXOXOXOXOXOXOXOXXXOXOXOXoXOXOXOXOXOXOXOX|.m.b 7XAXM.W.K.S...` 4.<.{ | 6.q.9.G i D.h [.[.OXOXOXOXOXOXOXOXOXOXOXOXOXOX",
"XXOXOXOXOXXXOXOXXXOXOXOXOXOXOXOXOXOXXXOXOX}.OXOXOXOX}.}.}.a ~.6 K.&.@.|.B N 1 9 & | 9.d.1.< r r [.+XOXOXOXOXOXOXOXOXOXOXOXOXOXOX",
"OXOXOXOXOXOXOXOXOXOXOXOXOXOXOXOXOXOXOXXXOXOXOXOXOXOX}.OX{.n.5 Z #XP.U rXM M ; e  .6.9.e.5., 2 H.OX[.OXOXOXOXOX[.OXOXOXOX[.OXOXOX",
"OXOXOXOXOXOXOXOXOXXXOXOXOXOXXXOXOXOXXXOXOXOX}.OX{.XXOXOX+XL.b lXlXxXkXm.p 3 . o.9.6.( E ~ J F XXOXOXOXOXOXOXOXOXOXOXOXOXOXOXOXOX",
"XXOXOXOXOXOXOXOXXXOXOXOXOXOXOXOXOXOXOXOXOX|.OXOX+XOXOXOX+Xu 6 zXlXxXjXn.m -   a *.*.] 3 * w _ OXOXOX[.OXOXOXOXOXOXOXOX+XOXOXOXOX",
"OXOXOXOXOXXXOXOXOXOXOXOXOXOXOXOXOXOXOXOXOX}.OXOXXXOX{.{.n.6 +XbXlXxXjXV .     : $ 9 . $ I }.}.OXOX[.+XOXOXOXOXOX[.OXOX[.OXOXOXOX",
"OXOXOXOXOXXXOXOXOXOXOXXXOXOXOXOXOXOXOXOXOXOXOXOXOX{.+X{.U @.KXnXbXlX{.v   2 . $ . . . I a.OXOXOXOXOXOXOXOXOXOXOXOXOXOXOXOXOXOXOX",
"OXOXXXOXOXOXOXOXOXOXOXOXOXOXOXOXOXOXOXXXOXOXOXOXOXOXOXOXH.:.nXKXPXKX{.L o @.+ # b u . A.Q.OXOXOXOXOXOXOXOXOXOXOXOXOXOXOXOXOXOXOX",
"OXOXOXOXOXOXOXOXOXOXOXOXOXOXOXOXOXOXOX}.OXOXXXOXOXOXOXOXOXZ   C :.H.:.X.b m.+ .XAXS . !.OXOXOXOXOXOXOXOXOXOXOXOX[.OXOXOXOXOXOXOX",
"OXOXOXOXOXOXXXOXOXOXOXOXOXOXOXOXOXOXOXOXOXOXOXOXXXOXOXOXOX{.Q.{...J.r.3Xm V.. HXGXm I [.OXOXOXOXOXOXOXOXOXOXOXOXOXOXOXOX+XOXOXOX",
"OXOXOXOXOXOXOXOXXXOXOXOXOXOXXXXXOXXXOXOXOXXXOXOXOXOXXXOXOXOXOX}...n @X#XD V.+ SXgXm _ OXOXOXOXOXOXOXOXOXOXOXOXOXOXOXOXOX[.OXOXOX",
"OXOXOXOXOXOXXXOXOXOXOXXXOXOXOXOXOXOXOXOXOXOXOXOXOXOXOXOXOXOX}.OXA.b zXvXZ C.+ DXSXm ^ XXOXOXOXOXOXOXOXOXOXOX[.OXOXOX+XOX[.OXOXOX",
"XXOXOXXXOXOXOXOXOXOXXXOXOXOXOXOXOXOXOXXXOXOXXXXXOXOXOXOXOXOXOXOX..0 V.@XZ C.$ JXVXC U [.[.+XOXOXOX[.OXOXOXOXOXOXOX[.[.OXOXOXOXOX",
"OXOXOXOXOXXXOXOXOXOXOXOXOXOXOXOXOXXXOXOXOXOXOXOXOXOXOXOXOXOXOXOXO.7 L.#XA C.3 nXPXF ^ OXOX[.OXOXOXOXOXOXOXOXOXOXOXOXOXOXOX[.OXOX",
"OXOXXXOXOXOXOXOXOXOXOXOXOXOXXXOXOXOXOXOXOXOXOXOXOXOXXXOXOXOXOXOXO.* A >.u n.i.#X+XC S.OX+XOXOXOXOXOXOXOXOXOXOXOXOXOXOXOXOX[.@X[.",
"OXOXOXOXOXOXOXOXOXOXOXOXOXOXOXOXOXOXOXOXOXXXOXOXOXOXOXOX}.OXK.Z r         7 >.lXlXL [.OX[.[.OXOXOX[.OXOXOXOXOX[.OXOXOXOXOXOXOXOX",
"OXOXOXOXOXOXOXOXOXOXOXXXXXOXOXOXXXOXOXOXOXOXOXOXOXOXOXOX}.}.OX@.V % X % O X 5 {.&.* >.#.OXOX[.OXOX+XOXOXOXOXOXOXOXOXOXOXOXOXOXOX",
"OXOXOXOXOXOXOX[.OXOXOXOXOXOXOXXXOXOXXXOXOXOXOXOXOXOXOXOX+X{.OX&.Z 7 6 @ 8 % 7 2 o 8 C D J.OXOXOXOX[.OXOXOXOXOXOXOXOXOXOXOXOXOXOX",
"OXOXOXOXOXOXOXOXOXOXOXOXOXOXOXOXOXOXOXOXOXOXOXXXOXOXOXOX}.}.OXOX{.{.K.O...o 7 0 * O.x D S.OXOXOXOXOXOXOXOXOXOXOXOXOXOXOXOXOXOXOX",
"OXOXXXOXOXOXOXOXOXOXOXOXXXOXOXOXOXOXXXOXOXOXOXOXOXOXOXOXOXXXOXOXOXS.P P u * * u P P i.[.OXOXOXOXOXOXOXOXOXOXOXOXOXOXOXOXOXOXOXOX",
"OXOXOXOXOXOXXXOXOXXXOXOXOXOXXXOXOXOXOXOXXXOXOXOXOXOXOXOXOXOXOXOXOXOX{.:.V f u v C D A !.OXOXOXOXOXOXOXOXOXOXOXOXOXOXOXOXOXOXOXOX",
"OXOXXXOXOXOXOXOXOXOXOXOXOXOXOXOXOXOXOXOXOXOXOXOXOXOXOXOXOXOXOXOXOXOXOXOXXXXXoXXXOXOXOXOXOX[.OXOXOXOXOXOXOXOXOXOXOXOXOXOX[.OXOXOX",
"OXOX[.XXOXOXOXXXOXOXOXOXOXOXOXOXOXOXOXOXXXOXOXOXOXOXOXOXOXOXOXOXOXOX{.OXoXXX{.XXOXOXOXOXOXOXOXOXOXOXOXOXOXOXOXOXOXOXOXOXOXOXOXOX"
};
