/* XPM */
static char *_05129288_797440504873367_1648536893885861071_n1662375315[] = {
/* columns rows colors chars-per-pixel */
"64 64 235 2 ",
"   c #040000",
".  c #0B0101",
"X  c #0F0909",
"o  c #130201",
"O  c #1B0400",
"+  c #130B0B",
"@  c #1C0C0B",
"#  c #170802",
"$  c #1A110D",
"%  c #1C1313",
"&  c #1B1617",
"*  c #22110C",
"=  c #2A110A",
"-  c #2B1712",
";  c #241D1B",
":  c #2A1C1A",
">  c #281914",
",  c #321F1D",
"<  c #331D15",
"1  c #200D09",
"2  c #2F221F",
"3  c #35201D",
"4  c #2C2525",
"5  c #2F2B2C",
"6  c #332322",
"7  c #382623",
"8  c #342926",
"9  c #342C2B",
"0  c #3C2C2B",
"q  c #392A27",
"w  c #3D312E",
"e  c #36312D",
"r  c #3B3434",
"t  c #3E3A3A",
"y  c #3A3435",
"u  c #442519",
"i  c #432D28",
"p  c #43322E",
"a  c #4C322B",
"s  c #483329",
"d  c #593A2B",
"f  c #443635",
"g  c #4D3235",
"h  c #4C3B35",
"j  c #433C3A",
"k  c #4B3C3C",
"l  c #493738",
"z  c #513C3B",
"x  c #563A34",
"c  c #603C30",
"v  c #48403E",
"b  c #55403A",
"n  c #58423B",
"m  c #6B4D3F",
"M  c #674635",
"N  c #7D533D",
"B  c #553F41",
"V  c #4B4543",
"C  c #4E4947",
"Z  c #4E4A49",
"A  c #464243",
"S  c #534544",
"D  c #5B4A45",
"F  c #534C4A",
"G  c #5A4A4B",
"H  c #59514E",
"J  c #5B5353",
"K  c #5A5655",
"L  c #634343",
"P  c #634D4B",
"I  c #6C4C4C",
"U  c #644748",
"Y  c #6B524D",
"T  c #65524B",
"R  c #73554C",
"E  c #795746",
"W  c #645352",
"Q  c #6D5554",
"!  c #6D5955",
"~  c #655C5C",
"^  c #6B5C5B",
"/  c #725455",
"(  c #75575A",
")  c #795C5C",
"_  c #765A59",
"`  c #69625E",
"'  c #7D635A",
"]  c #6B6563",
"[  c #6C6966",
"{  c #696565",
"}  c #726462",
"|  c #7A6361",
" . c #736C6A",
".. c #7B6D6C",
"X. c #796965",
"o. c #76716E",
"O. c #7B706E",
"+. c #7C7373",
"@. c #787373",
"#. c #84583F",
"$. c #8A5950",
"%. c #85604C",
"&. c #8A614A",
"*. c #886759",
"=. c #956C55",
"-. c #8F5D61",
";. c #836363",
":. c #86666A",
">. c #8A666A",
",. c #856B6C",
"<. c #8B6B6C",
"1. c #886865",
"2. c #966868",
"3. c #8B736E",
"4. c #897269",
"5. c #927568",
"6. c #8C6E71",
"7. c #8C7273",
"8. c #847C7B",
"9. c #887977",
"0. c #957679",
"q. c #A37176",
"w. c #8B817E",
"e. c #9E867A",
"r. c #9A8376",
"t. c #A5887E",
"y. c #B9957F",
"u. c #A37F81",
"i. c #8B8482",
"p. c #8E8988",
"a. c #938C8B",
"s. c #988885",
"d. c #959190",
"f. c #9C9694",
"g. c #9E9999",
"h. c #9C9894",
"j. c #94938F",
"k. c #A28E8A",
"l. c #AB8788",
"z. c #B18D84",
"x. c #A8948A",
"c. c #B6968C",
"v. c #A28F92",
"b. c #AB9493",
"n. c #A49D9C",
"m. c #AB9E9C",
"M. c #A79995",
"N. c #B89A95",
"B. c #B49D9B",
"V. c #BB9C9B",
"C. c #B39993",
"Z. c #A6A19E",
"A. c #ABA19F",
"S. c #BBA49A",
"D. c #B8A399",
"F. c #A79FA0",
"G. c #BF9FA1",
"H. c #A7A1A1",
"J. c #A9A3A3",
"K. c #ADA9A6",
"L. c #AEA9A9",
"P. c #ADA7A9",
"I. c #B3A3A2",
"U. c #BAA3A3",
"Y. c #B3A9A5",
"T. c #B4ACAC",
"R. c #BBAEAA",
"E. c #B0A7A8",
"W. c #B6B1AE",
"Q. c #BAB1AF",
"!. c #B8AFB0",
"~. c #B5AFB1",
"^. c #B6B1B1",
"/. c #BAB3B3",
"(. c #BEBABA",
"). c #C29D9C",
"_. c #C09795",
"`. c #C4A19B",
"'. c #C5A18B",
"]. c #CCABA5",
"[. c #CBACAA",
"{. c #C4A8A6",
"}. c #D1ACA9",
"|. c #CAB1AE",
" X c #D1B2AD",
".X c #D8B7A9",
"XX c #C0B9B5",
"oX c #C3BDBB",
"OX c #CCBCBE",
"+X c #C8B6B4",
"@X c #D3B3B4",
"#X c #D4BAB3",
"$X c #DCBCB5",
"%X c #D9BABB",
"&X c #D5B7B8",
"*X c #D1AFB0",
"=X c #E0BDB7",
"-X c #DCC3B9",
";X c #E5C6BB",
":X c #F0CCB8",
">X c #FAD5BD",
",X c #F2D3BE",
"<X c #EBD2BE",
"1X c #DCBFC1",
"2X c #D6BDC0",
"3X c #CBCACA",
"4X c #C7C5C5",
"5X c #D8C9C6",
"6X c #D9D1CC",
"7X c #DBDAD9",
"8X c #D7CCD0",
"9X c #E6C8C2",
"0X c #E4D0CA",
"qX c #ECD1C2",
"wX c #FBD7C3",
"eX c #FDDAC4",
"rX c #F4D5CB",
"tX c #FEDCCB",
"yX c #F6D9C9",
"uX c #E9DAD6",
"iX c #FDDFD3",
"pX c #F2D7D4",
"aX c #F1CFC5",
"sX c #FEE0CD",
"dX c #FDE4D4",
"fX c #FCE5DA",
"gX c #FFEADD",
"hX c #FFE8D7",
"jX c #EBE6E9",
"kX c #F9E9E5",
"lX c #F3EFF5",
"zX c #F5F2F4",
"xX c #FDF5F5",
"cX c #FFFDFD",
"vX c #FEF7F8",
/* pixels */
"J.J.J.J.H.J.J.J.J.J.J.J.J.J.J.H.J.J.J.J.J.J.J.J.J.J.J.J.J.K.J.J.J.J.J.J.J.A.J.J.J.J.J.F.J.I.I.J.J.J.J.J.J.J.J.J.J.J.J.J.J.J.J.J.",
"J.J.J.J.H.J.J.J.J.J.J.J.J.J.J.J.J.J.J.J.J.J.J.J.J.J.J.J.J.J.J.J.J.J.J.J.A.J.J.J.H.H.J.J.J.J.J.J.J.J.J.J.J.J.J.J.J.J.J.J.J.J.J.J.",
"J.J.J.J.J.J.J.J.J.J.J.J.J.J.J.J.J.J.F.P.J.J.H.J.J.J.J.J.J.A.J.J.J.J.Z.Z.J.J.J.Z.F.J.J.J.J.J.J.J.J.J.J.J.J.J.J.J.J.J.J.J.J.J.H.J.",
"J.J.J.J.J.J.J.J.J.J.J.J.J.J.J.J.J.P.F.J.J.J.J.J.J.J.J.J.J.T.J.n.E.T.W.T.T.E.P.T.T.P.J.J.J.J.J.J.J.J.J.J.J.J.J.J.J.J.J.J.J.J.J.J.",
"J.J.J.J.J.J.J.J.J.J.J.J.J.J.J.J.J.J.J.J.H.H.P.H.Z.J.A.A.Y.8.l S @.,.O.O.X.8.s.O.+.M.J.H.J.P.J.J.J.J.J.J.J.J.J.J.J.J.J.J.J.J.J.J.",
"J.J.J.J.J.J.J.J.J.J.J.J.J.J.J.J.J.J.J.J.P.P.g.P.J.K.T.n.f : k 7.k 6 l 0 l f 6 6 * } !.F.J.J.J.J.J.J.J.J.J.J.J.J.J.J.F.J.J.J.J.J.",
"J.J.J.J.J.J.J.J.J.J.J.J.J.J.J.J.J.J.J.F.T.@.% p.Z.h.w.J l X.7.:.| / | 6.0.6.| W S : 8.T.A.J.J.F.J.J.J.J.J.J.J.J.J.J.J.J.J.J.J.J.",
"J.J.J.J.J.J.J.J.J.J.J.H.J.J.J.J.J.J.J.F.T.~ H . . b ~ f p z {.;.I 6.6.>.( / :.6.P 0 l R.J.J.J.J.J.F.J.J.J.J.J.J.J.J.J.J.J.J.J.J.",
"J.J.J.J.J.J.J.J.J.J.J.J.J.J.J.J.J.J.J.n./.^ M.G.M.B.} o o / &XG.l.L -.>.-.I L L / X.D ..n.J.J.J.J.J.J.J.J.J.J.J.J.J.J.J.J.J.J.J.",
"J.J.J.J.J.J.J.J.J.J.J.J.J.J.J.J.J.J.J.J.F.r k 2X@Xb.6.0.B.%X[.@X@XC.u.>.<.2.;.( ,.| P > s.E.J.J.J.J.J.J.J.J.J.J.J.J.J.J.J.J.J.J.",
"J.J.J.J.J.H.J.J.J.J.J.J.J.J.J.J.J.J.J.T.S ^ 6 {.) G.1X X@X].[.1X1X2X*XG.>.<.6.<.<.i 3 f W T.F.J.J.J.J.J.J.J.J.J.J.J.J.J.J.J.J.J.",
"J.J.J.J.J.J.J.J.J.J.J.J.J.J.J.J.J.J.Z.W.B  .+X2X&X{.).9XrX9X].5XpX2X[.%Xc.I 1.<.( a z n @ O.!.F.J.J.J.J.J.J.J.J.J.J.J.J.J.J.J.J.",
"J.J.J.J.J.J.J.J.J.J.J.J.J.J.J.J.J.J.A.J.F.q G 5X2X{.[.9XhXdX=X X@X@X*X@XC.g L 2.L I ;.<.D +.!.F.J.J.J.J.J.J.J.J.J.J.J.J.J.J.J.J.",
"J.J.J.J.J.J.J.J.J.J.J.J.J.J.J.J.J.J.Z.K.+.9 o v.Q B.).].R 5.iX$X*X@X}.@X&X;.g ( ;.1.<.<.! k J.J.J.J.J.J.J.J.J.J.F.J.J.J.J.J.J.J.",
"J.J.H.J.J.J.J.J.J.J.J.J.J.J.J.J.J.J.A.K.f.f.9 G o U.[.@XS.3.yX#XN.aXG.[.*X[.I / 1.<.1.<.} 6 n.P.J.J.J.J.J.J.J.J.J.J.J.J.J.J.J.J.",
"J.J.J.J.J.J.J.J.J.J.J.J.J.J.J.J.J.J.J.J.J.E.y & : q #X9X- < X.-XaXiX}.V.&XpX@X%Xt.$.>./ - 8 I.J.J.J.J.J.J.J.J.J.J.J.J.J.J.J.J.J.",
"J.J.J.J.J.J.J.J.J.J.J.J.J.J.J.J.P.H.J.J.H.P.i.  H > - X.T < r.h c.;Xc.N.$X@X=X.XrXz.<./ g : ` T.F.J.J.J.J.J.J.J.J.J.J.J.J.J.J.J.",
"J.J.J.J.J.J.J.J.J.H.J.J.J.J.J.J.H.J.J.J.H.P.P.P.T.p O  XfXm hXhX-X.X=X].].&XtXz.aX].;./ k o 8.T.F.J.J.J.J.J.J.J.J.J.J.J.J.J.J.J.",
"J.J.J.J.J.J.J.J.F.P.J.J.J.J.J.J.J.J.P.H.F.J.F.~.V : x.sX.Xy.].>XeXtXtX].c.}..X;XN.x >.9.@ ~ /.n.J.J.J.J.J.J.J.J.J.J.J.J.J.J.J.J.",
"J.J.J.J.J.J.F.J.J.J.J.J.J.J.J.J.J.J.J.J.P.F.F.~.H h dXsX'.M y.sX>XeX=X`.).G. X|.N.I 9.Q @ F.J.J.J.J.J.J.J.J.J.J.H.J.J.J.J.J.J.J.",
"J.J.J.J.J.J.J.J.J.J.J.J.J.J.J.J.J.J.J.J.J.J.J.J.J.# D.sXsX:X:X>X>X>XwXtX-XN.|.-XD.@ S q ~ T.J.J.J.J.J.J.J.J.J.J.J.J.J.J.J.H.F.J.",
"J.J.J.J.J.J.J.J.J.J.J.J.J.J.J.J.J.J.J.J.J.J.J.F.Q.K i hX,X>X>X>X>X>XeXyX{.[.|.! k . F } T.J.J.J.J.J.J.J.J.J.J.J.J.J.J.J.H.P.J.J.",
"J.J.J.J.J.J.J.J.H.H.J.J.J.J.J.J.J.J.J.J.J.J.J.J.K.M.q <XhX>X,XsXwXwX,X$Xb.: % #   F /.T.J.J.J.J.J.J.J.J.J.J.J.J.J.J.J.J.J.J.J.J.",
"J.J.J.J.J.J.J.J.P.H.J.J.J.J.J.J.J.J.J.J.J.J.J.P.Z.W.` 7 R.sXdX-XqXyX;X#X7 J s.] j (.n.m.J.A.K.J.J.J.J.J.J.J.J.J.J.J.J.J.J.J.J.J.",
"J.J.J.J.J.J.J.J.J.J.J.J.J.J.J.J.J.J.J.J.H.H.J.H.J.H.^.o.H x.v . s.uXuXs.t -XH.J.J.J.J.J.J.J.J.J.J.J.J.J.J.J.J.J.J.J.J.J.J.J.J.J.",
"J.J.J.J.J.J.J.J.J.J.J.J.J.J.J.J.J.J.J.J.K.J.J.K.H.K.J.T.-XX v 8 e n e.' * A.W.Z.J.J.J.J.J.J.J.J.J.J.J.H.J.J.J.J.J.J.J.J.J.J.J.J.",
"J.J.J.J.J.J.J.J.J.J.J.J.J.J.J.J.J.J.A.J.J.J.J.J.J.J.Z.T.H o Q.; 8 6XD.' d < w.Z.Z.Z.J.J.J.J.J.J.J.J.J.P.J.J.J.J.J.J.J.J.H.P.J.J.",
"J.J.J.J.J.J.J.J.J.J.J.J.J.J.J.J.J.J.J.A.J.J.J.Z.J.Z.W.H * 4 9.. # D.N %.5.n . T.W.K.A.J.J.J.J.J.J.J.F.H.P.H.J.J.J.J.J.J.H.H.J.J.",
"J.J.J.F.J.J.J.J.J.J.J.J.J.J.J.J.J.J.J.J.Z.J.J.K.J.J.Q.6 q D Y.T . Y *.=.m i # D  .Y.A.J.J.H.J.J.J.J.J.J.J.J.J.J.J.J.J.J.J.J.J.J.",
"J.J.J.J.J.J.J.J.J.J.J.J.J.J.J.J.J.J.J.J.J.J.J.J.J.m.T.J . ! R.Q = *.*.u < D i i o 9.Y.Z.J.J.J.J.J.H.J.J.J.J.J.J.J.J.J.J.J.J.J.J.",
"J.J.J.J.J.J.J.J.J.J.J.J.H.H.P.J.J.J.J.J.J.J.J.J.J.J.K.A.> z Y ( R x x O x.*.m 5.a R P.J.J.J.J.H.J.J.J.J.J.J.H.J.J.J.J.J.J.H.P.H.",
"J.J.J.J.J.J.J.J.J.J.J.J.P.H.H.F.J.J.J.J.J.K.J.J.J.J.J.n.8 X.I ' R s p +.cXx.M &.=.I F.J.J.H.J.J.J.J.J.J.J.J.J.J.J.J.J.J.J.P.F.H.",
"J.J.J.J.J.J.J.J.J.J.J.J.J.J.J.J.J.J.J.J.J.J.J.J.H.H.P.p.y 2X( I Y k.lX8XvX0Xi #.&.&.t.D.A.Z.Z.K.Z.J.J.J.J.J.J.J.J.J.J.J.J.J.J.J.",
"J.J.J.J.J.J.J.J.J.J.J.J.H.J.J.J.J.J.J.J.J.J.J.J.P.P.~.y @.2X6.6...B /.jXlXxX*.c &.#.r.D.A.J.K.Z.J.J.J.J.J.J.J.J.J.J.J.J.J.J.J.J.",
"H.J.J.J.J.J.J.J.J.J.J.J.J.J.J.J.J.J.J.J.J.J.H.J.H.H.~.5 @.v.g ( u.7.P.lXlXcX/ d =.%.e.S.A.J.J.J.J.J.J.J.K.J.J.J.J.J.J.J.J.H.J.J.",
"J.J.J.J.J.J.H.J.J.J.J.J.J.J.J.J.H.J.J.J.J.J.J.J.H.P.u.B 8X..G ( 9.p.jXvXlXcXM.i N 5.S.m.J.J.J.J.J.J.J.J.J.J.J.J.J.J.J.J.J.J.J.J.",
"J.J.J.J.J.J.J.J.J.J.J.J.J.J.J.J.J.J.J.J.H.H.H.J.H.P.i.& u. .7.0.W V cXjXlXvXcXh u E S.U.F.P.F.F.J.J.J.J.J.J.J.J.J.J.J.J.J.J.K.H.",
"J.J.J.J.J.J.J.J.J.J.J.H.J.J.J.J.J.J.J.J.K.J.K.H.J.H.(.B * Q ( ( 6 ] cXcXxXjX+Xh d E 5.k.F.F.G.F.J.J.J.J.J.J.J.J.J.J.J.J.J.J.J.H.",
"J.J.J.J.J.J.J.J.J.J.J.J.J.J.J.J.J.J.H.H.J.K.J.P.J.P.i.@.Y.i x g @ 8.jX` kXpX6 = &.&.R N.{.G.).G.Z.J.J.J.J.H.J.J.J.J.J.J.J.J.J.J.",
"J.J.J.J.J.J.J.J.J.J.J.J.J.J.J.J.J.J.J.^.K.g.g.n.n.~. .{ ! g _ | o . + . s.kX0XO d $.c ).pXu.q._.D.K.K.J.J.J.J.J.J.J.J.J.J.J.J.P.",
"J.J.J.J.J.J.J.J.J.J.J.J.J.J.J.J.Z.E.h.+.v C ` Z v e $ w.# w | <.( } w . h fXfX' o R d 2.].2.$.q._.l.v.I.H.H.J.H.J.J.J.J.J.J.J.J.",
"J.J.J.J.J.J.J.J.J.J.J.J.J.J.J.J.J.J.8 > w 6X^.j.K.K w.A.. 2 :.1.7.6.7.p o e.gXt.O s *.'.V.q.2.-.2.0.b.I.J.H.P.H.J.H.J.J.J.J.J.J.",
"J.J.J.J.J.J.J.J.J.J.J.J.J.J.J.J.J.Z.$ e w.6X{ { j.h.[ v . q 7.>.>.:.,.7.O b dX<XhX4.' B.G.I.`.l.u.{.P.J.J.J.P.H.J.J.J.J.J.J.J.J.",
"J.J.J.J.J.J.J.J.J.J.J.J.J.J.J.J.A.K.9.2 a.3X3X7X7X/.H . . 6 7.<.>.6.:.7.z > yXhXsXr.Y M.I.m.U.b.6.G.J.J.H.J.H.H.J.J.J.J.H.J.J.J.",
"J.J.J.J.J.J.J.J.J.J.J.J.J.J.J.J.J.Z.(.[ { 3X3X4X3X(.@.  . T 3.;.:.>.>.6.D . l 9.> b x.K.A.J.A.D.s.F.J.J.H.P.H.H.J.J.J.J.J.J.J.J.",
"J.J.J.J.J.J.J.J.J.J.J.J.J.J.J.J.J.J.Z.5 g.6X3X3X4Xg.y   0 9.,._ ( ;.>.,...f   . . + Z.J.A.J.A.J.G.J.J.J.P.J.H.P.J.J.J.J.J.J.J.J.",
"J.J.J.J.J.J.J.J.J.J.J.J.J.J.J.J.J.J.Z.` cXzXzXzXjX(.;   ; ..4.9.6.W B } G ;       v K.Z.J.A.A.K.J.J.J.J.J.J.J.J.J.J.J.J.J.J.J.J.",
"J.J.J.H.J.J.J.J.J.J.J.J.J.J.J.J.J.W.{ & W.H.J.J.K.T.Z & 9 : T n 1 o o + .   ; e C L.K.H.J.J.J.J.J.J.J.J.J.J.J.J.J.J.J.J.J.J.J.J.",
"J.J.J.J.J.J.J.J.J.J.J.J.J.J.J.J.F.P.d. .[ [ ] ] ] [  .n.W.e.e * > x.b o ,.+.f./.L.J.J.J.J.J.J.J.J.J.J.J.J.J.J.J.J.J.J.J.J.J.J.J.",
"J.J.J.J.J.J.J.J.J.J.J.J.J.J.J.J.J.J.J.W.W.W.W.W.W.W.T.A.W. .$ gXpXkXX.S [ oXJ.J.J.H.J.J.J.H.J.J.J.J.J.J.J.J.J.J.J.J.J.J.J.J.J.J.",
"J.J.J.J.J.J.J.J.J.J.J.J.J.J.J.J.J.J.J.J.Z.J.Z.J.Z.Z.J.Z.W.` n sXdXD.s S.2 h.J.J.J.J.J.J.J.J.J.J.J.J.J.J.J.J.J.J.J.J.J.J.J.J.J.J.",
"J.H.J.J.J.J.J.J.J.J.J.J.J.J.J.J.J.J.J.H.J.J.J.J.J.J.J.Z./.` D.hXdX5.' 0XT O.T.J.J.J.K.J.J.J.J.J.J.J.J.J.J.J.J.J.J.J.J.J.J.J.J.J.",
"J.J.J.J.J.J.J.J.J.J.J.J.J.J.J.J.J.J.J.P.J.J.H.P.J.J.J.J.L.f S.hX<Xs x.-X[ ] ^.J.J.J.J.J.J.J.J.J.J.J.J.J.J.J.J.F.J.J.J.J.J.J.J.J.",
"J.J.J.J.J.J.J.J.J.J.J.J.J.J.J.J.J.J.J.H.J.J.H.H.J.H.J.J.n.q -XhX3.< -X-XK.e J.J.J.J.J.J.H.J.J.J.J.J.J.J.J.J.J.J.J.J.J.J.J.J.J.J.",
"J.J.J.J.J.J.H.J.J.J.J.J.J.J.J.J.J.J.H.P.J.J.P.H.J.F.F.J.J.8 W.xXa.. ` -X^.{  .W.H.J.J.J.J.J.J.H.J.J.J.J.J.J.J.J.J.J.J.F.J.J.J.J.",
"J.J.J.J.J.J.J.J.J.J.J.J.J.J.J.J.J.J.J.J.J.J.H.P.^.^.~.^.[ V 8./.j [   o.j.@.; P.J.J.J.J.H.P.J.J.J.J.J.J.J.J.J.J.J.J.J.J.J.J.J.J.",
"J.J.J.J.J.J.J.J.J.J.J.J.J.J.J.J.J.J.J.J.H.J.J.f.Z Z A a.A t /.[ t oX[ { (.g.  g.P.H.H.H.H.J.J.J.J.J.J.J.J.J.J.J.J.J.J.J.J.J.J.J.",
"J.J.J.J.J.J.H.J.J.J.J.J.J.J.J.J.J.J.J.J.H.F.P.p.  4 & & & 5 cXK K T.T.+.& &   K (.L.P.H.J.J.J.J.J.J.J.J.J.J.J.J.J.J.J.J.J.J.J.J.",
"J.J.J.J.J.J.J.J.J.J.J.J.J.J.J.J.J.J.H.H.L.T.J.T.K X t e y X Z { j././.K   X   5 i.o.a.L.J.J.J.J.J.J.J.J.J.J.J.J.J.J.J.J.J.J.J.J.",
"J.J.J.J.J.J.J.J.J.J.J.J.J.J.J.J.J.H.P.~. .A a.g.P.t X 5 5 t   t L.Z 5       ; { A A u.f.H.J.J.J.J.J.J.J.J.J.J.J.J.J.J.J.J.J.J.J.",
"J.J.J.J.J.J.J.J.J.J.J.J.J.J.J.J.J.J.g.g.d.a.X             X   [ oX2 . + X   5 K F  .K   i.~.F.J.J.J.J.J.J.J.J.J.J.J.J.J.J.J.J.J.",
"J.H.J.J.J.J.J.J.J.J.J.J.J.J.J.J.J.H.F V Z Z y y y y t t y t X   y ` F o.g.Z 4 t K Z  .g.g.J.J.J.J.J.J.J.J.J.J.J.J.F.J.J.J.J.J.J.",
"J.J.J.J.J.J.J.J.H.J.J.J.J.J.J.J.J.J.L.L.T.P.~.L.(.a.Z K K K @.8.@.@.o.p.W.L./.W.P.P.P.P.J.J.J.J.J.J.J.J.J.J.J.J.J.J.J.J.J.J.J.J.",
"J.J.J.J.J.J.J.J.J.J.J.J.J.J.J.J.J.J.H.J.J.H.H.H.n.F.F.g.H.g.K.~.W.W.W.K.Z.Z.H.H.H.H.J.H.J.J.J.J.J.F.J.J.J.J.J.J.J.J.J.J.J.J.J.J."
};
