/* XPM */
static char *profil1662375315[] = {
/* columns rows colors chars-per-pixel */
"64 64 236 2 ",
"   c #040100",
".  c #0B0101",
"X  c #0D0905",
"o  c #0D0B0B",
"O  c #140301",
"+  c #1A0100",
"@  c #130905",
"#  c #1C0904",
"$  c #150B0A",
"%  c #1C110A",
"&  c #1B1513",
"*  c #141212",
"=  c #230906",
"-  c #22140C",
";  c #2B150C",
":  c #2B1414",
">  c #251814",
",  c #231C1B",
"<  c #2B1E1C",
"1  c #231314",
"2  c #331A17",
"3  c #2D1009",
"4  c #27211E",
"5  c #36251B",
"6  c #2C2624",
"7  c #342323",
"8  c #352924",
"9  c #332C2B",
"0  c #3B2C2B",
"q  c #3C2A24",
"w  c #3B312D",
"e  c #32312E",
"r  c #363333",
"t  c #3C3736",
"y  c #442D29",
"u  c #43342D",
"i  c #4A3229",
"p  c #56392E",
"a  c #443434",
"s  c #4C3633",
"d  c #443C3B",
"f  c #493C3B",
"g  c #483A35",
"h  c #533C35",
"j  c #523C3B",
"k  c #593937",
"l  c #522C29",
"z  c #623724",
"x  c #4C413F",
"c  c #53423C",
"v  c #59443B",
"b  c #68442D",
"n  c #654238",
"m  c #784F3B",
"M  c #78533C",
"N  c #4F3F40",
"B  c #4C4543",
"V  c #4B4746",
"C  c #544542",
"Z  c #5B4645",
"A  c #534946",
"S  c #5C4A45",
"D  c #524D4C",
"F  c #5A4C4B",
"G  c #5B4748",
"H  c #55514D",
"J  c #5C514D",
"K  c #585147",
"L  c #5A5553",
"P  c #5C5957",
"I  c #5A5757",
"U  c #514F50",
"Y  c #6B4D4C",
"T  c #654A46",
"R  c #734D4C",
"E  c #655146",
"W  c #64514D",
"Q  c #6B524F",
"!  c #775449",
"~  c #645352",
"^  c #6C5555",
"/  c #625957",
"(  c #645D5A",
")  c #6B5A59",
"_  c #745D5C",
"`  c #765955",
"'  c #634F50",
"]  c #69615C",
"[  c #7A625B",
"{  c #7A695E",
"}  c #7C614C",
"|  c #765D61",
" . c #6C6562",
".. c #6A6665",
"X. c #746362",
"o. c #7B6262",
"O. c #7B6962",
"+. c #746D6B",
"@. c #7C6C6B",
"#. c #776A62",
"$. c #77716E",
"%. c #7B7572",
"&. c #787674",
"*. c #815C4C",
"=. c #845A45",
"-. c #815F53",
";. c #89624C",
":. c #866457",
">. c #836463",
",. c #896564",
"<. c #846A66",
"1. c #8A6A67",
"2. c #846B6A",
"3. c #8B6C6B",
"4. c #816768",
"5. c #916D6C",
"6. c #8A746B",
"7. c #967669",
"8. c #876F72",
"9. c #827574",
"0. c #8C7273",
"q. c #8B7976",
"w. c #8A7B7B",
"e. c #877A7A",
"r. c #947D7D",
"t. c #987875",
"y. c #A27D79",
"u. c #87807E",
"i. c #97867D",
"p. c #9B826E",
"a. c #AA8579",
"s. c #8C8585",
"d. c #8A8585",
"f. c #948583",
"g. c #948C8B",
"h. c #998D8B",
"j. c #9A8785",
"k. c #9C928E",
"l. c #97908B",
"z. c #9B9494",
"x. c #9D9996",
"c. c #9E9A9A",
"v. c #9A9595",
"b. c #AB8D8C",
"n. c #A2898B",
"m. c #A4958E",
"M. c #AB948C",
"N. c #B3938A",
"B. c #A29392",
"V. c #A49B96",
"C. c #A39D9C",
"Z. c #AA9D9D",
"A. c #A99694",
"S. c #B39B94",
"D. c #B59D9B",
"F. c #B89B98",
"G. c #9CA09F",
"H. c #A5A19E",
"J. c #AAA19E",
"K. c #B2A29D",
"L. c #BCA399",
"P. c #A59EA1",
"I. c #AA9FA2",
"U. c #B59EA2",
"Y. c #9FA1A1",
"T. c #A6A2A2",
"R. c #A9A3A3",
"E. c #ACA9A6",
"W. c #ACA6A9",
"Q. c #ADAAAA",
"!. c #A6A6A7",
"~. c #B3A5A4",
"^. c #B2A9A6",
"/. c #B3ACAB",
"(. c #BBACAA",
"). c #B8A6A6",
"_. c #B6B2AE",
"`. c #BAB2AF",
"'. c #B4ADB0",
"]. c #B5B1B1",
"[. c #BBB4B3",
"{. c #BCB8B7",
"}. c #AFB1AE",
"|. c #C19C91",
" X c #C3A39A",
".X c #C4A4A2",
"XX c #C3ACAC",
"oX c #CCACAB",
"OX c #C7A8A7",
"+X c #D2ACAD",
"@X c #D0AFA6",
"#X c #C9B2A7",
"$X c #D3B5AC",
"%X c #CBAFB0",
"&X c #D4AEB1",
"*X c #C3BEBC",
"=X c #C6B7B5",
"-X c #D4B4B3",
";X c #DCBCB4",
":X c #DDB8B8",
">X c #E1BDBB",
",X c #D8C3B9",
"<X c #C1C0BE",
"1X c #E6CBB9",
"2X c #EED4BE",
"3X c #F4D2BD",
"4X c #CBC7C7",
"5X c #D3C5C0",
"6X c #D9C9C7",
"7X c #DAD0CD",
"8X c #D6D3D2",
"9X c #DAD6D7",
"0X c #E3C5C3",
"qX c #E5CDC6",
"wX c #ECCCC6",
"eX c #F2CDCC",
"rX c #E6D4CB",
"tX c #FBDDCC",
"yX c #F8D8C5",
"uX c #E6D7D8",
"iX c #FADDD8",
"pX c #FAE1CD",
"aX c #FBE6D5",
"sX c #FBE4DE",
"dX c #F8E6D9",
"fX c #EAE0DE",
"gX c #E1DFE2",
"hX c #EAE7E8",
"jX c #FFECE9",
"kX c #F8EAE5",
"lX c #FFF3EC",
"zX c #FDF5EA",
"xX c #F5F3F4",
"cX c #FEFBFD",
"vX c #FDF6F6",
"bX c #EFEDF2",
/* pixels */
"R.R.R.R.R.R.R.R.R.R.R.R.R.R.R.T.E.T.T.E.H.R.Z.!.R.C.H.J.Z.R.R.~.J.Z.H.E.J.H.Q.H.!.T.H.R.R.R.P.E.R.R.R.R.R.R.R.R.R.R.R.R.T.R.R.R.",
"R.R.R.R.R.R.T.R.R.R.R.R.R.I.R.R.T.E.T.T.W.H.E.R.R._.^.E.~.'.Z./.^././.J.H.T.x.E.E.H.E.T.T.Q.Q.R.R.R.R.R.T.R.R.R.I.R.R.R.R.R.R.R.",
"R.R.R.R.R.R.R.T.R.R.R.R.R.R.R.R.H.Q.T.T.!.Z.H.R.z.l.g.J.z.h.B.h.k.f.l.H.`.E.J.H.x./.T.R.R.R.T.T.I.R.R.R.R.R.R.R.T.R.R.R.R.R.R.R.",
"R.R.T.R.R.R.R.R.R.R.R.T.R.R.R.R.H.R.T.E.R.E./.g., 8 < f a 7 y f 7 x d a %.^.J.H.E.C.R.T.R.T.R.T.R.R.R.R.R.R.R.R.R.R.R.R.R.T.R.R.",
"R.R.R.R.R.R.R.R.R.R.R.R.R.R.R.R.E.H.T.R.R.P.I.a a G G ' 2.2.4.G j X.@.x > f R.(.R./.V.T.!.!.W.Q.R.R.R.T.R.R.R.R.R.R.R.T.R.R.R.R.",
"R.R.R.R.R.R.R.R.R.R.R.R.T.R.R.R.R.!.T.C.R.[.) : Z G 8.4.o.o.8.8.) X.2.r.] C ~ 9.g.C.Q.T.R.R.T.V.T.R.R.R.R.R.R.T.R.R.R.R.R.R.R.R.",
"R.R.T.R.T.R.R.R.T.R.R.R.R.R.R.T.H.!.T.Z.^.Z.f ' ' | _ k T >.,.3.>.T r.).= 0 0 @.< t `.T.H.H.R.Q.R.R.R.R.R.R.R.R.R.R.R.R.R.R.R.T.",
"R.R.R.R.R.R.R.R.R.R.R.R.T.R.R.R.R.T.T.E.I.c C r.4.T l Q 3.0.3.` Y OXXX%X_ # . a ] #.. e e._.T.P.R.R.R.R.R.R.R.R.W.I.R.R.R.R.R.R.",
"R.R.R.W.R.T.R.R.R.R.R.R.R.R.R.T.T.!.R.^.V.8 s Q 8.,.,.,.,.,.y.b.oX-X&XXX0XD.U.| w.h.O 7 ).W.W.R.R.R.R.R.R.R.T.R.T.R.R.R.R.R.R.R.",
"R.T.R.T.R.R.R.R.R.R.R.R.R.R.W.T.T.H.R.E.L y y ; >.5.,.,.5.y.&X-X:XqX0XF.U.-X.X6Xr.(.e.7 (.R.I.Z.R.R.R.R.R.R.R.R.R.R.R.R.T.R.R.R.",
"R.R.R.R.R.R.R.R.R.R.T.R.R.R.R.T.T.E.Q.f.1 j T h T 5.,.*.R +X&X+X0XeXjX-Xb.0XeX~.XXuX7XO s./.I.W.R.R.T.R.R.R.R.R.T.R.R.R.R.P.R.R.",
"R.R.R.I.R.R.R.R.R.R.R.R.R.R.R.R.R.C.`.w.j q.0.Y k ,.,.k R OX&XoXoX+XqX.XXXsXiX%XXX5X=X$ 9.^.R.R.T.I.R.R.R.R.T.W.R.R.R.R.R.R.R.R.",
"R.R.T.R.R.R.T.R.R.R.R.R.R.R.R.R.W.!.E.B J 0.2.t.,.5.n l a.:X:X.X-X(.S.M.v h (.D.f.N %.$ f f.R.R.R.R.R.R.R.R.R.I.T.R.R.R.R.R.R.R.",
"R.R.R.R.R.R.R.R.R.R.R.R.R.R.T.R.P.R.^.w ~ 2.[ ,.5.,.R y.>X&XN.oX,XA.rXM.q # A.,Xw.$ f f /.x./.C.R.R.R.R.R.R.R.R.R.R.R.R.R.R.R.R.",
"R.R.R.R.R.R.R.R.R.R.R.T.R.R.R.R./.V./.0 # s ,.,.,..XeX>XwX&X X0XsXrXA.v . q qXf.. w .  ._.E.T.E.R.R.R.R.R.T.R.R.R.R.R.R.T.R.R.R.",
"I.R.R.R.R.R.R.T.R.R.R.R.R.R.R.R.P.E./.8 < c ` 5.&XeXOX>X:XoXN.S.1X2.E j.; m.S . ' C 9 Z.E.T.H.R.R.R.R.T.R.R.R.R.R.R.R.R.R.R.R.R.",
"T.R.R.R.R.R.R.R.R.R.R.R.R.R.R.W.W.I.W.@.O v #.<.&X:XOXeX&X X>X1X,XyXzX1Xp.zXS.X c `.^.R.J.E.T.R.R.R.R.R.R.T.R.R.R.R.R.I.R.W.R.R.",
"R.R.R.T.R.R.R.R.T.R.R.R.R.R.R.R.W.W.E.[.t 8 6.{ k &X:X+X XN.$XyXpX3X2Xa.p.1XpXi.- X.(.R.R.R.J.R.R.R.W.T.R.R.R.R.R.R.R.R.R.T.R.T.",
"R.R.R.R.R.R.T.R.R.R.R.R.R.R.R.R.P.I.R.E.h.  u.{ | &XoX:X.X+X X1X3X3XpXp.} ,XaX,X- f.^.I.J.R.Z.R.R.R.R.R.R.R.R.R.R.T.R.R.R.R.R.R.",
"R.R.R.R.R.R.R.R.R.R.R.R.R.T.R.R.W.W.W.R.^.H w < : =X6XOX.X0XsXyXpX3XpX2XpX2XzXv u <XZ.E.R.E.P.T.R.R.R.T.R.R.R.R.R.R.R.R.R.R.R.R.",
"R.R.R.R.R.R.R.T.R.R.R.R.R.R.R.R.P.P./.V./.^.$.F   f F XXF.@XaXyX3XyX3X3X2XpX2X% i.E.J.E.R.R.W.W.R.R.R.R.R.R.T.R.T.R.R.R.R.T.R.R.",
"I.R.R.R.R.R.R.R.R.R.T.R.R.R.R.R.!./.P.R.C.R.[.Q.V   6 . y S.;XwXyXpXpX3XpXaXi.x =XV.R.R.T.P.Q.W.R.R.R.R.R.T.R.R.R.R.R.R.R.R.R.R.",
"!.R.R.R.R.R.R.R.R.R.R.R.R.R.R.R.R.C.R.W./.P.C.!.}.d l.H.E s wXyXpX#X|.aX1X{ 5 m.J.J.Z.E.R.W.R.Z.I.R.R.R.R.R.R.R.R.R.R.R.I.R.R.R.",
"R.R.T.R.R.R.R.R.R.R.R.T.R.R.R.T.T.W.R.W.P.W.Q.T.G.}.E.H.#X; @X@X2Xv X p i.] l.^.J.I.^.P.R.R.R.~.T.R.R.R.R.R.R.R.R.R.R.R.T.R.R.R.",
"R.R.R.R.R.R.R.R.R.R.R.R.R.R.R.R.R.H.R.E.W.I.W.T.Y.Y.H.{.#.; p.t.v % #.u 4 ,XE.J.R.R.R.W.R.I.R.J.I.R.R.R.R.R.T.R.R.R.R.R.R.T.R.R.",
"I.R.R.R.R.T.T.R.R.R.R.R.R.R.R.T.R.T.R.T.W.W.W.P.W.T.V.K % } ` $X<XX B g.   ._.C.R.W.R.I.R.R.R.D.R.R.R.R.R.R.R.R.R.R.R.R.R.R.R.R.",
"R.R.T.R.I.W.R.R.R.R.R.T.T.R.R.R.R.H.E.T.W.W.Z.E.J.`.u.X :.6.[ <.6.. t #.w o .._.!.I.W.I.I.R.K.R.R.R.R.T.R.R.T.W.R.R.R.R.R.R.R.R.",
"R.R.R.R.R.R.R.R.R.R.R.R.R.R.R.R.R.H.E.H.R.R.Z.^.m.c 5 @ 5 E [ <.x   z.V.H & L [.P.W.R.W.~.I.R.J.R.R.R.R.R.R.R.R.R.T.R.R.T.R.R.R.",
"R.R.R.R.R.T.T.R.R.R.R.R.R.T.R.R.E.H.R.R.R.H.Z.(.c - v p ` 2 q <._ 1 9.k.g   h.E.W.R.I.P.I.~.J.J.R.R.R.R.R.R.R.I.R.R.R.R.W.R.R.R.",
"R.R.R.R.R.R.R.R.R.R.R.R.R.R.T.R.J.H.H.E.R.J.K.K.c M 7.p N.6.- y a _ ` W u C `.I.I.W.W.W.R.R.R.R.R.R.R.R.R.R.R.R.T.R.R.R.I.T.R.R.",
"R.R.R.R.R.R.R.R.R.R.R.R.R.R.R.R.R.J.H.E.J.J.K.j.M 6.! p 2XzXO.T v _ Q Q <.5 (.K.R.I.W.I.R.R.R.R.R.R.R.R.R.T.R.R.R.R.R.R.T.R.R.R.",
"T.R.R.R.R.R.R.R.I.T.R.R.R.R.R.R.H.E.H.E.T.E.L.7.} } k ! zXdXuXkX:.` Y t.=Xu D.R.I.W.I.W.W.R.I.R.R.R.R.R.R.R.R.R.R.R.R.R.R.R.R.R.",
"R.R.R.R.R.R.R.R.R.R.R.R.R.R.R.R.J.H.!.!.T.J.|.7.*.;.s I.vXbXfXe.G 0.0.8.uXr / '.T.T.W.I.!.P.E.R.J.J.R.J.H.J.E.T.R.R.R.R.R.R.T.R.",
"R.R.R.R.R.R.R.R.R.R.R.R.R.R.R.J.J.E.H.Y.W.~.|.7.=.5.7 v.cXbXvXc.j.w.N y ).' / =XP.T.!.W.R.W.J.J.R.R.R.R.E.H.T.E.R.R.R.R.R.R.R.R.",
"P.R.R.R.R.R.R.T.R.R.R.R.R.R.R.J.K.J.C.T.'.I. X|.;.b a fXbXvXcXuX8.8.| ) h.4X, P.!.W.I.!.P.^.I.~.R.H.J.E.R.R.R.R.R.T.R.R.R.R.W.T.",
"R.R.R.T.R.R.R.R.T.R.R.R.R.R.R.R.J.K.E.P.P.~. Xa.b 3 q.cXcXxXcXfX: 4.8.4.@.G 0 W.P.!.I.R.W.R.Z.J.J.E.J.H.J.R.R.R.R.R.R.R.R.T.W.R.",
"R.R.R.R.R.R.R.R.R.R.R.R.R.R.T.W.J.J.K.E.I.U.y.;.M b ; @.Z.xXvXcX^ s ' ^ G : @.].I.I.!.W.E.Z.Z.E.E.J.H.J.E.H.R.R.R.T.R.R.R.R.R.W.",
"R.R.R.R.R.R.R.R.R.R.I.R.I.R.R.R.J.J.H.E.(.b.:.=.;.M ; X.J.`.g.w.: 2 k y v 6X~ g.P.C.I.P.R.Z.E.J.R.J.E.H.H.E.R.T.R.R.R.R.R.R.W.T.",
"R.T.R.R.T.R.R.R.R.R.R.R.R.R.R.R.C.Q.E.V.U.M.=.m =.m = q.vXz.. O 2 ` o.T s m.( H.{.[.{.[.^././.C.R.J.H.R.J.J.E.R.R.R.R.R.R.R.P.W.",
"R.R.R.R.R.R.R.R.R.R.R.T.R.R.R.R.W.Z.Z.~.).F.*.z =.! + m.lXB.O 7 | ,.<.` 5 f K C ) I L I P f.^./.J.E.E.J.E.H.T.R.R.R.R.R.R.T.R.R.",
"R.R.R.R.R.R.R.R.R.R.I.R.R.T.R.!.T.T.E.J.~.F.:.! ;.! = n.jXf.O @.5.0.,.| # q ^.% J d.v./.e.& 9 %.Q.J.H.E.E.R.R.R.R.R.R.R.R.R.R.W.",
"R.R.R.R.R.R.R.T.R.R.T.W.R.R.R.T.Y.Q.x.Z.D.OXy.;.*.-.3 y.jXv k @.,.2.2.j @ . l.g.x.u.I g.6XF 9 9 ^.J.H.T.R.J.T.R.R.R.T.R.R.R.W.P.",
"R.R.R.R.I.R.R.R.R.R.T.R.R.R.R.W.!.!.Q.J..Xi.N.7.R T O n.jXT T y.2.0.Y O . % & P Q.4X<X].8X .@ ] /.E.H.J.J.E.R.R.R.R.R.R.R.T.R.!.",
"R.R.T.R.R.R.R.R.R.R.R.R.R.R.R.T.!.Y.c.R.(.m.S.l + + N U.jXA.T ,.| 0.Z O @   * v.4X9X4X4X<XH g.^.E.H.H.J.E.H.R.R.P.W.R.R.R.I.W.I.",
"T.R.R.R.R.R.R.R.R.R.R.R.R.T.R.T.Q.W.^.~.b.f.D.y O O =XvXdX,X0.2.0.o.' O O X o +.<X4X4X4X8XV ] _.H.J.J.E.R.H.R.R.R.R.T.R.R.R.R.W.",
"R.R.R.R.T.R.R.R.R.R.R.R.R.R.R.W.!.x.J.K.n.2.r.q . . N B.m.L.^ ` ^ ^ <   @ .   e Q.8XgX9XhX<XH [.H.H.H.J.R.J.T.R.R.R.R.R.R.R.W.P.",
"R.R.R.R.R.T.R.R.T.R.R.R.R.R.R.R.!.'.I.D.r.n.j.) . $ . . - 5 O ; 7 1 $ . .     &.bXgXbXhXxX8Xe V.E.J.J.R.R.R.R.R.R.R.R.R.R.R.T.W.",
"R.R.R.R.R.R.R.R.R.R.R.R.R.R.I.!.W.R.Z.U.U.U.I.U.z.g.v.0 > c h c . . . N d H.P H I I I U P I 4 z.E.E.H.H.R.E.R.T.R.R.I.R.R.R.!.I.",
"R.R.R.R.R.R.R.T.R.R.R.R.R.R.R.R.R.I.W.I.U.W.I.W.).R.=X8 { zXzXn.. w J.K w =XE.R.H.R.E.R.E./.).^.T.R.R.R.T.R.R.R.R.R.R.R.R.T.R.R.",
"R.R.R.T.R.R.R.R.R.R.R.R.R.R.R.R.I.W.I.W.W.R.W.I.I.Z.(.8 { dXdXE . V.uXS 4 `.J.J.H.R.R.J.Z.R.R.W.R.R.R.R.R.R.R.R.R.R.R.R.R.R.R.R.",
"R.R.R.R.R.R.T.R.R.R.R.T.R.R.T.R.R.W.R.R.I.W.P.R.^.Z.).v qXrXsX{ . V.<Xw K [.H.J.J.E.J.J.I.R.I.I.R.R.T.R.R.R.R.R.R.T.R.R.R.R.R.R.",
"R.R.R.R.R.R.R.R.R.R.R.R.R.R.R.R.R.R.R.R.W.T.W.T.Z.E.K.J 7XdX,X= . m.^.. J.J.J.E.E.H.R.R.R.R.I.W.R.R.R.R.R.R.R.R.R.R.R.R.R.R.R.R.",
"R.R.R.R.R.R.R.I.R.T.R.R.R.R.P.W.H.J.E.T.E.R.R.R.E.C.(.C rXkX`.O w =XJ.$ z.^.R.J.H.R.T.R.I.I.W.I.R.R.R.R.R.T.T.R.R.T.R.R.T.R.R.R.",
"P.R.R.R.R.R.R.R.R.R.R.R.R.R.R.R.E.H.T.E.T.T.R.T.E.Z./.F 5XhX,X. J 7XJ.. V.E.Z.R.R.R.R.R.W.R.I.W.R.R.R.R.R.R.R.R.R.R.R.R.R.R.R.R.",
"W.R.R.T.R.T.R.R.R.R.R.R.R.R.R.R.H.E.R.H.T.R.T.E.R.J.^.A uXkXV.# L 5XJ.$ s.Q.Q.T.R.R.R.R.W.P.W.I.R.R.R.R.R.R.R.R.R.R.R.R.R.R.R.R.",
"R.R.R.R.R.R.R.R.R.R.R.R.R.T.R.R.H.E.H.R.R.R.R.R.R.C./.A g.5X& B P E.d.  z.E.R.!.R.T.T.R.R.I.I.I.T.R.R.R.R.R.R.R.R.R.R.R.R.T.R.R.",
"R.R.R.T.R.T.R.R.R.I.R.R.R.R.R.T.R.H.H.H.H.E.Q.!.!.x.].B  ._.B ..) 9XR.9 [./.!.R.!.T.!.W.T.W.W.I.I.E.R.P.R.R.R.R.R.R.R.R.R.R.R.R.",
"R.R.R.R.R.R.R.R.R.R.R.R.R.R.R.R.R._._._.E.z.R.T.Q.{.c.B xXxXV   t V.&.* I &.].R.x.!.c.T.W.P.C.W.T.R.R.R.R.R.R.R.R.R.R.R.R.T.R.R.",
"R.R.R.R.R.R.R.R.T.R.R.R.R.R.W.R.z.$...%./.d.r P v.&.U 6 {.D 4 , 4           6 & U B U V v.[./.W.R.R.P.R.E.R.P.R.R.R.R.R.R.R.R.R.",
"I.R.R.R.R.R.R.R.R.T.R.R.R.R.R.R.R.+.+.U /.I H.x.P V t o & 9 e r e & o   o     o e I P U D D V V.R.E.R.R.R.R.R.W.T.R.R.R.T.R.R.R.",
"T.R.R.R.R.R.T.R.P.R.T.R.R.R.W.R.C.P ( L U N $.+.I ..I N o o o * 4 * o o * o X     e d g.g.g.g.x.C.W.R.I.R.R.R.R.R.R.T.R.R.R.R.R.",
"R.R.R.R.R.R.R.R.R.R.R.R.R.R.R.R.c.d.d.s.d.d.g./._._.Y.V r r r r &.V I I I t t v.v.l.P t U V D d v.R.R.R.R.E.R.R.R.R.R.R.R.R.R.R.",
"R.W.R.R.R.R.R.R.R.R.R.R.R.R.R.R.).^.^.W.Q.].R.P.T.T.G.'.{.}.}.<Xl...u.+.&.&.&.!.E.E._./.Q./.E._.x.R.E.R.R.R.R.T.R.R.R.R.R.R.R.R.",
"R.T.R.R.R.R.R.R.R.R.R.R.R.R.R.R.R.I.C.W.!.P.T.W.Z./.!.P.G.!.Y.Y.!.{.}.}.{.Q.}.!.C.E.H.x./.P.T.Z.R.E.R.P.R.R.P.W.R.R.R.R.R.R.T.I."
};
