/* XPM */
static char *_03228861_763532024763500_8973438336392686926_n1662375315[] = {
/* columns rows colors chars-per-pixel */
"64 64 235 2 ",
"   c #040000",
".  c #0B0101",
"X  c #0E0B0A",
"o  c #0C0907",
"O  c #140201",
"+  c #140A07",
"@  c #120D0C",
"#  c #1C0D0C",
"$  c #1D0A04",
"%  c #16110F",
"&  c #151313",
"*  c #1B1615",
"=  c #26140D",
"-  c #231515",
";  c #2B1311",
":  c #241C1B",
">  c #2C1C1B",
",  c #291B15",
"<  c #351D1A",
"1  c #280F09",
"2  c #2D201E",
"3  c #25201E",
"4  c #38221B",
"5  c #3B200F",
"6  c #2D2823",
"7  c #292627",
"8  c #332523",
"9  c #332925",
"0  c #3C2923",
"q  c #352D2C",
"w  c #3C2D29",
"e  c #3A2323",
"r  c #3D312C",
"t  c #37322F",
"y  c #322F31",
"u  c #353132",
"i  c #3A3534",
"p  c #3B393A",
"a  c #452618",
"s  c #442B26",
"d  c #41312D",
"f  c #573729",
"g  c #492E31",
"h  c #443333",
"j  c #4A3533",
"k  c #443835",
"l  c #433D3B",
"z  c #4E3C3B",
"x  c #4B3738",
"c  c #553B3A",
"v  c #553934",
"b  c #502E22",
"n  c #46403E",
"m  c #5B453C",
"M  c #64422D",
"N  c #794F36",
"B  c #724F3A",
"V  c #543F41",
"C  c #4C4444",
"Z  c #4C4746",
"A  c #534342",
"S  c #5C4342",
"D  c #544C4B",
"F  c #5B4B4B",
"G  c #584946",
"H  c #5D504F",
"J  c #565252",
"K  c #5C5555",
"L  c #5F5959",
"P  c #644343",
"I  c #614C4A",
"U  c #674C47",
"Y  c #6B544C",
"T  c #65524B",
"R  c #795747",
"E  c #6A4E51",
"W  c #6E5553",
"Q  c #6E5A53",
"!  c #635D5C",
"~  c #6C5E5C",
"^  c #635754",
"/  c #715354",
"(  c #7B5D5B",
")  c #755A57",
"_  c #67625E",
"`  c #7C625B",
"'  c #7A6259",
"]  c #7D5E61",
"[  c #6C6463",
"{  c #6E6A69",
"}  c #666162",
"|  c #7C6362",
" . c #7C6962",
".. c #746D6C",
"X. c #7C6B6C",
"o. c #736563",
"O. c #7B716B",
"+. c #767272",
"@. c #7C7473",
"#. c #7D7A7A",
"$. c #84573E",
"%. c #835C49",
"&. c #845C59",
"*. c #935C5F",
"=. c #8D6449",
"-. c #84614E",
";. c #886757",
":. c #936C58",
">. c #985D61",
",. c #836364",
"<. c #896565",
"1. c #8A6A66",
"2. c #856B6C",
"3. c #8B6B6C",
"4. c #866767",
"5. c #976B6D",
"6. c #8B7368",
"7. c #8B6F71",
"8. c #8B7474",
"9. c #877A78",
"0. c #937575",
"q. c #937978",
"w. c #967768",
"e. c #A97C7C",
"r. c #92857D",
"t. c #A2897B",
"y. c #977D80",
"u. c #A37F83",
"i. c #8B8483",
"p. c #8A8686",
"a. c #958384",
"s. c #938884",
"d. c #938C8B",
"f. c #998E8C",
"g. c #998886",
"h. c #9C918E",
"j. c #95928D",
"k. c #969393",
"l. c #9A9594",
"z. c #9E9898",
"x. c #A58886",
"c. c #B58988",
"v. c #A4908C",
"b. c #AC9186",
"n. c #B4948C",
"m. c #A39494",
"M. c #AC9493",
"N. c #A59E9D",
"B. c #AC9D9C",
"V. c #AA9995",
"C. c #B49B92",
"Z. c #B19C9D",
"A. c #B99796",
"S. c #A6A19E",
"D. c #AAA19F",
"F. c #BEA99E",
"G. c #B8A29D",
"H. c #A99FA1",
"J. c #B79EA0",
"K. c #A6A1A1",
"L. c #A9A3A3",
"P. c #ADA9A5",
"I. c #AFA9A9",
"U. c #AAA6A8",
"Y. c #B2A3A3",
"T. c #BAA4A4",
"R. c #B1A9A7",
"E. c #B2A7A8",
"W. c #B3ACAB",
"Q. c #BAADAA",
"!. c #BCAAA4",
"~. c #B6B1AE",
"^. c #B9B0AE",
"/. c #B8AEB2",
"(. c #B6B1B1",
"). c #BAB4B2",
"_. c #BDBAB9",
"`. c #BCB7B8",
"'. c #C19D9B",
"]. c #C4A799",
"[. c #CBA893",
"{. c #C3A4A3",
"}. c #C9AAA5",
"|. c #CCABAB",
" X c #C5AAA6",
".X c #D1ADAC",
"XX c #D2AEA0",
"oX c #C4B2AE",
"OX c #CEB3AD",
"+X c #C9B3A6",
"@X c #D3B2AD",
"#X c #CDAEB2",
"$X c #D2AFB2",
"%X c #C6B8B7",
"&X c #D3B4B5",
"*X c #DABBB4",
"=X c #DBBCBB",
"-X c #D5BBB9",
";X c #E0BDA9",
":X c #C9C0BD",
">X c #D7C5BC",
",X c #DFC0AE",
"<X c #E4C4BA",
"1X c #E4C6B9",
"2X c #F9D6BC",
"3X c #F6D5BE",
"4X c #ECD0BA",
"5X c #D8BEC0",
"6X c #C9C7C5",
"7X c #D6C8C4",
"8X c #D8D6D6",
"9X c #D6CFCE",
"0X c #E4CBC3",
"qX c #E8C9C8",
"wX c #E9D3C6",
"eX c #F3D5C4",
"rX c #FCD9C3",
"tX c #FFDFCB",
"yX c #F7D6CA",
"uX c #F8DCD3",
"iX c #EFDED7",
"pX c #FEE1CD",
"aX c #F7E1D3",
"sX c #FDE2D3",
"dX c #FFEADC",
"fX c #F7E0D8",
"gX c #FFF0DF",
"hX c #DEDEE0",
"jX c #FEEBE1",
"kX c #F1EBED",
"lX c #F4EDF3",
"zX c #FDF7FA",
"xX c #FFFCFC",
"cX c #FAF5F4",
"vX c #F5ECE6",
/* pixels */
"L.L.L.L.L.L.L.L.L.L.L.L.L.L.L.L.L.L.L.L.L.L.L.U.L.L.L.L.K.K.U.H.K.K.L.L.H.P.L.L.D.L.L.L.Y.L.L.H.L.L.L.L.L.L.L.L.L.L.L.L.L.L.L.L.",
"L.L.L.L.L.L.L.L.L.L.L.L.K.K.L.L.L.L.L.L.L.L.L.L.L.L.L.L.U.H.U.E.E.E.R.P.E.L.L.Y.L.P.D.L.L.L.L.L.L.L.L.L.L.L.L.L.L.K.L.L.L.L.U.K.",
"L.L.L.L.L.L.L.L.L.L.L.L.L.L.L.L.L.L.L.L.L.H.E.H.H.U.H.L.U./.m.p.k.h.f.h.f.m.D.f.h.z.L.H.Y.L.L.L.L.L.L.L.L.L.L.L.L.L.L.L.L.L.L.L.",
"L.L.L.L.L.L.L.L.L.L.L.L.L.L.L.L.L.L.L.L.L.L.H.U.U.H.H.Y.H.] q V h 8 k e g j h 2 8 w R.P.L.L.L.L.L.L.L.L.L.L.L.L.L.L.L.L.L.L.L.L.",
"L.L.L.L.L.L.L.L.K.L.L.L.L.L.L.L.L.L.U.U.U.K.K.S.E.E./.m.8 2 G q.W c W ,.3.4.F V G 8 I E.P.K.L.U.L.L.L.L.L.L.L.L.L.L.K.L.L.L.L.L.",
"L.L.L.L.L.L.L.L.L.L.L.L.L.L.L.L.L.L.K.U.K.U.L.U.l.i...F A 2.y.,.) ( 7.3.] | 7.3.S A - s.P.K.L.L.L.L.L.L.L.L.L.L.L.L.L.L.K.L.L.L.",
"L.L.L.L.L.L.L.L.L.L.L.L.L.L.L.L.L.L.L.L.U.S.E.N.: A ! q > j #X7.E <.3.4.( P P / ( / G A (.S.L.L.L.L.L.L.L.L.L.L.L.L.L.L.L.L.L.L.",
"L.L.L.L.L.L.L.L.L.L.L.L.L.L.L.L.L.L.L.D.).! > # 9.F 2 . > 7.$X XA.P &.1.3.<.P c E 2.8.h ! P.K.K.L.L.L.L.L.L.L.L.L.L.L.L.L.L.L.L.",
"L.L.L.L.L.L.K.L.L.L.K.L.L.L.L.L.L.L.L.E.i.- I H.m.' 0.C.T.=X#X#X&XJ.x.0.4.3.<.,.3.4.I g h (.H.K.L.U.L.L.L.L.L.L.L.L.L.L.L.L.L.K.",
"L.L.L.L.L.L.U.L.L.L.L.L.L.L.L.L.L.U.H.(.- ~ 5X5XM.#X#X.X0Xn.{.qXqX5X&X|.5.3.5.3.3./ ; x q @.E.H.L.K.L.L.L.L.L.K.L.L.L.L.L.L.L.L.",
"L.L.L.L.L.L.L.L.L.L.L.L.L.L.L.L.K.K.W.@.F m.2.&X&X X}.yXeX1X>X=XqX=X|.5XA.P ,.3.,.P x E g 2 H.L.L.L.L.L.L.L.L.L.L.L.L.U.L.L.L.L.",
"L.L.K.L.L.L.L.L.L.L.L.L.L.L.L.L.K.L.W.#.8.m.-X&X-X{.*XuXsXtXeX X&X$X$X$XA.c P 5.( V ] 2.2.V B.P.L.L.L.L.L.L.L.L.L.L.L.K.L.L.L.L.",
"L.L.L.L.L.L.L.L.L.L.L.L.L.K.U.L.L.K.W.9.  ~ #Xm.g J.A.].a 6.sX,X.X$X$X$X=X3.g / 3.<.3.4.0.j [ Q.L.L.L.L.L.L.L.L.L.L.L.L.L.L.L.L.",
"L.L.L.K.L.L.L.L.L.L.L.L.L.L.L.L.K.L.P.S.Z H %Xx # Z.-X4.O T yXdX*X.X.X}.#X&X,.&.<.3.3.<.7.j F /.N.L.L.L.U.L.L.L.L.L.L.L.L.L.L.L.",
"L.L.L.L.L.L.K.L.L.L.L.L.K.L.L.L.L.L.L.P./.2 ..D - - Q.oXo + T F.uXuX.X'.=XyX&XqXn.&.3.&.8 + ! W.H.L.L.L.L.L.L.L.L.L.L.L.L.L.L.K.",
"L.L.L.L.L.L.L.L.L.L.L.L.L.L.L.L.L.L.S.H.L.N.V 3 A d O  .6.4 C.m x.*Xn.'.&X@X<X].uX'.<./ z # D /.H.L.L.L.L.K.L.L.U.K.L.L.L.L.L.L.",
"L.L.L.L.L.L.L.K.L.L.L.L.L.L.L.L.L.L.K.K.L.P.~.L.d.4 = 1XgX' sXgX3X*X4X@X{.*XyXA.0XA.,.( d % d.U.K.L.L.L.L.L.L.L.L.L.L.L.L.L.K.L.",
"L.L.L.L.L.L.L.L.L.L.L.L.L.L.L.L.L.L.L.K.L.L.N.).n 4 ].pX[.t.F.3XrXtXrX'.A..X.X<Xn.v 2.8.= [ ).S.L.L.L.L.L.L.L.L.L.L.L.L.L.L.L.L.",
"L.L.L.U.L.L.L.L.L.L.L.L.L.L.L.L.L.L.U.U.L.D.N.Q._ d aXpX[.N [.pX3X2X;XXX].{.@XOXG.U 8.^ # R.L.L.L.L.L.L.L.L.L.L.L.L.L.L.L.L.L.L.",
"L.L.L.K.L.L.L.L.L.L.L.L.L.L.L.L.K.L.L.K.L.L.L.L.W.$ t.pXpXrX3X2X2X2XrXtX=X'.&X<XV.O k 6 @.I.K.L.L.K.L.L.L.K.L.L.L.L.K.U.L.L.L.L.",
"L.L.L.L.L.L.L.L.L.K.U.L.L.L.L.L.U.K.U.L.L.L.L.B.W.[ 0 gX4X3X2X2X2X2XrXyX XT.B.n e   [ 9.~.K.L.K.L.L.L.L.K.L.L.L.L.L.L.L.L.L.L.L.",
"L.L.L.K.L.L.L.L.L.L.K.L.L.L.L.L.U.U.H.L.L.L.U.U.L.L.r +XgX3XrXpXtXeX1X>Xg.# # - . [ (.I.S.L.K.U.L.L.L.L.L.L.L.L.L.L.L.L.L.L.L.L.",
"L.L.L.L.L.L.L.K.L.L.L.L.L.L.L.L.H.L.L.K.L.K.K.U.L.P.9., t.aXaXC.>XsXwX&X2 X.L.@.D _.S.L.U.S.L.L.L.L.L.L.L.L.L.L.K.U.L.L.L.L.K.L.",
"L.L.L.L.L.L.L.U.L.L.L.L.L.L.L.L.L.K.L.L.L.U.K.U.U.D.~.i.` r., . q.>X0Xq.d :XS.I.I.K.L.K.L.L.K.L.L.L.L.L.L.L.L.L.L.L.L.L.L.L.L.L.",
"L.L.L.L.L.L.L.L.L.L.L.L.L.L.L.L.L.L.L.L.L.L.U.U.K.U.S.~.).  { k 4 G b.' # j.).D.S.L.L.L.L.L.L.L.L.L.L.L.K.L.L.L.L.L.L.L.L.L.L.L.",
"L.L.L.L.L.L.L.L.L.L.K.L.L.L.L.L.L.L.U.H.L.L.L.K.U.K.L.L.z @ R.% 9 iXb.' m =  .S.L.L.L.L.Y.L.U.K.L.L.L.L.U.L.L.L.L.L.L.L.L.L.L.L.",
"L.L.L.K.L.L.L.L.L.L.U.K.L.L.L.L.L.L.L.L.L.L.L.L.L.S.~.n > 8 9.+ . t.R -.w.m . W.Q.L.L.L.L.L.U.L.L.L.L.L.K.L.L.L.L.K.L.L.L.L.L.L.",
"L.L.L.U.L.L.K.L.L.L.L.L.L.L.L.L.L.H.Y.L.L.L.L.L.D.D.).9 8 T #X~ . Y :.;.M 4 $ r ^ L.D.L.H.L.L.K.L.L.L.L.L.L.L.L.L.L.L.L.L.K.L.L.",
"L.L.L.L.L.L.L.L.L.L.L.L.L.L.L.L.L.L.L.L.L.L.L.L.L.S.Q.[ O W M.U < ;.;.1 s Q f m O X.W.D.L.L.U.U.L.L.L.L.L.L.L.L.L.L.L.L.L.L.L.L.",
"L.L.L.L.L.L.L.L.L.L.L.L.L.L.L.K.L.L.L.L.L.L.L.L.U.K.L.P., j E ;.R j b = !. .B :.m Q oXS.L.H.L.K.L.L.L.L.L.L.L.L.K.L.L.L.L.L.L.L.",
"K.L.L.L.L.L.K.L.L.L.L.L.L.K.U.K.L.D.L.L.L.L.L.L.D.L.L.L.N.m.c ) Y S I g.xXR.M R :.5 I Q.H.L.E.L.L.L.L.L.K.L.L.L.U.L.L.L.L.L.L.L.",
"L.L.L.L.L.L.U.L.L.L.L.L.L.L.K.U.D.L.L.L.L.L.L.L.L.L.L.L.E.%X,./ W g.cX8XcXwXb B =.-.; h.E.H.K.L.L.K.U.K.L.L.L.L.L.L.U.K.L.L.L.L.",
"L.L.L.L.L.L.L.L.L.K.L.L.L.L.L.L.L.L.L.L.L.L.L.L.L.L.L.H.J.m.7.3.3.z J.kXlXxX1.M =.=.m d.P.S.L.L.L.P.L.L.L.L.L.L.L.L.L.L.L.L.L.L.",
"L.L.L.L.L.L.L.L.L.L.L.L.L.L.L.L.L.L.L.L.L.L.L.P.L.L.L.N.5X8.g / y.a./.zXlXxXT f :.:.5 d.P.L.D.L.L.D.L.L.L.L.L.L.L.L.L.L.L.L.L.L.",
"L.L.L.L.L.K.K.U.L.L.L.L.L.L.L.L.L.L.L.L.L.L.L.S.L.L.U.L.H.X./ ,.2.X.lXzXlXcXoXf N a j !.S.L.L.L.L.L.L.L.L.L.L.L.L.D.L.L.L.L.L.L.",
"L.L.L.L.L.L.L.L.L.L.L.L.U.K.L.L.L.L.L.L.U.L.L.L.L.L.K.U.y.o.0.3.a.E.zXlXxXxXgX;.M a Y {.S.D.L.L.L.K.L.L.L.L.L.L.D.L.L.L.L.L.L.L.",
"L.L.L.L.L.L.L.L.L.L.L.L.L.L.L.L.L.L.K.K.L.L.L.L.U.K.L.W.o.G / V X.xXcXzX9X!.jX;.N N b ; q./.H.J.P.L.L.L.L.L.L.L.L.L.L.L.L.L.L.L.",
"K.L.L.L.L.L.L.L.L.L.L.L.L.L.L.L.K.U.L.U.L.L.U.S.L.N.N.W.v.j v v $ o.oX-XL.I }.-.=.=.:.&.J.J.T.A.L.K.Y.L.L.D.L.L.L.L.L.K.L.L.L.L.",
"L.L.L.L.L.L.L.L.K.L.L.L.L.L.L.L.L.L.L.L.S.S.L.~.(.`.R.R.9.s W 3.s 8.fXwXc Y ;.f $.$.%.e.=Xc.u.'.G.{.J.H.D.D.L.L.L.L.L.L.L.L.L.K.",
"L.L.L.L.L.L.L.L.L.L.L.L.L.L.L.L.L.L.L.L.~.P.S.{ J D O.~ F 0 7.m ) dXdX3.< 0.( a $.$.b c.u.<.>.*.e.t.x.T.T.D.L.L.L.L.L.L.L.L.L.U.",
"L.L.L.L.L.L.L.L.L.L.L.L.L.L.L.L.L.K.D.S.9.Z n l.k.p.J #.m.9 9.O U gXC.j q.0.s a %.%.%.c.G.A.5.>.c.c.5.8.Z.Y.L.K.L.L.L.L.L.L.L.L.",
"L.L.L.L.K.L.L.L.L.L.L.L.L.L.L.L.L.S.R.n * 4 _.r.J p.j.Z n # $ 2 F.dXm U 3.0.e a %.&.;.C.D.J.'.e.*.c..Xu.v.R.S.P.L.L.L.L.L.L.L.L.",
"L.U.L.L.L.L.L.L.L.L.L.L.L.L.L.L.L.D.R.9 6 O.9X~._._._.u   2 t.aXdXA.<.5.,.q.e $ R U r.!.B.Y.Y.{.u.3.b.T.D.D.L.S.L.L.L.L.L.K.L.L.",
"L.K.L.L.L.L.L.L.L.L.L.L.L.L.L.L.L.L.L.S._ { :X:X9X8XK.X + >XcXaX6.R 6.1.3.5.V = + . ^ Q.L.H.L.Z.J.M.B.Y.D.D.L.L.L.L.L.L.L.L.L.L.",
"L.L.L.L.L.L.L.K.L.L.L.L.L.L.L.L.L.L.S.S._.n j.9X6X8Xk.  @ 9 h. X< 1.<.3.3.4.a.G     ^ ^.S.U.L.D.H.Y.Y.H.L.L.L.L.L.L.L.L.L.L.L.L.",
"L.K.L.L.L.L.K.P.L.L.L.L.L.L.L.L.L.L.S.~.r.t _.6X8XhXp.& o     8 c ( W ,.X.o.~ 8 *   J (.S.K.L.L.L.L.L.Y.L.L.L.L.L.L.L.L.L.L.L.L.",
"L.L.L.L.U.K.L.L.L.L.L.L.L.L.L.L.L.L.K.I.p.r.xXvXkXlXu 3 o o   . ; , 1 4 ) O . : S._ +.~.L.L.L.L.L.L.L.L.K.L.U.L.K.L.U.L.L.L.L.L.",
"L.L.L.L.L.L.L.L.L.L.L.L.L.L.L.L.L.L.S.~.u l _.z.J J l i t t D 2 k 0X@X0Xg.O i.s.S.~.P.D.L.L.L.L.L.L.L.L.L.L.K.U.L.L.K.L.L.L.L.L.",
"L.L.L.L.L.L.L.L.K.U.L.L.L.L.L.L.L.L.K.P.i...} ..I.L.E.(.(.. g.%XQ Q F.dXwX4 ~ ).K.K.L.L.K.U.L.L.L.L.L.L.L.L.L.L.L.L.L.L.L.L.L.L.",
"L.L.L.L.L.L.L.L.L.L.L.L.L.L.L.L.L.L.L.L.I.(.(.(.L.L.K.L.D.r V.,X .. V.gXfX].Q Q.K.K.K.L.U.L.U.U.L.L.L.L.L.L.L.L.L.L.L.L.L.L.L.L.",
"L.U.L.L.L.L.L.L.L.L.L.K.L.L.L.L.L.L.L.L.K.L.L.S.L.L.K.E.@.m >XF.= _ ` +XyXsXQ h.E.L.L.L.L.U.L.L.L.L.L.L.L.L.L.L.K.L.L.L.L.L.L.L.",
"L.K.L.L.L.L.L.L.L.L.L.L.K.L.L.L.L.L.L.L.L.K.L.L.L.L.H.%XD k 7Xv.w :Xt ' dXpX6.r.E.K.L.L.L.L.L.L.L.L.L.L.L.L.L.L.U.L.L.L.L.L.L.L.",
"L.L.L.L.L.L.L.L.L.L.L.L.P.L.L.L.L.L.L.L.L.L.L.L.L.K.L.N.: %X/.+ @.^.f.0 wXaX>XD ~.S.D.L.L.D.L.K.L.L.L.L.L.L.L.L.L.L.L.L.L.L.L.L.",
"L.L.L.L.L.L.L.K.L.L.L.L.K.L.L.L.L.L.L.L.L.L.L.L.K.K.U.k.* `.I.u ^.P.l.. >XjX>XK W.S.L.S.L.S.L.L.L.L.L.L.L.L.L.L.L.L.L.L.L.L.L.L.",
"L.K.L.L.L.L.L.L.L.L.L.K.L.L.K.U.L.L.L.L.L.S.U.W.W.I._...J `.+.} ).N.R._ + h.S.i d.~.S.P.L.L.K.H.L.L.L.L.L.L.L.L.L.L.L.L.L.L.L.L.",
"L.L.L.L.L.L.L.L.L.L.L.L.L.L.L.L.L.L.L.L.L.L.N.Z u p p   p _.p p.P.D.B.).* d.`.#.{ L.U.L.L.L.U.U.L.L.L.L.L.L.L.L.L.L.L.L.L.L.L.L.",
"L.L.L.L.L.L.L.L.L.L.L.L.L.L.L.L.K.K.L.H.H.L.l.&   o X   #.d.J ~.D.L.W.L.u ! zXxX7 } (.K.L.L.U.K.L.L.L.L.L.L.L.L.L.L.L.L.L.L.L.L.",
"L.L.L.L.L.L.L.U.L.L.L.L.L.L.L.U.U.H.E./.(.I._.{ X & & X & 7 k.D.R.N.J @ X   y } & +./.H.H.E.I.H.K.L.L.L.L.L.L.L.L.L.L.L.L.L.L.L.",
"L.L.L.L.L.L.L.K.L.K.L.L.L.L.K.L.U.K.d.{ ..+.+.#.! & o X   n _.P.L.3   7 y y 7 y & #.`.K.I.p.d.I.L.L.L.L.L.L.L.L.L.L.L.L.L.L.L.L.",
"L.L.L.L.L.K.L.L.L.L.L.L.L.L.L.K.U.`.z.{ +.} L C Z   3 7 7 p d.p.*   t p y y y X   q J @.N.K ! U.L.L.L.L.L.L.L.L.L.L.L.K.K.L.L.L.",
"L.K.U.L.L.L.L.L.L.L.L.K.L.L.K.P.z.J L ! ! (.L.{ { #.{ Z Z L } D C o   o X &   Z q   Z Z J L L l.U.L.K.L.L.L.L.L.L.L.L.L.K.L.L.L.",
"L.L.L.L.L.L.L.L.L.L.L.L.L.L.L.U.N.i.r.i.J z.+.+.{ p.j.#.7 J } i L p u u u u i K C +.j.i.U.(.~.U.K.L.L.L.L.L.L.L.L.L.L.L.L.L.L.L.",
"K.L.L.L.L.L.L.L.L.L.L.L.L.L.L.L.U.I.E.I.W.P.+.{ { i.~.I.).9.[ k.W.W.W.(.~.(.(.U.W.~.I.W.L.S.K.L.L.L.L.L.L.K.L.L.L.L.L.L.L.L.L.L.",
"L.L.L.L.L.L.L.L.L.L.L.L.L.L.L.S.U.L.K.L.H.L.W.~.(.W.K.K.H./.(.U.H.L.K.S.S.K.K.K.S.S.K.K.L.L.L.L.L.L.L.L.L.L.L.L.L.L.L.L.L.L.L.L."
};
