/* XPM */
static char *profil_21662375316[] = {
/* columns rows colors chars-per-pixel */
"64 64 237 2 ",
"   c #050000",
".  c #0C0202",
"X  c #0E0A09",
"o  c #130201",
"O  c #1A0200",
"+  c #1B0E0D",
"@  c #190C08",
"#  c #17100D",
"$  c #1A1312",
"%  c #1A1615",
"&  c #140E10",
"*  c #240E0A",
"=  c #210400",
"-  c #2A150D",
";  c #251614",
":  c #291615",
">  c #241C1B",
",  c #2C1C1B",
"<  c #2C1B15",
"1  c #311C12",
"2  c #301E1E",
"3  c #3B1F1E",
"4  c #2F221C",
"5  c #33211D",
"6  c #3B221B",
"7  c #2C2423",
"8  c #2C2726",
"9  c #342524",
"0  c #392523",
"q  c #3C2A24",
"w  c #352C2B",
"e  c #3B2D2B",
"r  c #362727",
"t  c #353230",
"y  c #3B3433",
"u  c #3D3B3A",
"i  c #3C3837",
"p  c #42271C",
"a  c #412E25",
"s  c #482D28",
"d  c #473429",
"f  c #553A2A",
"g  c #443434",
"h  c #4A3434",
"j  c #4C3B35",
"k  c #433A39",
"l  c #4B3D3C",
"z  c #433837",
"x  c #523D3B",
"c  c #573B36",
"v  c #4B2F30",
"b  c #49413E",
"n  c #584338",
"m  c #65483C",
"M  c #593F41",
"N  c #4F3F40",
"B  c #4C4443",
"V  c #4E4848",
"C  c #464241",
"Z  c #544544",
"A  c #5A4344",
"S  c #534C4B",
"D  c #5B4C4B",
"F  c #594A44",
"G  c #58514E",
"H  c #575353",
"J  c #5B5453",
"K  c #5E5956",
"L  c #544E50",
"P  c #624443",
"I  c #634D4C",
"U  c #664C49",
"Y  c #734D4D",
"T  c #6E5241",
"R  c #64514B",
"E  c #6C554C",
"W  c #77594A",
"Q  c #645353",
"!  c #6B5354",
"~  c #6C5A54",
"^  c #6C5D5B",
"/  c #64595A",
"(  c #725453",
")  c #735A5A",
"_  c #775A56",
"`  c #6C4F51",
"'  c #6B615E",
"]  c #64605F",
"[  c #75635B",
"{  c #7A635C",
"}  c #776155",
"|  c #785E60",
" . c #6A6565",
".. c #6D6969",
"X. c #6A6665",
"o. c #736464",
"O. c #7D6463",
"+. c #756965",
"@. c #7C6A64",
"#. c #756C6A",
"$. c #7B6C6C",
"%. c #7C6669",
"&. c #7A706F",
"*. c #767172",
"=. c #7C7473",
"-. c #7E7978",
";. c #7F6F70",
":. c #835E5E",
">. c #836759",
",. c #896956",
"<. c #836564",
"1. c #866965",
"2. c #846769",
"3. c #846B6C",
"4. c #8B6C6C",
"5. c #8A6766",
"6. c #926C6C",
"7. c #8A736B",
"8. c #82726B",
"9. c #91766B",
"0. c #886D71",
"q. c #847373",
"w. c #867E7C",
"e. c #8D7A7B",
"r. c #8B7677",
"t. c #927374",
"y. c #957877",
"u. c #966F70",
"i. c #A07C7C",
"p. c #8A817E",
"a. c #97847A",
"s. c #A3887D",
"d. c #8C8484",
"f. c #8D8C88",
"g. c #948483",
"h. c #948C8B",
"j. c #9B8986",
"k. c #9B918E",
"l. c #9C9594",
"z. c #9E9B9A",
"x. c #9B9694",
"c. c #988F90",
"v. c #A5898A",
"b. c #B18C8B",
"n. c #A7938C",
"m. c #B69689",
"M. c #A39A97",
"N. c #A49D9C",
"B. c #AB9E9C",
"V. c #A99794",
"C. c #B39593",
"Z. c #B59B96",
"A. c #B39B9B",
"S. c #BB9C9B",
"D. c #B18E92",
"F. c #9FA09B",
"G. c #A4A19E",
"H. c #AAA19E",
"J. c #B4A39B",
"K. c #BBA49C",
"L. c #B9A396",
"P. c #9E9FA3",
"I. c #A49FA0",
"U. c #AA9FA1",
"Y. c #B39EA0",
"T. c #BB9EA0",
"R. c #A6A3A2",
"E. c #A9A3A3",
"W. c #ACA9A6",
"Q. c #A2A5A9",
"!. c #ACA7A8",
"~. c #ADA9A9",
"^. c #B4A4A4",
"/. c #BCA3A3",
"(. c #B3A9A6",
"). c #B3ACAB",
"_. c #B9AEAC",
"`. c #B8A9AA",
"'. c #B4B0AE",
"]. c #BCB2AE",
"[. c #B3AFB0",
"{. c #B8AFB0",
"}. c #B6B2B2",
"|. c #BBB4B3",
" X c #BDBABA",
".X c #BDB7B7",
"XX c #C39E9D",
"oX c #C3A29D",
"OX c #C5A597",
"+X c #C29EA0",
"@X c #C3AAA4",
"#X c #CBACAA",
"$X c #C7AAA7",
"%X c #CDB0AD",
"&X c #C8B4AB",
"*X c #D1B2AE",
"=X c #DAB8AD",
"-X c #C2B9B6",
";X c #C4BDBB",
":X c #CDBBBA",
">X c #C7B6B4",
",X c #D3B3B2",
"<X c #DCBBB9",
"1X c #D7B9B7",
"2X c #D4AEAB",
"3X c #E2BDB9",
"4X c #CEC1BD",
"5X c #DAC2B7",
"6X c #E5C6BA",
"7X c #F5D3BF",
"8X c #F2CEB8",
"9X c #CAC8C6",
"0X c #D9C8C6",
"qX c #DAD3D3",
"wX c #EDCFC1",
"eX c #E5C8C7",
"rX c #E9D3C9",
"tX c #F4D5C3",
"yX c #F4D4CC",
"uX c #FEDDCB",
"iX c #F7D9C7",
"pX c #E8D9D7",
"aX c #F4DCD2",
"sX c #FCDCD4",
"dX c #F1D3D1",
"fX c #FCE1D3",
"gX c #F6E4DD",
"hX c #FEE4DA",
"jX c #FEE9DE",
"kX c #F2E0D7",
"lX c #E7DDE3",
"zX c #F9ECE9",
"xX c #FFF0E7",
"cX c #F7EFF4",
"vX c #FEFAFC",
"bX c #FAF5F6",
"nX c #E9E5E9",
/* pixels */
"E.E.E.E.E.E.E.E.E.E.E.E.E.E.E.E.E.W.E.E.G.W.G.G.G.W.G.R.!.Q.!.Q.E.I.~.R.R.~.R.R.W.F.W.R.R.E.!.U.E.E.E.E.E.E.E.E.E.E.E.E.E.E.E.E.",
"E.E.E.E.R.U.E.E.E.E.E.E.E.E.E.E.R.W.R.R.R.F.W.W.W.G.W.G.U.!.U.U.!.~.x.).R.G.W.F.P.W.W.z.E.~.N.~.E.E.E.R.E.E.E.E.E.E.E.E.E.E.E.E.",
"E.E.E.E.E.E.E.E.E.E.E.U.E.E.E.E.E.R.E.~.G.W.G.M.G.G.G.R.U.U.U.U.E.~.E.N.E.R.Q.R.W.G.F.R.~.G.R.N.E.E.E.E.U.E.E.E.E.E.E.I.E.E.E.E.",
"E.E.E.E.E.E.E.E.E.R.E.E.E.E.E.E.E.~.G.E.W.G.G..X).|.H.'.{.`..X`.M.U._.W.W.W.F.W.F.P.[.W.E.E.W.~.E.E.E.E.R.E.E.E.E.E.E.E.E.E.E.E.",
"E.E.E.E.E.E.E.E.E.E.E.E.E.E.E.E.E.E.R.G.E.U.N.#.&.g.g.$.%.%.0.;.Z b #.).E.G.W.R.).W.z.R.R.R.E.G.E.E.E.E.I.E.E.E.E.E.E.E.E.E.E.E.",
"E.E.E.E.I.E.R.E.E.I.E.E.I.E.E.E.~.M.W.H.N.|.' ; 5 5 h g h l r h 3.l > g M._.(.E.E.x.W.R.~.R.R.E.R.E.E.E.E.E.E.E.E.I.E.E.E.I.E.E.",
"E.E.E.E.R.E.E.E.E.E.E.E.E.E.E.E.W.G.B.E._.g., M ~ o.e.t.3.| ` 2.q.q.o.j J q.B.M.h.$ #.|.R.R.E.E.E.E.E.E.E.E.E.E.E.E.E.E.E.E.E.E.",
"E.E.E.E.E.E.E.E.E.E.E.E.E.E.E.E.H.G.(.E.`.g a D 3.3.Y ) 0.t.0.U O./.A 6 x ^ h o . D ' W.E.E.U.!.E.E.E.E.E.E.E.E.E.E.E.E.E.E.E.E.",
"E.E.E.E.E.E.I.E.E.E.I.Q.E.E.E.E.G.W.E.M.3.Z 3.) P M ` 2.2.2.P v.@X1X( O o O.A.V.^.M.^ `.E.E.W.E.E.E.E.E.E.E.E.E.E.E.E.I.Q.E.E.E.",
"E.E.E.E.E.E.E.E.E.E.E.E.E.E.E.E.~.M._.j.; Q <.2.Y 5.5.5.5.y.D.,X#X$X<XZ.y.4.A.&X:XN g U.U.N.E.E.E.E.E.E.E.E.E.E.E.E.E.E.!.U.E.E.",
"E.I.E.E.E.E.E.E.E.E.E.E.E.E.E.E.H.H.).Q h 0 3 y.u.2.u.6.+X<X<XeXeX2X*X$X,X0XC.O.>X2 / Z `.(.E.E.E.E.E.E.U.E.E.E.E.E.E.E.E.E.E.E.",
"!.Q.E.E.E.E.E.E.E.E.E.E.E.E.E.U.E.).q.o A n v ( 5.:.Y b.3X#X<XdX<X$XeXaXrXZ.$X:X:X:X$.k |.N.N.W.E.E.E.E.E.E.E.E.E.E.E.E.U.E.E.E.",
"U.E.E.E.E.E.E.E.E.E.E.E.E.E.E.E.U.`.8.I 0.2.P P 5.Y v D.$X,X,X1X,X<XhXhXeX$X$X4XeXN r H.H.W.E.E.E.E.E.E.E.E.I.U.E.E.E.I.E.E.E.E.",
"E.E.E.E.E.E.E.E.E.E.E.E.E.E.E.E.E.Y.l ~ 0.2.6.2.:.s :.3X1X#X,X2X<XsX9.( #X/.Z.~ v.@ w q.E.E.G.G.E.I.E.E.E.E.Q.!.E.E.E.E.E.E.E.E.",
"E.U.E.E.E.E.E.E.E.E.E.E.E.E.E.E.E.B.2 | 2.2.u.:.Y :.+X2X$XXXaXC.,XaX9.K.,X&X/.o Z r l.l.W.G.W.W.E.E.E.E.E.E.E.E.E.E.E.E.E.E.E.E.",
"E.E.E.E.E.E.E.I.E.E.E.E.E.U.!.U.^.U.r : ) 5.:.i.3X2XsX2XOX%XaXiX6X1.- 1 5X4Xq 5 ; i (.W.G.W.G.R.E.E.E.E.E.E.E.E.E.E.E.E.E.E.E.E.",
"E.E.E.E.E.I.E.E.E.E.E.E.E.E.E.E.[.| 2 h ( 4.b.yX=X3X=X=Xm.m.6Xm.f a.1 m [ < 4 n # -.'.R.E.W.U.U.E.E.E.E.E.E.E.E.E.E.E.E.E.E.E.E.",
"E.E.E.E.E.E.E.E.E.E.E.E.E.E.E.U.[.q.o h ` 1.$XyXm.6X3XOXOX6X=X5XuXxXm jX5Xo t _.N.E.G.N.E.E.U.^.E.E.E.E.E.E.E.E.E.E.E.E.E.E.E.E.",
"E.E.E.E.E.E.E.E.I.E.E.E.E.E.E.E.U.-XQ + e.3.v S.6X3X$Xm.2XuXiXuXuXOXm.&XkXn.4 b |.W.G.W.E.H.E.!.I.E.E.E.E.E.E.E.E.E.E.E.!.Q.E.E.",
"E.E.E.E.E.E.E.E.E.E.E.E.E.E.E.R.N.).N.+ ) r.U Z.#X#XOXoXXX=XuX7XuXs.m L.gXjXb G (.G.E.E.E.E.~.I.E.E.E.E.E.E.E.U.E.I.E.E.U.I.E.E.",
"E.E.E.E.E.E.E.E.E.E.E.E.E.E.E.R.G.F.}.K 8 b < J.eX,XK.<XfX8XfX7XiX8X8X7XfXL.@ J.).W.G.E.!.R.R.E.E.E.E.E.E.E.E.E.E.E.E.E.E.E.E.E.",
"E.E.E.E.E.E.E.E.R.E.E.E.E.E.E.R.G.G.W.}...G . N ! &X@X$XaXfX7XiXiXuX7XiXjXd n -XM.H.E.R.~.R.I.!.E.E.E.E.E.E.E.E.E.E.E.E.E.E.E.E.",
"E.E.E.E.E.E.E.E.E.E.E.E.E.E.E.E.W.F.F.P.)..XS . + @ < Z.5XiX6XuXuX7X7XfXrXd V.J.E.W.R.R.E.!.W.E.E.E.E.E.I.E.E.E.E.E.E.E.E.U.E.E.",
"E.E.E.E.E.E.E.I.E.E.E.E.E.E.E.E.G.G.!.!.R.N.;Xi o.h.R 6 >X5XfX7X5XfXfX&X6 [ ).H.E.G.E.W.E.I.E.E.E.E.E.E.Q.E.E.E.E.E.E.E.E.E.E.E.",
"I.U.E.E.E.E.I.E.E.E.E.E.E.E.E.E.W.W.R.G.!.E.!.E.E._.:Xd j.kXuXs.X n n.~ @._.H.W.E.E.E.E.E.E.E.E.E.E.E.E.E.E.E.E.E.E.E.E.E.E.E.E.",
"Q.!.E.E.E.E.E.E.E.E.E.E.E.E.E.I.G.W.W.G.I.!.I.).U.^.J.+ [ a.n q q n o ;X).G.E.G.R.R.R.E.R.E.E.E.E.E.E.E.E.E.E.U.I.E.E.E.E.E.E.E.",
"E.E.E.E.E.E.E.E.E.E.E.E.E.E.E.E.E.U.G.E.^.).M.G.B.p.4 l [ L.rXa % ].o G ).!.E.W.R.Q.~.R.E.E.H.J.E.E.U.E.E.E.Q.!.E.E.E.E.E.E.E.I.",
"E.E.E.E.E.E.E.E.E.E.E.E.E.E.E.E.E.E.(.E.N.E.)._.(.. j a.} ~ J.o . f.4 $ / }.R.R.!.R.R.E.E.E.E.E.E.E.E.E.E.E.I.E.E.E.E.E.E.E.E.E.",
"U.E.E.E.E.E.E.E.E.E.U.E.E.E.E.E.E.E.W.E.B.^.H.@.F O a n 7.{ E O D E.F w 7 }.E.z.R.E.R.R.E.E.U.!.E.E.E.E.E.E.E.E.E.E.E.E.E.E.E.E.",
"E.E.E.E.E.E.E.E.I.E.E.E.E.E.E.E.!.E.N.G.(._.8.@ a a m 6 p 1.>.* ~ -XQ . J ).E.!.E.E.E.E.E.E.E.E.E.E.I.E.E.E.E.E.U.E.E.E.E.E.E.E.",
"E.E.E.E.E.E.E.E.Q.E.E.E.E.E.E.E.R.E.R.G.H.J.[ d y.m 1.n.= n P U _ U j 4 H.(.M.^.E.E.E.E.E.Q.E.E.E.E.E.E.E.E.E.E.E.E.E.E.E.E.E.E.",
"E.E.E.E.E.E.U.E.U.!.E.E.E.E.E.E.Q.Q.R.W.B.J.E >.} m Z.bX4.s s ( [ R <.5 B.J.E.E.R.E.E.E.U.!.Q.E.E.E.E.E.E.E.E.E.E.E.Q.I.E.E.E.E.",
"Q.R.E.E.^.E.E.W.H.H.W.H.H.H.^.E.R.W.F.W.L.s.W ,.Y a eXvXqXcXj.` R ( 0Xg h.`.U.I.E.R.E.!.E.E.E.E.E.E.E.E.E.E.E.E.E.E.E.E.E.E.E.E.",
"G.R.R.E.H.E.E.H.E.W.H.R.E.E.H.E.W.W.G.L.L.s.W ,.m <.cXcXlX[.N 3.0.3.>X=.y {.Q.~.R.E.R.E.E.E.E.E.E.E.E.E.E.E.E.E.E.E.E.E.E.E.E.E.",
"R.R.E.E.E.E.W.W.J.R.W.H.H.E.E.E.F.~.G.M.L.s.,.,.f W vXcXcX.X$.g.! M V.;.9 ;XI.U.E.E.E.E.E.U.E.^.R.E.E.E.E.E.E.E.E.E.E.E.E.E.E.E.",
"R.R.E.^.E.E.H.G.R.R.R.G.G.W.E.E.W.F.H.].m.L.9.m a Z.vXcXcXnXc.e.^ M | pXz d.[.I.E.E.W.E.!.U.E.E.E.E.E.U.E.E.I.E.E.E.I.E.E.E.E.E.",
"W.E.E.E.W.G.G.W.W.W.R.R.Q.E.E.E.H.^.H.B.L.L.T p f bXzXbXnXvXS Q r.y.3.w.> d.~.E.E.E.E.U.E.E.W.H.E.E.U.E.E.E.E.E.!.U.I.E.I.E.E.E.",
"E.E.^.E.W.R.W.G.G.R.R.R.U.U.E.U.^.^.K.V.n.9.W n n ].zXbXvXvXo.2 | ` Q < l -XE.z.W.E.E.E.J.H.H.E.E.E.E.E.E.E.E.E.U.!.Q.E.E.E.E.E.",
"E.E.E.E.R.R.R.Q.W.F.R.R.U.U.U.Y.T.T.A.@XL.W } ,.- 4 lXnX .lX;.: h h h /.+.p.|.E.W.H.H.E.W.E.G.H.E.E.E.R.E.E.E.E.E.E.E.E.E.E.E.E.",
"Y.E.Y.E.R.R.W.W.F.R.R.R.!.Y.Y.T.+Xi.y.dXOXn W n o rXzXk.. + . O <.) e ^ +.=.W.N.G.l.N.(.`.(.W.J.E.E.E.E.E.R.E.E.E.E.E.E.E.E.E.E.",
"E.E.E.Y.E.E.E.R.G.G.W.H.^.V.D.T.u.:.5.*X5.f T O { jXgXb o a 2.) 0.%.q * p.X t B S K S b #.z.(.G.E.E.E.E.E.E.E.E.E.E.E.E.E.R.E.E.",
"U.E.E.E.E.E.R.!.W.G.W.J.^.v.y.5.5.6.u.S.Z.4.s = s.jXj.o r e.4.4.:.2.2 o (.p.G (.x.|.4Xy 4 w H.E.E.E.E.E.E.E.E.E.E.E.E.E.E.E.E.E.",
"E.E.E.E.E.E.R.R.W.M.H.^.^.T.#Xv.b.XXXXS.Z._ 9.hXwXjXx o r.2.4.1.4.r.r . b ..F.f.] ..9Xf.w # z.W.E.E.E.E.E.U.E.E.E.E.E.U.E.E.E.E.",
"E.E.E.E.E.E.E.E.W.H.E.H.U.T.Y.t.b.XXD.T.B.E a.fXhXkX* x r.0.4.1.2.2.e o . H  XqXlX9XqXf.8 p.W.G.E.E.E.E.E.E.E.U.E.E.E.E.E.E.E.E.",
"E.E.E.E.E.E.E.E.G.W.H.H.`.Y.A.j.A.@X^.U.^.l.n : 7.x o D q.%.4.5.0.0.A .   =. X9X4X9X9XX.X. XG.G.E.I.E.E.E.E.E.!.E.E.I.E.I.E.E.E.",
"R.E.E.E.E.E.E.E.R.W.G.G.^.U.^.^.^.V.U.Q.!.E.# . o . e o.e.3.O.) ! q.e.r X t z.9X9X9XqXG.t G.G.R.E.E.E.E.E.E.I.Q.E.E.E.E.E.E.E.E.",
"E.E.^.U.U.E.U.!.G.G.W.G.E.E.H.H.B.E.~.P.Q.[.i   . . , Q o.N I 3.r.3.$.7   7  XnXbXbXbXvX] R.R.W.E.E.E.E.E.E.E.E.E.E.E.E.E.E.E.E.",
"E.E.E.U.!.U.E.E.W.F.W.G.G.E.E.G.W.N.Q.Q.Q.!.W.V w ,   . + . o * A Q , r > V ~.Q.P.Q.F.'.>  .'.R.E.E.E.E.E.E.E.E.E.E.E.E.E.E.E.E.",
"E.E.E.E.E.E.E.E.E.E.E.E.E.E.E.E.G.R.W.Q.R.Q.W.W. Xk.=.q.o n n.- * q a.].G.#.X. .X.X. . .*.k.G.W.E.E.E.E.E.E.E.E.E.E.E.E.E.E.E.E.",
"E.E.E.E.E.E.E.E.E.E.E.I.E.E.Q.E.H.R.R.R.G.W.R.R.G.J.4X' F } xXaXxX; $.).G.~.}.'.}.}.[.).'.W.H.N.E.E.E.E.E.E.E.E.E.E.E.E.E.E.E.E.",
"E.E.E.E.E.E.E.E.E.E.E.E.E.E.R.E.E.E.R.W.W.R.R.R.H.H.M.5 L.j K.gXgXn [ ).G.).G.N.E.I.E.E.W.E.W.W.E.E.E.E.E.E.E.U.E.E.E.E.E.I.E.E.",
"E.E.E.E.E.E.E.I.E.E.E.E.E.E.E.E.R.R.R.R.R.R.W.W.H..X#.R pX@.8.gXzXJ.+.].H.N.E.W.!.E.E.E.G.G.G.G.E.E.E.I.E.E.E.E.E.I.E.E.E.E.E.E.",
"E.E.E.E.E.E.E.E.E.E.E.E.E.E.E.E.E.E.E.G.R.!.R.!.H.).' +.4Xn.n rXgX_.h H.E.E.E.G.E.E.!.!.E.E.E.E.E.E.E.E.I.Q.E.E.E.E.U.!.E.E.E.E.",
"E.E.E.E.E.E.E.E.E.E.E.E.E.E.E.E.E.E.E.E.R.R.E.E.G.W.t (.4X0X5 @.zX4X4 H.N.~.E.E.Q.!.U.U.E.E.E.W.E.E.E.E.U.!.E.E.E.E.E.Q.E.E.E.E.",
"E.E.E.E.E.E.E.E.E.E.E.E.E.E.E.E.E.E.E.E.E.E.E.U.).#.' _.:X+.. k.bX_.w H.E.R.R.E.I.E.U.^.E.E.E.I.E.E.E.E.E.E.E.E.E.E.E.I.E.E.E.E.",
"E.E.E.I.E.E.E.E.E.E.E.E.E.U.R.E.E.U.E.E.E.E.R.R.W.> =.h.&.o +.b &Xw.b #..X).[.}.!.E.U.U.E.E.R.E.E.E.E.E.E.E.E.E.E.E.E.E.E.E.E.E.",
"E.E.E.E.E.E.E.E.I.E.E.E.E.E.E.E.E.E.E.E.E.U.I.!.z.. x. X' +..Xk ' -Xy b h.C V L l.!.U.!.U.U.!.R.E.E.E.E.E.E.E.E.E.E.E.E.E.E.E.E.",
"E.E.E.E.E.E.E.E.E.E.E.E.E.E.I.E.E.E.U.!.E.).E..XJ   $ % p.W.|.H / vX8 % 4 & 8   d.).U.I.).U.~.E.E.E.E.E.E.E.U.E.E.E.E.E.E.E.E.E.",
"E.E.E.E.E.E.U.E.E.E.E.E.E.E.Q.E.E.N.~.R.~.h.-.d.t   X   V .X.Xh.] V $ 8 t t & L !.U.`.{.U.U.I.R.E.I.E.E.E.E.E.E.U.E.E.E.E.E.E.E.",
"E.E.E.E.U.E.!.Q.E.E.E.E.E.E.E.E.E.E.[.N.l.p.S C  .7   . . t V [.y . u y t & u W.z.h.N $.[.U.).I.E.E.E.E.E.E.E.E.E.E.E.E.E.E.E.I.",
"E.E.E.I.E.E.E.I.E.E.E.E.E.U.E.E.~.E.E.d.  L ..H H 7 .   & X %  X..  X       X     X d.l.z.l.I.!.E.E.E.E.U.E.E.E.E.E.E.E.E.E.E.E.",
"E.E.E.E.E.E.E.E.E.I.E.E.E.E.E.E.R.R.~.z.M.#.V J u 7 H c.*.H X.u     C t u u 8 u y z S N V L I.R.E.E.E.E.!.Q.E.E.E.E.E.E.E.E.E.E.",
"E.E.E.E.E.E.E.E.E.E.E.E.E.E.E.E.W.N.R.E.I.[.).~.[.).}.[.x.*.*.*.-.*.H H H L x. X).{.`.!.`.~.I.!.E.E.E.E.E.I.E.E.E.E.E.E.E.E.E.E.",
"E.E.E.E.E.E.E.E.E.E.E.E.E.E.E.E.R.E.~.E.R.E.I.I.R.R.R.I.~.}.}.}.[.[.P.F.F.G.F.G.U.N.!.U.E.U.E.E.E.E.E.E.E.E.E.E.E.E.E.I.E.E.E.E."
};
