/* XPM */
static char *profil_11662375315[] = {
/* columns rows colors chars-per-pixel */
"64 64 244 2 ",
"   c #040100",
".  c #0A0201",
"X  c #0E0C0A",
"o  c #0A0907",
"O  c #140201",
"+  c #1C0B04",
"@  c #120C0B",
"#  c #1B0908",
"$  c #1B130D",
"%  c #12100E",
"&  c #191514",
"*  c #230B06",
"=  c #27130E",
"-  c #231413",
";  c #2D1914",
":  c #241B1B",
">  c #271A18",
",  c #351C1A",
"<  c #2C241D",
"1  c #34221E",
"2  c #3E231D",
"3  c #342818",
"4  c #251F21",
"5  c #2D2523",
"6  c #2D2A29",
"7  c #272423",
"8  c #332524",
"9  c #3B2B24",
"0  c #342C2B",
"q  c #3B2E2C",
"w  c #392623",
"e  c #3D302C",
"r  c #353332",
"t  c #3A3534",
"y  c #3D3638",
"u  c #3E3A39",
"i  c #3A3936",
"p  c #352F31",
"a  c #431F1F",
"s  c #4A2618",
"d  c #422C2D",
"f  c #452925",
"g  c #49342D",
"h  c #583324",
"j  c #433432",
"k  c #4B3434",
"l  c #463A35",
"z  c #4C3C3A",
"x  c #443939",
"c  c #533C3A",
"v  c #543735",
"b  c #522A28",
"n  c #603429",
"m  c #58433D",
"M  c #4A423F",
"N  c #735137",
"B  c #654837",
"V  c #513E40",
"C  c #4B4444",
"Z  c #4E4B4B",
"A  c #464241",
"S  c #544442",
"D  c #5B4444",
"F  c #534C4A",
"G  c #5B4C4B",
"H  c #5A4A47",
"J  c #59514E",
"K  c #565252",
"L  c #5A5554",
"P  c #5E5959",
"I  c #4F5144",
"U  c #634442",
"Y  c #634B4A",
"T  c #664A48",
"R  c #62524C",
"E  c #6B554A",
"W  c #775548",
"Q  c #694F51",
"!  c #6C5553",
"~  c #645B5B",
"^  c #6B5D5C",
"/  c #665853",
"(  c #725855",
")  c #735B5A",
"_  c #7B5B5B",
"`  c #765855",
"'  c #734B41",
"]  c #6F615C",
"[  c #666459",
"{  c #7C615C",
"}  c #75645A",
"|  c #765E61",
" . c #665D60",
".. c #666162",
"X. c #6C6564",
"o. c #6E6969",
"O. c #746562",
"+. c #7D6462",
"@. c #736C6A",
"#. c #7C6A67",
"$. c #7A736E",
"%. c #777171",
"&. c #7A7373",
"*. c #7E7978",
"=. c #786F70",
"-. c #835747",
";. c #845C59",
":. c #84614D",
">. c #876554",
",. c #87665A",
"<. c #926B53",
"1. c #836564",
"2. c #896B65",
"3. c #836B6B",
"4. c #8B6B6B",
"5. c #896767",
"6. c #926767",
"7. c #84726C",
"8. c #8D716D",
"9. c #8C7F6E",
"0. c #91746A",
"q. c #8B6E71",
"w. c #876D70",
"e. c #8B7473",
"r. c #837C7C",
"t. c #8D7C7B",
"y. c #857674",
"u. c #937474",
"i. c #977B78",
"p. c #916F70",
"a. c #88817C",
"s. c #93837C",
"d. c #A38278",
"f. c #857F81",
"g. c #937D80",
"h. c #A97E85",
"j. c #868282",
"k. c #8B8483",
"l. c #8B898A",
"z. c #938383",
"x. c #948C8C",
"c. c #9B8D8B",
"v. c #9A8885",
"b. c #9E928D",
"n. c #9B9492",
"m. c #9E9C9A",
"M. c #9A9795",
"N. c #A38582",
"B. c #A98989",
"V. c #B48B8A",
"C. c #A4938D",
"Z. c #A99389",
"A. c #B2968E",
"S. c #AA8D90",
"D. c #AA9593",
"F. c #A39996",
"G. c #A49D9C",
"H. c #AA9D9D",
"J. c #A79895",
"K. c #BC9694",
"L. c #B79A97",
"P. c #B58C92",
"I. c #9DA49D",
"U. c #A5A19E",
"Y. c #AAA19E",
"T. c #B3A29C",
"R. c #BDA29D",
"E. c #BAA89E",
"W. c #A39FA2",
"Q. c #A99EA1",
"!. c #B59EA1",
"~. c #BC9EA1",
"^. c #A6A3A2",
"/. c #A9A3A3",
"(. c #ACA9A6",
"). c #ACA6A9",
"_. c #ADAAAA",
"`. c #A6A6A7",
"'. c #B3A5A4",
"]. c #BCA5A2",
"[. c #B2A9A6",
"{. c #B1A6A9",
"}. c #B3ACAB",
"|. c #B9ADAC",
" X c #BAABA6",
".X c #B5B2AE",
"XX c #BCB3AD",
"oX c #B4ADB2",
"OX c #B6B2B2",
"+X c #BBB4B3",
"@X c #BCB9B9",
"#X c #ACA6B0",
"$X c #C39C9F",
"%X c #C3A49D",
"&X c #C3A998",
"*X c #C1A08D",
"=X c #C4AAA2",
"-X c #C9ABA7",
";X c #C7A9A7",
":X c #CDB2AD",
">X c #C5B3A9",
",X c #D1B3AD",
"<X c #D6B8AB",
"1X c #C3B5B3",
"2X c #C3B8B3",
"3X c #CBB9B4",
"4X c #C5B9B7",
"5X c #D3B4B1",
"6X c #DBBDB8",
"7X c #D7BAB6",
"8X c #D1AFAD",
"9X c #E0BDB5",
"0X c #D5C4BB",
"qX c #CEC4BB",
"wX c #E3C3BC",
"eX c #E7C9BC",
"rX c #F4CEBD",
"tX c #C8C4C3",
"yX c #D2CDCD",
"uX c #D8C8C4",
"iX c #DED3CE",
"pX c #DBD8D6",
"aX c #E6CAC4",
"sX c #E8D1C6",
"dX c #F2D3CB",
"fX c #FCD9CB",
"gX c #F5D6C7",
"hX c #EDDBD1",
"jX c #F5DAD2",
"kX c #FADDD7",
"lX c #F0CAC9",
"zX c #F6E2D5",
"xX c #FFE2D3",
"cX c #FEE6DC",
"vX c #FAE7DC",
"bX c #EEEBEC",
"nX c #FFEBE4",
"mX c #F9E8E6",
"MX c #FFF2EA",
"NX c #FFF1E7",
"BX c #F2EFF2",
"VX c #FFFAF5",
"CX c #FEFBFC",
"ZX c #F9F3F4",
/* pixels */
"/./././././././././././././././._.U./.`.^.U.(.U.(.Y./.'.!.Q._.`.U.(.(././.(.U.(.^.(.Y./.(.Y.Y./././././././././././././.^./././.",
"/./././.Q./.^./././././././.^./././._.m.(.(.[.[.'.T.H.[.{.oX)._.}.Y.F.}.U./.(.G.U./.U.U.U.(././././././././././././././././././.",
"/././././././.^./././././././././.{.G.Y.(.M.b.n.v.'.D.v.Q.g.n.S.c.F.+X/.H.^./.(./././._.U./.).U./././././.^././.^././././.^.Q./.",
"/./.^././././././././.^././././.H.Y.(././.(.e 8 , d d k 8 d p p x q ] Q._.G.U./.^.^.^.`.^.U.`._.^./././././././././././././././.",
"/./././././././.^././././.Q././.{.F.}.F.|.L , H D D q.| w.| V Q z.C 8 8 n.4X/.{.^./.)./.#X`.W././././././././.Q././.^./././././.",
"/././././././././././././././././.{.H.{.z.- S D q.p.| ;.w.w.) | #.i.3.z H @.g.M./.(.`.m.`.#X`.^././././././././././././././././.",
"/./.^./.^./././././././././././.Y.G.H.+XS D ! | ( U U | 4.5.q.Q #.;Xg 1 w ^ H & /./.^.OXm.`.`.^./././././././././././././././.^.",
"/./././././././././././.^./././././.{./ j t.q.T v U 5.5.p._ U P.;X5X8.; O 8 D s.O : ~ OXG.)././././././././././././././././././.",
"/.^././././././././././././.^.^.Y./. Xj d Y 4.3.5.5.4.1.4.h.$X7X,X,X<X=XA.i.) D.J./ - k.[.Q.^././././.Q.^./.Q././././.^././././.",
"/./././././././././.Q./././.^.Q.U.U.&.q z ; ! 4.1.0.4.i.$X6XaX9XaXK.A.dX%X:X5XC.0X3X] $ XX(./.Q././././.`./././.^.Q././././././.",
"/./././.^././././././././././.^./.U.6 q R k T 5.4._ U B.6X8X5XdX7XwXeXlXjX-X>X3X3X7.c.R y.}.G.{././././././././././././././././.",
"/././././.Q./.^./.^././././.^./././.z #.7.#.v _ 2.U v ~.6X8X,X8X&XdXzXcXjX6X].7X3X3XF.y.&.|.[.U./././././././././././././.^././.",
"/././.^././././././.^./././.Q.U.oX~ l i.3.q.5.5._ f 1.7X-X:X5X-XwXkX2.f -XL.R.g D.3XO.. r.|.Q.^././.^././././././././.^././././.",
"/././././././././././.Q././././.oXG j 7.4.5.6.5.` 2.6X-X-X,X-X0XcXhXE O +.0XD.+ z 1XH V H.|.G././././././././.^././././././././.",
"/./././././././././././././.^.Y.|.| # a 1.4.;.V.lX,XdX6X%X-XxXkX=XR O O >X X= ; D y.5 {.).).Q.)./././././././.^././././././.^./.",
"/./././././.^./././././././././.+XD - k ! 4.K.kX%XaX,X5XL.A.wXd.m A.2 7.#.+ 9 H > z F.#XQ.W.)././././././././././././././.Q././.",
"/./.^./././././././././././././.'.c.- d } 3.L.lXK.lX7X&X<XeX<XgXvXxX} xXsX+ 9 v.'.{.{./.^.`././.^./././.^././././././././.^././.",
"/.^./././././././././.^./././.Q.!.1X~ $ y.#.v P.wX5X=XV.=XgXfXfXrX*Xd.&XvXXX3 M }.).Q.Q./.).`.^./././.^./.Q././././././././././.",
"/./.Q././././././././.^./././././.G..XX ~ e.Y ].5X8X=X%X<X<XrXfXxX*XE >XzXhXl / |./.Q.Q./._././././././././././././././././././.",
"/./././././.^././././././././.^.G.(.}.&.5 t # D.aX5XL.9XgXxXfXgXfXrXgXzXzXb.+ .X/./.Q././././././././././././././.^././././././.",
"/././././././././././././././.^._.m.U.{.r.X.O 0 l D.%X=XgXfXgXfXgXgXzXeXNXe ]  XH./.'.!.Q./././././././././././././././.^.`././.",
"/././.^./././././././././.^./.^.I.(.(.G.+X{.~   > - # d.eXeXrXxXxXzXsXNX2X< '.Y.H.{.).Q.!.{./.H.Q.^././././.^././.^./././.Q././.",
"/./.Q./././.^././././././././.^.U.U.G.{.).Q.tXZ &.G.} 3 0XeXxX0XT.zXvXs.8 y.[.Q.).Q.Q.Q.'././.Q././././././././././././././././.",
"/././././././././.^././././././.(.U.{.!.Q.Q.).#X(.Y.0Xf s.0X0Xa.@ = s.} t.+XY./.).).Q.{.{.Q././././././././././././.Q./././././.",
"/./././././././././././././././.U.(.Y./.{.H.^.^.`..XC.= } Z.m 3 M }   +X X(.U.^./.).`.Q.).Q././.Q./.^././.^././././././././././.",
"^././././././././.^./././././.^.U.U.|./.G.|./.U.G.@.# z +.Z.hX9 $ A.$ M U.U.(.^.`./.Q././././.^.`././././././././././././.^././.",
"/.^./././././././.^././././././._.I.G.G.}.G.U.+X|.. Y i._ ( B.. + 9.< < I .XI.(.`.W.Q.`././.`.`././././././././././././.^./././.",
"/./././.Q././././././././././.^.`.I.^.(.U.Y.[.Y 9 + f v ,.4.E O E qXJ 3 6 .X^.I.`.`././.)./././././././././././.^././././././.Q.",
"/././././././././././.Q././././.`.I.^.U.U.E.$.O m v R g ; ,.;.f Y D./ . X.}.U.U.).`.`.`./.`.Q.`././././././././././././././././.",
"/./././././././././././././././.^.U.(.U.U.XX( B 0.T 2.%X= f v T } ! k > [./.U.(././././././.`./././././././././././.^./././././.",
"/./././././.^./././.^./././././.(.'.G.Y.[.R 3 2.;.m &XVXs.G m ! +.c D.J.Y.'.U.(./././././.)./.`././.Q./././././././././././././.",
"^./.^./././././././././././././.(.Q.Y.|.c.; >.>.' f sXVXsXCXg.) Y 3.2X].'.Y.U.(././.Q././.W.`.`.^././././.W././././././././.^./.",
"^.^.^./././.)./.Q.{./././././.U.Q.W.#XoXb.g <.:.B 2.VXBXbX).V 3.q.e.c.!.Q.Q.)./././././.`././.)././././.^./././././././././././.",
"^.^.`./././././.Q./.Q./././.(.(.'.Q.#X`.k.f >.<.h _ ZXBXCXoXg.v.Q k t.1X{./.^.^._.)./.W.Q././.Q././././././././././././././././.",
"^.U././././././.)./././.^.U.U.U.Y.Y.W.`.XXg s N h %XCXBXCXBX#.3.3.U w.!././././.m.`.{.)./.).)./././././././././././././././././.",
"Y.(./././././.^./././.(.(.(.(.Y.Y.T.(.U.}.E s B >.NXCXCXbXCX|.z.3.g.#.g.'./././.)././.Q.Q./.Q././././././././././.W./././.^././.",
"/././././.^./.(./././././.Y.Y.Y.T.D.XXa., h N N :.nX XiXCXVXCX3.D ( z +.|.(.(.Y./.U./././.H.H.(./././././././././././.^././././.",
"(./.Q././.^.^.^.)./.Y.Y./.!.T.L.T.R.!.L.,.6.:.<.<.%Xm /.+X+X} # z k m c.|.F.m.Y./.^./.{./.Y.Y.{./././.Q././.^./././././././././.",
"/.Q./././.(.^.^./.Y./.'.'.~.~.$X$Xh.S.6Xi.' -.-.h ;.( S iXmXt.d 5.! 9 r.Y.XXXX+X}.(./.J.Q.'.(.J././././././././././././././.^./.",
"'.'././.^./.^./././.T.H.H.S.N.i.;.6.6.h.V.h -.-.s ;.u.8 #.nXnX) S e.1 J ] @.L K %.n.|.|.(.Y.(.Y././././././././././././././.Q./.",
"Q././././././.^.(.F.'.!.q.u.S.h.;.u.P.$XK.` :.-.a b u.p.c A.MXU O e.8 C.a.M a.I.b.M I &.Q.(././././.^././.^./././.^.^././././.Q.",
"/././././.^././.H.{.].v.h.;XK.| h.*X~.~.A.,.,.-.a a u.6.Q U mX;X; O $ M M M.l.J a.qX6 & S {.H.H././././././././././././././././.",
"/./././.^./././.{.H.H.L.!.S.u.h.$X].H.F.E.s.B E * b p.q.0.,.L.nXvXc.<   r .XtX@X+XyX$.5 : +X/./././././././././././././././././.",
"/././././.^././.Q.!.{.!.!.P.S.~.H./._.U.(.[ o + * V q.5._ u._ e.kXVXtX$ o (.pXpXtXtXo.L {.F.(././././././././././././././././.^.",
"Y././././.(.^././.Q.Q.Q.'.].!. X(.m._.U..X[ o o G g.w.4.i.{ ,.1 +Xc.8 % o n.pXtXyXF.y @X{.Q.)././.^././././././././././././././.",
"^././././.^./.`.^.`._./.Q./.Q.F.^.^.`.I..XM o $ 6 | | | { E +.m 8 . .   % a.pXpXyX@Xt x.).Q.W./././.Q././././.Q./././.^././.^./.",
"/.Y./././././.`._.W./.`./././.)./.{./.G.[.$.[ I.- # O _ s $ ; $ . . @   7 r VXBXBXCXj.f.+X{./.)./././././././.`././././././././.",
"Y.(./././././.`./.^.`./.`./.^./.Q.Q.(.[.Y.(.XXU.c.t.O v.aX3XiXl < F q e r i K I M.OXC y oXW.)./.^././././././.^.Q./././././././.",
"/././././.^./././.^./.^././.^./.(.H./.(.Y.U.Y.Y.3X( , sXNXE.J } 2Xv.. 1X}..XH._.*. .%.k.).Q.)./././././././././././././././././.",
"/./././././././././.^./././././.{././.U.U.U.U.U.E.( 5XkXcXT.. } 3XT.j Y.(.H.^./.oXOXOX`./.).Q././././././././.^././././././.^./.",
"/./././././././././././././././.Y.Y.(.U.(.(.U.E.C.! jXkX>X#.} -  X2XS $.|.Y.).^.W.^.Q.Q.Q.{.H././././././././././././.^././././.",
"/./././././././././././././././.Y.G.(./.U.(.U.[.t.7.nXmXO.3 qX3 b.iXl F +XU.U.^.).^.W./.).{./.{./.^./././././.Q./././././././.Q.",
"/./././././.^./.^./././././././.'.H.(./.^.U.U..XL 0XmXuXk c.XXa.+ XXXX: (.(.U.(.W.^._.(.H.G.Q././././././.Q././././././././.^./.",
"/././././.^././././././.^./././.(.Y.Y./.U.^.[. XL uXmXuX. b.(.(.0 U.qX& M.U.^.U.`.W.U././.'.{./././././././././././././././././.",
"/././././././././././././.^././.(.Y.U.^.U.(.(.x.q H.F.# ~ {.^.@X[ *.}.K o.@X`..X_.OXG.^.(.Y.Y.Y././.^././././././.^././././././.",
"^./././././.Q./././././././././.Y.(.U.(.U.(.U.o.r.1Xf.- 1XH.G.).k.u @Xi o i i r Z m././.U.{.U./././././.^.`./././././.^././././.",
"/././././././././././.Q./.^././.(.G.Y.(.U..X@.7 CXZX~ p /.#XoXW.OXL j.j.  o X   % x._.G.^./.Q.).^././././././././././././.Q././.",
"/./././././././././././././././.G..X/.U./.}.o.& ~ y   o & L M.#XW.M.6 & % & % % o.tX).@X}.}./.Q././././././././././././././././.",
"/././.Q.^././././.^./././././././.x.x.}./.+X*.& 6 6 p p 4   7 `.#X@Xu   o   & P *.o.&.=.o.x._.G././.Q./././././.Q./././././././.",
"/./././././.^./././././././././.}.~ K m.*.L 6   X 7 y 6 y y   & l.l.u 7 6 6   C A L X.%.o.m.oXoX/././././.^.^./././.^.`././././.",
"/././././././././.Q././.^./././.n.P P K Z F   6 K   X X %   @ V Z ....C Z o.*.X...).oX.. . .K M./././././././././././././.^././.",
"/./././././././././././././././._.}.OX/.j.x.&.C Z t i u p y x  .y ..K 6 *.x.l.@.%.&.G.F f.f.f.#X`.Q././././././././././././././.",
"/./././././././././././././././.^./.H./.}.oX}._.OXoX.X).}.+XoX|.M.o.r.OX_..Xk.[ o.%.W.@XoX#X@XW.`./././././././.W./././././././.",
"/././.^.^././././././././.^././.}.m./././.^.^.^.I.I.^.(./.Q.H.Q.).oX+X^./.G.(.@X+XoXQ./.W.#XW.)././././././././././././.^./././."
};
