/* XPM */
static char *_01966596_811375303222015_4100796309763647961_n1662375315[] = {
/* columns rows colors chars-per-pixel */
"64 64 232 2 ",
"   c #040101",
".  c #0B0101",
"X  c #0D0C0B",
"o  c #0D0906",
"O  c #120302",
"+  c #1A0302",
"@  c #190B07",
"#  c #12110D",
"$  c #1E110F",
"%  c #151311",
"&  c #1B171A",
"*  c #220A04",
"=  c #23130C",
"-  c #2C130D",
";  c #241917",
":  c #2D1B1B",
">  c #251718",
",  c #321813",
"<  c #28211F",
"1  c #34231E",
"2  c #3C2619",
"3  c #2B2625",
"4  c #322524",
"5  c #332925",
"6  c #332E2C",
"7  c #3B2D2C",
"8  c #3C2625",
"9  c #3B312D",
"0  c #353333",
"q  c #3B3534",
"w  c #3B3838",
"e  c #45271B",
"r  c #422D2A",
"t  c #4B2E2D",
"y  c #4C322D",
"u  c #43322B",
"i  c #423434",
"p  c #443C3A",
"a  c #4C3B3A",
"s  c #4A3934",
"d  c #553735",
"f  c #543D3B",
"g  c #583D36",
"h  c #4E332A",
"j  c #673A28",
"k  c #4B403D",
"l  c #44403F",
"z  c #52423C",
"x  c #5D4537",
"c  c #674838",
"v  c #79543E",
"b  c #423D41",
"n  c #4D4443",
"m  c #4D4947",
"M  c #4E4C4B",
"N  c #454342",
"B  c #544443",
"V  c #5B4B46",
"C  c #524D4C",
"Z  c #5A4D4B",
"A  c #584645",
"S  c #5C514E",
"D  c #55524E",
"F  c #555452",
"G  c #5B5552",
"H  c #5D5957",
"J  c #5D5B59",
"K  c #5A4E50",
"L  c #644645",
"P  c #644D4C",
"I  c #6A4B4B",
"U  c #6D4E45",
"Y  c #67524B",
"T  c #795748",
"R  c #6C5353",
"E  c #645E5D",
"W  c #675756",
"Q  c #735354",
"!  c #745C5B",
"~  c #7B5D5C",
"^  c #765A55",
"/  c #63605E",
"(  c #6D605A",
")  c #77625B",
"_  c #635F60",
"`  c #6B6765",
"'  c #726664",
"]  c #7D6364",
"[  c #746D6B",
"{  c #7B6D6C",
"}  c #7B6A66",
"|  c #74706F",
" . c #767370",
".. c #7B7472",
"X. c #7D7B79",
"o. c #814D39",
"O. c #865A48",
"+. c #875D53",
"@. c #925F4E",
"#. c #8A634C",
"$. c #8D6353",
"%. c #87675A",
"&. c #916D5A",
"*. c #936B54",
"=. c #836363",
"-. c #896566",
";. c #836A65",
":. c #8A6966",
">. c #856769",
",. c #866A6B",
"<. c #8C6B6B",
"1. c #897268",
"2. c #8C6E71",
"3. c #846F74",
"4. c #847674",
"5. c #8C7273",
"6. c #827D7B",
"7. c #897977",
"8. c #967977",
"9. c #937366",
"0. c #A17E7C",
"q. c #99857A",
"w. c #85807D",
"e. c #A2857A",
"r. c #A0806B",
"t. c #997C81",
"y. c #868483",
"u. c #8B8583",
"i. c #8F8C8A",
"p. c #938C8C",
"a. c #9A8E8D",
"s. c #988584",
"d. c #9A908E",
"f. c #93918F",
"g. c #969492",
"h. c #9B9493",
"j. c #9E9A9A",
"k. c #988F90",
"l. c #A28C85",
"z. c #A88888",
"x. c #A3938C",
"c. c #AC948B",
"v. c #A6968A",
"b. c #B2948E",
"n. c #B39A8C",
"m. c #AB9C97",
"M. c #A49D9D",
"N. c #AA9E9D",
"B. c #A59796",
"V. c #B39692",
"C. c #B99B94",
"Z. c #B49E9C",
"A. c #BC9D9B",
"S. c #B59A97",
"D. c #A6A19E",
"F. c #AAA19E",
"G. c #B4A39D",
"H. c #BBA49B",
"J. c #A59FA1",
"K. c #AA9FA0",
"L. c #B39DA1",
"P. c #A7A1A1",
"I. c #A9A3A3",
"U. c #ADA9A6",
"Y. c #AEAAA9",
"T. c #ACA6A8",
"R. c #B3A5A5",
"E. c #BBA3A2",
"W. c #B1A9A7",
"Q. c #B3ACAB",
"!. c #BBADAD",
"~. c #B5A8A6",
"^. c #B5B0AF",
"/. c #B9B1AE",
"(. c #B6B1B1",
"). c #BCB5B3",
"_. c #BEBABB",
"`. c #BBBAB7",
"'. c #C19F9E",
"]. c #C9A89F",
"[. c #C4A5A3",
"{. c #C6ABAB",
"}. c #CCADAC",
"|. c #C7A8A5",
" X c #D0AFA9",
".X c #CCB4AC",
"XX c #C5B3AB",
"oX c #D3B2AB",
"OX c #D1AFB0",
"+X c #C9B8B7",
"@X c #D3B3B3",
"#X c #DCBCB3",
"$X c #D3BDBB",
"%X c #D8BAB8",
"&X c #CCAFB3",
"*X c #CDC1BC",
"=X c #D8C3B8",
"-X c #E3C4BD",
";X c #E7C9B8",
":X c #FAD6BD",
">X c #F4D4B9",
",X c #E8CAB6",
"<X c #D1BFC2",
"1X c #C5C3C3",
"2X c #CCC6C5",
"3X c #CDCCCC",
"4X c #D9C7C6",
"5X c #D1CFD1",
"6X c #DCD8D7",
"7X c #D9D1CF",
"8X c #E6CAC6",
"9X c #E9D3C9",
"0X c #FBD7C2",
"qX c #FDDBC4",
"wX c #FDDBCC",
"eX c #F5D9C9",
"rX c #E6D6D5",
"tX c #F0D6D3",
"yX c #FEE1CD",
"uX c #FCE3D5",
"iX c #FFEBDE",
"pX c #FFF4DF",
"aX c #E5DCE1",
"sX c #EBE6E8",
"dX c #FCECE7",
"fX c #FFF2E4",
"gX c #FFF9EC",
"hX c #FBF1EA",
"jX c #F5EDF3",
"kX c #FCF3F9",
"lX c #FFFBFE",
"zX c #F8F4F5",
/* pixels */
"I.I.I.I.I.I.I.I.I.I.I.I.I.I.I.I.I.P.I.I.I.I.I.I.I.I.I.I.K.I.K.L.T.J.T.K.T.I.P.P.I.I.I.I.F.U.D.I.I.I.I.I.I.I.I.I.I.I.I.I.I.I.I.I.",
"I.I.I.I.I.I.I.I.I.I.I.I.I.I.P.I.I.I.I.I.I.D.I.I.I.I.I.P.K.Q.Q.T.R.T.R.T.J.Y.U.U.I.I.I.I.I.D.U.I.I.I.I.I.I.I.I.I.P.I.I.I.I.I.P.I.",
"I.I.I.I.I.I.I.I.I.I.I.I.I.I.I.I.I.I.I.I.I.I.I.I.K.I.I.(.K.s.a.a.k.a.a.a.F.h.h.h.P.I.I.I.I.I.I.F.I.I.I.I.I.I.I.I.I.I.I.I.I.I.I.I.",
"I.I.I.I.I.I.I.I.I.I.I.I.I.I.I.I.I.I.I.I.I.I.I.I.K.I.T.4.i a s r i 7 7 i s : 7 > d.Q.P.I.I.I.F.U.I.I.I.I.I.I.I.I.I.I.I.I.I.I.I.I.",
"I.I.I.I.I.I.I.I.I.I.I.I.I.I.I.I.I.I.I.I.I.I.I.Q.Q.Q.p > f 2.=.b I ] 2.>.P A A r i N.I.I.I.I.I.I.I.I.I.I.I.I.I.I.I.I.I.I.I.I.I.I.",
"I.I.I.I.I.I.I.I.I.I.I.I.I.I.I.I.I.I.I.I.P.T.J.u.4.Z m ! 8.>.~ Q 2.<.] =.<.5.I Z > ' Q.N.I.I.K.I.I.I.I.I.I.I.I.I.I.I.I.I.I.I.I.I.",
"I.I.I.I.I.I.I.I.I.I.I.I.I.I.I.I.I.I.I.D.I.I.b : ..4 i $ L.z.L =.<.-.=.L g R ~ R W 7 I.~.N.I.U.I.I.I.I.I.I.I.I.I.I.T.I.I.I.I.I.I.",
"I.I.I.I.I.I.I.I.I.I.I.I.I.I.I.P.I.P.Q.6.0 o ' ( 7 . + Q }.{.'.R Q <.<.<.I d L ] 8.V z I.I.F.I.I.I.I.I.I.I.I.I.I.P.P.I.I.I.I.P.I.",
"I.I.I.I.I.I.I.I.I.I.I.I.I.I.I.I.I.P.P.Q.4 o a.7.] A.S.-X&XOX&X&XV.8.-.-.-.-.-.<.I a 8 B.U.D.I.I.I.I.I.I.I.I.I.I.I.I.P.T.P.I.I.I.",
"I.I.I.I.I.I.I.I.I.I.I.I.I.I.I.I.I.I.P.^.4 ..XX8.<X|.@XV.'.<X8X-X@X@Xt.2.<.2.<.=.: r r K U.I.I.I.I.I.I.I.I.I.I.I.I.I.I.I.I.I.I.I.",
"I.I.I.I.I.I.I.I.I.I.I.I.I.I.I.I.I.P.Q.w.O 7XrX{.'.eX8XV.&XjXrX8XOX@X|.I +.-.-.I d Z A $ s.W.P.I.T.P.I.I.I.I.P.I.I.I.I.I.I.P.I.I.",
"I.P.I.P.T.P.I.I.I.I.I.I.I.I.I.I.I.P.Q.6.o $X$X{.}.wXtX[.{.8X&X}.OXOXOXI d -.-.L Q >.5.A w.Q.P.I.I.I.I.P.I.I.T.P.I.I.I.I.I.I.I.I.",
"I.I.I.I.I.I.I.I.I.I.I.I.I.I.I.I.P.Y.y.p O { A s.S.|.V y c.V.|.}.'.OX%Xt.d I -.-.<.,.5.P a Q.J.I.P.I.I.I.I.I.I.I.I.I.I.I.I.P.I.I.",
"I.I.I.I.I.I.I.I.I.I.I.I.I.I.I.I.I.I.D./.l B @ 5.%Xc.+ t c.9Xb.8XOX'.OX%Xt.Q -.-.<.-.2.P i U.I.I.I.I.I.I.I.I.I.I.I.I.I.I.I.T.I.I.",
"I.I.I.T.I.I.I.I.I.J.I.I.I.I.I.I.I.I.P.U.`   5 . q.4X1 O z c.9XyX-X'.oX0X-X-X X@.-.<.y @ i T.I.I.I.I.I.I.I.I.T.P.I.I.I.I.I.P.I.I.",
"I.I.I.J.I.I.I.I.I.I.I.I.I.I.I.I.I.I.I.U.I.3 D Z O A v.- l.Y 9.=X'.t. X@X-X[.8X#X<.^ f 1 4 Q.I.I.I.I.I.I.I.I.P.I.I.I.I.I.I.I.I.I.",
"I.I.I.I.I.I.I.I.I.I.I.I.I.I.I.I.I.I.P.P.P.Y.^.A O c.gX1.=XgXqX,X;X#X'.OXeX].#XoX:.) A O { Y.N.I.I.P.T.P.I.I.I.I.I.I.I.I.I.I.I.I.",
"I.I.I.P.I.I.I.I.P.T.I.I.I.I.I.I.I.I.T.P.P.^.` $ d.yX=Xr.n.,X:XyXwX Xb.|. X#X Xd ) 7.7 i +XD.I.I.I.I.I.I.I.I.I.I.I.I.I.I.I.I.I.I.",
"I.I.I.I.I.I.I.T.I.P.I.I.I.P.T.I.I.I.I.T.F.W.w.< *XyX,X#.r.yX>X:X,X X X'.OX}.}.! ) 7.. p.U.I.I.I.I.I.I.I.I.I.I.I.I.I.I.I.I.I.I.I.",
"I.I.I.I.I.P.I.P.I.I.I.I.I.I.P.I.I.P.I.I.F.D.XX9 Y uX>XyX>X:X:X:X:XwX8XA.@X%X+X: 4 9 Z Q.D.I.I.I.I.I.I.I.I.I.I.I.I.I.I.I.I.I.I.I.",
"I.I.I.I.I.I.I.I.I.I.I.I.I.I.I.I.I.I.T.I.U.F.U.d.@ eX>X>XqX>X:X:X0XwXOXL.!.Z i   Z { ^.I.F.I.I.I.I.I.I.I.I.I.I.I.I.I.T.P.I.I.I.I.",
"I.I.I.I.I.I.I.I.I.I.I.I.I.I.I.P.I.I.I.I.I.I.D.!.k q.pXeX>XyXqXeX,X#XH.8 . 4   A I./.D.I.I.I.I.I.P.I.I.I.P.I.I.I.I.I.P.I.I.I.I.I.",
"I.I.I.I.I.I.I.I.I.I.T.I.I.I.I.I.I.I.I.I.I.K.F.U.h.1 } ;XpXH.#XeX9X8Xf Z M.d.w ^.U.D.I.I.I.I.I.I.T.I.I.I.I.I.I.I.I.I.I.I.I.I.I.I.",
"P.I.P.T.P.I.I.I.I.P.P.I.I.I.I.I.I.I.I.I.I.I.I.I.U.D.( q.i   z 9X.XXX= +XU.F.^.D.I.D.I.I.I.I.I.I.P.I.I.I.I.I.I.I.I.I.I.I.I.I.I.I.",
"T.I.I.I.I.I.I.I.I.I.I.I.I.I.I.I.I.I.I.I.I.I.I.I.T.P.3X3 q ' $ A w.q.@ } ).I.D.I.I.I.I.L.I.I.I.I.I.I.I.I.I.I.I.I.I.I.I.I.I.I.I.I.",
"P.I.I.I.I.I.I.I.P.I.I.I.I.I.I.I.I.I.I.I.D.I.I.I.P.Y.E   a.n   *XoXT ) = W h.I.I.I.I.I.I.I.I.I.I.I.I.I.I.I.I.I.I.I.I.I.I.I.I.I.I.",
"P.I.I.I.I.I.P.I.I.I.T.P.P.I.I.I.I.I.I.I.I.I.I.D.W.[ = 1 { 7   1.&.T &.%.  u._.I.D.I.I.I.I.I.I.I.I.I.I.I.I.I.I.I.I.I.I.I.I.I.P.T.",
"I.I.I.I.I.P.T.I.I.I.I.I.T.P.I.I.I.I.I.I.I.I.I.D./.W @ Z B.x.. g *.*.c e * 1 B h.U.I.I.I.I.K.I.I.P.I.I.I.I.I.I.P.P.I.I.I.I.I.I.P.",
"I.I.I.I.I.I.I.I.I.P.I.I.I.I.I.I.I.I.I.F.I.I.I.I.U.i.O f s.1.- T &.r - Q x x = z /.D.I.I.P.I.I.I.T.I.I.P.P.T.P.P.I.P.I.I.I.I.I.I.",
"I.I.I.I.T.P.I.I.I.I.I.I.I.I.I.I.I.I.F.I.I.I.I.I.F./.n 8 Y ~ ~ d t - 7.V.h 9.U x G.I.F.I.I.T.P.I.P.I.P.T.P.T.P.T.I.T.P.I.I.I.I.I.",
"I.I.I.I.P.I.I.I.I.I.I.I.I.P.I.I.I.I.I.I.I.I.I.I.D./.7 } ~ I ~ f P ' kX7Xx v *.v e.R.I.I.T.P.I.I.I.I.I.I.I.P.I.I.I.I.I.I.I.I.P.T.",
"I.I.I.I.I.I.I.I.I.I.I.I.P.T.I.I.I.I.I.I.I.I.I.I.F.D.9 +X5.R ! ] jXaXsXgXc c #.O.1.R.I.I.T.I.I.I.I.I.P.I.I.I.I.I.I.I.I.I.I.I.I.P.",
"I.I.I.I.I.I.I.I.I.I.I.I.I.I.I.I.I.I.I.I.I.I.P.P.(.K w rX3.2.3.K 7.sXjXlXG.h *.O.9.G.F.I.I.F.I.I.I.I.I.I.I.I.I.I.I.I.I.I.I.I.I.P.",
"I.I.I.I.I.I.I.I.I.I.I.I.I.I.I.I.I.I.I.I.I.I.I.M.)._ K !.t I 2.t.B.kXjXlXd.2 &.O.8.G.F.F.F.I.I.U.I.I.I.I.I.I.I.I.I.P.I.I.I.I.I.I.",
"I.I.I.I.I.I.I.I.I.I.I.I.I.I.I.I.I.I.I.I.I.I.I.I.K.< <Xt.R ! 5.3.rXkXkXjXaXu x #.C.H.I.I.U.I.I.I.I.I.I.I.I.I.I.I.I.I.I.I.I.I.I.I.",
"I.I.I.I.I.I.I.D.I.I.I.I.I.I.I.I.I.I.I.I.I.I.I.I.K.0 Z ] 3.2.] : aXkXkXlXlX1.- c c.H.Z.I.F.I.I.I.I.I.I.I.I.I.I.I.I.I.I.I.I.I.I.I.",
"I.I.I.I.I.I.D.U.I.I.I.I.I.I.I.I.I.I.I.I.I.I.I.J._.' : V Q I s W lXlXhXD.{ - x v +.0.L.m.I.K.K.T.I.I.I.I.I.I.I.I.P.P.I.I.I.I.I.I.",
"I.I.I.I.I.I.I.D.I.I.I.I.U.D.I.I.I.P.P.P.J.P.J.I.k.W <Xb t f : > y.i./.G.) - v #.@.O.z.R.K.I.T.K.I.I.I.I.I.I.I.I.I.T.I.I.I.I.I.I.",
"I.I.I.I.I.I.D.I.I.I.I.I.D.I.I.I.U.F.U.(./.(./.).B.W A.t L =.R :     d.gX8.+ v O.o.O.c.R.R.I.K.T.I.I.I.I.I.I.I.I.I.I.I.I.I.I.I.P.",
"I.I.I.I.I.I.U.I.I.I.I.I.I.D.I.I.W.W.i.G H H G / n V d 8 ! ,.<.~ 8   v.gXe.* O.o.j O.].m.R.N.R.I.I.I.I.I.I.I.I.I.I.I.I.I.I.I.I.I.",
"I.I.I.I.I.I.I.I.I.I.I.I.I.P.I.Q.X.1 ; 4.^.g.w.G # /.5 + ] <.-.2.} O 7.fXe.* O.O.O.+.A.R.K.R.I.I.I.I.I.I.I.I.I.I.I.I.P.I.I.I.I.I.",
"I.I.I.I.I.I.I.P.I.I.I.I.I.P.D.^.< 7 S 4Xi.F y.g.i.p.@ . a ,.<.2.,.y x fXl.* T $.$.0.G.N.I.I.K.I.I.P.T.I.I.I.I.I.I.I.T.P.I.I.I.I.",
"I.I.I.I.I.I.I.I.I.I.D.U.I.P.I.^.( @ ' 7X^._.1X`./ # #   @ R 2.-.5.V U fXq.O U U <.V.l.R.K.U.T.I.I.I.I.I.I.I.I.I.I.I.I.I.P.T.I.I.",
"I.U.I.I.I.I.I.I.I.F.U.D.I.I.I.D./.w.D 1X1X5X5X2Xd.X   o   V 2.-.2.U c.iXE.y O + h S.V.E.K.I.K.I.I.P.I.I.I.P.P.T.I.I.I.I.I.P.I.I.",
"T.I.I.I.I.I.I.I.I.I.D.D.D.U.D.D.^.H m 3X3X1X5X_. .X   .   Z ] ;.-.<.-XuXhX*X. . t '.0.S.L.K.T.I.I.I.I.I.I.I.I.P.I.I.I.I.I.I.I.I.",
"I.I.I.I.I.P.I.I.I.I.U.D.D.D.I.D.`.F `.sX6X6X5XY.6   X o   : W R ! ! c.n.c.i     8 0.-.t.L.L.K.I.I.I.I.I.I.I.I.I.I.I.I.I.I.I.I.I.",
"I.I.I.I.I.I.I.I.I.I.I.D.U.U.D.U.j.5 6XzXsXsXsXsX|     .   O > 1 * @ 2 =         R s.z.t.R.K.T.J.I.I.I.I.I.I.I.P.I.I.I.I.I.I.I.I.",
"I.I.I.I.I.I.I.I.I.I.I.U.F.F.D.U.g.3 F F J F F J D F D.a k     O k a z = 7 j.p.p.R.L.L.L.L.T.J.T.I.I.I.I.I.I.I.T.P.I.I.I.I.I.P.I.",
"I.I.I.I.I.I.I.I.P.T.I.I.P.I.I.I.T.(.T.I.U.I.U.D.U.U.`.6 S F.7 . d.pXgX} 4 +XW.T.K.R.I.I.T.I.T.I.I.T.P.I.I.I.I.I.I.I.I.I.I.I.P.T.",
"I.I.I.I.I.I.I.I.I.P.I.I.T.P.I.I.P.P.P.I.D.D.D.D.D.D.).< Y 9Xm.  Y uXuX) 5 ).M.K.I.I.I.I.I.P.P.I.I.P.I.I.I.I.I.I.I.I.I.I.I.I.I.P.",
"I.I.I.I.I.I.I.I.I.I.I.I.I.I.P.I.T.P.P.I.U.I.I.I.I.I./.S 7 +Xm.. ) iXeX=XV Q.M.U.K.I.I.I.I.T.P.I.I.I.I.I.I.I.P.T.P.I.I.I.I.I.I.I.",
"I.I.I.I.I.I.I.I.I.I.I.I.I.I.I.I.I.I.I.I.I.I.I.I.I.D.R.M.  R.B.. @ =XyX;XV U.J.I.I.I.I.I.P.P.I.I.I.I.I.I.I.I.P.I.T.P.I.I.I.I.I.I.",
"I.I.I.I.I.I.I.I.P.I.I.I.I.I.I.I.I.I.P.I.I.I.P.T.I.I.T.d.+ G.XXu . XXyX;XV W.J.I.T.K.I.I.I.I.I.I.I.P.I.I.I.P.I.I.I.P.I.I.I.P.I.I.",
"I.I.P.I.I.I.I.P.I.I.I.I.I.I.I.I.I.I.I.I.I.I.I.P.I.P.T.h.o G.7XP . *XuX=XZ Q.P.I.I.T.I.I.I.P.I.I.P.T.I.I.I.I.I.I.I.T.P.I.I.I.I.I.",
"I.I.I.I.T.I.I.I.I.I.I.I.I.P.I.I.I.I.I.I.I.I.T.P.I.P.U.h.. M.2XK o d.gXrXZ Q.J.I.I.I.I.I.I.I.I.I.I.I.I.I.I.I.I.I.I.I.I.I.I.I.I.I.",
"I.I.I.I.P.I.I.I.I.I.I.I.I.T.P.I.I.I.I.I.I.P.P.T.I.I.I.p.  u.U.E z < *Xi.m Q.I.I.I.I.I.I.I.I.I.I.I.I.I.I.I.I.I.I.I.I.I.I.I.I.I.I.",
"I.I.I.I.T.I.I.I.I.I.I.I.I.I.I.P.I.I.I.J.T.I.P.P.U.D.^.^.6 J.6X_ ` l Y.` M (.M.P.I.I.I.I.D.P.P.P.T.I.I.I.I.P.I.I.I.I.I.I.I.I.I.I.",
"I.I.I.I.P.I.I.I.T.I.I.I.I.I.I.I.I.J.J.T.J.J.J.J.U.Y.| J % X.j.b   N lXjXw j.(.Y.D.P.D.I.Y.^.^.U.P.I.I.I.I.I.I.I.I.I.I.I.I.I.I.P.",
"I.I.I.I.P.I.I.I.P.I.I.I.I.I.I.I.T.Y.^.j.m M M M < <           & 3 & M 1X< F X.g._ w X.Y.X.| [ j.I.I.I.I.I.I.I.I.I.P.T.I.I.I.I.I.",
"I.I.I.I.I.I.I.I.I.I.I.P.I.I.P.T.j.M M M M J F 6       o     & w w 0 3 & X 0 N _ h.I.J ^.M | | j.T.I.I.I.I.I.I.I.I.I.P.I.I.I.I.I.",
"I.I.I.I.I.I.I.I.I.I.I.I.I.I.T.D.g.f.i.f.y.M 6     X X # X # % & X X % X w J ` F | | l F J _ _ j.I.I.I.I.T.P.I.I.P.I.I.I.T.I.I.I.",
"I.I.T.P.I.I.I.I.I.I.I.I.I.I.Y.y.N M M M N F g.g.g.6 w J F F M | w 0 0 0 D j.^.^.(.i.y.y.y.w.y.J.I.I.I.I.P.I.I.I.T.I.I.I.P.I.I.P.",
"I.I.P.I.I.I.I.I.I.I.I.I.I.I.I.T.Y.Y.^.Y.Y.^.Y.Y.U.X. . .| X.| g.`.(.(.^.Y.I.D.D.P.Y.Y.Y.Y.Y.^.P.I.I.I.I.I.I.I.I.P.I.I.I.I.I.I.I.",
"I.I.I.I.I.I.I.I.I.I.I.I.I.I.I.P.P.D.P.I.D.D.P.P.D.^.^.Y.^.^.(.T.J.J.D.D.P.I.I.I.I.I.I.I.I.I.P.I.I.I.I.I.I.I.I.I.I.I.I.I.I.I.I.I."
};
