/* XPM */
static char *Ym95[] = {
/* columns rows colors chars-per-pixel */
"64 64 234 2 ",
"   c #04020D",
".  c #0A040D",
"X  c #0B0408",
"o  c #13090D",
"O  c #150609",
"+  c #060514",
"@  c #080616",
"#  c #060916",
"$  c #0B0A15",
"%  c #06051A",
"&  c #090619",
"*  c #060A1B",
"=  c #0C0A1A",
"-  c #130C14",
";  c #110D1D",
":  c #180B16",
">  c #0E1119",
",  c #131016",
"<  c #1C1214",
"1  c #14121C",
"2  c #1C131D",
"3  c #1C191D",
"4  c #1E1814",
"5  c #271308",
"6  c #36190B",
"7  c #22151B",
"8  c #271819",
"9  c #321D17",
"0  c #260E10",
"q  c #3F261F",
"w  c #0D0C22",
"e  c #060D20",
"r  c #110E21",
"t  c #1B0F23",
"y  c #0D1224",
"u  c #151224",
"i  c #1A1625",
"p  c #1C1A24",
"a  c #1A172A",
"s  c #1C192C",
"d  c #15182A",
"f  c #1D1C31",
"g  c #181732",
"h  c #231A23",
"j  c #2C1C25",
"k  c #221C2C",
"l  c #251925",
"z  c #311D24",
"x  c #211F31",
"c  c #1E2234",
"v  c #24222B",
"b  c #2A232A",
"n  c #2B2A2C",
"m  c #2B2225",
"M  c #332323",
"N  c #32262A",
"B  c #34292D",
"V  c #3C2A2D",
"C  c #252335",
"Z  c #2B2634",
"A  c #2C2935",
"S  c #29273A",
"D  c #26293C",
"F  c #2D2C3D",
"G  c #242738",
"H  c #342B34",
"J  c #322E3D",
"K  c #372933",
"L  c #2E303D",
"P  c #39343B",
"I  c #3B322D",
"U  c #442219",
"Y  c #46342C",
"T  c #443433",
"R  c #4C3A3D",
"E  c #463639",
"W  c #543C38",
"Q  c #4D322A",
"!  c #584139",
"~  c #694739",
"^  c #724F38",
"/  c #2F2E40",
"(  c #262A44",
")  c #302F41",
"_  c #2D3044",
"`  c #2D3349",
"'  c #323142",
"]  c #393645",
"[  c #4B3941",
"{  c #533E42",
"}  c #4A454C",
"|  c #524143",
" . c #594A4B",
".. c #584648",
"X. c #5B4A54",
"o. c #5A565B",
"O. c #644A4C",
"+. c #674947",
"@. c #69514A",
"#. c #7B5A4C",
"$. c #795646",
"%. c #694D52",
"&. c #6C5353",
"*. c #675557",
"=. c #745452",
"-. c #725A55",
";. c #7B5B55",
":. c #735B5B",
">. c #7A5A5A",
",. c #795658",
"<. c #724B46",
"1. c #7D625D",
"2. c #796259",
"3. c #5E5C61",
"4. c #6D5D62",
"5. c #765C62",
"6. c #686268",
"7. c #7B6464",
"8. c #7C6A6C",
"9. c #7A6967",
"0. c #7C6D70",
"q. c #885639",
"w. c #955A39",
"e. c #94603D",
"r. c #885B44",
"t. c #935E45",
"y. c #825C55",
"u. c #8C6248",
"i. c #8B645B",
"p. c #886659",
"a. c #926656",
"s. c #936649",
"d. c #825E63",
"f. c #836563",
"g. c #846A65",
"h. c #84666A",
"j. c #8A656C",
"k. c #836A6C",
"l. c #8B6B6C",
"z. c #8C6964",
"x. c #916969",
"c. c #87746B",
"v. c #98766A",
"b. c #8C6B72",
"n. c #8A6872",
"m. c #926A73",
"M. c #8B7876",
"N. c #977778",
"B. c #A27C73",
"V. c #9A847A",
"C. c #A7867C",
"Z. c #B18C76",
"A. c #B9937C",
"S. c #A6907B",
"D. c #C2997B",
"F. c #917F83",
"G. c #A17E83",
"H. c #898589",
"J. c #988788",
"K. c #958F93",
"L. c #999293",
"P. c #8E8E90",
"I. c #A68B84",
"U. c #B48D88",
"Y. c #A99288",
"T. c #BB9985",
"R. c #B18E91",
"E. c #A89898",
"W. c #B99997",
"Q. c #AA8D92",
"!. c #BBA499",
"~. c #9E9DA1",
"^. c #A89AA1",
"/. c #ABA6A7",
"(. c #B9A8A8",
"). c #BAB6B9",
"_. c #B3AAB1",
"`. c #C39C92",
"'. c #C8A799",
"]. c #D3AB9B",
"[. c #CBB09B",
"{. c #D7B59B",
"}. c #C5A18C",
"|. c #C29DA0",
" X c #CBABA5",
".X c #C7A9A7",
"XX c #D2ADA5",
"oX c #D2AEAB",
"OX c #CCB1A5",
"+X c #C7B3AC",
"@X c #D3B2AD",
"#X c #DBB6A9",
"$X c #CDAFB3",
"%X c #C4AEB0",
"&X c #C8B7B6",
"*X c #D4B3B2",
"=X c #D8B9B6",
"-X c #D1AFB0",
";X c #E3BAA8",
":X c #E2BDB4",
">X c #E5B899",
",X c #D9C4B8",
"<X c #CFC2B3",
"1X c #E8C5AB",
"2X c #E8C9B9",
"3X c #F3C9B8",
"4X c #F5D3BD",
"5X c #FBD5BC",
"6X c #FDDABD",
"7X c #FCD4B3",
"8X c #F0CEB6",
"9X c #B9B8C0",
"0X c #D7BCC0",
"qX c #C3BDC1",
"wX c #CAC9C9",
"eX c #D6C8C6",
"rX c #D9D5D8",
"tX c #D7CFD0",
"yX c #E6CAC5",
"uX c #F3CDC6",
"iX c #EBD3C8",
"pX c #FDD5C4",
"aX c #FEDDC4",
"sX c #F7D7CB",
"dX c #E6D7D6",
"fX c #FEDDD4",
"gX c #FFE1C8",
"hX c #F1E1DA",
"jX c #E5DEE3",
"kX c #E7E2E5",
"lX c #F7E8EA",
"zX c #F6ECF3",
"xX c #FBF5F8",
"cX c #FFF8E8",
/* pixels */
"& = u i a k S S a a a a i a a a e % e y y w = u ; - 2 , h 7 O < < < < 7 8 z N 7 p v u u s s a a = r r r r r r r r r r r r r w & ",
"; = & & & ; r u @ @ @ @ @ @ @ @ + g g y f g s i h 2 7 m { ..T R E [ { V 9 V V N , . $ # & + % % r a s a a a a a a a a s a a a r ",
"a = + + + + @ + @ @ @ @ @ @ @ & w t g k u k ; h 2 k E ..h.h.{ O.:.h.k.h.=... .R h   $ + + + + + a s k a a x a x s x a s f a a a ",
"s ; & @ @ & @ + @ @ & @ & @ & @ t t l t ; k k 2 K ..4.n.m.d.d.m.b.h.b.b.j.h.O...T 3 . + # = # * u a a r a a a a a a a a a s s a ",
"i ; & & & @ & @ @ + + + @ @ @ @ & k a ; t o X.8.Q.E.Q.W.G.d.G.W.R.U.m.d.x.x.b.*.*.[       @ + @ a a a r r a a a a a a a a a a a ",
"a = & + + @ & @ & @ & & @ @ @ @ % d a l : l 4.0X*X$X|.oX|.W.*X=X*X.X`.B.m.x.f.l.k.*.h . . @ . + u a a a a a x a s a x s a a a a ",
"s ; @ + + @ @ @ @ + @ @ @ @ @ + * d s k l 4.N..X$X=X*X-X*X*X*X.X*X=X*XoXW.v.l.b.5.%.T : . . & + r s g a s k g a a x a a a a a a ",
"s ; @ @ & @ @ + @ @ & + @ @ + & * d d l l { eX0X=X*X*XoX-X.XW.*X|.oX@X*X*X|.N.5.+.{ { 7 o . - @ r s x a s s a a a a f a k a f a ",
"a r & @ @ + @ @ @ @ & @ @ & + @ & s i i 7  .qXlXyXyX#XXX XoXuXuX XoX.X.X*X-XR.d.%.=.O.j 7 . @ @ r f k a s a a a a s s a s a s a ",
"a = + @ @ + & + + & + @ + @ @ @ & t k Z *./.&XyX=XyX XXXXX:XuXfXuXXX`.*X-X*X|.m.d.j.n.{ h . @ @ r a a a a s s s s s a k f a a a ",
"u = @ @ @ & & + @ + & & @ @ @ @ & a k l X.(.%X$X XOXXXXX].#XpXuX;X'.oX-X*X*X:XR.b.h.k.0.n > + * a a a a s f s s f a a a a x a r ",
"i = + @ + @ & @ @ @ @ + @ @ @ % @ a l l l 8.$X$X=X XXX'.`.].aX4X:X:XuX@X*X0XuXoXN.h.h.0.H $ + * u f x a a a s a a a a a a a a r ",
"a ; & @ + @ @ + + @ @ & + @ @ + = s s k : [ &X$XuXXXB.XX8X4X4XgXpX1X,X,XOX#X`.|.v.,.z.7.E $ $   a s s s a s a a a a s a a k a s ",
"k = & + + + @ + @ & + + @ @ + & & d p i j [ ^.&X$XyXT.B.{.aXgX8XT.v.S.6XsXfX-X-XU.=.+.@.M o - @ r a s a a s s a a s a s f a a s ",
"a & + @ + & & @ & @ @ @ @ @ & @ + u s 1 k h E  .M 2.~ 6 [.4X6X8X! $.S.8XsXyXXXXX:XU.x.>.R < . + ; a s a s s s a f s s a a a s u ",
"u & + @ @ @ @ + @ + & + @ + & + + u p p p i 3 3 I dX[.6 [.aX6X4X;XV.5 Y J.iX#XXX3XsX:X,.:.< X @ ; a s a a a a a k s a a a s a r ",
"@ r s s f s s c x s C x x C C f y + - : - : - : L.(.[.A.1X{.4X1X!.cXY.5 Y yX;X3X;X#X=X| z 8 j i @ @ 1 = $ 1 u = 1 1 = 1 y = = $ ",
"& s F ' ' ' ' ' / / F / / F / / c = & . . + $ : L.!.D.6X>Xe.1XgX[.!.v.! +XiX].5X{.@X8.3 b P H Z @ @ = @ # @ @ + # + # # @ @ # + ",
"+ f ) ' ' ' ) ' ) ' ' ' / ' / / D w % & . $ . X 9.[.1X6X1XD.7X6X4X[.Z.2X2XW.].;XOX .v ' F J S F $ $ # +   + @ + + + +     + @ $ ",
"+ f ' ) F F / F / / ) ) ) / ' / ( w % % = $ @ . 4 0.iX6X6X6XaX6X6X{.A.7XuX,XOXOXW.6.G ( ' S ] ) 1 @ # @ + + $ # + + + + # # @ @ ",
"+ C ' ) / ' ' ) ) ) ' ) ' ' ' ' S r @ & & % % w . o c.2X4XgXaX7X7X7X6XgXiX+XW.E...m ' _ ) ` / / = # + $ $ + + + $ + # @ + + + $ ",
"+ s / ) ) ' ) / ' ) ) / / J F F x @ @ @ & & % e = , O ! Y.}.iXaX6X7X5X8X9.T T R N B L L S ) ) f & + # @ +   +   + @ # @ +     + ",
"% s ) ' ' ) / / ' ' ) ' / / ) F u + @ $ & * % %   # o X 5 5 ,.f.T.#XsXV.8 B B H P H ' L Z ] F a & # $ @ # + @ $ $   + @ +   + @ ",
"& f ) ' ) / / ) / ) F / / F F F 1 @ + + + + # + =   X   O : 8 O.c.[.hXeXT B B H A ] A A ] S J k @ # $ + + $ @ # + +   + # + # $ ",
"= C D ) ) ' ) F ' ' F S G S F ' C $ $ + + + + #       1 X X E &XkXrXtXlX=X*.T N A L c G G Z ] K ;   + @ + $ + $ @ #   # # + + 1 ",
"s D ' ' ) ) ) ' ) F F S S S F ' Z -   $ @ +   + # #     o h R _.L f l eX=Xp.9.*.v L _ D D S K H 1 + $ + + @   #   + $ @ + + 1 k ",
"a D ] ' ) ) / ' / ' / / F F ) L Z 1 @ + & = @ $     # > h  .2.E.L + 6.M.N.i.N.8.H A A Z _ ] ' F 1 + @ # + + + @ + + $ @ + + = k ",
"= x / / / ) / F ' ' ' ' ' ' ) ' Z +   & +   . $   > > > H.^.2.-.H.I dXJ.g.v.dX/.7 M B N A _ ( ( u @ + $   # + # # @ +   # + * 1 ",
"% s F ) ' ' ) ) ) ' ' ) ) / ' ' G = = = + - 3 4 4 X 4 p wXkXb.&.:.{ eXqXl.Q.lXzX8.*.! V N ' ( ( y + # + + @ + $ # $   + # #   # ",
"& C ) ' ' ' ) ) ) ' ) ) ) / F ' F r #     8 ! ! Y M n P.jXlXI.@.=.=.h.n.7.E.&XzXI.@.u.^ M P _ ` > + + +   # $ + + @ @ # + + $ = ",
"% s F ' ) ) / ) ) / / / ) ) ) J s >   3 P  .9.Y.<X9.P xXxX_.%.f.<.+.%.4.h.F.rXzXeXp.r.r.U V P C = + # @ + $ + # + $ # + +   @ = ",
"+ d D ) ) ) ) ) F / F F F / / F P./.~.H./.eXeXeXeX~.~.kXtX(.l.=.p.1.5.h.5.F.zXxXlXY.^ u.~ 9 N A =   # @ + @ + + @ + + + @ + + $ ",
"= & & & ; a x S = ; r ; ; ; r 2 3.jXxXkXwXrXwXwX<X/.wXV.(.#Xi.<.7.k.f.+.=.F.xXzXxX@X$.u.#.! < $ . 1 u u a u u a r u a r u u r & ",
"u ; & + @ & r ; + + + + @ @ @ + > 6.kXzXrXwXwXwXwXwXL.0..X,XC.$.:.:.h.~ =.M.dXF.+X#.^ $.^ 6 X . 1 u s s a f a a s a s a a s a u ",
"k r @ + @ @ @ + & & @ @ @ @ & . X > o.kXxXrXrXwXwXqX*.V.sXOXZ.#.+.+.<.~ N.C..XyX XC.q.q.^ U O ; u s s s s s s a s x a a a x s a ",
"k r @ @ @ & & + & & & @ & @ & + # 3 d 3.rXxXrXwX/.3.3 I ,XfXT.u.B.i.i.].3XfXfX'.a.^ w.w.q.p.V - a a a w r a a a s a a a a s a a ",
"s ; + @ @ @ & @ @ @ @ @ + + + + $ u n , o./.cX~.3.3 3 m 1.#X}.T.3X].;XaXpXXXU.p.r.r.w.w.t.^ E $ i a a r u a a s a s s a a s s a ",
"s ; @ & + + @ @ & @ & @ & + & & = u u p , ] P.o.> 3 7 m ..C.].}.1XaXpX;XU.#.p.y.r.t.w.q.t.Q O : u a a a a s s s a s s a s a a a ",
"a = + & @ @ & & + + @ + + & + & & u C 1 v p 3 3 v 2 h T :.;.i.`.{.T.v.r.#.g.p.p.r.w.w.w.t.Q O X u a s s s s a a a a f a a a a a ",
"k & + @ @ + @ @ @ @ @ @ + + & & % s f i p p u k 3 h M 9.l.>.#.T.A.^ ~ #.2.g.z.p.w.q.w.q.Z.<.X @ t s s s s s s s a s s a a a a a ",
"a ; + @ @ @ & @ & + & & . & & & & d f s s g s s 7 2 M k.g.g.y.=.=.>.>.f.l.g.p.a.u.e.e.e.}.c.$ & r a a a x a a a s s s f a f a a ",
"a = + @ @ @ & @ + + + + + & . + @ i x g g g s p h < ! 8.g.l.,.,.%.y.h.h.l.j.c.i.a.u.u.u.;.%.+ & r a x a a a a x a s a s k a a u ",
"a = @ @ @ @ + @ + + & & & + & + @ i f a g g s a h 8 *.7.g.b.7.>.>.n.b.b.n.n.j.z.a.a.^ ~ W %.. @ a a a a a x a a s s a s x a a r ",
"i = + @ @ + & + & & & . & + & + $ i s g g g g l 2 R k.7.g.f.l.%.j.n.j.n.n.j.j.x.x.y.~ 9 Q { l & u a x a a a g k s a a a a a a r ",
"k = + @ + + + @ & + & & + & & + @ p s s g g s p l  .7.h.l.g.b.{ >.z.g.b.b.n.m.j.m.m.>.0 0 j h . u a s a a a a s s a a s a s x a ",
"a = + @ + @ & @ + + + + + + + + @ u s g g g s s j [ 4.&.&.&.&.Q Q >.l.g.j.n.j.:.=.d.5.7 . - O + u k x s x s a s a a x s a x x a ",
"a & + @ @ @ @ + & + & & & + + + @ i s p d p p h 7 T %.{ O.O.&.W 8 ..;.:.,.>.;.+.&.*...i & $ . = r a a a s s a s a s s a a x a r ",
"r @ + & & & & & + & & . & & & & + t d i u i p p t h z R F.W.Y.@.8 W :.:.1.g.1.@.T : r ; + = r & r r a a a a s a a a a s a a r r ",
"+ u x S S G C S C G G Z G G S C p + + = = * # # @ X o 0 E.+XV.9 o n j Y S.OXOXY j Z S G x S F x & + & = & & & = = & & = = & & & ",
"& a D / ) F / ) ) ' ' ' ) ) ) ) Z = + % + % # # + $ o o Y.+XV.O , F H B 2.,X,XY K ) ' ` ) ) ) S = & % & # + & # # # + # # + + # ",
"& x ) ' ) ' ' ' ) ) ) ) J ) ) ' S ; + + # * + + + X X 4 E.+XV.O p A H B 8.2X,XY K J ` / ) J ) F ; & + + # & # + @ + + & & + # # ",
"+ x ) ' / ) ) / ) ) ) ) ) ) ) ) Z = + # # # + + $ .   < L.(.V.< p Z ] n 9.<XtXI K J / / D F ) J u & + + + & & + & # # & @ # & & ",
"+ f ' ' / ' ) / ) ) ) ) ) ) ) ) C ; #   + + + # + $ X 3 L.&XV.X 1 ' P N 0.<X,XI H J _ _ L _ ' F = # # & # + # + & # + + + + + # ",
"% x ' ' / ' ) ) F ) ) / ) F F J p $ + $ + + # # $     3 L.&XJ.o u ' Z H @.(.<X! H ) _ _ L L F c & + % & + + & + % + + + + + + # ",
"% c J ' ' ) ) ) ' ) ) / / F ) ) 1 + + # # * # # @ $ 1 } &XrXL.< i S ] B n /.eXI H ' _ ( L L F s = + + & + + & + # @ & # # + % & ",
"& f / ' ' ' ) ) ' ' / F F F F F s # + + + # # #   # . A ~.9XJ.$ s J ' Z V.tX&XP J _ _ D F L ' c = # + # & # & # + + @ @ % + + = ",
"u S ' ) / / / ) ' / S G C S F ) A =   + @ @ # # + >   > P./.E , s P F Z | P.J.P F F S G G F ' F u % & + + & + # + % # & # + & s ",
"s F ' ' ) ) ) ) ) ) F F S F F ' F = + # # $   #     > 1 H._.} $ F F J ] b E.<XH.Z D D D G F L F 1 + # @ + & + @ @ + + & & + 1 C ",
"u G ) ) ) ) ) / / ) ) ) F / ) J F =   + $ +   # # $ # p 9X9Xn > C ] F A n ).xXL.Z / ) / A L L F y + # + + # + & @ # + + + + = s ",
"& f / ) ) ) / ) F ) ) ' ) / / / Z & + $ + # $ $ > > y y 6.} X , p H Z p n } P.] Z ) ` ) L L ' F u + % # + & + # & = # + + + # = ",
"% s / ' ) ' ) ) / ) ' ) ) / / ) S > + +   $ $ , s > 1 $ $ X , $ 1 s A H n n n n S F ) ) S J / F w + + + + # + @ + & & + # % # = ",
"& C / ' / ) ) ) ) ) ) ) ) ) ) ' F = + # @ + $ $ $ 3 , 1 $ > 3 > p n Z A n P n n Z S ) ) J ) ) / u + + + # & + % # # + + % # & = ",
"% s F F F / F ) / / / ) / / / ) C = # @ +   # $ 1 1 $ 3 1 , 1 . 1 n v A n 3 n v F F ) J J ) ) F w + % # % @ + + + & + + # + + @ ",
"+ s D F F / J ) D F F F F F F F s #   @ . @   o   > . . . .   . X m P L n P n n J F F J J J F C y + @ + # & + # + & % # & + + + "
};
