/* XPM */
static char *_ee59b2177164946c90b45c51aad851ffMAx9TllZA8de7gj[] = {
/* columns rows colors chars-per-pixel */
"64 64 139 2 ",
"   c black",
".  c #010101",
"X  c #000002",
"o  c #000004",
"O  c #000005",
"+  c #010005",
"@  c #000007",
"#  c #000009",
"$  c #00000B",
"%  c #050414",
"&  c #070616",
"*  c #0B0917",
"=  c #0F0E16",
"-  c #0A0919",
";  c #0B0A1A",
":  c #0C0A18",
">  c #0D0B19",
",  c #0C0B1B",
"<  c #0F0D18",
"1  c #0E0C19",
"2  c #0E0C1A",
"3  c #0F0D1B",
"4  c #0E0B1C",
"5  c #0D0C1C",
"6  c #0F0C1D",
"7  c #0E0D1D",
"8  c #0F0E1E",
"9  c #100F17",
"0  c #100E19",
"q  c #100E1B",
"w  c #100E1C",
"e  c #110F1C",
"r  c #110F1D",
"t  c #100D1E",
"y  c #110E1F",
"u  c #100F1F",
"i  c #121119",
"p  c #12101B",
"a  c #12101D",
"s  c #12101E",
"d  c #13111F",
"f  c #15131E",
"g  c #18171D",
"h  c #120F20",
"j  c #111020",
"k  c #131021",
"l  c #131222",
"z  c #141220",
"x  c #151321",
"c  c #151223",
"v  c #161422",
"b  c #171523",
"n  c #161324",
"m  c #151424",
"M  c #171425",
"N  c #181624",
"B  c #191725",
"V  c #181526",
"C  c #191627",
"Z  c #181727",
"A  c #1A1826",
"S  c #1B1927",
"D  c #1D1C24",
"F  c #1F1E26",
"G  c #1A1728",
"H  c #191828",
"J  c #1B1829",
"K  c #1A1929",
"L  c #1B1A2A",
"P  c #1C1A28",
"I  c #1D1B29",
"U  c #1C192A",
"Y  c #1D1A2B",
"T  c #1C1B2B",
"R  c #1E1C29",
"E  c #1E1C2A",
"W  c #1F1D2B",
"Q  c #1E1B2C",
"!  c #1D1C2C",
"~  c #1F1C2D",
"^  c #1E1D2D",
"/  c #1F1E2E",
"(  c #211F2A",
")  c #201E2B",
"_  c #201E2C",
"`  c #211F2C",
"'  c #211F2D",
"]  c #201D2E",
"[  c #211E2F",
"{  c #201F2F",
"}  c #201D30",
"|  c #211E31",
" . c #221F30",
".. c #222129",
"X. c #22202B",
"o. c #22202D",
"O. c #22202E",
"+. c #23212F",
"@. c #212030",
"#. c #232031",
"$. c #222131",
"%. c #232232",
"&. c #242230",
"*. c #252331",
"=. c #242132",
"-. c #252233",
";. c #242333",
":. c #262432",
">. c #272533",
",. c #252434",
"<. c #262535",
"1. c #272636",
"2. c #292735",
"3. c #282737",
"4. c #2A2836",
"5. c #2B2937",
"6. c #292838",
"7. c #2A2939",
"8. c #2B2A3A",
"9. c #2C2A38",
"0. c #2D2B39",
"q. c #2C2B3B",
"w. c #2E2C3A",
"e. c #2F2D3B",
"r. c #2D2C3C",
"t. c #2E2D3D",
"y. c #2F2E3E",
"u. c #302E3C",
"i. c #312F3D",
"p. c #302F3F",
"a. c #313040",
"s. c #323141",
"d. c #333242",
"f. c #343343",
"g. c #353444",
"h. c #363545",
"j. c #373646",
"k. c #383747",
"l. c #393848",
/* pixels */
"          O O O O O W _ _ _ _ _ h M M U U M M U M M U M U M C M y I ] I ) i.i._ _ _ _ _ ~ W W W 6 G G B U G M B # O             ",
"            O D 0 0 r 0 r 3 3 r y C ] ]  .] ] ] ] ] ] ] ] ] ] ] 0 y r r r C I z r r r r a 0 3 r B ~ } {  . .] ] ) ( O   O       ",
"        O 9 r = 0 0 r 6 0 6 r 3 h ]  .]  .[ [  . . . . . . . .[ C y 0 r r r r 0 3 r 3 r r 6 r 3 Y  .} }  . . . .) #.+.+.O       ",
"      O 0 a r > a a r r a r r a h ]  .U U ] ] ] [ [ [  .[ [ [ ] I e 0 0 r > r r r 3 r 3 r r r r Y _ Y G Y _  . ._ _ _ _ o.O     ",
"  O O i 0 r r r 3 6 3 3 6 6 3 3 h ]  .C M U ] ] [ [ [ [ [ [ [ [ B r > > > > r > 3 3 3 3 3 r 3 r ] } Y A Y Y _  .}  . ._ _ )     ",
"    # 0 3 4 r r w a w a a a w a h ]  .] ] ] ] [  . .[ [ [  . . .B z r r r r r r r 3 r r r r r r Y } _ ) _ o.}  . . . ._ _ _ +   ",
"  O 0 0 > r r r w w w w w w 6 3 h ]  . .]  . . .[ [ ] ] ] [ [  .B r > r r > r > 3 3 3 3 3 3 3 3 C [ +._ }  .} _ _ [  .} _ X.O O ",
"O O 9 r r r 3 3 w w w w w 3 e e h ]  .] ] ] ] ] [ [ ] ] ] [  . .Y r > r r r r r r r r r r r r r Y #.#.X._ } } #._ +.#. .} +...O ",
"O g w a 3 3 e 3 w w w w w w w w y ] [ [ [ ]  .] [ [ [ [ [ [  . .I z > r r 3 r 3 3 r 3 r 3 r 3 r U [ [ ]  .[ }  ._  . .] ] [ (   ",
"O f w w w w w 3 w w w w w w w w y ] [ [  .]  .] [ [ [ [ [ [ }  .v 0 r r 3 3 r r r 3 r 3 r 3 r 3 U  . .]  .} }  . .} } ] [ [ _ # ",
"W a 3 a w w w 6 w w w w w w w w h ] [ } [ [  . . . . .[ [ [ } _ z r r r r 3 r r 3 r 3 r 3 r 3 r Y [ [ ] [ [ _  . .[ _ ]  ._ ] # ",
"W a 3 w w w a 3 w w w w w w w w h ]  . . .]  . . .[ [ [ [ [  .} z > r r 3 3 r r r 3 r 3 r 3 r 3 ]  . .] [ [ [ [ } [  .]  ._ ] I ",
"o.v 6 6 3 3 3 3 w w w w w w 6 w y _  . . . . ._ [ } [ [ } $._  .B r 3 r r 0 r 3 3 r 3 r 3 r 3 r Y  . .] [ [ [ [ ] [  .] }  .} _ ",
"o.b 6 h 3 3 3 3 w w w w w w 6 u t ]  . .} }  .] _  .[ [ _ }  . .J z > r 6 r r 3 r 3 r 3 r 3 r 3 U _  .] [ [ _ [ ] [  .] _  . .} ",
"W v 6 w 3 e a 3 w w w w w w h 6 t ] ] ] [ ]  ._ [ [ [ [ } $.{ o.N r > r r 3 r r 3 r 3 r 3 r 3 r C ]  .] +.[ ] ] ] ] } ] ]  ._ ] ",
"W a 3 w e 6 w w w w w w w 6 h 6 t Y ] ] [ ]  .[  . .[ [ _ } } o.a 3 3 r 3 3 r r r 3 r 3 r 3 r 3 M ] [ } [ [ ] ]  ._ ] ]  . .] M ",
"6 Z { $.;.%.$.;.;.;.;.;.;.;.;.;.H 3 d A v v v v Z v v v v v l l & $.%.;.;.;.;.;.;.;.;.;.;.;.;.! y z M N v v A z B b v b A v z a ",
"w { t.d.f.f.f.f.f.s.s.s.f.f.f.s.4.l w a 3 a a a w w w a w a 3 e ! s.s.f.s.f.s.f.f.f.j.f.f.f.d.8.d 0 0 y 3 r a r r r 3 3 a r 6 3 ",
"; %.f.h.f.f.d.f.f.f.f.f.f.f.f.f.w.l 3 a w a 3 3 6 3 w 6 w 6 e 3 ! f.f.f.d.f.s.d.f.f.s.f.f.f.f.s.v t 0 r 3 3 3 6 6 3 3 3 3 3 a a ",
"5 <.h.f.s.d.s.s.f.s.s.f.f.f.s.f.w.a ; a z a 3 6 a w a w w a e 3 ! s.d.f.s.f.s.s.f.s.s.s.s.s.f.s.I r 0 y r 3 r r 0 r 3 6 3 3 a v ",
"5 <.f.d.s.j.h.f.f.f.f.f.f.f.s.s.y.v 6 w 3 3 e a w a w w 3 3 3 3 ! s.s.f.d.f.s.f.f.s.d.f.d.f.f.s.N 0 3 r r 0 0 r w 3 3 w 3 - 3 a ",
"; $.s.s.d.f.d.y.f.f.s.s.s.s.s.s.:.d w a 3 ; 6 a w w w w 3 3 * ; ! s.d.f.s.f.s.s.s.s.f.f.s.d.s.;.z > 6 r r r r 3 w 3 w a 3 * 3 a ",
"w ;.f.j.f.f.s.s.f.f.f.f.f.f.s.s.S 3 a a w a e 3 w a a w e 3 3 3 ! d.f.f.f.f.f.f.f.f.f.f.s.f.s.$.h 0 r r 6 r a 3 a 3 3 a 3 3 3 r ",
"u ;.d.f.f.d.d.f.f.s.s.s.s.s.s.s.T i a 6 - w a 3 a w w 3 e 3 3 e L s.f.f.s.f.s.d.f.f.d.t.t.f.s.%.r r r r > r a 6 w 3 3 6 3 3 6 a ",
"m 1.f.f.f.f.f.s.f.f.s.t.1.t.s.f.4.v 3 w 3 3 3 3 w e 3 w w 3 e d ;.s.s.s.j.f.f.d.f.s.0.<.7.s.s.s.Z 3 w w w w w a a 6 3 6 a 3 w A ",
"! t.f.s.s.f.f.f.f.s.t.t.t.t.s.s.w.v 6 a 3 e 3 w 6 e w w w 3 w l 8.j.f.s.f.d.f.f.d.s.t.t.0.s.s.s.Z w w w 3 w e w 3 a w a 3 3 v <.",
"! s.j.f.s.s.s.f.f.f.f.s.s.s.s.f.w.v e e 3 e 6 a 6 w w a w w w v t.j.f.s.s.s.d.f.f.f.d.s.s.d.d.s.A e a w 3 w 6 w 3 w a w 3 ; N 4.",
"u ;.f.f.f.f.s.s.f.f.f.f.f.f.f.f.w.a 3 3 ; e e w w w w w w w w w $.s.f.s.f.d.d.f.d.f.f.f.s.f.d.s.A 3 w w w w w a 3 3 3 3 i 3 e A ",
"5 ;.s.f.f.f.s.s.f.f.f.f.s.f.s.s.0.l 3 w 3 a 3 a w a w e ; w w w ! s.d.f.f.f.f.f.s.d.f.s.s.d.s.s.A e w w e w 3 w a w 3 3 a 6 3 e ",
"u ;.s.f.f.f.f.f.f.f.f.s.f.s.f.f.w.v w a w w 3 w e w e e w w w w / s.f.d.f.f.d.f.f.f.f.d.d.f.d.s.N 3 w a w w 3 w w a w 3 a 6 3 v ",
"u ;.s.s.f.f.f.f.f.f.s.s.f.f.f.f.4.a 6 a w w 3 w 3 w w 6 w a w 3 ! s.f.s.s.s.d.d.f.f.d.d.f.f.d.y.v 3 w w w a w w 6 a a e 3 3 3 v ",
"& $.t.s.f.f.s.s.f.s.s.s.s.s.s.s.:.a 3 3 6 a w w 3 w a w w w w 3 m t.d.s.f.s.d.d.s.s.s.y.s.s.y.0.d ; w a w w 6 w w w 3 3 w e 3 6 ",
"v a d v B ~ 4.w.B v v B B v v B t M M U ] U M ] U U U U U U U U w m N l A 2.4.S Z N N N N N Z A w J J J U ] U ] U U U U ] U M y ",
"W v a a i a v v 3 3 3 > 3 3 3 > h U ] [  . .[  ._ [ [  .] ] ] ] l w 6 3 a A A a ; w 3 3 ; 3 w 6 b { $.}  . .] ]  ._ [ [ ] [ ] U ",
"o.b 3 3 3 3 6 3 r r r r r r r r h ]  .]  . .[  . . . .[  . . .[ J w 3 3 3 3 3 ; w w w 3 i w a w Y #.} _  . .[ }  . . .[  . . .] ",
"$.v 3 6 6 a a r r r r r r r r r y ] ] U M U ] ] ] ] ] ] ] ] ] ] T i 3 w a 6 i e w w w e w a w a ~ } Y G U ] _ ]  .} } ] [ [ ] ] ",
"o.b a w r 3 a 3 3 3 3 3 3 3 3 3 h ]  .U M ] ] ]  .} [ [ [ [ [ [ A a 3 e 6 a a w w 6 e e 6 w 6 w ~ } ] M U ] _  .]  .[ [ ]  .[ ] ",
"o.v a a 6 3 6 a r r r r r r r r h ]  .] ]  .] [  . .[ [  . . . .Z a e 6 3 e a ; w w w w w w a a Y $. ._ }  . . .]  . .[  . .] ] ",
"o.v 6 a r 0 a r 3 r 3 r 3 r 3 r t ] -. .]  .[ [ [ [ [ ] [ [  . .A a w w 3 3 3 3 3 3 3 3 e e 6 w Y } #.}  . .] } ] [ [ [ ] ] ] ] ",
"o.l 6 a r 3 6 3 r 3 r 3 r 3 r 3 h ]  .] ] [ [  .[ [ ] ] [ [  . .J a 3 a e 6 w a w w w w 3 e z w B #.#._ _ ] ] } ]  . .] ] ] ] ] ",
"o.v 3 a 6 3 a a 3 r 3 r 3 r 3 r h ]  . . . . . ._ _  .} [ [  . .S a 3 w 3 e a 3 3 w w w w w w w U [  .]  . .]  .]  . . . . .[ ] ",
"W l 3 a 3 e a 6 3 3 3 3 3 3 3 3 y ]  .] [  .[ [ [ [ }  .[ [ [ [ N e w w 3 3 3 3 w w w w w w w w U  . .[  . . . .[ [ [ [ [  .] U ",
"W a 3 3 3 e 3 3 3 r 0 6 3 r 3 r h ]  .] ] [ [ [ [ [ [ [ ] ] ] ] l 3 6 w 3 ; w w w 6 w w w w w w U  . .]  . .[  . .[ ] ]  . .U M ",
"W l 3 a e 6 a 3 r 6 r r r 3 r 3 h ]  .[ [  .[ [ [ [ [ [ [ [ [ [ v e e a 3 3 w w a w a a a w a w U  .] ] [ [ ]  . .[ ] ]  . .] U ",
"o.N w w 3 3 w w r 0 r r 0 t 0 r h ]  .] [  .[ [ _ }  .[ } #._ $.A a 3 3 3 e e 3 w w w w w w w w ] [  .]  . .] [ ]  .[ ]  . . . .",
"{ v 6 w 3 3 w 3 > t 4 0 4 0 t r h ]  .] [  .[  .} } } [ #.} $.$.A a 3 3 3 3 6 3 w w w w w w w w U [  .[  . .[ [ ]  . .[ ]  . . .",
"S d 3 3 w w w w r r r r r r 0 0 y ] ] ] ] [ [ [ ] ] ] ] _ _ { ~ b 3 ; a w w a a a w a 6 w a w w C ]  .[  . .] [ ] [ [ ] [ ] ] ] ",
"A e 6 a z a z a r r r r r r y y t C ] ] ] [ ] [ ] ] ] ] } _ ~ ~ z 3 a l a a l a a z z z z a z z M U ] ] [ ] ] ] [ ] ] ] [ ] U M ",
"- Z ;.0.t.0.1.t.1.t.8.8.8.8.1.t.W 3 3 v f z a a z a l d a z z a u ;.1.t.1.t.t.t.1.t.t.1.1.t.t.;.r 0 y z r r h z a a a v z a r 6 ",
"w $.t.s.f.d.s.f.f.f.f.f.f.f.f.f.9.l 3 3 3 3 3 a 6 3 w w w 3 6 3 L a.s.f.s.s.s.f.f.f.j.f.s.f.f.t.z r r y r 0 a r r 6 3 r a 6 3 3 ",
"u 1.f.f.f.f.f.f.f.f.d.d.d.s.f.f.w.v 3 3 3 a 3 3 3 6 3 a e 3 3 3 ! f.f.j.f.f.f.f.s.s.f.f.s.s.s.s.B r 0 0 3 r r > a r 6 3 a 6 0 a ",
"5 ;.j.f.s.f.d.s.f.f.d.d.d.f.f.f.w.v 3 e 6 a w 3 w a w a 3 e 3 3 ! f.f.f.s.f.s.d.f.s.s.s.s.s.d.s.U r 0 t r r r 3 a r r r 3 6 a z ",
"& ;.f.f.d.f.f.d.d.d.f.f.f.f.d.f.4.v e 3 ; w w w w w w 3 3 3 * * ! d.s.f.d.f.s.f.f.s.f.f.f.f.f.s.z r r r r r r 4 w 3 3 w 3 3 3 3 ",
"5 ;.j.f.f.f.f.f.s.s.d.s.d.s.s.s.{ e 3 a 3 w w w w w 3 3 3 ; 3 ; ! f.f.f.f.f.f.f.s.s.f.f.s.f.s.;.y r 0 r > > r > 3 3 w w 3 3 3 3 ",
"5 ;.f.f.f.f.f.d.f.j.f.d.f.s.f.f.A * 6 a w a w w a w a e e 3 3 3 ! f.f.f.s.f.s.d.s.d.f.d.s.f.s.%.d > r r r > r r 3 w a w 3 3 3 a ",
"u ;.f.f.f.f.d.f.f.f.s.a.t.t.s.s.%.a e 3 3 a w w 3 3 6 e e 3 3 3 ! f.f.f.f.f.d.f.f.s.s.t.t.f.f.;.z 0 t r r r r r 3 3 6 3 3 3 a v ",
"H 1.f.f.d.f.d.d.f.d.t.1.t.t.s.d.e.v 3 3 e a e e e 6 w w e 3 w v 1.f.s.s.f.f.f.f.d.y.t.7.0.s.f.s.J w w w w w w w a 6 e w w ; a $.",
"/ s.f.f.d.d.d.f.f.f.s.t.t.t.d.f.e.v 3 e w w 3 3 e w w w e 3 a l t.j.d.s.f.s.f.f.s.s.t.t.0.s.d.s.Z w a w 3 w e w 3 3 3 a a w A 4.",
"H t.f.f.s.d.f.d.d.d.d.s.s.s.d.f.9.d 3 w w w 6 3 e 3 w w 3 3 w l 1.j.f.s.f.s.f.f.f.d.d.d.s.s.f.s.Z e w a 3 w e w e w 6 w e 3 v o.",
"u ;.d.f.f.f.s.s.s.s.f.f.d.d.d.d.w.l 3 e w w e w w w w w w w w z $.s.s.s.f.s.s.f.f.d.f.f.s.s.f.s.N 3 w w w a 6 w w a a w 3 * ; v ",
"5 ;.d.f.f.f.d.s.s.d.f.f.d.d.d.f.w.v e e e w w w w w w w w a w w ! s.d.d.j.f.d.d.s.s.d.d.s.d.f.y.N * e w 6 w e w 3 w e e a 3 6 v ",
"u ;.f.f.s.s.d.f.s.f.f.f.d.d.f.f.w.v e e ; 6 w w w w e 6 w w w w ! f.f.s.f.s.f.f.f.s.d.f.s.f.f.s.N 3 e a w a 3 e w w 3 3 a a a v ",
"5 $.s.s.y.s.s.f.s.s.s.s.s.s.f.d.4.d 6 a e e 3 e w w e ; w a w 6 L s.s.s.s.s.d.f.d.d.s.d.s.f.f.t.v 3 e w w w 3 e w a 3 3 3 3 3 e ",
"% ! t.s.s.s.s.s.t.s.y.s.s.s.s.s.%.e ; w e w 3 w w w e e w w w ; u 1.s.s.f.s.s.s.s.s.s.s.s.s.s.1.v 3 w w w w 3 6 3 a 6 a a a 3 ; "
};
