/* XPM */
static char *d3dc4ebd0d7344fd87e3430b7c6edc8caaZqlRuMUlKOwRVg[] = {
/* columns rows colors chars-per-pixel */
"64 64 185 2 ",
"   c #030203",
".  c #090407",
"X  c #0C0609",
"o  c #0F0A0B",
"O  c #11070B",
"+  c #140A0D",
"@  c #1A0B0F",
"#  c #160C11",
"$  c #1C0D14",
"%  c #1F0E18",
"&  c #1E1114",
"*  c #1F1018",
"=  c #230E13",
"-  c #230F1A",
";  c #251115",
":  c #2B1216",
">  c #25111C",
",  c #29111F",
"<  c #261A1A",
"1  c #2D1B1C",
"2  c #34161C",
"3  c #39171E",
"4  c #351A1A",
"5  c #3C1A1E",
"6  c #2A201E",
"7  c #30201C",
"8  c #2D1320",
"9  c #331521",
"0  c #391722",
"q  c #331B21",
"w  c #3D1923",
"e  c #3A2024",
"r  c #421A1E",
"t  c #45221F",
"y  c #431B24",
"u  c #4B1E25",
"i  c #4C1E28",
"p  c #511F27",
"a  c #4E2125",
"s  c #402C25",
"d  c #532126",
"f  c #5C2427",
"g  c #552228",
"h  c #5C252A",
"j  c #5B2929",
"k  c #46352D",
"l  c #5B332A",
"z  c #473931",
"x  c #4A3834",
"c  c #593D31",
"v  c #62272B",
"b  c #65282C",
"n  c #6B2B2E",
"m  c #712E2F",
"M  c #66332B",
"N  c #6D2A31",
"B  c #742E31",
"V  c #792F33",
"C  c #6D3030",
"Z  c #6A3830",
"A  c #743231",
"S  c #7C3333",
"D  c #7E3A35",
"F  c #793A39",
"G  c #6A4A3C",
"H  c #6B5649",
"J  c #765A4B",
"K  c #7A6453",
"L  c #843335",
"P  c #8B3637",
"I  c #833B36",
"U  c #883D37",
"Y  c #863439",
"T  c #8D3739",
"R  c #8D3C38",
"E  c #94393A",
"W  c #9C3C3C",
"Q  c #A23E3E",
"!  c #874439",
"~  c #8E4039",
"^  c #93453B",
"/  c #98453C",
"(  c #95483D",
")  c #9C4A3D",
"_  c #9E503D",
"`  c #A6403F",
"'  c #A24C3F",
"]  c #865A48",
"[  c #A64040",
"{  c #AC4241",
"}  c #B44544",
"|  c #BA4745",
" . c #B44B44",
".. c #BD4946",
"X. c #A45142",
"o. c #AA5242",
"O. c #B25545",
"+. c #B45946",
"@. c #BA5B47",
"#. c #BA524A",
"$. c #B65C4B",
"%. c #89604B",
"&. c #9A694F",
"*. c #806857",
"=. c #856B5A",
"-. c #986D52",
";. c #B7624B",
":. c #B96855",
">. c #BF745C",
",. c #8E7060",
"<. c #9F7764",
"1. c #C54747",
"2. c #C14A47",
"3. c #C64C49",
"4. c #C94D4A",
"5. c #CC524B",
"6. c #C25C4A",
"7. c #CF5D4D",
"8. c #D1574D",
"9. c #D35C4E",
"0. c #C5614B",
"q. c #CB654D",
"w. c #D4624E",
"e. c #D3694F",
"r. c #C96D56",
"t. c #D16355",
"y. c #DB6250",
"u. c #D66B50",
"i. c #DB6E52",
"p. c #D56C5A",
"a. c #D9755B",
"s. c #E26C53",
"d. c #E37254",
"f. c #E97456",
"g. c #EC7957",
"h. c #ED7B5A",
"j. c #F17C59",
"k. c #DA7760",
"l. c #DC7C63",
"z. c #E57D62",
"x. c #E97E60",
"c. c #B58262",
"v. c #B68A6F",
"b. c #AB8B71",
"n. c #EF845F",
"m. c #CD8665",
"M. c #CA8A67",
"N. c #D18767",
"B. c #DC8265",
"V. c #D48C6A",
"C. c #DC8B6A",
"Z. c #DB936E",
"A. c #D59870",
"S. c #E38C6B",
"D. c #F18562",
"F. c #F08D65",
"G. c #E4926D",
"H. c #F29167",
"J. c #F2936C",
"K. c #E49770",
"L. c #E69976",
"P. c #EA9A72",
"I. c #F39D73",
"U. c #F49A74",
"Y. c #DEA376",
"T. c #EDA176",
"R. c #EDA678",
"E. c #EFAD7C",
"W. c #F4A57B",
"Q. c #F0AA7B",
"!. c #F3B07E",
"~. c #C4A384",
"^. c #CCAB89",
"/. c #EBA382",
"(. c #EDAA86",
"). c #F4AA82",
"_. c #E2B38D",
"`. c #F4B28A",
"'. c #F6B98F",
"]. c #E4BD96",
"[. c #F7BC92",
"{. c #E9C59C",
"}. c #F5C49B",
"|. c #F8CCA1",
" X c #F9D2A5",
/* pixels */
"                                                        O *.{.^.k .                                                             ",
"                                                      o K ].[.|.~.k                                                             ",
"                                                    o K {.'.x.U.}.~.x                                                           ",
"                                                  o *.{.|.J.j.h.).|.~.x .                                                       ",
"        .                                         H _.).'.).'.`.'.`.`.b.6             .                                         ",
"                                      .         < v.J.D.[. X X X|.U.D.).J o                                                     ",
"              .   .   .                       < b.).J.(.|. X X|. X[.U.I._.H +                                                   ",
"          .                   .   .       .   z ,.v.`. X[.L./.G./. X}.(.<.=.&                                                   ",
"                    .                       . # Z p.z.z.h.g.h.h.h.z.z.x.o.s X                                                   ",
"  .       .                           .   . e ! B.J.F.n.H.R.H.I.I.D.n.H.S.;.l &                                                 ",
"  . .     .   .               .       . < c m.P.E.P.G.G.K.E.R.E.R.G.G.K.Q.W.K.&.s @                                             ",
"                  .             .     X G A.C.p.P.S.5.1.t.C.p.l.S.5.1.p.T.l.k.L.c.s                                             ",
"                  .       .           X %.Z.t.a.Z.M.N.l.Z.Z.B.G.Z.S.l.N.A.K.t.l.V.k .                                           ",
"  . .     .   .       .               G Y.R.B.C.r.@.:.Z.>.:.K.V.;.C.N.$.#.N.V.C.!.c.7                                           ",
"  .                     .     .       G c.-.J E ..3.3.{ ....+.#... .} 3.3.{ F ] c.-.1                                           ",
"            .     .                     X ; P 2.4.3.3.5.3.3.4.4.3.3.3.3.3.3.| h + .                                             ",
"                                        - P 1.4.5.4.4.4.5.8.3.4.9.5.4.4.8.4.8.` v O                                             ",
"  .   . .   .     . .   .   .     .   . h ..4.y.f.y.5.5.s.s.8.w.s.w.4.8.s.f.8.5.E =                                             ",
"  .                         .         # L 5.t.i.g.j.d.g.6.' d.q./ d.s.f.j.s.u.9.` d .                                           ",
"          .                         # V 7.6.S S 0.i.' @.u.0.f.e.0.e.' 6.i./ m / y.` t .                                         ",
"                                  + S 9.6.D A m ) o.C ~ @.) q.o.' 6.m ^ q.I I m ' e.' a .                                       ",
"                                  @ ) q.D n ^ ~ @.~ C ' U v O.U m _ ~ A ' ' ~ S n ' e.v .                                       ",
"                                  . M ^ b m ) u.0.S m o.S ~ q.o.I _ ^ n ' i.0.^ b m ' t                                         ",
"                                  = ! D A 0.' q.o.@.' ^ 0.q.o.;.u.' ' ' _ e.' ' ' m ' M .                                       ",
"        .       .     .         O G s.' q.) o.d.j.q.+.q.u.( v C ' i.0.+.d.n.q./ O.O.e.e.t .                                     ",
"      .                   .   . 4 u.d.q.X.b j ( X.A h D I v v v A ~ C j I _ D f D +.;.f._ @                                     ",
"                                @ t t a f b v v h h v h f v v v v f j v j b j b b j 5 t 4 X                                     ",
"  .     .     . .     .     .       : f v v v v b b b j v j n b v v v v v v v v b j a +                                         ",
"  .     .             .     .     O u v b v v v b h v v v n ` P b v v v v v v b v v f 2                                         ",
"                                  @ a v v v v b v N n v b W 1.| S v b n b v v v v v v 2 .                                       ",
"      .       .         .       O y v v m R L b n W { T E ` T E Q T Q { L b n T L b v f 1 .                                     ",
"  .       .     .     .     . O r v b P } 1...E W ..2.2.3.W v n } 1.2.2.} T ` 1...` A b f :                                     ",
".     .           .         . 2 b V [ | | | 4.2.} V N Q | Y v v ` ..T n E ..3.1.} } ..E B p @                                   ",
"                              u E | { V N V | { L b v B { V v v Q ` n j m E 1.Q B B E ..{ B =                                   ",
"                            $ P { E B B E V } Y v V N B | Y b N { ` n B n n { Q Y Y b Y Q Q p O                                 ",
".                         = V E B b b Y | } ..E E W B Q 3.} T W 2...L P ` L { | ..W N v n L W r .                               ",
"X                       = V { B n n B ` 4.3.| ..1.1...3.{ { 3...W | 2...4.2.} ..3.1.Y N N N E { d O                             ",
"f .                 O u Q ..} E V B T ....V 0 N } 3.3.W y g Q Y y b } 4.2.W i i Q 1.} Y B V Q | ..L 2 .                         ",
"V O                 $ B Y N i i , > 0 N N 9 , 9 g E T y , , w 9 , 8 b Q V w , , i V h 8 > 9 y g V Y f X                         ",
"=                   . X O X . . $ , , , > , , , , 0 9 8 , 8 , , , , 8 w 9 , , , , , , , > O X X O X .                           ",
"n O                           # - , , , , , , , , , , , , , , 8 , , , , 8 , , , , , , , , % X                                   ",
"W @                       O - > , , , , , , , , , > , , , , , , , , , , , , , , , , , , , , , % .                               ",
"r .                     O > 8 8 , , , , , , 8 9 8 > 8 8 8 , , , 8 , , , , 8 9 8 , , , , , , , , & X                             ",
"                      + > 8 - 9 y 9 , , , 9 p h 0 8 > 0 i 0 , 9 i y , , 8 i h y 8 , , , y y 8 , , % .                       . = ",
"                    X - , 0 y p v h y 9 9 p p p g w 0 d g f u i g g y 9 i g i h y 8 9 i v v i 0 8 8 $                     O 5 f ",
"                  X - 9 y i y 9 y v p p h i 9 8 y g h g 9 y v h 0 w h h g 9 8 w g g h h g 0 0 i a w 8 $ .                 @ g v ",
"+                 - i i 0 , , , 0 i 9 i i 9 8 , 8 i h 0 8 u j b w 8 i v w , , 8 y h w w i 8 , 8 8 y d w O                 @ u v ",
":               . y h w , , , 8 y i 0 i y , , , 9 d b i d f y d h i g v y 8 , , 8 i y w i w , , - 9 g g ;                   = 5 ",
".               ; j v y 8 8 9 u a 7 a j f w 0 w g g 3 u j d w y f d 5 y g a w 0 u v d 2 5 d y 8 8 9 g b y +                   . ",
"              . 3 j v j g p y : o . + 5 h j f g 3 # . O 1 d h g 3 @ . . = y g h j g ; X X @ 2 i p g b h f =                     ",
"&               O $ 2 r y , O .       o : i 3 @         # e w 2 &         . $ r y +           + 3 w w : @                       ",
"a X                                       X .           # 4 > , & .           . .                                               ",
"5 .                                                     # > % 9 < .                                                             ",
".                                                     . 2 5 $ - #                                                               ",
"                                                        + < 5 1 $ .                                                             ",
"                                                        + # # 2 a ;                                                             ",
"                                                        # # o # ; &                                                             ",
"                                                        > 8 # # 1 q o                                                           ",
"        .                                             o q 8 % % * > # .                                                         ",
"  . .   .                       .   .               . o e 8 % 8 > % > +                                                         ",
".   .     .   .       .     .   X     .   .       X & # % 8 # # % % , 1 + .                                                     ",
"  .   . .   .   . .                           X # # & # # % # # % > & > > # X           .                   .       .           ",
".   .     .   .   .           .       X       . o o X X X X X X O # o . X X X                       .           .   .           ",
"  .   . .   .   .       . .                                                                 .             .                     "
};
