/* XPM */
static char *c18be5d82eb0474fae61324811d08a51lp4J4Nf5CVcTxWCs[] = {
/* columns rows colors chars-per-pixel */
"64 64 196 2 ",
"   c None",
".  c #110C0F",
"X  c #140C11",
"o  c #1B0E15",
"O  c #1E0F18",
"+  c #1F1016",
"@  c #220F1A",
"#  c #221217",
"$  c #26111D",
"%  c #29111F",
"&  c #2B191C",
"*  c #32161D",
"=  c #351A1F",
"-  c #3B191F",
";  c #2D1320",
":  c #331521",
">  c #391722",
",  c #331B21",
"<  c #3C1923",
"1  c #3B2125",
"2  c #441B25",
"3  c #4B1E26",
"4  c #4C1E28",
"5  c #4F2027",
"6  c #502027",
"7  c #542228",
"8  c #5C252A",
"9  c #5E282B",
"0  c #5C2C31",
"q  c #61272B",
"w  c #65292C",
"e  c #6B2B2E",
"r  c #702D2F",
"t  c #63302F",
"y  c #652A31",
"u  c #6D2B31",
"i  c #742E31",
"p  c #792F33",
"a  c #6D3130",
"s  c #723331",
"d  c #7C3333",
"f  c #7F3C36",
"g  c #754E43",
"h  c #7C5446",
"j  c #833335",
"k  c #8A3637",
"l  c #833B36",
"z  c #883E37",
"x  c #873438",
"c  c #8C3638",
"v  c #853F38",
"b  c #8D3C38",
"n  c #94393A",
"m  c #9C3C3D",
"M  c #90373A",
"N  c #A33E3E",
"B  c #854139",
"V  c #8C4139",
"C  c #94453C",
"Z  c #9A473D",
"A  c #9C4A3E",
"S  c #97493D",
"D  c #A7403F",
"F  c #A24D3F",
"G  c #A43F40",
"H  c #9E4F40",
"J  c #8B5849",
"K  c #9C5E4C",
"L  c #A64140",
"P  c #AB4241",
"I  c #A44E40",
"U  c #AC4943",
"Y  c #B44544",
"T  c #B94745",
"R  c #BD4946",
"E  c #BA4D48",
"W  c #B74D48",
"Q  c #A55142",
"!  c #AB5343",
"~  c #A95849",
"^  c #B15644",
"/  c #B45846",
"(  c #BA5B47",
")  c #B5534A",
"_  c #B55D4D",
"`  c #BC5D49",
"'  c #B45F50",
"]  c #8D624F",
"[  c #986753",
"{  c #85675B",
"}  c #B46351",
"|  c #BC6A56",
" . c #A6755B",
".. c #A9735A",
"X. c #BF7C5F",
"o. c #AA634D",
"O. c #997867",
"+. c #9A7B69",
"@. c #947766",
"#. c #A97D69",
"$. c #C14A47",
"%. c #C54B49",
"&. c #C94D49",
"*. c #C4534B",
"=. c #CC534B",
"-. c #C15F49",
";. c #C9584B",
":. c #D1574D",
">. c #D35C4E",
",. c #CE5B51",
"<. c #C65A50",
"1. c #C4624B",
"2. c #CB644D",
"3. c #CE684E",
"4. c #D2624E",
"5. c #D2694F",
"6. c #DB6451",
"7. c #D66C50",
"8. c #DB6D52",
"9. c #D46D5A",
"0. c #D86F5C",
"q. c #C8755C",
"w. c #DE7052",
"e. c #D5715C",
"r. c #D57A5E",
"t. c #CB6A58",
"y. c #E26C53",
"u. c #E37254",
"i. c #EA7556",
"p. c #ED7957",
"a. c #E6775C",
"s. c #E97659",
"d. c #E5785E",
"f. c #ED7B5A",
"g. c #F07C5A",
"h. c #C97D61",
"j. c #DC7B62",
"k. c #B48162",
"l. c #B8836A",
"z. c #A58671",
"x. c #AF8E76",
"c. c #AF9078",
"v. c #B9987D",
"b. c #AE8871",
"n. c #EE815D",
"m. c #C68D69",
"M. c #C98363",
"N. c #DE8366",
"B. c #DA8C68",
"V. c #CD946D",
"C. c #DC946E",
"Z. c #D3956E",
"A. c #D99B74",
"S. c #E38769",
"D. c #E48B6C",
"F. c #E28C66",
"G. c #F28A66",
"H. c #E4936E",
"J. c #E8946F",
"K. c #EC996E",
"L. c #F2936B",
"P. c #F29A6E",
"I. c #E39E73",
"U. c #E99C73",
"Y. c #E89876",
"T. c #F39B72",
"R. c #DDA074",
"E. c #E3A376",
"W. c #EBA276",
"Q. c #EDA57A",
"!. c #F4A475",
"~. c #F4A27B",
"^. c #F3AD7B",
"/. c #CCA888",
"(. c #C3A183",
"). c #D8A280",
"_. c #D7B08D",
"`. c #D6B391",
"'. c #DCB994",
"]. c #EDAA88",
"[. c #F5AD85",
"{. c #ECB38D",
"}. c #E3B58F",
"|. c #F6B28A",
" X c #F8B78E",
".X c #E0B791",
"XX c #F5BC93",
"oX c #F2BE98",
"OX c #E5C19A",
"+X c #F5C69E",
"@X c #F8C69B",
"#X c #F5CCA1",
"$X c #F9CEA2",
"%X c #FAD1A5",
"&X c #FAD6A9",
"*X c #F5D0A4",
/* pixels */
"                                                                                                                                ",
"                                                                                                                                ",
"                                                                                                                                ",
"                                                                                                                                ",
"x.                                                            O.(.                                                              ",
"#Xv.                                                        O.OX%X`.                                                            ",
"~.+Xv.                                                    O.OX XL.@X`.                                                        '.",
"f.|.*Xv.                                                O.OX@XG.p.L.%X`.                                                    '.%X",
"T.|. XXXz.                                              }.|.XX~.[.~.XX|./.                                                _.|.XX",
"&X%XL.G.).                                            c.T.g.@X&X%X&X|.g.].O.                                            z.~.g. X",
"%X%XXXL.~./.                                        c.{.L.[.%X#X%X$X@X~.L.}.O.                                        z.{.L.~.%X",
"J.Y.#XoXA.+.{                                       +.l.].#X|.S.Y.D.oX@X].#.O.                                        +.l.].+XoX",
"g.G.a.a.u.Q                                         l 7.a.d.d.g.f.g.d.d.i.1.t                                         s 3.a.d.a.",
"~.~.L.J.!.K.q.J                                   | F.!.L.L.!.^.!.[.P.L.K.K.r.K                                     o.N.!.U.L.P.",
"U.U.0.9.N.^.J.A. .                            ] Z.J.Q.W.0.9.S.U.H.W.j.9.q.W.H.H.k.h                             ] m.J.W.W.0.0.r.",
"e.H.,.:.H.W.>.j.A.g                           X.Y.;.D.W.9.<.j.S.,.D.t.E q.I.q.<.I.[                              .W.,.N.Q.0.=.0.",
"I.q.W.C.' h.Y.0.W.k.                        [ R.N.N.C.' h.W.M.Z.!.M.Z.Y.| | I.0.H.Z.                            R.N.j.A.} q.I.C.",
"| W _ ) $.E ~ ..A.Z.                        k.E.M.K ) $.W ' E ( q.W ) _ $.$.~ [ V.E.[                          .E.m.[ ) %.R ' ) ",
"R &.%.%.%.%.Y d                                 e D %.&.%.%.%.%.E %.%.%.&.%.%.m 0                                 0 D $.%.&.%.&.",
"%.=.&.%.%.=.&.R c                               D &.=.&.%.&.=.&.%.=.=.%.%.&.&.&.L                                 P %.=.&.%.%.=.",
">.y.>.&.>.y.6.&.Y                             m &.:.u.6.=.=.y.6.=.y.6.&.=.y.y.:.*.j                             c &.=.y.y.=.=.6.",
"5.A i.i.f.g.5.4.%.j                           U >.2.u.g.i.p./ / a.F 2.p.i.g.8.2.,.m                             D >.2.u.p.i.i.3.",
"8.2.5.V 2.2.r d 2.;.j                       U 6.Z e F u.C ^ w.3.p.1.8.F I u.z e ^ 4.m                         L 6.F e C u.A F u.",
"F V / q F F s l d 3.;.s                   U 6.H r l d -.w C F V 2.l ( d d ` s z e ^ 6.m                     L 6.! e k s 1.r z -.",
"Z 8 F z s 2.F Z q z 5.                    ` / 8 d F 2.C a / a d -.w v ! q ^ ( F e e 2.F                     / ` q s F 1.F w / f ",
"2.C F l f ! 8.V l q C                     S s s V ` 5.l d A Z ! 8.A F V d V u.F V w l B                     V d e b ! w.v d C F ",
"V 8.( / 5.3.8./ 1.l ^ ^                 B 1.f ^ ( 3.5.5.2.Q w.! s 1.3.! 5.2.w.` 1.Z V 1.                    2.l F ` 1.7.5.5.F 7.",
"8 v 1.V B 5.2.a B 7.u.u.V               1.p.8.^ 9 F u.Q s / F w q e ( A s ` w.V t 1.w.p./                 ` f.w.1.q S u./ s F ` ",
"q 9 8 q 8 e e 9 9 a f / B               ~ S s w 9 q a 9 q 8 8 q q q 9 9 q q a 9 q a s ~ H                 Q H s e 8 q a 9 q 9 8 ",
"q q w q q q q q w 8 3                     < 8 q q q q q q q q w w q q q q q q q q 9 7                         7 q q q q q q q q ",
"j q q q q q q q q q q 2                   7 q q q q q q q q q r m w q q q q q q q q q 5                     7 q q q q q q q q q ",
"R d 8 w w q q q q q 8 2                   8 q q q q q w e 8 e D %.m q q e q q q q q q 7                     7 q q q q q q e q q ",
"m N j N G r q x j e q 8                 6 q w p n r q n Y c m N k D k n D k w d n r q q 3                 5 8 q i n r q k Y c k ",
"w Y &.R T G n %.&.P d w 8             6 q e N %.%.N n R T %.$.p q n &.%.$.D n D &.R c w q 3             6 8 e n $.&.P n T T %.%.",
"q N T i e P %.%.N P T m u 3         2 q k Y G N $.%.$.p w N T u q d $.M w M &.&.Y N Y Y p 8             q j Y Y N T &.R j e n %.",
"q n N q q e G T r e j T Y p         8 N $.m r u m R p q q p Y y q s D r q q k %.j e i G $.n             m $.m i e c R j q w r $.",
"e Y N w x i p T n N q r n G         m N j q j N N N e k u x $.j q n $.p d j q D n G i w k N n         n N j w p G m G w j r d %.",
"Y $.$.m G Y G &.%.T r q 8 i P     m c q q w m $.%.D N R M Y %.T N R %.N n R N &.%.%.k q q w m n     m m q q q M &.&.$.G R n D %.",
"T w m %.&.&.G i Y &.G p i j P c N %.n i p M %.$.x j %.&.&.T y m &.j p $.&.&.D j m &.R x i p N &.n j R m i i c $.&.M p R &.&.$.r ",
"6 % > m $.x > @ 8 G j 3 4 u i m G j p 7 2 y G j % * r D T 7 % < w * ; r $.N 8 % > M m 8 2 8 p x G n u p 8 2 8 N x : % q P $.w % ",
"% % % > 4 % ; % % ; % % %     < : %   % % $ ; ; % % @ 2 4 % % % % % % % 6 > % % % ; ; % %     % > < %     % % ; ; % % % 2 4 % % ",
"% % % % % % % % % % % % %             % % % % % % % ; % % % % % % % % % % % % % % % % % % %             % % % % % % % % % % % % ",
"% % % % % % % % % % % % % % %     % % % % % % % % % % % % % % % % % % % % % % % % % % % % % % %     % % % % % % % % % % % % % % ",
"% % % % % % > ; % % % % % % % % ; ; % $ % % % % ; : ; % % % % % % ; % ; % % ; > % % % % % % % % % ; % % % % % % % % > % % % % % ",
"; 6 2 ; % < 8 7 % % % : 2 > % % % % : 4 > ; % % 2 q 3 % % > 7 > % 2 7 ; % ; 7 8 > % % % 2 2 % % % % ; ; 2 > % % % 2 8 6 ; % > 7 ",
"7 7 7 4 < 7 4 7 4 > < 8 q 7 > % : 2 6 8 8 2 : 2 7 3 7 3 > 7 5 8 4 7 6 6 > 7 6 4 7 > : 7 q 7 4 2 ; % : 3 8 q 4 : < 7 4 7 6 > 7 4 ",
"q : > 8 8 < % ; 6 8 6 7 4 % > < 2 2 ; > 8 6 7 8 : % : 7 q 5 % 7 w 2 ; 7 q 4 % % 2 q 7 7 7 : : 2 3 < : : > 8 7 7 8 2 % % 6 q 6 % ",
"8 4 ; 7 7 ; % % : 6 > > 2 2 8 > % % % : 2 ; 6 < % % % 3 8 : < 7 8 7 > 2 q > % % ; 2 2 ; 4 ; % % % 2 8 : : 2 % 4 < % % % 2 q < > ",
"2 q 7 7 8 2 ; % : 7 5 2 3 7 8 : ; ; ; 7 3 2 8 < ; ; : 8 8 7 q 5 : 8 8 7 q 6 : % % 3 8 2 7 3 ; % % < q 3 3 3 2 8 < % % : 7 8 7 8 ",
"6 7 4   3 7 7 3 7 q 7 > 3 q 8 3 > 2 4 4 : 3 8 8 5 5 7 3   2 7 7 3 7 6     3 7 5 6 8 7 2   3 3 < < 3 q q 3   3 8 8 6 6 7 6   2 6 ",
"3 %         2 8 8 3     2 3 7 8 7 2 2 2     2 7 8 4         , 5 7 =           7 8 7         < 2 7 8 7 3         7 8 6         & ",
"% &                                                         & < # %                                                             ",
"* =                                                         # # $ <                                                           o ",
"$ $                                                         - # o %                                                           : ",
"= *                                                         # * - &                                                           o ",
"& 2                                                         o . + - 5                                                         o ",
". $ %                                                       X X . + &                                                         o ",
"X & 1                                                       , ; X + < &                                                       $ ",
"# $ o #                                                     1 O # @ % +                                                       1 ",
"# % o ,                                                   # , $ o @ o $ 1                                                   # , ",
"X o O $ , #                                             # X o ; X X # O & %                                               # X X ",
"O ; ; o X o @                                       O o X o X X o @ ; $ X o #                                         O + . o X ",
"                                                                                                                                ",
"                                                                                                                                "
};
