/* XPM */
static char *d2FsbF93ZXN0[] = {
/* columns rows colors chars-per-pixel */
"64 64 4 1 ",
"  c black",
". c #8A6F30",
"X c #A9A3A3",
"o c None",
/* pixels */
"X XXX XXXXXXXXXXXX                                              ",
"XX  X XXXXXXX                                                   ",
"XXXX  XXXX.                                                     ",
"XXXXXXXXXX                                                      ",
"XXXXXXXXXX                                                      ",
"XXXXXXXXXX                                                      ",
"XXXXX XXX                                                       ",
"XX XX XX                                                        ",
"XX XX XX                                                        ",
"XX XX XXXX                                                      ",
"XXX XX X                                                        ",
"XXX XX X                                                        ",
"XXX XX                                                          ",
"XXXX   X                                                        ",
"XXX    X                                                        ",
"XXX     X                                                       ",
"XXX    XX                                                       ",
"XXX   XXX                                                       ",
"XXX   XXX                                                       ",
"XXX  XXXX                                                       ",
"XX XXXXXXXXX                                                    ",
"XX  XXXXX                                                       ",
"XXXXXXXXX                                                       ",
"XXXXXXXXXXX                                                     ",
"XXXXXXXXXXX                                                     ",
"XXXXXXXXXX                                                      ",
"XXX X XXXX                                                      ",
"XXXXX XXXX                                                      ",
"XXXXX XXXXXX                                                    ",
"XXXXX XX                                                        ",
"XXXXX XX                                                        ",
"XXXXX XX                                                        ",
"XXX X XX  o                                                     ",
"XXXXXXXXXX                                                      ",
"XXX XXXXXXX                                                     ",
"XXX XXXXXXXX                                                    ",
"XXX XXXXXXXX                                                    ",
"XXXXXXXXXXXX                                                    ",
"XXXXX XXX  XX                                                   ",
"XXXXXXXX    X                                                   ",
"XXXXXXXX    X                                                   ",
"XXXXXXXX    X                                                   ",
"XXXXXXXX   XX                                                   ",
"XXX XXXXXX  X                                                   ",
"XXX X XXXXX  o                                                  ",
"XXX X XX X                                                      ",
"X X X X  X                                                      ",
"X X X X  X                                                      ",
"X   X X  X                                                      ",
"XX  X X X   X                                                   ",
"XX  X X X   X                                                   ",
"XXXX  X X   X                                                   ",
"XXXX  X X   X                                                   ",
"XXXX    X   X                                                   ",
"XX    X X                                                       ",
"XX X  XX X                                                      ",
"XXX X XX                                                        ",
"XXX X XXX                                                       ",
"XXX XXXXX   X                                                   ",
"XXXXXXXXXX  XXXX                                                ",
"XXXXX XXXXX   XX                                                ",
"XXXXXXXXXXXX   XX                                               ",
"XXXXXXXXXXXXX   X                                               ",
"XXXXXXXXXXXXXXXXXXXX                                            "
};
