/* XPM */
static char *d2FsbF9iX2Rvd25fbGVmdHQ_[] = {
/* columns rows colors chars-per-pixel */
"64 64 90 1 ",
"  c black",
". c #010000",
"X c #000100",
"o c #010101",
"O c #030000",
"+ c #020100",
"@ c #020001",
"# c #000201",
"$ c #030200",
"% c #030102",
"& c #020202",
"* c gray1",
"= c #040000",
"- c #050100",
"; c #040301",
": c #060201",
"> c #070302",
", c #020403",
"< c #050402",
"1 c #050304",
"2 c #040404",
"3 c gray2",
"4 c #070604",
"5 c #070506",
"6 c #070707",
"7 c #080705",
"8 c #090806",
"9 c #0A0907",
"0 c #0C0807",
"q c gray3",
"w c #090909",
"e c #0B0B0B",
"r c #0C0C0C",
"t c #9D9B9C",
"y c #9E9C9D",
"u c #A09C9B",
"i c #A49B9C",
"p c #A09F9D",
"a c #A29E9D",
"s c #A39F9E",
"d c #A69D9E",
"f c #A49E9E",
"g c #A59F9F",
"h c #A79E9F",
"j c #A4A09F",
"k c #A89FA0",
"l c #A3A2A0",
"z c #A3A1A2",
"x c #A5A1A0",
"c c #A6A0A0",
"v c #A7A1A1",
"b c #A4A3A1",
"n c #A6A2A1",
"m c #A7A3A2",
"M c #A5A4A2",
"N c #A6A5A3",
"B c #A5A3A4",
"V c #A4A4A4",
"C c #A5A5A5",
"Z c #A6A4A5",
"A c #A7A5A6",
"S c #A7A7A7",
"D c #A9A0A1",
"F c #AAA1A2",
"G c #A8A2A2",
"H c #A9A3A3",
"J c #ABA2A3",
"K c #A8A4A3",
"L c #A9A5A4",
"P c #AAA4A4",
"I c #AAA6A5",
"U c #A8A6A7",
"Y c #ABA7A6",
"T c #ADA4A5",
"R c #AEA5A6",
"E c #ACA6A6",
"W c #ADA7A7",
"Q c #A9A8A6",
"! c #AAA9A7",
"~ c #A9A9A9",
"^ c #AAAAAA",
"/ c #ADA9A8",
"( c #AEA8A8",
") c #AFA9A9",
"_ c #AFABAA",
"` c #B0A7A8",
"' c #B1A8A9",
"] c #B0AAAA",
"[ c #B1ABAB",
"{ c #B1ADAC",
/* pixels */
"                                                , 2   USIcD(DRJD",
"                                                  2q6CyzII(f(DDD",
"                                                , 6  25 aIDakJkR",
"                                                 , ^  1a: :]k`Ji",
"                                                 22CSC: KKkIcfJ)",
"                                                 r <2   : )I:]ck",
"                                                r q 2 1Cc!ac]ckU",
"                                                 q   ~ BNRIlkclJ",
"                                                         N!KfKKK",
"                                                       :  u:]j{j",
"                                                        : !QNc:K",
"                                                           jN 9:",
"                                                         9: QN :",
"                                                            <   ",
"                                                        <::9 7 <",
"                                                          7 9 : ",
"                                                                ",
"                                                                ",
"                                                                ",
"                                                                ",
"                                                                ",
"                                                                ",
"                                                                ",
"                                                                ",
"                                                                ",
"                                                                ",
"                                                                ",
"                                                                ",
"                                                                ",
"                                                                ",
"                                                                ",
"                                                                ",
"                                                                ",
"                                                                ",
"                                                                ",
"                                                                ",
"                                                                ",
"                                                                ",
"                                                                ",
"                                                                ",
"                                                                ",
"                                                                ",
"                                                                ",
"                                                                ",
"                                                                ",
"                                                                ",
"                                                                ",
"                                                                ",
"                                                                ",
"                                                                ",
"                                                                ",
"                                                                ",
"                                                                ",
"                                                                ",
"                                                                ",
"                                                                ",
"                                                                ",
"                                                                ",
"                                                                ",
"                                                                ",
"                                                                ",
"                                                                ",
"                                                                ",
"                                                                "
};
