/* XPM */
static char *result[] = {
/* columns rows colors chars-per-pixel */
"64 64 4 1 ",
"  c black",
". c #8A6F30",
"X c #A9A3A3",
"o c None",
/* pixels */
"XXXXXXXXXXXXXXXXXXXXXXXXXXXXXXXXXXXXXXXXXXXXXXXXXXXXXXXXXXXXXXXX",
" XXXXXXXXXXXXXXXXXXXXXXXXXXXXXXXXXXXXXXXXXXXXX   XXXXXXXXXXXXXXX",
"X XXXXX   XXXXXXXXXX  XXXXXXXXXXXXXXXXXXXXXXXXXX   XXX  XXXXXXXX",
"X XXXXXXXX   X      X XXXX XXXXX X   XXXXXX        XXX X   XXXXX",
"XX XXXXXXXXXX       XXXXXXXXXXXXXXXXXXXXXXXXXXXXXXX     XXXXXXXX",
"   XX     XXX      XXXXXXX       XXXXX XXXXX              XX XXX",
"XXXXXXXXXX       XXXXXXXXXXXXXXXXXXXXXXXXXXXXXXXXXXXX XXXXXXXXXX",
"XX XXXXXXXXX XX XXXXXXXXXXXXXXXXXXXXXXXXXXXXXX         XXXXXXXXX",
"XXXXXXX  X     XXXXXXXXXXXXXX    XXXXXX    XX    XXXXXX  XXXXXXX",
"XXXXXX   X          X  XXXXXX    XXXXX     XXXXXX      X    XXXX",
"XX.                 X  XX   X   o XXXX      X                  X",
"                    X       X      XXXX   X                     ",
"                                      XXXXXX     XXXXX          ",
"                                            o                   ",
"                                                                ",
"                                                                ",
"                                                                ",
"                                                                ",
"                                                                ",
"                                                                ",
"                                                                ",
"                                                                ",
"                                                                ",
"                                                                ",
"                                                                ",
"                                                                ",
"                                                                ",
"                                                                ",
"                                                                ",
"                                                                ",
"                                                                ",
"                                                                ",
"                                                                ",
"                                                                ",
"                                                                ",
"                                                                ",
"                                                                ",
"                                                                ",
"                                                                ",
"                                                                ",
"                                                                ",
"                                                                ",
"                                                                ",
"                                                                ",
"                                                                ",
"                                                                ",
"                                                                ",
"                                                                ",
"                                                                ",
"                                                                ",
"                                                                ",
"                                                                ",
"                                                                ",
"                                                                ",
"                                                                ",
"                                                                ",
"                                                                ",
"                                                                ",
"                                                                ",
"                                                                ",
"                                                                ",
"                                                                ",
"                                                                ",
"                                                                "
};
