/* XPM */
static char *d2FsbF9zb3V0aA__[] = {
/* columns rows colors chars-per-pixel */
"64 64 4 1 ",
"  c black",
". c #8A6F30",
"X c #A9A3A3",
"o c None",
/* pixels */
"                                                                ",
"                                                                ",
"                                                                ",
"                                                                ",
"                                                                ",
"                                                                ",
"                                                                ",
"                                                                ",
"                                                                ",
"                                                                ",
"                                                                ",
"                                                                ",
"                                                                ",
"                                                                ",
"                                                                ",
"                                                                ",
"                                                                ",
"                                                                ",
"                                                                ",
"                                                                ",
"                                                                ",
"                                                                ",
"                                                                ",
"                                                                ",
"                                                                ",
"                                                                ",
"                                                                ",
"                                                                ",
"                                                                ",
"                                                                ",
"                                                                ",
"                                                                ",
"                                                                ",
"                                                                ",
"                                                                ",
"                                                                ",
"                                                                ",
"                                                                ",
"                                                                ",
"                                                                ",
"                                                                ",
"                                                                ",
"                                                                ",
"                                                                ",
"                                                               X",
"                                                               X",
"X                                                              X",
"X                                                            XXX",
"X                                                          XXX X",
"X                                                          XX  X",
"X                                           o              X   X",
"XX                                    XXXXXX     XXXXX    XX  XX",
"XX                  X       X      XXXX   X                  XXX",
"XX.                 X  XX   X   o XXXX      X               XXXX",
"XXXXXX   X          X  XXXXXX    XXXXX     XXXXXX      X   XXXXX",
"XXXXXXX  X     XXXXXXXXXXXXXX    XXXXXX    XX    XXXXXX  XXXXXXX",
"XXXXXXXXXXXX XX XXXXXXXXXXXXXXXXXXXXXXXXXXXXXX         XXXXXXXXX",
"XXXXXXXXXX       XXXXXXXXXXXXXXXXXXXXXXXXXXXXXXXXXXXX XXXXXXXXXX",
"   XXX    XXX      XXXXXXX       XXXXX XXXXX              XX XXX",
"XX XXXXXXXXXX       XXXXXXXXXXXXXXXXXXXXXXXXXXXXXXX     XXXXXXXX",
"X XXXXXXXX   X      X XXXX XXXXX X   XXXXXX        XXX X   XXXXX",
"X XXXXX   XXXXXXXXXX  XXXXXXXXXXXXXXXXXXXXXXXXXX   XXX  XXXXXXXX",
" XXXXXXXXXXXXXXXXXXXXXXXXXXXXXXXXXXXXXXXXXXXXX   XXXXXXXXXXXXXXX",
"XXXXXXXXXXXXXXXXXXXXXXXXXXXXXXXXXXXXXXXXXXXXXXXXXXXXXXXXXXXXXXXX"
};
