/* XPM */
static char *c7383d5f8fbf40ebbffef48d3abe900ex8KJj1n4BB9epvbD[] = {
/* columns rows colors chars-per-pixel */
"64 64 9 1 ",
"  c #29111F",
". c #843543",
"X c #C74C49",
"o c #ED4C40",
"O c #EF7A58",
"+ c #FF9757",
"@ c #A9A3A3",
"# c #F4B480",
"$ c #FFE8B4",
/* pixels */
"@@@@@@@@@@@@@@@@@@@@@@@@@@@@@@@@@@@@@@@@@@@@@@@@@@@@@@@@@@@@@@@@",
"@@@@X@X@@@@@@X@.@@@.@@....@@@@@@@@@X@.@@@.@@....@@@@@@@@@@@@@@@@",
"@@@XXXXX@@@@@@@@@@@@@@@@.@@@@@@@@@@@@@@@@@@@@@.@@@@....@@@@@@@@@",
"@@@@X$X@@@@X@@@@@@@@@@+@.@@@@@@@@X@@@@@@@@@@+@.@@..####..@@@@@@@",
"@@@XXXXX@@@@X@@@o@@@@+@@.@@...@@@@X@@@o@@@@+@@.@.##OOOO##.@@@@@@",
"@@@@X X@@@@@XX@o@@X@@.@@.@.XO#.@@@XX@o@@X@@.@@.@.OOOXXOOO.@@@@@@",
"@@@@@ @@@@@@X@@o@@@X@...@O.....@@@X@@o@@@X@+@@@O.OXXXXXXO.@@@@@@",
"@@@@@  @@@@@@@@@@@@@.#OX.@@@.@@@@@@@@@@@@@@@@@@@@........@@@@@@@",
"@@@@ O@@@O@@@@@@@@@@.....@@@.@@@@@@@@@@@@@@@@@@@@@@....@@@@@@@@@",
"@@.@@ O@XO@@@@@@@@@@@@.@@@X@.@@@@@@@@@X@X@@@@@@@@@@....@@@@@.#OX",
"@@.@@.OXO@@@@@@@@@@@@@.@@@X@.@@@@@@@@XXXXX@@@O@@@O@.XX.@@@@@....",
"@@@@@@@O@@.@@@@@@@@.@@.X@.@@.@@@@@@@@@X$X@@@@@O@@O@.XX.@@@@@@@.@",
"@@@@@X@O@.@@O@@@@X@.@@.X@.@@.O@.@@@@@XXXXX@@@@O@O@@.OO.@@@@@@@.@",
"@@@@@@XO.@@@@O@O@@X@.@@@X@@@@O@@@@@@@@X X@@@@@@O@@..OO.@@@@.@@.X",
"@@@@@@@@@@@@@O@O@@X@@.@@@@@@@@@@@O@@@@@ @@@@@X@O@.@.OO.@@X@.@@.X",
"@@@@@@@@@@@@@@O@@@X@.@@@@@.@@@@@O$O@@@@  @@@@@XO.@@@@O@O@@X@.@@@",
"@@@@@@@@@@@@@@O@@@X@.@@@@@@.@@@@@O @@@  @@@@@@@@@@@@@O@O@@X@@.@@",
"@@@@@@....@@@@@@@@@@@@@@@X@.@@.@X@@ @@@ @@@@@@@@@@@@@@O@@@X@.@@@",
"@@@@..####..@@@@@XX@@@@@@@@@@@@@@@@@@@@@@@@@@@X@X@@@@@O@@@X@.@@@",
"@@@.##OOOO##.@@@@XX@@@@@@@@@@@@@@@@@@@@@@@@@@XXXXX@@@@@@@@@@@@@@",
"@@@.OOOXXOOO.@@XX$$XX@@@@@@@.$.@@@@@@@@@@@@@@@X$X@@@@@@@@@@@@@@@",
"@@@.OXXXXXXO.@@XX$$XX@@@@@@@$$$@@@@@@@@@@@@@@XXXXX@@@@@@@@@@@@@@",
"@@@@........@@@@@XX @@@@@@@@.$.@@@@@@@@@@@@@@@X X@@@@@@@@@@@@@@@",
"@@@@@@....@@@@@@@XX@  @@@@@ @@@@@@@@@@@@@O@@@@@ @@@@@@@@@@@@@@@@",
"@@@@@@....@@@@@@@@@  @@@@@ @ @@@O@@@@X@@O$O@@@@  @@@@@@@@@@@@@@@",
"@@@@@@.XX.@@@@@@@@@@ @@@ @ @@@@@@O@O...@@O .@@  @@@@@@@@@@@@@@@@",
"@@@@@@.XX.@@@@@@@@@@@ @@@ @@@@@@@O@.XO#.@.@ .@@ @@X@@@@@@@@@@@@@",
"@@@@@@.OO.@@@@@@@@@X@  @@ @.@@...@O......@X@.@@.@X@@@.@@@@@@@@@@",
"@@@@@@.OO.@@@@@@@X@@X @.@ .@@.#OX.O@@.X@.@@@@@@@@@@@@@.@@@@@X@@@",
"@@@X@@.OO.@@@@@@@@@@X@.@@@.@@.....@@@.@@@@@@@@@@@@@@X@.@@.@X@@@@",
"@@X@@@@@@@@@@@@@@@@@@@@@@@@@@@@.@@@@@.@@@@@@@@@X@@@@@@@@@@@@@@@@",
"@@@@X@@@@@@+@@@@@@X@@@@@@@@@@+@.@@@@@.@@@@....@X@@@@@@@@@@@@@@@@",
"@@@.@@@.@@+@@@@@@@@X@@@o@@@@+@@.@@.@@.@@..####..@O@@ @@@O@@@@X@@",
"@@@@@@@@@@@@@@@@+@@X@@o@@X@@.@@.@@.@@.@.##OOOO##.@O@@@@@@O@O...@",
"@@@@@@@@@@@...@@@+@X@@oX@XX@+@@@O@@@O@@.OOOXXOOO.@O@@@@@@O@.XO#.",
"@@@@@@@@@@.XO#.@@@@@@@XXXXX@@@@@@O@@O@@.OXXXXXXO.@@@@@...@O.....",
"@@@@@...@@.....@@@@@@@@X$X@@@@@@@O@O@@@@........@@@@@.#OX.O@@.X@",
"@@@@.#OX.@@@.@@@@@@@@@XXXXX@@@@@@@O@@.@@@@....@@@@@@@.....@@@.@@",
"@@@@.....@@@.X@@@@@@@@@X X@@@@@@X@O@.@@@@@....@@@@@@@@@.@@@@@.@@",
"@@@@@@.@@X@@.X@@@@OO@@@@ @@@@@@@@XO.@@@@@@.XX.@@@@@@@+@.@@@@@.@@",
"@@@@@@.@@@X@X@@O@O$OO@O@  @@@@@@@@@@@@@@@@.XX.@@@@@@+@@.@@.@@.@@",
"@@@@@@.@@.X@X@@@@@O O@O  X@@.@@@@@@@@XX@@@.OO.@@@@@@.@@.@@.@@.@@",
"@@@.@@..@.@X.@@O@@@@ O@@ X@.@@@@@@@@@XX@@@.OO.@@@@@@+@@@O@@@O@@@",
"@@@@@@@@@@@@@@@O@@@@@O@@@X@.@@@@@@@XX$$XX@.OO.@@.$.@@@@@@O@@O@@@",
"@@@@@@@@@@@@@@@@@@@@@@@@@@@@@@@@@@@XX$$XX@@@@@@@$$$@@@@@@@@@@@@@",
"@@@@@@@@@@@@@@XX@@@@@@@@@@@@@@@@@@@X@XX @@@@@@@@.$.@@@@@@@@@@@@@",
"@@@@@@@@@@@@@@XX@@@@@@@@@@@@@@@@@@@@@XX@  @@@@@ @@@@@@@@@@@@@O@@",
"@@@@@@@@@@@@XX$$XX@@@@@@@.$.@@@@@@@@@@@  @@@@@ @ @@@O@@@@X@@O$O@",
"@@@@@@@@@@@@XX$$XX@@@@@@@$$$@@@@@@@@@@@@ @@@ @ @@@@@@O@O...@@O @",
"@@@@@@@@@@@@@@XX @@@@@@@@.$.@@@@@@@@@@@@@ @@@ @@@@@@@O@.XO#.@.@@",
"@@@@@@@@@@@@@@XX@  @@@@@ @@@@@@@.@@@@@@X@  @@ @.@@...@O......@X@",
"@@@@X@X@@@@@@@@@  @@@@@ @ @@@@@@.@@@@X@@X @.@ .@@.#OX.O@@.X@.@@@",
"@@@XXXXX@@@@@@@@@ @@@ @ @@@@@@@@@@@@@@@@X@.@@@.@@.....@@@.@@@@@@",
"@@@@X$X@@@@@@@@@@X @@@ @@@@@+@@X@@@@@@@@@@@@@@@@@@@.@@@@@.@@@@@@",
"@@@XXXXX@.@@@@@@@@X @@o@@@@+@X@@@@@@@@X@@@@@@@@@@+@.@@@@@.@@@@@@",
"@@@@X X@@@@@+@@+@@X@@o @X@@+XXX@@@@@@@@X@@@o@@@@+@@.@@.@@.@@.@@@",
"@@@@@ @@@@@+@@X@+@X@.o@..X.+@XX@.@@@+@@XX@o@@X@@.@@.@@.@@.@@.@@@",
"@@@@@  @@@@@@@@@@@@@@@@@@.@XX$$X.@@@@+@X@@o@@@X@+@@@O@@@O@@@@.@@",
"@.@@  @@@@@@X@@@@@@@@@@+@.@XX$$XX@@@@@@@@@@@@@@@@@@@@O@@O@@@@@@@",
"@ .@@ @@X@@@@X@@@o@@@@+@@.@@@XX @@@@@@@@@@@@@@@@@@@@@O@O@@@@@@@@",
"@@.@@.@X@@@@@XX@o@@X@@.@@.@@@XX@  @@@@@@@@@@@@@@@@@@@@O@@.@@@@@@",
"@@@@@@@@@@@@@X@@o@@@X@+@@@O@@@@  @@@@@@@@@@@@@@@@@@@X@O@.@@@@@@@",
"@@@@@@@@@@@@@@@@@@@@@@@@@@@@@@@@@@@@@@@@@@@@@@@@@@@@@XO.@@@@@@@@",
"@@@@@@@@@@@@@@@@@@@@@@@@@@@@@@@@@@@@@@@@@@@@@@@@@@@@@@@@@@@@@@@@"
};
