/* XPM */
static char *_d9bee80b9cf48aaad330a445b7f4403RNBulnTsQaZJxFGC[] = {
/* columns rows colors chars-per-pixel */
"64 64 235 2 ",
"   c #180B0A",
".  c #1C0C14",
"X  c #170612",
"o  c #1C1313",
"O  c #121013",
"+  c #13120B",
"@  c #230B0E",
"#  c #260609",
"$  c #320501",
"%  c #3B0201",
"&  c #330B09",
"*  c #23120D",
"=  c #280C15",
"-  c #231217",
";  c #380911",
":  c #171A21",
">  c #251822",
",  c #490000",
"<  c #5C3E3A",
"1  c #793629",
"2  c #6C3B34",
"3  c #6D3C3B",
"4  c #653D3D",
"5  c #793534",
"6  c #753C33",
"7  c #7C3B35",
"8  c #74353D",
"9  c #7B343D",
"0  c #743C3C",
"q  c #7B3C3A",
"w  c #763136",
"e  c #5D453A",
"r  c #6A423C",
"t  c #67463A",
"y  c #74423C",
"u  c #76442C",
"i  c #593D44",
"p  c #613D43",
"a  c #693E45",
"s  c #733C43",
"d  c #7B3C42",
"f  c #7A3646",
"g  c #5C4446",
"h  c #574646",
"j  c #5D4350",
"k  c #644443",
"l  c #6C4143",
"z  c #644944",
"x  c #65444A",
"c  c #6B4648",
"v  c #724449",
"b  c #754445",
"n  c #664B51",
"m  c #765256",
"M  c #7E6868",
"N  c #88362C",
"B  c #892C3A",
"V  c #823632",
"C  c #82343C",
"Z  c #8B363A",
"A  c #812C29",
"S  c #804036",
"D  c #BA4E3B",
"F  c #C2533B",
"G  c #C0552B",
"H  c #873645",
"J  c #8A2E43",
"K  c #8A5C5A",
"L  c #9B5D51",
"P  c #975B5B",
"I  c #935349",
"U  c #BA4D46",
"Y  c #A4584B",
"T  c #B95447",
"R  c #B74D5C",
"E  c #A35B54",
"W  c #AA5857",
"Q  c #B65657",
"!  c #AF4D47",
"~  c #8E625D",
"^  c #85665C",
"/  c #976458",
"(  c #9B624E",
")  c #A5624C",
"_  c #A66259",
"`  c #895E64",
"'  c #935E62",
"]  c #9B5F64",
"[  c #A85A65",
"{  c #B15364",
"}  c #876667",
"|  c #936463",
" . c #956868",
".. c #8E7167",
"X. c #976A71",
"o. c #8D6C74",
"O. c #A66668",
"+. c #B76466",
"@. c #C14D4A",
"#. c #C55548",
"$. c #DC7E5C",
"%. c #E87C5F",
"&. c #D77C6F",
"*. c #E87A65",
"=. c #E47B7A",
"-. c #F37C66",
";. c #B98B79",
":. c #BB9179",
">. c #DD815A",
",. c #E7835B",
"<. c #C6897A",
"1. c #D58776",
"2. c #DD8863",
"3. c #E68479",
"4. c #EB876B",
"5. c #CB7D87",
"6. c #E27C91",
"7. c #9C8186",
"8. c #9E9D9C",
"9. c #9B9693",
"0. c #AA8888",
"q. c #B88B87",
"w. c #AA988B",
"e. c #BC948C",
"r. c #BE9C8D",
"t. c #B59689",
"y. c #AC9B95",
"u. c #A49D9C",
"i. c #AC9D9C",
"p. c #A89896",
"a. c #B49593",
"s. c #BC9494",
"d. c #B49C95",
"f. c #BB9B94",
"g. c #B39599",
"h. c #BD959B",
"j. c #B39D9C",
"k. c #BB9C9C",
"l. c #AF8C90",
"z. c #9DA49D",
"x. c #A6A395",
"c. c #ACA196",
"v. c #A4A39D",
"b. c #ACA39D",
"n. c #ACA99E",
"m. c #A6A89D",
"M. c #B3A294",
"N. c #BBA194",
"B. c #B4A29C",
"V. c #BBA29C",
"C. c #B2A99D",
"Z. c #B9AB9C",
"A. c #B6A18D",
"S. c #9E9EA0",
"D. c #A49DA3",
"F. c #AB9DA3",
"G. c #A69EAA",
"H. c #AD9FAA",
"J. c #B596A3",
"K. c #BB97A2",
"L. c #B39DA2",
"P. c #BC9CA3",
"I. c #B49EA9",
"U. c #BA9DAB",
"Y. c #9EA6A4",
"T. c #A6A4A3",
"R. c #ABA4A4",
"E. c #A5A9A4",
"W. c #ABAAA4",
"Q. c #A6A4AA",
"!. c #ABA4AA",
"~. c #A5AAAC",
"^. c #ACAAAB",
"/. c #B3A3A3",
"(. c #BBA3A4",
"). c #B2A9A5",
"_. c #B9ABA6",
"`. c #B2A4AA",
"'. c #BBA4AB",
"]. c #B3AAAA",
"[. c #BAA9A9",
"{. c #ACABB1",
"}. c #AFA6B1",
"|. c #B4AAB2",
" X c #B7A6B2",
".X c #B0B0AD",
"XX c #C88987",
"oX c #D58885",
"OX c #C4948B",
"+X c #CB948A",
"@X c #C89889",
"#X c #D49789",
"$X c #C88D93",
"%X c #C39494",
"&X c #CC9494",
"*X c #C39C95",
"=X c #CA9A93",
"-X c #C4949A",
";X c #CC949B",
":X c #C49B9C",
">X c #CA9B9B",
",X c #D59898",
"<X c #D28F96",
"1X c #E48C8B",
"2X c #E28E9A",
"3X c #EB9892",
"4X c #C4A28D",
"5X c #C3A39C",
"6X c #C7A397",
"7X c #D0A09E",
"8X c #F8AC8B",
"9X c #E9A896",
"0X c #FCAD9A",
"qX c #FBB497",
"wX c #F2B08E",
"eX c #C296A0",
"rX c #C39CA2",
"tX c #CA9CA3",
"yX c #C59CA7",
"uX c #D097A0",
"iX c #C2A3A3",
"pX c #C2A4AA",
"aX c #C7A8A8",
"sX c #C8B3AD",
"dX c #F3A9AA",
"fX c #EEAFB0",
"gX c #FFD6BE",
"hX c #FFCDB8",
"jX c #FFCBC9",
"kX c #FFD5C5",
"lX c #FEDAC8",
"zX c #F7DED4",
"xX c #FCE2CE",
"cX c #FFE3DC",
"vX c #FDE8DA",
/* pixels */
"R.R./.R.R.Q.T.R.R.R.R.R.R.R.b.R.W.v.m.n.j.(.R.R.z.Y.m.W.T.T.W.T.b.R.(.F.I.I.D.^.T./.c.c.).u.R.!.R./.R.R.R.R.T.T.R.R.R.R.R.R.R.R.",
"R.R.R.R.W.Q.T.Q.R.R.R.R.R.R.n.R.R.E.E.R.L.i.i.).W.W.W.m.u.Q.T.R.).R.R./.`.`.!.R.`./.v.W.R.b.^.!.R.H.R.R.R.R.R.R.R.T.R.E.T.R.Q.R.",
"R.R.R.T.T.R.R.R.R.R./.R.R.R.R.R.v.^.Q.R.R.`.(.k.< /.L.`.`.`./.R.(./.R.R.8.Q.|.G.L.L.).T.u..XQ.Q.R.R.R.R.!.R.R.R.R.R.R.R.R.R.R.R.",
"R.R.T.R.R.R.R.R.R.R.!././.R.R.R.^.u.R.R.R./.k.h.c rXK.eXyXK.J.(.k.m _.B.`.`.D.`.L.L.L.R.R.~.Y.{.Q.R.R.R.R.R.R.R.R.Q.R.R.T.R.R.R.",
"Q.R.T.R.W.R.R.B.B.R.R.H.H.R.`.!.v.].j.:X>X5XV.V.< >X$Xd 9 v P./.d.iX' $X-Xk...f.B.5Xs.aX/.T.Q.u.T.T.R.R.R.R.R.R.!.R.R.R.R.R.T.W.",
"R.Q.R.R.R.R.R.R.R.R./.R.!.H.H.R.E.i.} %X,X2 7Xt.b e.q O.5.fXk B.C.d.] [ >X| 5XN.^ f.>X4 L.R.R.].T.T.T.T.R.T.R.R.R.R./.R.R.R.T.R.",
"Q.Q.R.R.R.R.b.b.F.R.R.R.!.R.!.!.R.b.j. .s.0 C 7 +X;.y 2 s a z y.c._.' uX;X .M.M.N.^ iXsXu.R.F.F.W.T.R.T.R.R.R.R./.R.R.R.R.R.R.Q.",
"E.R.R.R.b.R./.R.b.R.R.R.R.Q.!.!.n.R./.k.l fX5.E 6 6Xf.:Xa s.iXB.v.B.rXeXeX:XZ.M.d.iXj.i.`.R.R.^.T.E.E.n.R.R.R.R.H.R.R.R.T.R.R.R.",
"R.R.R.R.R./.R.R.R.W.E.E.T.Q.R.!.H.F.T.(.l s s s 4 k.d.N.l tXL.R.).u.'.`.F.P.V.f.V.V.(.i.R.b.W.m.E.R.R.i.R.T.R./.R.R.R.H.R.!.R.T.",
"R.R.R.R.R.R.b.T.T.v.W.v.R.v.R.R.F.|.F.B.s.tXs rX(.i...k.p eX'.R.T.R.Q.R.`.k.| =X~ r.k.L.[.).w.m.v.W.].R./.R.R.R.R./.R.R.R.R.R.Q.",
"R.R.R.R./.R.R.R.E.v.W.v.W.b.B.b.[.F.F.).P.-Xf <X:Xd.X.K.f yXi.R.R.^.Y.!.iXP E Y Q W s.V.j.0.Z.M./.b.u.).R.b./.T.T.R.R.R.R.!.Q.R.",
"R.R.R./.F.R.!.R.T.E.m.E.y.B.B.V.j.i.'.g (.(.8 ] &Xa K.yXf uX(.b.Q.Q.Q.Q.h.,XY lX! 1X*Xd./.B.d.a.(.i././.i.R.T.R.R.R.R.!.R.R.!.R.",
"T.R.R.R.R.R.!.R.T.R.m.b.y.M.f.f.(.} %Xv y.y.v ] ;Xv M.k.H XXk.h /.!.!.!.'.' W ! Q W :XR.Q.b.0.>Xl.pX/.L.(.F.R.R.R.T.R.Q.Q.R.R.`.",
"T.R.R.R.H.!.R.!.T.n.R.i.M.e.OXOXf.:X| ,Xt j.iXh.` h.y.B.;X$Xj./.j./.F.i.L.k.P , W ,XP.F.^./.,XXXtX(.< g F.).T.T.E.W.Q.E.R.Q.R.R.",
"R.R.R.R.!.!.!.Q.R.T./.M.f.OXOXq.N.j.' ;X-Xx j.B./.(.[.p.L.j.[.d.@X:.4XV./.i.V.# f.k.L.`.j.^ 1.1.=Xi pXg ).).R.Q.T.T.Q.R.Q.R.!.!.",
"n.T.R.!.!.R.`.L././.b.B.f.%XOX@Xj.j.X.eXv h././.).i.h [.b.T.D.Z.:.gX:.M.W.T.b.o o R.^.L.y.4X) <.r L././.i.T.R.R.R.W.T.R.R.R.H./.",
"c./.R.!.Q.`.iX%X>Xs./.R.j.(.q.f.V.L.o.U.a h./.c.C.d.f.z F.!.!.K.@X<.  m.H.}.. - T.].T.c.b.c.N.j.B.).v.v.T.R.R./.R./.R.T.R.R./.L.",
"/.b.!.`./.d.2 V y u M.i.(./.j.V.f.iXj.rXeXk.b.W.B.} 5Xe ).!.h P. .e.C.+ Q.H. XX R.T.W.u.B.B.k.-XV.y.).E.E.R.R.F.L.R.n.R.R.R./.R.",
"T.R.L.j.t u qX8X8XwXu r k.j.)./.N.K | -Xk.R.).T.v.W.b.b.i.i._./.f./.W.m.D.`.F.!.!.Q.Q._.j.>XP 2X[ <XV.).z.Q.F.`.R.R.T.E.R.n.R.T.",
"Y.!.(.l 9XqX2.>.2.,.8X9Xy iXg.k.@X( _ =Xa.).T.Q.Q.E.T.).V.k.c.i.`.D.R.R.R.].R.R.Q.{.Q.F.(./ W R R [ h.b.W.W.!.`.!.T.E.T.T.T.T.E.",
"(.(.j.0 &.*.%.#.F *.*.2.0 h.rX~ ( gXkX) ' iXF.W.u.R.Q.u.e vXe V.`.H.`.`.B.y.x.W.Q.D.^.F.w.>XW jXR 2XV.).E.E.R.F./.T.T.W.R.T.T.E.",
"j.a.(.v 1.D #.U @.#.#.1.3 P.5X/ ) lXhXY  .h.R.u.].u./._.xXxXvXf.I.|.L.L./.B._.v./.F.`.`.).^ E Q { [ a.v.E.Y.R.).R.R.R.v.R.R.R.Q.",
"b.).u.y.y 9 Z J B J C 2 iXZ.d.r.<.) _ , &XP./.).p.[.L.[.h zXz j.T.T.v.R.W.v.c.y.P.iXd.i.x.C.| %  .s._.W.Y.z.E.R./.T.R.E.R.R.R.`.",
"x.n.T.).j.yXH J H f h.'.i.i.B.M.6X~ P ,X# @ /.i.T.].F.  n.).j.j.B.y.).m.b.b._.k.:X0.5XB.x.W.g.; h.j.B.v.E.E.W.T.R.b.E.T.T.T.`.I.",
"^.F.`.`.H.J.f B J H pXD.I.(.H././.i.`.@ # (.Q.Q.Y.{.O !.. !.!.i.t.t.N.f.:X} :X*XXXcXq.f.B.R.H.-   d.(.i.).v.Q.T.v.E.E.E.z.Q.R.`.",
"Q.^.H.F.}.pXC Q Q 5 U.}.F.F.`.!.R.^.G. XX i.!.~.: S.O |.D. X`.(.e.+X=XXX8 8 d ;X&Xq.$ l (.R.> X pXj./.).L.'.i.R.^.z.E.W.`.p.R.!.",
"Q.Q.|.F.).s.N U T Z a.T.].!.D.W.E.Q.'.J./.  ^.Q.!.- p.L.L.i.rX@X#X+X<.5 &.5.dXd :X4 -X# x K.J.= g.B.} i.L.yXL.(.u.W.b.i.(.`.R.Q.",
"T.^.p.)./.*XN 4.*.N N.T.W.R.Q.R.T.].J.` (.* O !.F.= P.c (.k.r 5 1 +XoX5 B Z C 8 l k.} k.n P.yXi (.M u.[.P.i yXP./././.j.(.j.E.~.",
"S.W.B.B.b.a.V &.3.1 j.T.n.c.W.W.d.} V.k.| & /.h ).@ a >X%X0 fX<.W w q.6Xe.0 | -Xp P.L.(.p.T._./.i./.).W.i.U.a K.j./.j.rXo.F.Q.z.",
"^.b.M.} /.(.5 <.<.u j.).c.c.^.u.pXw.V.k.` %Xz (.'.i.p rX>Xy 6 7 f I -XN.g.< (.k.(.j.j.`.).p.B.j./.R.v.v.M '.g P.(.g j.M g./.T.W.",
"F.B.o.k.P.P.a.5Xk.a.(.F./.).F.R.8.).k.h.pXL.).i.F.`.U.U.g.:X>X4 g.p.j.P.yXv g././.i.(.k.h.tX&X| k.i.R.R.!.R.i./.L.b.)./.R.R.R.R.",
"`.R.L.P.} k.'.i.R.).j.sXj.L.R.R.W.B.| :Xj.R.k.k.j.`.!.D.iXiXh.n R.R.L.(.h.l L./.B.N.r 2 y q <X| k.L.i._.b.R.`.i./.B.u.b.n.v.[.R.",
"D.(.(.k p.(.J.x I./.iX(.j.x.[.R.M.6X+X~ /.B.+XO.N.i.!.!.aX,X-Xa `.L.g 5XrXx i.B.6 1 qXwX8XqX1 6 =Xt.a.B.* B.L.P.0.aXi.b.W.z.W.R.",
"!.F.F./._.R./.H.F.).N.s.iXj.i.B.N.@X=X~ B.B.+.1X+X .`.P.r e.tXv P.iXt r.-Xp (.r dX8X>.>.,.*.qXdX6 6Xt.V.y.y.'.h.tXq.Z.p.E.z.W.R.",
"H.}.R.v.E.E.8.~.R.C.*Xq 5 q iXj.V.5X>X} W.f.Q T 1XQ P ,X=X6Xd.k.q.&Xt.Z.t.:X:Xq =.-.,.G F -.*.*.V -Xl.j.B._.a.iX:Xq.f.(.W.).R.F.",
"!.Q.Q.).R.).j.R.v.B.r E oXfX4 V.V.j.k.B.b.k.Q @.#.U _ ,XOXN.b.B.,X;.N.w.l.;X-X9 =.#.F D D #.F 3.d h.iXB.B.j.r 2 0 &Xe.N./.F.R./.",
"G.!.R.y.:Xs H f k.k.2 q 8 0 l k.`.R.v./.'.-X1X! hX! &X*XM.M.m.C.N.;.6Xt.-XP.U.rXq V A Z J 9 V q yXI.i.i.k.r fX1.W q q.*Xj.!.T.W.",
"R.).y._.r fX6.{ 0 5Xk.*Xs -XrXP.D.].b.B.P.-X] [ W Y } j._.v.z.R.d.4X<.@XyXj H.I.k.=XH H H H -Xk.H.H.W.).k.3 7 V H H %Xk.(.R.T.T.",
"m.v.n.B.z q C H f s.y.V.H [ s.B.).y.6Xr.k.(.:XK % ~ ).Q.D.Q.^.T...:.1.#X< /.F.).M.f.9 J H 8 h.).!.Q.Q.p.(.*X=X2 :Xw.).n.D.R.T.W.",
"W.v.R.B.d.:X8 <X;X| V.5Xw [ rXb.b.N.q.;.6Xf.*X:X$ k.T.Q.!.`.R.b.d./ <.2 *XB.B.c.x.Z.9 { { f (.T.Q.Q.W.).M.6X@Xt i._.m.m.Q.R./.T.",
"Q.^.F.L.T.B.k -Xh.iXK ;X[ ,XOXd.d.w.xX<.<.4X@X@X$ # R.!.I.J.(.B.j.`.j.iXh.*Xk.j.E.B.q Q R C -Xi.R.W.c.C.5XOX>Xa B.R.~.Q.Q.R.R.R.",
"!.G. X XT.R.k :XP.< X.;XP <X4Xt.M.5X;., 1.<.:.& $ | K. Xi '.B.R.|.D.|.L.OX/ P iXx.j.q =.=.Z h./.b.c.n.M.e :X>Xa L.R.Q.Q.Q.!.R.T.",
"G. XK.i ].T.v s h.m eX} x f.*Xt.P.j.d.A.$ <.A.A.$ K tXp './.i.W.D.`.I.P.,XY L +X5X*X7 &.3.1 iXR.B.M.M.c.sXM.L.L.).!.Q.Q.T.T.m.E.",
"Q.R.U.'.u.!.h.-XP.J.K.L._.d.*Xq.L.`.c.Z.@Xt.M.c.k.X.-Xx L.T.v.Q.H.'.P.K L lXlXL K >X5 oX1.6 j.T.z lXe c.M.y.F.|.R.!.Q.!.R.n.W.v.",
"v.b.R.].E.8.).'.R./.I.I.i.V.@X=X'.D.Q.z.c.B./.n.u.).j.V.R.W.Q.D./.V.e._ ( lXkXE  .d.a.6Xr.A.)./.xXvXcX(.B.R.|.D.R.H.!./.R./.F./.",
"W.v.T.R.E.E.v.v.Q.R.I.'./.f./ ) s.'.T.{.E.T.!.!.H.R./.c.x.v.Q.{.).y.:X/ @X( _ , s.iX'.i.c.b.u./.g vX< j.(.D.Q.T.R./.R.R.R.R.R.B.",
"n.R.!.^.T.^.W.T.!.T.].i.h.=XY Y ,X,XF.T.Q.!.|.H. XI.M.M.C.C.Q.D.Q.R.b.d.5XK | -X= X ^.Q.^.].F.- y.C.Z.i.`.|.z.^.R.T.c.m.T.R.R.L.",
"T.^.D.!.Q.T.W.v.R.R.!.x. .L kXgXY P (.Q.G.~.G.H.I.x cXt w.C.R.Q.T.T.T.W.d.rXk.@ - F.Q.}.D.!.= j.+ n.i.'.H.D.].v.R.R.n.m.T.R.R.R.",
"R.T.R.R.R.R.n.T.R.!.`.B.| / kXlXL  .k.D.}.Q.D.R.d.xXcXcXw./.W.W.T.v.W.^.u./.F./.o /.F.^.o u.o T.R.R.b.R.R.R.R.R.R.R.R.n.T.T.R.R.",
"!.R.R.R.R.n.R.R.Q.R.R.k.*XOX( L % f.P.|.Q.Q.].b.N.z cXe _.R.u.b.^.R.v.b.B.R.i./.L.  `.).R.- /.T.R.R.R.R.R.T.R.R.R.R.T.Q.R.R.R.R.",
"Q.Q.R.R.b.R.R.Q.Q.!.R./.f.*X/ / :X@ . F.H.Q.W.b.* a.j.).v.R.T.[.e /.U.L.'.h.P.} P.= # K.k.= g.n R.R.R.R.R.Q.R.R.R.R.R.R.R.R.R.R.",
"!.R.R.R.R.R.R.R.Q.Q.R.`.j.d.5Xf.@ . |.F.|.`.u.* /.  ).R.R.R.).p.n J.g.(.g.o.eXP.} # P.p yX# x j./.R.R.R.R.R.R.R.Q.R.R.R.R.R.R.R.",
"!.!.!./.R.R.T.T.~.Q.^.8.].B.d.V.rX= J.`.b.+ '.  b.m.m.W.y.B.k.pXi.F.R.i.(.i.L./.} '.g (.i.'.h L.R.R.R.R.R.R.R.R.R.R.R.R.R.R.R.Q.",
"!.!.R.H.b.R.n.R.Q.Y.}.T.R.R.i.(.K.o.# i././.# K.R.n.x.M.7X:XrX} [.v.).).).R.F./.`.L./.R.i._.u.).R.R.R.Q.Q.R.R.R.R.R.T.T.R.R.R.T.",
"!.Q.R.R./.R.b.R.R.Q.T.{.Q.!.).i.k.k.| & d.h.X.aXf.f.4XOX,X/ k.R.v.T.u.T.n.R.^.i.b.W.u.).R.R.).T.R.R.R.R.T.R.R.R.R.R.R.Q.R.R.R.R.",
"!.!.R.R.R.b.R.R.T.T.R.Q.Q.!.R.).b.(.K :X-XX.; -X| ,X+X9XY P j.v.W.W.R.R.R.R.u.).T.R.`.9.R.R.v.R.R.R.R.R.R.T.R.R.R.R.R.R.R.R.R.R.",
"!.R.T.T.R.b.b.T.R.R.R.R.R.Q.!./.C.B.} *X3 X.-Xa f W N 3X@XA.b.m.T.R.R.R.R.R.R.R.R.!.R.R./.R.R.R.R.R.R.R.R.R.R.R.R.R.R.R.R.R.R.R.",
"R.T.R.n.b.R.b.b.n.R.R.R.R.!.!.R.R.R.c.V.-XuXiXh.;X9 1XW t.x.v.).R.R.R.R.R.R.R.R.R.R.R.R.R.R.!.R.R.R.R.R.Q.R.R.R.R.R.R.R.R.R.T.Q.",
"R.R.T.R.W.R.n.n.n.b./.F.R.H.R.H.D.!.R.i._.j.y.(.rXv tX7.c.m.).u.R.T.R.R.R.T.R.R.R.R.R.R.R.R.R.R.R.R.R.R.T.R.R.R.R.R.Q.R.R.R.R.T.",
"R.R.n.W.R.b.R.R.T.R.R.R./.R./.!.}.|.u.W.v.v.)./.I.7.!.T.^.E./.R.R.R.R.E.R.R.R.R.R.T.R.R.R.R.T.R.Q.R.R.R.R.T.R.R.R.R.T.R.R.R.R.R.",
"n.R.R.R.E.R.R.W.R.R.R.R.R.R.L.Q.H.Q.Q.T.W.b.W.b.}.!.{.Q.Q.Q.R._.R.R.R.R.R.R.R.R.R.R.R.R.R./.H.R.T.R.R.R.R.R.R.R.R.T.R.R.R.R.R.R.",
"T.R.R.R.R.R.Q.R.R.R.n.R.R.T.!.R.^.F.^.Q.W.v.b.m.T.Y.S.~.!.R.W.u.R.R.R.R.R.R.R.R.R.R.R.R.R.R.R.R.R.R.R.R.R.R.Q.T.R.Q.R.R.R.R.R.R.",
"R./.R.Q.Q.Q.W.Q.T.R.T.R.R.R.R.R.R.T.F.].D.D._./.).p.{.S.`.`.F.T.R.R.R.R.R.Q.R.R.R.R.R.R.R.T.R.R.T.Q.R.R.R.R.R.R.T.R.R.R.R.R.R.R.",
"/.R.!.R.!.Q.Q.Q.T.E.R.W.T.R.T.R.B.B.`.R.!.`.B.y.c.W.T.Q.!.].p._.R.R.R.R.R.R.T.R.R.T.R.T.R.R.R.T.R.R.R.R.R.R.R.R.R.R.R.R.R.R.T.Q."
};
