/* XPM */
static char *d2FsbF91cA__[] = {
/* columns rows colors chars-per-pixel */
"64 64 4 1 ",
"  c black",
". c #8A6F30",
"X c #A9A3A3",
"o c None",
/* pixels */
"                                                                ",
"                                                                ",
"                                                                ",
"                                                                ",
"                                                                ",
"                                                                ",
"                                                                ",
"                                                                ",
"                                                                ",
"                                                                ",
"                                                                ",
"                                                                ",
"                                                                ",
"                                                                ",
"                                                                ",
"                                                                ",
"                                                                ",
"                                                                ",
"                                                                ",
"                                                                ",
"                                                                ",
"                                                                ",
"                                                                ",
"                                                                ",
"                                                                ",
"                                                                ",
"                                                                ",
"                                                                ",
"                                                                ",
"                                                                ",
"                                                                ",
"                                                                ",
"                                                                ",
"                                                                ",
"                                                                ",
"                                                                ",
"                                                                ",
"                                                                ",
"                                                                ",
"                                                                ",
"                                                                ",
"                                                                ",
"                                                                ",
"                                                                ",
"                                                                ",
"                                                                ",
"                                                                ",
"                                                                ",
"                                                                ",
"                                                                ",
"                                            o                   ",
"                                      XXXXXX     XXXXX          ",
"                    X       X      XXXX   X                     ",
"XX.                 X  XX   X   o XXXX      X                  X",
"XXXXXX   X          X  XXXXXX    XXXXX     XXXXXX      X    XXXX",
"XXXXXXX  X     XXXXXXXXXXXXXX    XXXXXX    XX    XXXXXX  XXXXXXX",
"XX XXXXXXXXX XX XXXXXXXXXXXXXXXXXXXXXXXXXXXXXX         XXXXXXXXX",
"XXXXXXXXXX       XXXXXXXXXXXXXXXXXXXXXXXXXXXXXXXXXXXX XXXXXXXXXX",
"   XX     XXX      XXXXXXX       XXXXX XXXXX              XX XXX",
"XX XXXXXXXXXX       XXXXXXXXXXXXXXXXXXXXXXXXXXXXXXX     XXXXXXXX",
"X XXXXXXXX   X      X XXXX XXXXX X   XXXXXX        XXX X   XXXXX",
"X XXXXX   XXXXXXXXXX  XXXXXXXXXXXXXXXXXXXXXXXXXX   XXX  XXXXXXXX",
" XXXXXXXXXXXXXXXXXXXXXXXXXXXXXXXXXXXXXXXXXXXXX   XXXXXXXXXXXXXXX",
"XXXXXXXXXXXXXXXXXXXXXXXXXXXXXXXXXXXXXXXXXXXXXXXXXXXXXXXXXXXXXXXX"
};
