/* XPM */
static char *result[] = {
/* columns rows colors chars-per-pixel */
"64 64 4 1 ",
"  c black",
". c #8A6F30",
"X c #A9A3A3",
"o c None",
/* pixels */
"XXXXXXXXXXXXXXXXXXXXXXXXXXXXXXXXXXXXXXXXXXXXXXXXXXXXXXXXXXXXXXXX",
" XXXXXXXXXXXXXXXXXXXXXXXXXXXXXXXXXXXXXXXXXXXXX   XXXXXXXXXXXXXXX",
"X XXXXX   XXXXXXXXXX  XXXXXXXXXXXXXXXXXXXXXXXXXX   XXX  XXXXXXXX",
"X XXXXXXXX   X      X XXXX XXXXX X   XXXXXX        XXX X   XXXXX",
"XX XXXXXXXXXX       XXXXXXXXXXXXXXXXXXXXXXXXXXXXXXX     XXXXXXXX",
"   XXX    XXX      XXXXXXX       XXXXX XXXXX              XX XXX",
"XXXXXXXXXX       XXXXXXXXXXXXXXXXXXXXXXXXXXXXXXXXXXXX XXXXXXXXXX",
"XXXXXXXXXXXX XX XXXXXXXXXXXXXXXXXXXXXXXXXXXXXX         XXXXXXXXX",
"XXXXXXX  X     XXXXXXXXXXXXXX    XXXXXX    XX    XXXXXX  XXXXXXX",
"XXXXXX   X          X  XXXXXX    XXXXX     XXXXXX      X   XXXXX",
"XX.                 X  XX   X   o XXXX      X               XXXX",
"XX                  X       X      XXXX   X                  XXX",
"XX                                    XXXXXX     XXXXX    XX  XX",
"X                                           o              X   X",
"X                                                          XX  X",
"X                                                          XXX X",
"X                                                            XXX",
"X                                                              X",
"                                                               X",
"                                                               X",
"                                                                ",
"                                                                ",
"                                                                ",
"                                                                ",
"                                                                ",
"                                                                ",
"                                                                ",
"                                                                ",
"                                                                ",
"                                                                ",
"                                                                ",
"                                                                ",
"                                                                ",
"                                                                ",
"                                                                ",
"                                                                ",
"                                                                ",
"                                                                ",
"                                                                ",
"                                                                ",
"                                                                ",
"                                                                ",
"                                                                ",
"                                                                ",
"                                                                ",
"                                                                ",
"                                                                ",
"                                                                ",
"                                                                ",
"                                                                ",
"                                                                ",
"                                                                ",
"                                                                ",
"                                                                ",
"                                                                ",
"                                                                ",
"                                                                ",
"                                                                ",
"                                                                ",
"                                                                ",
"                                                                ",
"                                                                ",
"                                                                ",
"                                                                "
};
