/* XPM */
static char *result[] = {
/* columns rows colors chars-per-pixel */
"64 64 4 1 ",
"  c black",
". c #8A6F30",
"X c #A9A3A3",
"o c None",
/* pixels */
"                                                     XXXXX XXX X",
"                                                     XXXXX X  XX",
"                                                     .XX X  XXXX",
"                                                      XXXXXXXXXX",
"                                                      XXXXXXXXXX",
"                                                      XXXX XXXXX",
"                                                       XXX XXXXX",
"                                                        XX XX XX",
"                                                        XX XX XX",
"                                                      XXXX XX XX",
"                                                        X XX XXX",
"                                                        X XX XXX",
"                                                          XX XXX",
"                                                        X   XXXX",
"                                                        X    XXX",
"                                                       X     XXX",
"                                                       XX    XXX",
"                                                       XXX   XXX",
"                                                       XXX   XXX",
"                                                       XXXX  XXX",
"                                                    XXXXXXXXX XX",
"                                                       XXXXX  XX",
"                                                       XXXXXXXXX",
"                                                     XXXXXXXXXXX",
"                                                     XXXXXXXXXXX",
"                                                      XXXXXXXXXX",
"                                                      XXXX X XXX",
"                                                      XXXX XXXXX",
"                                                    XXXXXX XXXXX",
"                                                        XX XXXXX",
"                                                        XX XXXXX",
"                                                        XX XXXXX",
"                                                     o  XX X XXX",
"                                                      XXXXXXXXXX",
"                                                     XXXXXXX XXX",
"                                                    XXXXXXXX XXX",
"                                                    XXXXXXXX XXX",
"                                                    XXXXXXXXXXXX",
"                                                   XX  XXX XXXXX",
"                                                   X    XXXXXXXX",
"                                                   X    XXXXXXXX",
"                                                   X    XXXXXXXX",
"                                                   XX   XXXXXXXX",
"                                                   X  XXXXXX XXX",
"                                                  o  XXXXX X XXX",
"                                                      X XX X XXX",
"                                                      X  X X X X",
"                                                      X  X X X X",
"                                                      X  X X   X",
"                                                   X   X X X  XX",
"                                                   X   X X X  XX",
"                                                   X   X X  XXXX",
"                                                   X   X X  XXXX",
"                                                   X   X    XXXX",
"                                                       X X    XX",
"                                                      X XX  X XX",
"                                                        XX X XXX",
"                                                       XXX X XXX",
"                                                       XXXXX XXX",
"                                                       XXXXXXXXX",
"                                                      XXXX XXXXX",
"                                                      XXXXXXXXXX",
"                                                      XXXXXXXXXX",
"                                                     XXXXXXXXXXX"
};
